<svg xmlns="http://www.w3.org/2000/svg" width="66" height="201" viewBox="0 0 66 201" fill="none"><g clip-path="url(#clip0_2616_4368)"><mask id="mask0_2616_4368" style="mask-type:alpha" maskUnits="userSpaceOnUse" x="17" y="0" width="49" height="204"><path d="M20.973 0.097168H66.0001V203.097L17.0001 202.102L21.4145 171.254L20.973 0.097168Z" fill="#D9D9D9"></path></mask><g mask="url(#mask0_2616_4368)"><path d="M14.7054 28.9704C15.0771 25.6828 16.3501 22.5649 18.3814 19.9667C20.2738 17.7115 22.8612 16.149 24.8122 13.9445C26.8972 11.5964 28.1616 8.60644 30.3303 6.34284C34.7766 1.67204 40.6381 -1.25882 48.911 1.02168C54.7725 2.62647 59.9808 8.10812 61.4713 14.029C62.5849 18.3619 61.2201 22.9567 59.3276 27.0109C57.4352 31.0651 55.0069 34.8913 53.7844 39.1989C52.8986 42.2056 52.8782 45.4043 53.7258 48.4222C54.5631 51.3277 56.7403 53.4393 59.0011 55.2975C61.2619 57.1557 63.9163 59.1237 65.2393 61.8772C65.9618 63.5561 66.2568 65.3906 66.0974 67.2139C65.938 69.0371 65.3293 70.7912 64.3266 72.3167C62.2558 75.328 59.2279 77.536 55.7438 78.5754C51.9168 79.7354 47.8462 79.8041 43.9829 78.774C40.1196 77.7439 36.6144 75.6551 33.8556 72.7391C31.1767 69.7472 29.3383 66.0883 28.5302 62.1401C27.722 58.192 27.9735 54.0978 29.2585 50.2804C29.9535 48.2955 30.9332 46.2093 30.3722 44.1822C30.0654 43.298 29.5423 42.5062 28.8514 41.8802C28.1606 41.2542 27.3242 40.8142 26.4199 40.601C24.6163 40.2095 22.7519 40.198 20.9437 40.5672C19.7131 40.8279 18.4481 40.8793 17.2007 40.7192C16.3672 40.571 15.6067 40.1458 15.0404 39.5114C14.3286 38.6668 14.5045 37.6194 14.471 36.5805C14.3263 34.0418 14.4047 31.4952 14.7054 28.9704Z" fill="#464646"></path><path d="M42.4634 43.101C37.4979 37.67 28.6388 32.8219 23.2044 33.3962L26.6961 36.893C30.8403 38.1614 34.7993 39.9792 38.4692 42.2986L40.9394 43.574L42.4634 43.101Z" fill="#D32F6A"></path><path d="M40.772 44.5622C38.5208 41.9736 35.739 39.9094 32.619 38.5123C29.499 37.1151 26.1153 36.4185 22.702 36.4706C18.0831 36.6816 13.5419 37.7467 9.30447 39.6126C9.30447 39.6126 17.9794 55.0609 26.8888 58.8195C35.7981 62.5781 40.7803 48.5404 40.7803 48.5404C40.7803 48.5404 43.7445 47.8309 40.772 44.5622Z" fill="#FFF7FA"></path><path d="M41.1573 52.9493C41.1573 52.9493 46.8847 63.769 36.7612 66.2353L32.5745 77.7054L13.0727 71.1764C13.0727 71.1764 12.654 50.5084 13.1899 46.1754L41.1573 52.9493Z" fill="#FFF7FA"></path><path d="M36.8533 65.4498L32.7921 92.2161C32.7921 92.2161 14.5045 92.858 4.88336 76.1682L14.4961 67.6543L36.8533 65.4498Z" fill="#FFF7FA"></path><path d="M35.9323 42.7632C35.4885 44.6551 32.9681 43.4557 31.7455 42.6956C29.8783 41.5807 29.2837 40.6769 29.3759 39.5198L32.0889 21.8755L39.7925 33.6158L39.5329 34.0888L35.9323 42.7632Z" fill="#FFC0A4"></path><path d="M35.2707 37.5349C34.2176 36.6591 33.3078 35.6216 32.5745 34.4604C31.8511 33.3468 31.2102 32.1809 30.6569 30.9721L32.0553 21.8755L39.7589 33.6158L39.4993 34.0888L37.4059 39.1566C36.7026 38.6245 36.0159 38.1008 35.2707 37.5349Z" fill="#E37C58"></path><path d="M14.2448 124.346C14.2448 124.346 17.1672 128.569 16.3466 136.255C14.6719 151.872 17.9626 162.988 18.5571 167.211C19.562 174.373 21.0273 180.615 21.0692 187.642L28.4379 185.108C28.8063 177.642 28.2453 170.082 28.3541 162.608C28.5383 149.617 28.6723 136.483 29.4594 123.501C29.5683 121.415 14.2448 124.346 14.2448 124.346Z" fill="#FFC0A4"></path><path d="M21.0608 187.642L20.617 192.321L21.7139 195.387L27.1734 193.724L28.5132 190.261L28.4211 185.125L21.0608 187.642Z" fill="#FFC0A4"></path><path d="M39.2313 195.582C28.8566 192.98 28.5467 189.973 28.5467 189.973C28.3069 190.771 27.8758 191.496 27.2916 192.086C26.7073 192.675 25.988 193.11 25.1974 193.352C23.3217 193.926 20.6422 192.338 20.6422 192.338L19.8049 198.977L41.0149 199.214C41.0149 199.214 41.5173 196.156 39.2313 195.582Z" fill="#FF4588"></path><path d="M30.9917 192.49C30.4031 190.934 29.8999 189.347 29.4845 187.735C29.3086 186.89 26.3361 188.58 26.3193 189.365C26.3026 190.151 26.5789 194.433 30.9917 192.49Z" fill="#FF4588"></path><path d="M31.67 83.9474C32.566 92.6808 32.3483 128.882 32.3483 128.882C32.3483 128.882 22.5262 131.542 14.2197 130.225L13.7089 107.141L10.594 130.942C10.594 130.942 -1.4052 132.133 -7.50946 128.654L-4.46151 106.904C-4.46151 106.904 -5.89336 92.6977 -1.63127 84.944C2.63083 77.1903 31.67 83.9474 31.67 83.9474Z" fill="#2E7D81"></path><path d="M31.8291 86.0757C25.6287 89.2341 18.7526 90.8034 11.8082 90.6451C6.80271 90.5013 1.86757 89.4187 -2.74493 87.4524C-2.44275 86.5963 -2.07314 85.7659 -1.63963 84.9692C2.61409 77.2071 31.6616 83.9472 31.6616 83.9472C31.7286 84.5384 31.8291 85.2564 31.8291 86.0757Z" fill="#6A6034"></path><path d="M33.0265 12.1792C33.0265 12.1792 29.6017 8.80067 27.3241 13.6151C25.0466 18.4294 28.1615 20.5495 28.9988 21.3519C28.9988 21.3519 25.7834 30.4485 36.0158 35.8879C46.2482 41.3273 49.4134 32.6868 52.4948 27.5937C55.5762 22.5005 61.6135 14.0796 55.6348 9.37503C49.6562 4.67045 40.2863 -0.709841 33.0265 12.1792Z" fill="#FFC0A4"></path><path d="M56.6901 20.2961C56.186 18.0021 55.4654 15.7621 54.5381 13.6066C53.5333 11.191 52.2605 8.65711 49.9411 7.49152C48.4294 6.85473 46.796 6.56618 45.1598 6.64689C42.1659 6.46651 39.1639 6.82108 36.2923 7.69424C36.1165 7.88006 35.9323 8.06588 35.7564 8.27703L36.6607 10.0423C40.0003 11.7676 43.8668 12.1422 47.4709 11.0896C47.4374 14.5217 47.9202 17.9391 48.9028 21.2252C49.6606 23.5409 50.9686 25.6345 52.7127 27.3234C54.1788 25.0646 55.507 22.7178 56.6901 20.2961Z" fill="#F29D79"></path><path d="M38.3438 25.8114C38.0671 26.3002 37.6531 26.6952 37.1539 26.9466C36.6548 27.1981 36.0929 27.2946 35.5394 27.224C34.9859 27.1535 34.4655 26.919 34.044 26.5502C33.6226 26.1814 33.319 25.6949 33.1716 25.1521C33.0242 24.6093 33.0396 24.0346 33.2159 23.5007C33.3922 22.9667 33.7215 22.4975 34.1621 22.1522C34.6027 21.807 35.1349 21.6012 35.6914 21.561C36.2479 21.5208 36.8038 21.6478 37.2887 21.9261C37.9381 22.3014 38.4137 22.9209 38.6115 23.6491C38.8092 24.3772 38.7129 25.1547 38.3438 25.8114Z" fill="#F29D79"></path><path d="M44.674 18.2774C44.7661 18.2352 44.741 17.8551 44.4563 17.323C44.0672 16.621 43.4792 16.0522 42.7676 15.6895C42.056 15.3269 41.2532 15.1869 40.4622 15.2874C40.2249 15.3169 39.9934 15.3824 39.7755 15.4817C39.6248 15.5577 39.5578 15.6253 39.5662 15.6844C39.5746 15.7435 39.675 15.7689 39.8341 15.7858L40.4705 15.8449C41.1418 15.9142 41.7962 16.0999 42.4048 16.3939C43.0068 16.7121 43.5483 17.1353 44.0041 17.6439C44.3893 18.0325 44.5652 18.3196 44.674 18.2774Z" fill="#251B19"></path><path d="M48.576 20.5073C48.576 20.6171 48.9528 20.6171 49.4803 20.6762C50.1584 20.7431 50.8192 20.9319 51.4314 21.2337C52.025 21.5502 52.5603 21.9674 53.0139 22.4668L53.441 22.9482C53.5499 23.0665 53.6336 23.1256 53.6838 23.1003C53.7341 23.0749 53.7425 22.982 53.6838 22.8131C53.6317 22.5798 53.5471 22.3552 53.4326 22.1459C53.0407 21.447 52.4519 20.8812 51.7408 20.5204C51.0297 20.1595 50.2284 20.0197 49.4385 20.1187C48.844 20.2032 48.5174 20.4059 48.576 20.5073Z" fill="#251B19"></path><path d="M49.0869 31.952C48.8113 32.4439 48.3972 32.8423 47.897 33.0967C47.3968 33.351 46.8331 33.45 46.2771 33.3809C45.7211 33.3119 45.198 33.078 44.7739 32.7088C44.3498 32.3397 44.0438 31.8519 43.8947 31.3072C43.7457 30.7626 43.7602 30.1855 43.9364 29.6492C44.1127 29.1128 44.4427 28.6413 44.8848 28.2943C45.3269 27.9474 45.8612 27.7405 46.4199 27.7C46.9786 27.6595 47.5367 27.7871 48.0235 28.0667C48.3466 28.251 48.6305 28.4978 48.8588 28.793C49.0872 29.0881 49.2556 29.4259 49.3544 29.7868C49.4532 30.1477 49.4804 30.5247 49.4345 30.8963C49.3886 31.2678 49.2705 31.6266 49.0869 31.952Z" fill="#F29D79"></path><path d="M41.7516 20.8872C41.6009 21.1564 41.3745 21.3744 41.101 21.5137C40.8274 21.653 40.5191 21.7073 40.2149 21.6699C39.9107 21.6324 39.6244 21.5047 39.3922 21.3031C39.16 21.1015 38.9922 20.8349 38.9102 20.537C38.8282 20.2392 38.8356 19.9236 38.9315 19.63C39.0273 19.3364 39.2074 19.0781 39.4488 18.8878C39.6902 18.6974 39.9822 18.5836 40.2877 18.5606C40.5933 18.5376 40.8988 18.6066 41.1655 18.7588C41.5229 18.9627 41.7855 19.3015 41.8954 19.7006C42.0053 20.0997 41.9536 20.5266 41.7516 20.8872Z" fill="#251B19"></path><path d="M49.4134 25.2877C49.2619 25.5566 49.0348 25.774 48.7607 25.9126C48.4867 26.0512 48.178 26.1046 47.8738 26.0661C47.5697 26.0276 47.2836 25.899 47.052 25.6964C46.8203 25.4939 46.6535 25.2266 46.5725 24.9283C46.4916 24.6301 46.5001 24.3143 46.5972 24.021C46.6942 23.7277 46.8754 23.47 47.1177 23.2806C47.36 23.0912 47.6526 22.9785 47.9584 22.9569C48.2642 22.9353 48.5695 23.0058 48.8356 23.1593C49.0127 23.2601 49.1683 23.3954 49.2933 23.5572C49.4183 23.719 49.5104 23.9042 49.5641 24.1021C49.6178 24.3 49.6321 24.5066 49.6063 24.7101C49.5804 24.9136 49.5149 25.1099 49.4134 25.2877Z" fill="#251B19"></path><path d="M29.6102 12.7958C28.5301 13.7671 28.2286 15.3297 27.9942 16.7571C27.8684 17.1757 27.8684 17.6224 27.9942 18.0409C28.031 18.1408 28.0875 18.2321 28.1604 18.3092C28.2332 18.3864 28.3209 18.4477 28.4181 18.4896C28.5152 18.5315 28.6197 18.553 28.7254 18.5528C28.831 18.5526 28.9355 18.5308 29.0325 18.4886C29.3842 18.269 29.3842 17.7622 29.4009 17.3483C29.4177 16.9345 29.6102 16.4024 30.0205 16.3939C30.2131 16.3939 30.389 16.5206 30.5816 16.5291C31.0002 16.5291 31.2849 16.1152 31.4189 15.6844C31.6086 15.1396 31.7241 14.5713 31.7622 13.9952C31.8081 13.7114 31.7815 13.4205 31.6848 13.15C31.588 12.8795 31.4245 12.6384 31.2096 12.4495C30.9393 12.3392 30.6423 12.3132 30.3572 12.3749C30.072 12.4366 29.8119 12.5833 29.6102 12.7958Z" fill="#F29D79"></path><path d="M41.6597 26.7321C41.7183 26.6899 41.8271 26.7321 41.9695 26.825C42.121 26.9365 42.2912 27.0195 42.4719 27.07C42.5394 27.0952 42.6137 27.0952 42.6812 27.07C42.7257 27.0211 42.7599 26.9637 42.7817 26.9011C42.8738 26.6984 42.9743 26.2 43.1167 25.7862C43.6442 24.0462 44.3057 22.7117 44.5736 22.8046C44.8416 22.8975 44.649 24.3587 44.1131 26.0987C43.9952 26.5462 43.8296 26.9795 43.619 27.3909C43.5393 27.5236 43.4336 27.6385 43.3083 27.7286C43.1831 27.8186 43.0409 27.8819 42.8906 27.9146C42.6395 27.9599 42.3807 27.9119 42.1621 27.7795C41.9126 27.6224 41.7281 27.3793 41.6429 27.0953C41.5927 26.8842 41.601 26.7744 41.6597 26.7321Z" fill="#E37C58"></path><path d="M39.6163 26.3774C39.9094 26.4196 40.0099 27.4416 40.7049 28.396C41.3999 29.3505 42.2791 29.8235 42.2205 30.0853C42.2205 30.2204 41.8688 30.288 41.3831 30.1444C40.7645 29.9225 40.2294 29.5125 39.8515 28.971C39.4735 28.4294 39.2714 27.7829 39.273 27.1207C39.3065 26.6477 39.4823 26.3689 39.6163 26.3774Z" fill="#E37C58"></path><path d="M38.4692 42.2986L27.5251 92.8242L33.286 93.9223L37.6905 69.2845C37.6905 69.2845 41.7935 66.3198 42.7146 63.2876C43.6357 60.2554 41.8772 46.395 41.8772 46.395L38.4692 42.2986Z" fill="#FF4588"></path><path d="M40.772 44.8831C49.6227 52.3834 48.2076 58.2282 48.911 69.4871L46.8176 70.0614C46.8176 70.0614 38.0506 74.5886 34.8854 74.3521L40.772 44.8831Z" fill="#FF4588"></path><path d="M38.4693 42.2986C38.4693 42.2986 41.8187 42.2986 42.4635 43.101C43.1082 43.9034 42.7733 50.0354 41.8689 50.1198C41.4251 50.1621 38.4693 42.2986 38.4693 42.2986Z" fill="#D32F6A"></path><path d="M26.6962 36.8929C26.6962 36.8929 30.9248 52.0962 9.73154 85.8813L0.185794 76.0414L10.4433 66.1762L11.423 49.0133L1.60091 54.3682L-2.76166 41.0062C-2.76166 41.0062 8.81048 35.4908 9.85717 35.0938C10.9038 34.6968 23.8743 35.778 23.8743 35.778L26.6962 36.8929Z" fill="#FF4588"></path><path d="M26.6962 36.893C26.6962 36.893 24.4689 34.3591 23.5562 33.4638C22.6435 32.5685 19.1015 38.5316 19.7212 39.5958C20.3408 40.66 26.6962 36.893 26.6962 36.893Z" fill="#D32F6A"></path><path d="M19.788 198.96L19.3359 200.928L40.9059 201.173L41.0064 199.197L19.788 198.96Z" fill="#FCDCE8"></path><path d="M31.9464 10.4983C32.4109 11.2847 32.7172 12.1556 32.848 13.0613C32.9787 13.9671 32.9313 14.89 32.7083 15.7773C32.2481 17.5499 31.4951 19.2318 30.481 20.7521C33.2383 17.7497 35.5817 14.3859 37.4477 10.7517C41.1734 11.6844 45.1092 11.1972 48.5007 9.38344C47.9312 12.7058 48.3559 16.124 49.7205 19.2019C51.0851 22.2797 53.3278 24.8778 56.1624 26.6645C57.6398 24.5192 58.7546 22.1417 59.4616 19.6288C60.1647 17.1007 60.0413 14.4114 59.1099 11.9596C57.835 9.22498 55.6643 7.01749 52.9638 5.7093C49.4649 3.82431 45.4418 3.17323 41.534 3.85957C37.6007 4.72338 34.1592 7.10643 31.9464 10.4983Z" fill="#464646"></path></g><path d="M19.6254 15.7435C19.0811 19.0545 18.5871 22.3739 18.0847 25.6932C21.7522 27.543 23.3767 28.413 23.7702 26.9095C24.214 25.2203 22.3551 23.8182 22.3551 23.8182C22.3551 23.8182 24.1554 21.9938 22.7403 20.9127C21.3252 19.8315 22.5059 20.3636 22.1207 17.5341C21.8276 15.2283 20.7809 15.9462 19.6254 15.7435Z" fill="#FFC0A4"></path><path d="M21.4424 27.3065C17.4399 26.0902 13.7472 22.5765 17.9004 22.1542C17.9004 22.1542 14.685 18.176 19.0811 18.7757C19.0811 18.7757 16.008 14.0542 20.9651 15.8026L21.4424 27.3065Z" fill="#FFC0A4"></path><path d="M35.6103 73.0177L45.8176 70.0615C45.8176 70.0615 42.1667 86.4388 38.2982 87.6466C34.1958 88.9246 31.7994 89.4596 29.4927 89.4596C26.9807 86.9257 26.8158 87.1627 25.3193 82.5789L30.7621 80.8896L35.6103 73.0177Z" fill="#FFC0A4"></path><path d="M31.7994 79.7715L15.1913 85.3076C16.664 85.6021 13.7304 85.0116 15.1913 85.3076C12.8846 84.8462 8.57239 84.6904 6.89769 84.6904C5.223 84.6904 3.60011 85.5266 2.71096 86.9158C1.63762 88.5904 0.283891 93.0495 0.61758 94.0593C1.35122 95.4571 2.27387 94.073 2.27387 94.073C2.27387 94.073 4.38564 91.025 4.38564 90.1804C3.65787 93.1503 6.47893 91.8697 6.47893 91.8697C6.47893 91.8697 8.42068 93.1038 10.1166 91.7664C12.1114 92.1949 14.1933 90.6419 16.4999 90.1804C18.6393 89.7862 28.1166 90.6875 32.7221 88.9982C37.7461 85.6758 31.7994 79.7715 31.7994 79.7715Z" fill="#FFC0A4"></path></g><defs><clipPath id="clip0_2616_4368"><rect width="66" height="201" fill="white"></rect></clipPath></defs></svg>