<svg xmlns="http://www.w3.org/2000/svg" width="100" height="77" viewBox="0 0 100 77" fill="none"><g clip-path="url(#clip0_2731_8333)"><path d="M77.8267 0.71877H22.2419C21.7862 0.717622 21.3347 0.806327 20.9134 0.979798C20.492 1.15327 20.1091 1.40809 19.7866 1.72966C19.4641 2.05123 19.2083 2.43321 19.0339 2.85372C18.8595 3.27422 18.7699 3.72497 18.7703 4.18011V19.6094L50.9816 29.0547L81.3013 19.6094V4.18011C81.3017 3.72472 81.2121 3.27374 81.0375 2.85304C80.8629 2.43235 80.6068 2.05023 80.284 1.72863C79.9611 1.40702 79.5779 1.15226 79.1562 0.978959C78.7345 0.80566 78.2827 0.717239 77.8267 0.71877Z" fill="#42E8B2"></path><path d="M81.3013 19.6095H18.7703V38.5001L50.9816 44.1673L81.3013 38.5001V19.6095Z" fill="#19CE99"></path><path d="M18.7703 38.5001V57.3907L49.0871 61.1689L81.3013 57.3907V38.5001H18.7703Z" fill="#19BE93"></path><path d="M22.2419 76.2812H77.8238C78.2801 76.2832 78.7322 76.195 79.1542 76.0219C79.5762 75.8488 79.9598 75.5941 80.283 75.2724C80.6061 74.9508 80.8624 74.5685 81.0372 74.1476C81.212 73.7268 81.3017 73.2755 81.3013 72.8199V57.3906H18.7703V72.8199C18.7699 73.2751 18.8595 73.7258 19.0339 74.1463C19.2083 74.5668 19.4641 74.9488 19.7866 75.2704C20.1091 75.5919 20.492 75.8468 20.9134 76.0202C21.3347 76.1937 21.7862 76.2824 22.2419 76.2812Z" fill="#1BA78A"></path><path opacity="0.1" d="M41.8237 15.8313H18.7703V63.0579H41.8237C42.7423 63.0533 43.6221 62.6874 44.2725 62.0395C44.9229 61.3916 45.2914 60.5139 45.2983 59.5965V19.2926C45.2914 18.3753 44.9229 17.4975 44.2725 16.8496C43.6221 16.2017 42.7423 15.8359 41.8237 15.8313Z" fill="black"></path><path opacity="0.2" d="M39.9293 17.7203H18.7703V64.9468H39.9293C40.8479 64.9423 41.7277 64.5764 42.3781 63.9285C43.0284 63.2806 43.397 62.4029 43.4039 61.4855V21.1816C43.397 20.2642 43.0284 19.3865 42.3781 18.7386C41.7277 18.0907 40.8479 17.7248 39.9293 17.7203Z" fill="black"></path><path opacity="0.2" d="M39.9293 17.7203H18.7703V61.1687H39.9293C40.8479 61.1642 41.7277 60.7983 42.3781 60.1504C43.0284 59.5025 43.397 58.6248 43.4039 57.7074V21.1816C43.397 20.2642 43.0284 19.3865 42.3781 18.7386C41.7277 18.0907 40.8479 17.7248 39.9293 17.7203Z" fill="black"></path><path opacity="0.2" d="M38.0348 17.7203H18.7703V61.1687H38.0348C38.9534 61.1642 39.8332 60.7983 40.4836 60.1504C41.134 59.5025 41.5025 58.6248 41.5094 57.7074V21.1816C41.5025 20.2642 41.134 19.3865 40.4836 18.7386C39.8332 18.0907 38.9534 17.7248 38.0348 17.7203Z" fill="black"></path><path d="M3.29467 17.7203H38.0348C38.955 17.7195 39.838 18.0837 40.4895 18.7327C41.141 19.3818 41.5079 20.2626 41.5094 21.1816V55.8183C41.5079 56.7374 41.141 57.6182 40.4895 58.2672C39.838 58.9163 38.955 59.2804 38.0348 59.2797H3.29467C2.83868 59.2812 2.38688 59.1928 1.9652 59.0195C1.54352 58.8462 1.16026 58.5914 0.837426 58.2698C0.514589 57.9482 0.258529 57.5661 0.0839433 57.1454C-0.0906425 56.7247 -0.180316 56.2737 -0.17993 55.8183V21.1816C-0.180316 20.7262 -0.0906425 20.2753 0.0839433 19.8546C0.258529 19.4339 0.514589 19.0518 0.837426 18.7302C1.16026 18.4085 1.54352 18.1538 1.9652 17.9805C2.38688 17.8072 2.83868 17.7188 3.29467 17.7203Z" fill="#1D6662"></path><path d="M14.0794 44.2775C14.1473 44.8123 14.1919 45.2782 14.2133 45.6754H14.2947C14.3238 45.2976 14.3869 44.8423 14.4839 44.3095C14.6294 43.5103 14.6643 43.3272 14.7429 42.9581L18.395 27.244H23.1209L26.904 42.7227C27.1224 43.6805 27.2799 44.6512 27.3754 45.6289H27.4394C27.512 44.6772 27.6432 43.7309 27.8323 42.7953L30.8558 27.2236H35.154L29.846 49.7413H24.8204L21.2207 34.8438C21.1159 34.4137 20.9976 33.8538 20.8656 33.164C20.7337 32.4743 20.6522 31.9705 20.6212 31.6528H20.5601C20.5193 32.0189 20.4379 32.5624 20.3156 33.2832C20.1934 34.0039 20.0964 34.5387 20.0246 34.8874L16.6402 49.75H11.5302L6.19318 27.244H10.5582L13.8495 42.99C13.9454 43.4155 14.0222 43.8451 14.0794 44.2775Z" fill="white"></path></g><defs><clipPath id="clip0_2731_8333"><rect width="100" height="77" fill="white"></rect></clipPath></defs></svg>