<svg xmlns="http://www.w3.org/2000/svg" width="27" height="41" viewBox="0 0 27 41" fill="none"><path fill-rule="evenodd" clip-rule="evenodd" d="M13.4519 0.097168C13.9634 0.097168 14.4539 0.30236 14.8156 0.667606C15.1773 1.03285 15.3805 1.52823 15.3805 2.04477V33.4511L23.6605 25.0894C23.837 24.8981 24.0499 24.7446 24.2865 24.6381C24.5231 24.5317 24.7785 24.4744 25.0374 24.4698C25.2964 24.4652 25.5536 24.5133 25.7937 24.6113C26.0339 24.7092 26.252 24.855 26.4351 25.04C26.6183 25.2249 26.7626 25.4452 26.8596 25.6877C26.9566 25.9302 27.0043 26.19 26.9997 26.4515C26.9951 26.713 26.9384 26.9709 26.833 27.2098C26.7276 27.4487 26.5757 27.6637 26.3862 27.842L14.8147 39.5276C14.4531 39.8923 13.963 40.0972 13.4519 40.0972C12.9408 40.0972 12.4506 39.8923 12.089 39.5276L0.517607 27.842C0.176945 27.4728 -0.00851495 26.9845 0.000300464 26.4799C0.00911588 25.9754 0.211518 25.494 0.564866 25.1371C0.918214 24.7803 1.39492 24.5759 1.89455 24.567C2.39418 24.5581 2.87773 24.7454 3.24332 25.0894L11.5233 33.4511V2.04477C11.5233 1.52823 11.7265 1.03285 12.0882 0.667606C12.4499 0.30236 12.9404 0.097168 13.4519 0.097168Z" fill="#CCF3E9"></path></svg>