<svg xmlns="http://www.w3.org/2000/svg" width="128" height="34" viewBox="0 0 128 34" fill="none"><path d="M49.0269 6.32031C50.7375 6.32031 52.2145 6.64312 53.4654 7.28123C54.7163 7.91934 55.7713 8.86525 56.6303 10.1039L54.558 12.0858C53.8271 10.9748 53.0057 10.179 52.0939 9.69104C51.1821 9.20307 50.1045 8.96284 48.8536 8.96284C47.9342 8.96284 47.1731 9.09046 46.5778 9.3382C45.9825 9.58593 45.5455 9.91625 45.2666 10.3291C44.9878 10.742 44.8522 11.2075 44.8522 11.718C44.8522 12.311 45.0556 12.829 45.4701 13.2645C45.8846 13.7074 46.6532 14.0527 47.7911 14.3004L51.6493 15.1638C53.4955 15.5692 54.7992 16.1772 55.5678 17.003C56.3365 17.8288 56.7208 18.8648 56.7208 20.1335C56.7208 21.2971 56.4043 22.3106 55.7713 23.1739C55.1383 24.0372 54.2566 24.6979 53.1338 25.1558C52.011 25.6138 50.6923 25.8465 49.1701 25.8465C47.8287 25.8465 46.6155 25.6738 45.5379 25.3285C44.4603 24.9832 43.5184 24.5177 42.7121 23.9246C41.9057 23.3316 41.2426 22.6559 40.7227 21.8902L42.8552 19.7657C43.2622 20.4338 43.767 21.0344 44.385 21.5599C45.0029 22.0854 45.7112 22.4908 46.5326 22.776C47.3465 23.0613 48.2583 23.204 49.253 23.204C50.1346 23.204 50.8957 23.0989 51.5438 22.8886C52.1843 22.6784 52.6741 22.3707 53.0132 21.9578C53.3523 21.5449 53.5181 21.0569 53.5181 20.4788C53.5181 19.9233 53.3297 19.4353 52.953 19.0149C52.5762 18.5945 51.8829 18.2717 50.8656 18.039L46.6909 17.0931C45.5379 16.8454 44.5884 16.4925 43.8424 16.0346C43.0964 15.5767 42.5387 15.0136 42.1695 14.353C41.8078 13.6924 41.6194 12.9491 41.6194 12.1309C41.6194 11.0573 41.9133 10.0889 42.5011 9.21808C43.0888 8.34725 43.9328 7.64908 45.0481 7.12358C46.1634 6.59057 47.4896 6.32031 49.0269 6.32031Z" fill="#133B49"></path><path d="M58.957 31.5755V11.201H61.6925L61.9261 15.2173L61.5191 14.7294C61.7527 13.9861 62.1069 13.3255 62.5817 12.7475C63.0639 12.1769 63.6593 11.7265 64.3827 11.3962C65.1061 11.0734 65.8973 10.9082 66.7564 10.9082C67.9244 10.9082 68.9945 11.2085 69.9515 11.7941C70.9085 12.3871 71.6696 13.2354 72.2273 14.3315C72.7849 15.435 73.0637 16.7638 73.0637 18.3328C73.0637 19.9018 72.7774 21.2456 72.2122 22.3642C71.647 23.4827 70.8784 24.3385 69.9063 24.9316C68.9342 25.5247 67.8566 25.8175 66.666 25.8175C65.4377 25.8175 64.3902 25.4946 63.5236 24.8565C62.657 24.2184 62.0466 23.4001 61.6774 22.4017L62.024 21.9137V31.5529H58.957V31.5755ZM66.0179 23.3401C67.2688 23.3401 68.2409 22.8972 68.9417 22.0188C69.6425 21.1405 69.9967 19.9243 69.9967 18.3778C69.9967 16.8314 69.6501 15.6077 68.9568 14.7218C68.2635 13.836 67.3065 13.3856 66.0782 13.3856C65.2719 13.3856 64.5635 13.5883 63.9607 14.0012C63.3578 14.4141 62.8831 14.9846 62.5515 15.7203C62.2124 16.456 62.0466 17.3419 62.0466 18.3778C62.0466 19.3913 62.2124 20.2697 62.5364 21.0204C62.8605 21.7636 63.3202 22.3416 63.9155 22.7395C64.5108 23.1374 65.2116 23.3401 66.0179 23.3401Z" fill="#133B49"></path><path d="M77.5098 8.79021C76.8391 8.79021 76.3267 8.62505 75.9725 8.28723C75.6184 7.9494 75.4375 7.47645 75.4375 6.86837C75.4375 6.25278 75.6184 5.78734 75.9725 5.46453C76.3267 5.14172 76.8391 4.97656 77.5098 4.97656C78.1654 4.97656 78.6627 5.14172 79.0245 5.46453C79.3786 5.78734 79.5595 6.26029 79.5595 6.86837C79.5595 7.48396 79.3786 7.95691 79.0245 8.28723C78.6627 8.62505 78.1579 8.79021 77.5098 8.79021ZM79.032 11.2V25.5462H75.9499V11.2H79.032Z" fill="#133B49"></path><path d="M82.7773 25.5472V11.201H85.5128L85.7162 14.932L85.3093 14.5267C85.5806 13.7009 85.9649 13.0177 86.4773 12.4772C86.9822 11.9292 87.5926 11.5388 88.2934 11.2836C88.9942 11.0358 89.7403 10.9082 90.524 10.9082C91.5413 10.9082 92.4606 11.1034 93.2745 11.4938C94.0883 11.8841 94.7364 12.4772 95.2186 13.2579C95.7009 14.0462 95.9421 15.0371 95.9421 16.2458V25.5397H92.86V17.1992C92.86 15.7804 92.5661 14.8044 91.9783 14.2564C91.3906 13.7084 90.6596 13.4381 89.7779 13.4381C89.1449 13.4381 88.527 13.5883 87.9317 13.881C87.3364 14.1813 86.839 14.6543 86.4472 15.2999C86.0553 15.953 85.8594 16.8239 85.8594 17.9124V25.5472H82.7773Z" fill="#133B49"></path><path d="M105.874 25.8389C104.435 25.8389 103.169 25.5462 102.069 24.9531C100.976 24.36 100.124 23.5042 99.5215 22.3856C98.9186 21.2671 98.6172 19.9308 98.6172 18.3843C98.6172 16.8378 98.9186 15.5016 99.5215 14.383C100.124 13.2644 100.968 12.4086 102.038 11.8155C103.116 11.2225 104.329 10.9297 105.693 10.9297C107.095 10.9297 108.285 11.215 109.265 11.793C110.245 12.3636 110.991 13.1518 111.511 14.1428C112.031 15.1412 112.287 16.2673 112.287 17.5285C112.287 17.8738 112.279 18.1966 112.257 18.5044C112.234 18.8122 112.211 19.075 112.174 19.3077H100.592V16.9579H110.817L109.288 17.4159C109.288 16.1171 108.964 15.1187 108.308 14.4205C107.652 13.7224 106.763 13.3695 105.633 13.3695C104.804 13.3695 104.088 13.5647 103.47 13.9401C102.852 14.3229 102.385 14.8935 102.061 15.6442C101.737 16.4024 101.571 17.3258 101.571 18.4143C101.571 19.4879 101.744 20.3962 102.091 21.1394C102.438 21.8827 102.928 22.4532 103.561 22.8361C104.194 23.2189 104.94 23.4066 105.806 23.4066C106.763 23.4066 107.547 23.2264 108.142 22.8586C108.738 22.4982 109.205 21.9878 109.551 21.3346L112 22.4832C111.654 23.1739 111.187 23.767 110.606 24.2774C110.019 24.7879 109.325 25.1708 108.519 25.4411C107.713 25.7113 106.839 25.8389 105.874 25.8389Z" fill="#133B49"></path><path d="M120.599 25.8386C119.159 25.8386 117.841 25.5609 116.65 25.0053C115.459 24.4498 114.517 23.6691 113.824 22.6556L115.957 20.8163C116.379 21.6046 116.989 22.2277 117.788 22.6931C118.587 23.1586 119.536 23.3988 120.651 23.3988C121.533 23.3988 122.234 23.2487 122.754 22.9409C123.274 22.6331 123.53 22.2052 123.53 21.6496C123.53 21.2893 123.41 20.9665 123.168 20.6887C122.927 20.4109 122.475 20.1932 121.797 20.0431L118.775 19.4125C117.238 19.1047 116.145 18.6167 115.49 17.9336C114.834 17.2579 114.51 16.3871 114.51 15.3361C114.51 14.5553 114.744 13.8272 115.203 13.159C115.663 12.4909 116.341 11.9504 117.23 11.5375C118.12 11.1246 119.197 10.9219 120.44 10.9219C121.88 10.9219 123.108 11.1771 124.125 11.6801C125.143 12.1906 125.919 12.9113 126.461 13.8497L124.329 15.6289C123.967 14.8631 123.425 14.2926 122.716 13.9247C122.008 13.5494 121.269 13.3617 120.501 13.3617C119.883 13.3617 119.355 13.4368 118.918 13.5944C118.474 13.7446 118.142 13.9548 117.909 14.225C117.675 14.4953 117.562 14.8106 117.562 15.1709C117.562 15.5538 117.705 15.8916 117.991 16.1769C118.278 16.4622 118.798 16.6874 119.544 16.8375L122.829 17.5282C124.208 17.7984 125.188 18.2489 125.753 18.8945C126.318 19.5326 126.605 20.3134 126.605 21.2367C126.605 22.1601 126.363 22.9634 125.881 23.6616C125.399 24.3597 124.713 24.9002 123.809 25.2831C122.92 25.6434 121.842 25.8386 120.599 25.8386Z" fill="#133B49"></path><path d="M6.51729 1.31288C8.04702 0.757344 9.70486 0.922502 11.2949 0.892474C13.0884 0.922502 14.8894 0.824909 16.6828 0.952531C16.0875 1.20027 15.4696 1.38795 14.8818 1.64319C12.5533 2.7017 10.8201 4.93884 10.3605 7.43873C10.0892 9.21793 10.2625 11.1248 11.1366 12.7313C12.1464 14.7582 14.0981 16.2897 16.3136 16.8002C16.6301 16.8828 16.9466 16.9653 17.2631 17.0704C14.701 17.123 12.1313 17.0629 9.56922 17.1005C7.48185 17.2281 5.37188 16.4398 3.79693 15.0885C1.55886 13.1292 0.526477 9.89358 1.29511 7.01082C1.9281 4.39833 3.95518 2.16119 6.51729 1.31288Z" fill="#133B49"></path><path d="M19.1635 17.0497C22.1024 17.0572 25.0488 17.0347 27.9877 17.0572C31.8912 17.3425 35.1918 20.9234 35.2294 24.8046C35.4329 28.1978 33.1722 31.5836 29.9394 32.6946C29.0201 33.0625 28.0179 33.2051 27.0307 33.1676C24.4083 33.1526 21.7784 33.1601 19.1484 33.1676C19.9171 32.9424 20.7083 32.7622 21.4393 32.4244C23.5718 31.4409 25.192 29.4666 25.8024 27.2144C26.3902 24.8121 25.9682 22.1245 24.4008 20.1652C23.1574 18.4685 21.1981 17.4701 19.1635 17.0497Z" fill="#133B49"></path><path d="M12.9396 7.35014C13.5726 5.17306 15.6826 3.42389 18.0036 3.46893C23.4443 3.47644 28.8925 3.4389 34.3408 3.49145C33.6626 4.26469 32.8261 4.93283 32.4192 5.90876C31.4772 7.76304 31.432 10.0227 32.3438 11.892C32.7809 12.9055 33.5797 13.6862 34.3257 14.4745C29.209 14.6171 24.0923 14.497 18.9832 14.542C17.6418 14.572 16.2176 14.3994 15.1023 13.5811C13.1205 12.2598 12.1861 9.60229 12.9396 7.35014Z" fill="url(#paint0_linear_13060_3284)"></path><path d="M1.11691 19.5553C6.61791 19.5103 12.1264 19.5628 17.635 19.5253C18.6448 19.5028 19.6771 19.683 20.5814 20.1409C22.9325 21.282 24.191 24.2248 23.3696 26.7097C22.7215 29.0894 20.28 30.8161 17.8234 30.6735C12.2546 30.6359 6.6782 30.696 1.10938 30.6434C1.46355 30.2531 1.86294 29.9152 2.23972 29.5399C4.15376 27.3853 4.42505 23.9771 2.88778 21.5447C2.47332 20.7415 1.71976 20.216 1.11691 19.5553Z" fill="url(#paint1_linear_13060_3284)"></path><defs><linearGradient id="paint0_linear_13060_3284" x1="12.6777" y1="9.00237" x2="34.3375" y2="9.00237" gradientUnits="userSpaceOnUse"><stop stop-color="#40C1AC"></stop><stop offset="1" stop-color="#04DDA6"></stop></linearGradient><linearGradient id="paint1_linear_13060_3284" x1="1.11644" y1="25.1058" x2="23.6268" y2="25.1058" gradientUnits="userSpaceOnUse"><stop stop-color="#04DDA6"></stop><stop offset="1" stop-color="#40C1AC"></stop></linearGradient></defs></svg>