<svg xmlns="http://www.w3.org/2000/svg" width="49" height="20" viewBox="0 0 49 20" fill="none"><path d="M9.55036 2.98954C8.99874 3.6423 8.11614 4.15714 7.23355 4.08359C7.12322 3.201 7.55533 2.26324 8.06098 1.68404C8.6126 1.01289 9.57794 0.534822 10.3594 0.498047C10.4513 1.41742 10.0928 2.3184 9.55036 2.98954ZM10.3502 4.25827C9.07229 4.18473 7.97824 4.98458 7.37145 4.98458C6.75547 4.98458 5.82691 4.29505 4.8156 4.31344C3.5009 4.33182 2.27814 5.07652 1.60699 6.2625C0.227938 8.63448 1.24844 12.1465 2.58153 14.0772C3.23428 15.0333 4.01575 16.0814 5.04544 16.0446C6.01998 16.0078 6.40611 15.4102 7.58291 15.4102C8.76889 15.4102 9.10906 16.0446 10.1388 16.0262C11.2052 16.0078 11.8764 15.0701 12.5291 14.1139C13.2738 13.0291 13.5772 11.9718 13.5956 11.9166C13.5772 11.8982 11.5362 11.1168 11.5178 8.76319C11.4994 6.79574 13.1267 5.85798 13.2003 5.80282C12.2809 4.44215 10.8467 4.29505 10.3502 4.25827ZM17.7328 1.5921V15.9251H19.9576V11.0248H23.0375C25.8508 11.0248 27.8275 9.09417 27.8275 6.29928C27.8275 3.50439 25.8876 1.5921 23.1111 1.5921H17.7328ZM19.9576 3.46762H22.5227C24.4534 3.46762 25.5566 4.49731 25.5566 6.30847C25.5566 8.11963 24.4534 9.15852 22.5135 9.15852H19.9576V3.46762ZM31.8911 16.0354C33.2885 16.0354 34.5848 15.3275 35.1732 14.2059H35.2192V15.9251H37.2786V8.79077C37.2786 6.72219 35.6237 5.3891 33.0771 5.3891C30.7143 5.3891 28.9675 6.74058 28.9031 8.59771H30.9074C31.0728 7.71511 31.8911 7.13591 33.0127 7.13591C34.3734 7.13591 35.1365 7.77027 35.1365 8.93787V9.72853L32.36 9.89402C29.7765 10.0503 28.3791 11.1076 28.3791 12.9463C28.3791 14.8035 29.8225 16.0354 31.8911 16.0354ZM32.4887 14.3346C31.3027 14.3346 30.5488 13.7646 30.5488 12.8912C30.5488 11.9902 31.2751 11.4661 32.6633 11.3834L35.1365 11.2271V12.0362C35.1365 13.3784 33.9964 14.3346 32.4887 14.3346ZM40.0275 19.8232C42.1972 19.8232 43.2177 18.9958 44.1095 16.4859L48.0168 5.52701H45.7552L43.135 13.9944H43.089L40.4688 5.52701H38.1428L41.9122 15.9619L41.71 16.5962C41.3698 17.6719 40.8182 18.0856 39.8344 18.0856C39.6598 18.0856 39.3196 18.0672 39.1817 18.0488V19.7681C39.3104 19.8048 39.862 19.8232 40.0275 19.8232Z" fill="black"></path></svg>