<svg xmlns="http://www.w3.org/2000/svg" width="32" height="26" viewBox="0 0 32 26" fill="none"><path d="M5.70079 25.3602V23.7338C5.70079 23.1117 5.32408 22.7043 4.6774 22.7043C4.35406 22.7043 4.00247 22.8117 3.76074 23.1654C3.57239 22.8685 3.30242 22.7043 2.89746 22.7043C2.62748 22.7043 2.35751 22.7864 2.14404 23.0833V22.758H1.57898V25.3602H2.14404V23.9233C2.14404 23.4622 2.38576 23.2443 2.76247 23.2443C3.13918 23.2443 3.32753 23.4875 3.32753 23.9233V25.3602H3.89259V23.9233C3.89259 23.4622 4.16257 23.2443 4.51102 23.2443C4.88773 23.2443 5.07608 23.4875 5.07608 23.9233V25.3602H5.70079ZM14.0825 22.758H13.1659V21.9717H12.6008V22.758H12.0891V23.2728H12.6008V24.4665C12.6008 25.0633 12.8425 25.4138 13.4892 25.4138C13.7309 25.4138 14.0009 25.3317 14.1893 25.2244L14.026 24.7349C13.8628 24.8422 13.6744 24.8707 13.5394 24.8707C13.2695 24.8707 13.1627 24.7065 13.1627 24.438V23.2728H14.0794V22.758H14.0825ZM18.8793 22.7012C18.5559 22.7012 18.3393 22.8654 18.2043 23.0801V22.7548H17.6393V25.357H18.2043V23.8917C18.2043 23.4591 18.3927 23.2127 18.7443 23.2127C18.851 23.2127 18.986 23.2412 19.0959 23.2664L19.2591 22.7233C19.1461 22.7012 18.986 22.7012 18.8793 22.7012ZM11.6308 22.9727C11.3608 22.7833 10.9841 22.7012 10.5792 22.7012C9.93247 22.7012 9.5024 23.0264 9.5024 23.5412C9.5024 23.9738 9.82574 24.2201 10.3908 24.2991L10.6608 24.3275C10.9559 24.3812 11.1191 24.4633 11.1191 24.5991C11.1191 24.7886 10.9025 24.9244 10.5258 24.9244C10.1491 24.9244 9.85085 24.7886 9.6625 24.6528L9.39252 25.0854C9.68761 25.3033 10.0926 25.4107 10.4975 25.4107C11.2509 25.4107 11.6842 25.057 11.6842 24.5707C11.6842 24.1096 11.3326 23.8664 10.7958 23.7843L10.5258 23.7559C10.2841 23.7275 10.0957 23.6738 10.0957 23.5128C10.0957 23.3233 10.2841 23.2159 10.5823 23.2159C10.9056 23.2159 11.229 23.3517 11.3922 23.4338L11.6308 22.9727ZM26.6646 22.7012C26.3412 22.7012 26.1246 22.8654 25.9896 23.0801V22.7548H25.4246V25.357H25.9896V23.8917C25.9896 23.4591 26.178 23.2127 26.5296 23.2127C26.6363 23.2127 26.7713 23.2412 26.8812 23.2664L27.0444 22.7296C26.9345 22.7012 26.7744 22.7012 26.6646 22.7012ZM19.4443 24.0591C19.4443 24.8454 19.9843 25.4138 20.8193 25.4138C21.196 25.4138 21.466 25.3317 21.736 25.117L21.466 24.6559C21.2494 24.8201 21.0359 24.8991 20.7911 24.8991C20.3327 24.8991 20.0094 24.5738 20.0094 24.0591C20.0094 23.5696 20.3327 23.2443 20.7911 23.2191C21.0328 23.2191 21.2494 23.3012 21.466 23.4622L21.736 23.0012C21.466 22.7833 21.196 22.7043 20.8193 22.7043C19.9843 22.7012 19.4443 23.2728 19.4443 24.0591ZM24.6712 24.0591V22.758H24.1061V23.0833C23.9177 22.8401 23.6478 22.7043 23.2962 22.7043C22.5679 22.7043 22.0028 23.2728 22.0028 24.0591C22.0028 24.8454 22.5679 25.4138 23.2962 25.4138C23.6729 25.4138 23.9429 25.278 24.1061 25.0349V25.3602H24.6712V24.0591ZM22.5961 24.0591C22.5961 23.598 22.8912 23.2191 23.3778 23.2191C23.8361 23.2191 24.1595 23.5728 24.1595 24.0591C24.1595 24.5201 23.8361 24.8991 23.3778 24.8991C22.8944 24.8707 22.5961 24.517 22.5961 24.0591ZM15.8342 22.7012C15.0808 22.7012 14.5409 23.2443 14.5409 24.0559C14.5409 24.8707 15.0808 25.4107 15.8625 25.4107C16.2392 25.4107 16.6159 25.3033 16.9141 25.057L16.6441 24.6496C16.4275 24.8138 16.1576 24.9212 15.8907 24.9212C15.5391 24.9212 15.1907 24.757 15.1091 24.2991H17.0209C17.0209 24.217 17.0209 24.1633 17.0209 24.0812C17.046 23.2443 16.5594 22.7012 15.8342 22.7012ZM15.8342 23.1906C16.1858 23.1906 16.4275 23.4085 16.4809 23.8128H15.1342C15.1875 23.4622 15.4293 23.1906 15.8342 23.1906ZM29.8729 24.0591V21.7285H29.3078V23.0833C29.1194 22.8401 28.8495 22.7043 28.4979 22.7043C27.7696 22.7043 27.2045 23.2728 27.2045 24.0591C27.2045 24.8454 27.7696 25.4138 28.4979 25.4138C28.8746 25.4138 29.1446 25.278 29.3078 25.0349V25.3602H29.8729V24.0591ZM27.7978 24.0591C27.7978 23.598 28.0929 23.2191 28.5795 23.2191C29.0378 23.2191 29.3612 23.5728 29.3612 24.0591C29.3612 24.5201 29.0378 24.8991 28.5795 24.8991C28.0929 24.8707 27.7978 24.517 27.7978 24.0591ZM8.88083 24.0591V22.758H8.31577V23.0833C8.12741 22.8401 7.85744 22.7043 7.50585 22.7043C6.77754 22.7043 6.21248 23.2728 6.21248 24.0591C6.21248 24.8454 6.77754 25.4138 7.50585 25.4138C7.88255 25.4138 8.15253 25.278 8.31577 25.0349V25.3602H8.88083V24.0591ZM6.78068 24.0591C6.78068 23.598 7.07577 23.2191 7.56235 23.2191C8.02068 23.2191 8.34402 23.5728 8.34402 24.0591C8.34402 24.5201 8.02068 24.8991 7.56235 24.8991C7.07577 24.8707 6.78068 24.517 6.78068 24.0591Z" fill="black"></path><path d="M19.9274 2.99609H11.439V18.3374H19.9274V2.99609Z" fill="#FF5A00"></path><path d="M12.0068 10.6663C12.0068 7.54936 13.4634 4.783 15.6985 2.9956C14.0535 1.69453 11.9785 0.908203 9.71511 0.908203C4.35331 0.908203 0.0148926 5.27248 0.0148926 10.6663C0.0148926 16.06 4.35331 20.4243 9.71511 20.4243C11.9785 20.4243 14.0535 19.638 15.6985 18.3369C13.4602 16.5748 12.0068 13.7831 12.0068 10.6663Z" fill="#EB001B"></path><path d="M31.3833 10.6663C31.3833 16.06 27.0449 20.4243 21.6831 20.4243C19.4197 20.4243 17.3447 19.638 15.6997 18.3369C17.9631 16.5463 19.3914 13.7831 19.3914 10.6663C19.3914 7.54936 17.9348 4.783 15.6997 2.9956C17.3415 1.69453 19.4166 0.908203 21.6799 0.908203C27.0449 0.908203 31.3833 5.3009 31.3833 10.6663Z" fill="#F79E1B"></path></svg>