<svg xmlns="http://www.w3.org/2000/svg" width="40" height="14" viewBox="0 0 40 14" fill="none"><path d="M17.5359 13.4119H14.3242L16.333 0.951172H19.5445L17.5359 13.4119Z" fill="#00579F"></path><path d="M29.1746 1.25511C28.5411 1.00299 27.5364 0.724609 26.294 0.724609C23.1224 0.724609 20.889 2.42131 20.8753 4.84707C20.8489 6.63679 22.4743 7.63085 23.69 8.2276C24.9326 8.83739 25.3549 9.2354 25.3549 9.77894C25.3423 10.6137 24.3509 10.9985 23.4262 10.9985C22.144 10.9985 21.4569 10.8001 20.4129 10.3357L19.99 10.1366L19.5405 12.9338C20.2938 13.278 21.6816 13.5836 23.1224 13.5969C26.4923 13.5969 28.6862 11.9265 28.7122 9.34146C28.725 7.92297 27.8667 6.83606 26.0163 5.9479C24.893 5.37775 24.2051 4.99331 24.2051 4.40995C24.2183 3.87962 24.787 3.33643 26.055 3.33643C27.0991 3.30982 27.8662 3.5616 28.4473 3.81355L28.7378 3.94586L29.1746 1.25511Z" fill="#00579F"></path><path d="M33.4445 8.99753C33.709 8.28167 34.7268 5.51111 34.7268 5.51111C34.7134 5.53771 34.9907 4.78204 35.1493 4.31814L35.3738 5.39183C35.3738 5.39183 35.982 8.37452 36.114 8.99753C35.6121 8.99753 34.0789 8.99753 33.4445 8.99753ZM37.4089 0.951172H34.9247C34.1586 0.951172 33.5766 1.17634 33.2461 1.98505L28.4756 13.4118H31.8455C31.8455 13.4118 32.4003 11.8738 32.5195 11.5426C32.8892 11.5426 36.1674 11.5426 36.643 11.5426C36.7352 11.98 37.0262 13.4118 37.0262 13.4118H39.9999L37.4089 0.951172Z" fill="#00579F"></path><path d="M11.64 0.951172L8.49471 9.44822L8.15101 7.72492C7.56952 5.73645 5.74583 3.57603 3.71069 2.50181L6.59164 13.3987H9.98787L15.036 0.951172H11.64Z" fill="#00579F"></path><path d="M5.57398 0.951172H0.406745L0.353882 1.20295C4.38465 2.237 7.05414 4.72953 8.15092 7.72544L7.02762 1.99861C6.84269 1.20277 6.27437 0.977424 5.57398 0.951172Z" fill="#FAA61A"></path></svg>