<svg xmlns="http://www.w3.org/2000/svg" width="65" height="16" viewBox="0 0 65 16" fill="none"><path d="M24.3036 3.84473H20.7638C20.6466 3.84465 20.5333 3.88643 20.4442 3.96254C20.3551 4.03865 20.2961 4.14409 20.2778 4.25985L18.8462 13.3371C18.8396 13.3792 18.8422 13.4223 18.8539 13.4633C18.8655 13.5043 18.8859 13.5423 18.9137 13.5746C18.9414 13.607 18.9758 13.633 19.0146 13.6508C19.0533 13.6686 19.0955 13.6777 19.1381 13.6777H20.828C20.9453 13.6777 21.0587 13.6359 21.1478 13.5597C21.2369 13.4834 21.2959 13.3779 21.314 13.262L21.7001 10.8138C21.7183 10.698 21.7771 10.5925 21.8661 10.5163C21.9552 10.4401 22.0684 10.3982 22.1856 10.3981H23.3062C25.6379 10.3981 26.9836 9.26974 27.335 7.03369C27.4934 6.05542 27.3418 5.28677 26.8837 4.74846C26.3806 4.15736 25.4883 3.84473 24.3036 3.84473ZM24.7119 7.15999C24.5184 8.43019 23.5479 8.43019 22.6095 8.43019H22.0754L22.4501 6.058C22.4611 5.9886 22.4964 5.9254 22.5499 5.87976C22.6033 5.83412 22.6712 5.80904 22.7415 5.80904H22.9863C23.6255 5.80904 24.2285 5.80904 24.5401 6.17343C24.7259 6.39083 24.7828 6.71381 24.7119 7.15999ZM34.8845 7.11909H33.1894C33.1191 7.1191 33.0512 7.14417 32.9978 7.18981C32.9443 7.23545 32.909 7.29866 32.898 7.36806L32.8229 7.84219L32.7044 7.67034C32.3374 7.13773 31.5192 6.95967 30.7024 6.95967C28.8293 6.95967 27.2294 8.37843 26.9179 10.3686C26.7559 11.3614 26.9862 12.3107 27.5493 12.9727C28.0659 13.5814 28.805 13.835 29.6843 13.835C31.1936 13.835 32.0305 12.8645 32.0305 12.8645L31.955 13.3355C31.9482 13.3776 31.9507 13.4207 31.9622 13.4618C31.9737 13.5028 31.994 13.5409 32.0217 13.5734C32.0493 13.6059 32.0837 13.632 32.1224 13.6499C32.1611 13.6678 32.2032 13.6771 32.2458 13.6771H33.7727C33.89 13.6772 34.0034 13.6353 34.0925 13.5591C34.1816 13.4829 34.2406 13.3774 34.2587 13.2615L35.1748 7.45968C35.1816 7.41766 35.1791 7.37468 35.1676 7.3337C35.1561 7.29273 35.1359 7.25473 35.1083 7.22235C35.0807 7.18997 35.0463 7.16396 35.0077 7.14614C34.9691 7.12831 34.927 7.11908 34.8845 7.11909ZM32.5217 10.4183C32.3582 11.3867 31.5895 12.0369 30.6092 12.0369C30.117 12.0369 29.7237 11.879 29.4711 11.5798C29.2206 11.2827 29.1253 10.8598 29.205 10.3888C29.3577 9.42865 30.1393 8.75731 31.1046 8.75731C31.5859 8.75731 31.9772 8.91725 32.235 9.21902C32.4932 9.52389 32.5957 9.94936 32.5217 10.4183ZM43.9121 7.11909H42.2087C42.1284 7.11922 42.0493 7.13895 41.9783 7.17656C41.9074 7.21417 41.8466 7.26854 41.8014 7.33494L39.4521 10.7956L38.4563 7.47003C38.4257 7.3686 38.3633 7.27971 38.2783 7.2165C38.1933 7.1533 38.0902 7.11915 37.9842 7.11909H36.3104C36.2634 7.11897 36.2171 7.13007 36.1752 7.15147C36.1334 7.17287 36.0973 7.20395 36.0699 7.24213C36.0425 7.28031 36.0246 7.32448 36.0178 7.37096C36.0109 7.41744 36.0152 7.4649 36.0304 7.50937L37.9066 13.0156L36.1427 15.5058C36.1114 15.55 36.0928 15.6019 36.089 15.6559C36.0852 15.71 36.0963 15.764 36.1211 15.8121C36.146 15.8602 36.1836 15.9005 36.2299 15.9287C36.2761 15.9568 36.3292 15.9717 36.3834 15.9717H38.0847C38.1641 15.9718 38.2424 15.9526 38.3128 15.9159C38.3832 15.8791 38.4436 15.8258 38.4889 15.7605L44.1543 7.58235C44.185 7.53811 44.203 7.4863 44.2064 7.43255C44.2098 7.37879 44.1984 7.32514 44.1734 7.27742C44.1484 7.22969 44.1109 7.18971 44.0648 7.1618C44.0188 7.13389 43.966 7.11912 43.9121 7.11909Z" fill="#253B80"></path><path d="M49.5541 3.84524H46.0139C45.8968 3.84529 45.7836 3.88713 45.6946 3.96323C45.6056 4.03933 45.5466 4.14469 45.5284 4.26036L44.0968 13.3376C44.0901 13.3797 44.0926 13.4226 44.1042 13.4636C44.1158 13.5046 44.1361 13.5426 44.1637 13.5749C44.1914 13.6073 44.2257 13.6333 44.2643 13.6511C44.303 13.669 44.3451 13.6782 44.3876 13.6782H46.2044C46.2863 13.6781 46.3655 13.6487 46.4278 13.5954C46.49 13.5421 46.5312 13.4683 46.5439 13.3873L46.9502 10.8143C46.9683 10.6985 47.0272 10.593 47.1162 10.5168C47.2052 10.4406 47.3185 10.3987 47.4357 10.3986H48.5557C50.8879 10.3986 52.2331 9.27026 52.5851 7.03421C52.744 6.05593 52.5913 5.28729 52.1332 4.74898C51.6307 4.15788 50.7389 3.84524 49.5541 3.84524ZM49.9625 7.1605C49.7694 8.43071 48.799 8.43071 47.8601 8.43071H47.3265L47.7017 6.05852C47.7125 5.98912 47.7477 5.92586 47.8011 5.88019C47.8544 5.83453 47.9224 5.80947 47.9926 5.80955H48.2374C48.8761 5.80955 49.4796 5.80955 49.7912 6.17395C49.977 6.39134 50.0334 6.71433 49.9625 7.1605ZM60.1345 7.11961H58.4405C58.3702 7.11942 58.3022 7.14444 58.2488 7.19013C58.1955 7.23581 58.1603 7.29913 58.1496 7.36858L58.0745 7.84271L57.9555 7.67086C57.5885 7.13825 56.7708 6.96019 55.954 6.96019C54.0809 6.96019 52.4816 8.37895 52.17 10.3691C52.0085 11.3619 52.2378 12.3112 52.8009 12.9732C53.3185 13.5819 54.0566 13.8355 54.9359 13.8355C56.4452 13.8355 57.2821 12.865 57.2821 12.865L57.2066 13.336C57.1998 13.3782 57.2023 13.4214 57.2139 13.4625C57.2255 13.5037 57.2458 13.5418 57.2736 13.5743C57.3014 13.6068 57.3359 13.6329 57.3747 13.6507C57.4135 13.6686 57.4558 13.6778 57.4985 13.6777H59.0248C59.142 13.6776 59.2553 13.6357 59.3443 13.5595C59.4333 13.4833 59.4922 13.3778 59.5103 13.262L60.427 7.4602C60.4335 7.41805 60.4307 7.37499 60.419 7.33398C60.4073 7.29297 60.3869 7.25498 60.3591 7.22263C60.3313 7.19027 60.2968 7.16431 60.2581 7.14653C60.2193 7.12874 60.1772 7.11956 60.1345 7.11961ZM57.7718 10.4188C57.6092 11.3873 56.8396 12.0374 55.8593 12.0374C55.3681 12.0374 54.9737 11.8795 54.7211 11.5803C54.4706 11.2832 54.3764 10.8603 54.4551 10.3893C54.6088 9.42917 55.3893 8.75783 56.3546 8.75783C56.836 8.75783 57.2273 8.91777 57.485 9.21954C57.7443 9.52441 57.8468 9.94988 57.7718 10.4188ZM62.1329 4.09421L60.68 13.3376C60.6734 13.3797 60.6759 13.4226 60.6875 13.4636C60.699 13.5046 60.7193 13.5426 60.747 13.5749C60.7746 13.6073 60.809 13.6333 60.8476 13.6511C60.8863 13.669 60.9284 13.6782 60.9709 13.6782H62.4315C62.6743 13.6782 62.8803 13.5022 62.9176 13.2625L64.3502 4.18583C64.3569 4.14375 64.3543 4.10074 64.3428 4.05974C64.3312 4.01874 64.3109 3.98073 64.2833 3.94832C64.2556 3.91591 64.2213 3.88986 64.1827 3.87198C64.144 3.8541 64.1019 3.8448 64.0593 3.84473H62.4238C62.3536 3.84498 62.2857 3.87022 62.2324 3.91593C62.1791 3.96165 62.1438 4.02485 62.1329 4.09421Z" fill="#179BD7"></path><path d="M4.14408 15.4421L4.41478 13.7226L3.8118 13.7086H0.932495L2.93346 1.02056C2.93942 0.981789 2.95911 0.946452 2.98894 0.920989C3.01877 0.895526 3.05676 0.881631 3.09598 0.881838H7.95089C9.56264 0.881838 10.6749 1.21725 11.2556 1.87926C11.5279 2.18983 11.7013 2.51436 11.7851 2.87151C11.8731 3.24626 11.8747 3.69399 11.7887 4.24006L11.7825 4.27991V4.62982L12.0548 4.78406C12.2626 4.88936 12.4494 5.03181 12.606 5.20436C12.8389 5.46989 12.9895 5.80737 13.0532 6.20747C13.1189 6.61897 13.0972 7.10862 12.9895 7.66298C12.8653 8.30067 12.6645 8.85606 12.3933 9.31052C12.154 9.71764 11.8322 10.0702 11.4487 10.3457C11.0885 10.6014 10.6604 10.7955 10.1765 10.9197C9.70756 11.0419 9.1729 11.1035 8.58648 11.1035H8.20864C7.93847 11.1035 7.67605 11.2008 7.47006 11.3752C7.26435 11.5515 7.12789 11.7951 7.08498 12.0626L7.05651 12.2174L6.57827 15.248L6.55653 15.3592C6.55083 15.3944 6.541 15.412 6.52651 15.4239C6.51247 15.4354 6.49495 15.4418 6.47682 15.4421H4.14408Z" fill="#253B80"></path><path d="M12.3186 4.32031C12.3041 4.41296 12.2876 4.50769 12.2689 4.605C11.6287 7.8923 9.4383 9.02793 6.64077 9.02793H5.21639C4.87427 9.02793 4.58598 9.27638 4.53267 9.61386L3.8034 14.2392L3.59688 15.5503C3.58866 15.6023 3.5918 15.6554 3.60609 15.7061C3.62038 15.7568 3.64549 15.8038 3.67967 15.8438C3.71386 15.8839 3.75632 15.916 3.80413 15.9381C3.85193 15.9601 3.90395 15.9716 3.9566 15.9716H6.48291C6.78207 15.9716 7.03621 15.7542 7.08331 15.4592L7.10815 15.3308L7.58381 12.3121L7.61434 12.1465C7.66093 11.8504 7.91558 11.633 8.21474 11.633H8.59257C11.0402 11.633 12.9563 10.6392 13.5163 7.76342C13.7503 6.56206 13.6291 5.55894 13.0101 4.85345C12.8139 4.6352 12.5796 4.45454 12.3186 4.32031Z" fill="#179BD7"></path><path d="M11.6431 4.05324C11.4386 3.9941 11.2307 3.94794 11.0204 3.91504C10.605 3.85119 10.1851 3.82056 9.76477 3.82343H5.95952C5.8147 3.82331 5.67462 3.87502 5.5646 3.96919C5.45459 4.06336 5.38188 4.19379 5.35964 4.33689L4.55015 9.46429L4.52686 9.61387C4.55207 9.45065 4.63488 9.30184 4.76029 9.19437C4.88569 9.0869 5.04542 9.02786 5.21058 9.02794H6.63496C9.43249 9.02794 11.6229 7.8918 12.2631 4.60501C12.2823 4.5077 12.2983 4.41298 12.3128 4.32033C12.1439 4.23173 11.9678 4.15745 11.7864 4.09827C11.7389 4.0825 11.6911 4.06749 11.6431 4.05324Z" fill="#222D65"></path><path d="M5.35928 4.3366C5.38133 4.19346 5.45399 4.06297 5.56407 3.96885C5.67414 3.87472 5.81432 3.82321 5.95915 3.82366H9.76441C10.2152 3.82366 10.636 3.85316 11.0201 3.91527C11.2799 3.95612 11.5362 4.01721 11.7866 4.09799C11.9755 4.16062 12.151 4.23463 12.313 4.32004C12.5034 3.10522 12.3114 2.27809 11.6546 1.52911C10.9305 0.704569 9.62362 0.351562 7.95132 0.351562H3.09641C2.75481 0.351562 2.46341 0.600013 2.41062 0.938009L0.38843 13.7565C0.379011 13.816 0.382594 13.8769 0.398934 13.9349C0.415274 13.9928 0.443982 14.0466 0.483084 14.0925C0.522185 14.1383 0.570752 14.1751 0.625444 14.2004C0.680136 14.2257 0.739655 14.2388 0.799907 14.2389H3.79722L4.54978 9.464L5.35928 4.3366Z" fill="#253B80"></path></svg>