<svg xmlns="http://www.w3.org/2000/svg" width="68" height="24" viewBox="0 0 68 24" fill="none"><g clip-path="url(#clip0_2111_2067)"><path d="M14.1309 23.5189V13.501H25.0725L26.2464 14.9845L27.4591 13.501H67.8487L66.3075 17.3219C67.3944 18.4016 68.1056 20.2438 67.046 22.1703C67.046 22.1703 66.1358 23.5089 64.9346 23.5189H42.9434L41.6198 21.9397V23.5189H37.2827V20.8232C37.2827 20.8232 36.6902 21.1995 35.4094 21.1995H33.9331V23.5189H27.3663L26.1941 22.0035L25.0038 23.5189H14.1309Z" fill="white"></path><path d="M1.67306 5.89317L4.07434 0.294922H8.22712L9.58988 3.43083V0.294922H14.7522L15.5634 2.56146L16.3499 0.294922H39.5232V1.43439C39.5232 1.43439 40.7414 0.294922 42.7434 0.294922L50.2623 0.321198L51.6016 3.41607V0.294922H55.9216L57.1106 2.07267V0.294922H61.4704V10.352H57.1106L55.9712 8.56845V10.352H49.624L48.9857 8.76661H47.2794L46.6515 10.352H42.3471C40.6244 10.352 39.5232 9.23576 39.5232 9.23576V10.352H33.0332L31.7451 8.76661V10.352H7.61191L6.97406 8.76661H5.27317L4.63983 10.352H-0.125L1.67306 5.89317Z" fill="white"></path><path d="M4.92436 1.53516L1.68555 9.06555H3.79418L4.39178 7.55762H7.86592L8.46043 9.06555H10.6155L7.37979 1.53516H4.92436ZM6.12266 3.28771L7.18162 5.92274H5.0606L6.12266 3.28771Z" fill="#0462B9"></path><path d="M10.8389 9.0636V1.5332L13.8354 1.54433L15.5782 6.39946L17.2793 1.5332H20.2519V9.0636H18.3693V3.51489L16.3737 9.0636H14.7226L12.7215 3.51489V9.0636H10.8389Z" fill="#0462B9"></path><path d="M21.541 9.0636V1.5332H27.6842V3.21764H23.4434V4.50573H27.5852V6.09108H23.4434V7.42872H27.6842V9.0636H21.541Z" fill="#0462B9"></path><path d="M28.7734 1.53516V9.06555H30.656V6.39028H31.4487L33.706 9.06555H36.0066L33.5295 6.2912C34.5461 6.20541 35.5948 5.33287 35.5948 3.97821C35.5948 2.39355 34.351 1.53516 32.9628 1.53516H28.7734ZM30.656 3.21958H32.808C33.3243 3.21958 33.6998 3.6234 33.6998 4.01226C33.6998 4.51255 33.2132 4.80494 32.8359 4.80494H30.656V3.21958Z" fill="#0462B9"></path><path d="M38.2845 9.0636H36.3623V1.5332H38.2845V9.0636Z" fill="#0462B9"></path><path d="M42.8425 9.0636H42.4276C40.4201 9.0636 39.2012 7.48198 39.2012 5.32937C39.2012 3.12358 40.4064 1.5332 42.9416 1.5332H45.0224V3.31672H42.8655C41.8364 3.31672 41.1085 4.11986 41.1085 5.34794C41.1085 6.8063 41.9408 7.41881 43.1398 7.41881H43.6352L42.8425 9.0636Z" fill="#0462B9"></path><path d="M46.939 1.53516L43.7002 9.06555H45.8088L46.4064 7.55762H49.8806L50.4751 9.06555H52.6302L49.3944 1.53516H46.939ZM48.1373 3.28771L49.1963 5.92274H47.0752L48.1373 3.28771Z" fill="#0462B9"></path><path d="M52.8516 9.0636V1.5332H55.2451L58.3012 6.26448V1.5332H60.1838V9.0636H57.8677L54.7342 4.20848V9.0636H52.8516Z" fill="#0462B9"></path><path d="M15.3965 22.2413V14.7109H21.5397V16.3954H17.2989V17.6835H21.4406V19.2688H17.2989V20.6064H21.5397V22.2413H15.3965Z" fill="#0462B9"></path><path d="M45.498 22.2413V14.7109H51.6413V16.3954H47.4005V17.6835H51.5224V19.2688H47.4005V20.6064H51.6413V22.2413H45.498Z" fill="#0462B9"></path><path d="M21.7782 22.2413L24.7694 18.5226L21.707 14.7109H24.0789L25.9026 17.0673L27.7326 14.7109H30.0115L26.9895 18.4761L29.9861 22.2413H27.6146L25.8438 19.9221L24.116 22.2413H21.7782Z" fill="#0462B9"></path><path d="M30.209 14.7129V22.2433H32.1411V19.8653H34.1228C35.7996 19.8653 37.0706 18.9757 37.0706 17.2457C37.0706 15.8126 36.0737 14.7129 34.3674 14.7129H30.209ZM32.1411 16.4159H34.2281C34.7698 16.4159 35.157 16.7479 35.157 17.2829C35.157 17.7855 34.7717 18.1499 34.2219 18.1499H32.1411V16.4159Z" fill="#0462B9"></path><path d="M37.8887 14.7109V22.2413H39.7713V19.5661H40.5639L42.8212 22.2413H45.1218L42.6447 19.467C43.6613 19.3812 44.71 18.5086 44.71 17.154C44.71 15.5693 43.4662 14.7109 42.0781 14.7109H37.8887ZM39.7713 16.3954H41.9233C42.4395 16.3954 42.815 16.7992 42.815 17.188C42.815 17.6883 42.3285 17.9807 41.9511 17.9807H39.7713V16.3954Z" fill="#0462B9"></path><path d="M52.5144 22.2413V20.6064H56.2821C56.8396 20.6064 57.081 20.3052 57.081 19.9748C57.081 19.6582 56.8404 19.3382 56.2821 19.3382H54.5795C53.0996 19.3382 52.2754 18.4365 52.2754 17.0828C52.2754 15.8753 53.0302 14.7109 55.2293 14.7109H58.8955L58.1028 16.4053H54.9321C54.326 16.4053 54.1394 16.7233 54.1394 17.027C54.1394 17.3392 54.37 17.6835 54.833 17.6835H56.6165C58.2663 17.6835 58.9822 18.6193 58.9822 19.8447C58.9822 21.1622 58.1844 22.2413 56.5267 22.2413H52.5144Z" fill="#0462B9"></path><path d="M59.4226 22.2413V20.6064H63.1903C63.7478 20.6064 63.9892 20.3052 63.9892 19.9748C63.9892 19.6582 63.7486 19.3382 63.1903 19.3382H61.4877C60.0078 19.3382 59.1836 18.4365 59.1836 17.0828C59.1836 15.8753 59.9384 14.7109 62.1375 14.7109H65.8037L65.011 16.4053H61.8403C61.2342 16.4053 61.0476 16.7233 61.0476 17.027C61.0476 17.3392 61.2782 17.6835 61.7412 17.6835H63.5247C65.1745 17.6835 65.8904 18.6193 65.8904 19.8447C65.8904 21.1622 65.0926 22.2413 63.4349 22.2413H59.4226Z" fill="#0462B9"></path></g><defs><clipPath id="clip0_2111_2067"><rect width="68" height="23.375" fill="white" transform="translate(0 0.0976562)"></rect></clipPath></defs></svg>