<svg xmlns="http://www.w3.org/2000/svg" width="49" height="20" viewBox="0 0 49 20" fill="none"><path d="M23.1031 9.92657V15.4161H21.3322V1.83984H25.9366C27.0582 1.83984 28.1208 2.25303 28.9472 3.02039C29.7737 3.72871 30.1869 4.7912 30.1869 5.91272C30.1869 7.03424 29.7737 8.0377 28.9472 8.80505C28.1208 9.5724 27.1172 9.98559 25.9366 9.98559L23.1031 9.92657ZM23.1031 3.4926V8.21478H26.0547C26.704 8.21478 27.3534 7.97867 27.7666 7.50645C28.7111 6.62105 28.7111 5.14537 27.8256 4.25996L27.7666 4.20093C27.2943 3.72871 26.704 3.43358 26.0547 3.4926H23.1031Z" fill="#5F6368"></path><path d="M34.2621 5.85352C35.5608 5.85352 36.5644 6.20768 37.3318 6.916C38.0992 7.62433 38.4534 8.56877 38.4534 9.74931V15.4159H36.8005V14.1173H36.7415C36.0331 15.1798 35.0296 15.7111 33.8489 15.7111C32.8454 15.7111 31.9599 15.4159 31.2515 14.8256C30.6022 14.2354 30.189 13.409 30.189 12.5236C30.189 11.5792 30.5432 10.8118 31.2515 10.2215C31.9599 9.63126 32.9634 9.39515 34.1441 9.39515C35.2066 9.39515 36.0331 9.57223 36.6824 9.98542V9.57223C36.6824 8.98196 36.4463 8.39168 35.9741 8.03752C35.5018 7.62433 34.9115 7.38822 34.2621 7.38822C33.2586 7.38822 32.4912 7.80141 31.9599 8.62779L30.4251 7.68336C31.3696 6.44379 32.6093 5.85352 34.2621 5.85352ZM32.0189 12.5826C32.0189 13.0548 32.2551 13.468 32.6093 13.7041C33.0225 13.9993 33.4947 14.1763 33.967 14.1763C34.6754 14.1763 35.3837 13.8812 35.915 13.35C36.5053 12.8187 36.8005 12.1694 36.8005 11.4611C36.2692 11.0479 35.5018 10.8118 34.4983 10.8118C33.7899 10.8118 33.1996 10.9889 32.7273 11.343C32.2551 11.6382 32.0189 12.0514 32.0189 12.5826Z" fill="#5F6368"></path><path d="M48.0149 6.14941L42.1708 19.5486H40.3998L42.584 14.8854L38.7469 6.20844H40.636L43.4104 12.8785H43.4695L46.1849 6.20844H48.0149V6.14941Z" fill="#5F6368"></path><path d="M16.0777 8.74608C16.0777 8.21483 16.0187 7.68359 15.9596 7.15234H8.58069V10.1627H12.7719C12.5948 11.1072 12.0635 11.9926 11.2371 12.5238V14.4717H13.7755C15.2513 13.1141 16.0777 11.1072 16.0777 8.74608Z" fill="#4285F4"></path><path d="M8.58096 16.3608C10.7061 16.3608 12.477 15.6525 13.7757 14.472L11.2374 12.5241C10.529 12.9963 9.64352 13.2914 8.58096 13.2914C6.57388 13.2914 4.80294 11.9338 4.21262 10.0449H1.61523V12.0518C2.97296 14.7081 5.62938 16.3608 8.58096 16.3608Z" fill="#34A853"></path><path d="M4.21386 10.0447C3.85967 9.10022 3.85967 8.03773 4.21386 7.03427V5.02734H1.61647C0.494869 7.21135 0.494869 9.80855 1.61647 12.0516L4.21386 10.0447Z" fill="#FBBC04"></path><path d="M8.58088 3.847C9.70248 3.847 10.7651 4.26019 11.5915 5.02755L13.8347 2.78451C12.4179 1.48592 10.5289 0.718563 8.63992 0.77759C5.68834 0.77759 2.97289 2.43035 1.67419 5.08657L4.27158 7.0935C4.80287 5.20463 6.57381 3.847 8.58088 3.847Z" fill="#EA4335"></path></svg>