<?xml version="1.0" encoding="UTF-8"?> <svg xmlns="http://www.w3.org/2000/svg" width="620" height="156" viewBox="0 0 620 156" fill="none"><g clip-path="url(#clip0_1650_305)"><path fill-rule="evenodd" clip-rule="evenodd" d="M377.7 44.3C367.8 44.3 360 46.4 352.2 50.9C352.2 28.3 352.2 7.29999 353 0.299988L304.9 8.89998V13L309.8 13.8C316.4 15 318.4 18.7 319.7 27.4C320.9 44.7 320.5 135.6 319.7 150.8C332.5 153.7 346 155.7 359.6 155.7C397.4 155.7 420.1 132.2 420.1 95.2C420.5 65.7 401.9 44.3 377.7 44.3ZM361.2 147.5C358.3 147.5 354.6 147.5 352.6 146.7C351.8 136.8 351.4 94.9 351.8 57.8C355.9 56.6 358.8 55.7 362.5 55.7C378.1 55.7 386.8 74.2 386.8 96.8C386.7 125.7 376 147.5 361.2 147.5Z" fill="#18191E"></path><path fill-rule="evenodd" clip-rule="evenodd" d="M125.5 3.09998H0V9.69997L7 10.5C16.5 11.7 19.8 17.5 21.4 31.1C23.5 56.6 22.6 103.1 21.4 125.3C20.2 138.9 16.5 145 7 145.9L0 147.1V152.9H80.6V147.1L72 145.9C62.5 145.1 59.2 138.9 57.6 125.3C56.8 115.8 56.4 101 56.4 82.5L73.7 83.3C84.4 83.3 89.3 91.9 91.4 103.9H98V52.9H91.4C89.3 64.8 84.4 73.5 73.7 73.5L56.4 74.3C56.4 50 57.2 27.4 57.6 13.8H82.7C102 13.8 111.9 25.7 118.9 47.1L125.9 45L125.5 3.09998Z" fill="#18191E"></path><path fill-rule="evenodd" clip-rule="evenodd" d="M165.8 43C201.6 43 219.3 67.3 219.3 99.4C219.3 129.8 199.6 155.8 163.8 155.8C128 155.8 110.3 131.5 110.3 99.4C110.3 68.5 130.4 43 165.8 43ZM163.7 50C148.1 50 144 71.4 144 99C144 126.2 151 148 165.4 148C181.9 148 186 126.6 186 99C186 72.2 179 50 163.7 50Z" fill="#18191E"></path><path fill-rule="evenodd" clip-rule="evenodd" d="M429.5 99.8C429.5 70.6 448 42.6 484.2 42.6C514.2 42.6 528.2 64.8 528.2 94H462C461.2 120.3 473.9 139.7 499.8 139.7C511.3 139.7 517.1 136.8 524.1 131.9L527 135.6C520 145.5 504.4 155.3 484.2 155.3C452.5 155.8 429.5 132.7 429.5 99.8ZM462.4 86.6L495.7 85.8C495.7 71.4 493.6 50 481.3 50C469.4 50 463.2 70.2 462.4 86.6Z" fill="#18191E"></path><path fill-rule="evenodd" clip-rule="evenodd" d="M613.4 48.8C604.8 45.1 593.7 43 580.5 43C554.2 43 537.7 58.6 537.7 77.1C537.7 95.6 549.6 103.4 566.9 109.2C584.6 115.8 589.5 120.7 589.5 128.9C589.5 137.5 582.9 145.4 571.8 145.4C558.2 145.4 548.3 137.6 540.5 116.2L535.6 117.4L536.4 148.7C545 152.4 560.7 155.3 574.2 155.3C602.2 155.3 619.9 140.9 619.9 119.1C619.9 104.3 612.1 95.6 593.6 88.7C573.9 80.9 566.4 75.9 566.4 66.5C566.4 57 573 50.9 581.2 50.9C594 50.9 602.6 58.7 609.2 78.1L614.1 76.9L613.4 48.8Z" fill="#18191E"></path><path fill-rule="evenodd" clip-rule="evenodd" d="M311.9 45.9C300 38.9 278.6 42.2 267.1 68.1L267.9 43L220.2 52.5V56.6L225.1 57.4C231.7 58.2 234.6 61.5 235 71C236.2 88.3 235.8 117.9 235 133.1C234.2 141.7 231.3 145.9 225.1 146.7L220.2 147.5V153.3H286.4V147.5L277.8 146.7C270.8 145.9 268.3 141.8 267.9 133.1C266.7 119.5 266.7 92.4 267.1 75.5C270.8 70.6 286.4 66 300.4 75.5L311.9 45.9Z" fill="#18191E"></path></g><defs><clipPath id="clip0_1650_305"><rect width="620" height="156" fill="white"></rect></clipPath></defs></svg> 