<?xml version="1.0" encoding="UTF-8"?> <svg xmlns="http://www.w3.org/2000/svg" xmlns:xlink="http://www.w3.org/1999/xlink" version="1.1" id="Layer_1" x="0px" y="0px" width="166.8px" height="40px" viewBox="0 0 166.8 40" style="enable-background:new 0 0 166.8 40;" xml:space="preserve"> <style type="text/css"> .st0{fill:#D01E25;} .st1{fill:#FFFFFF;} </style> <g> <rect y="3.7" class="st0" width="167.2" height="32.6"></rect> <g> <path class="st1" d="M8.4,24.6v-9.3c0-2.2,1.9-3.9,4.3-3.9h11.1V16H13.6v7.8h10.2v4.7H12.7C10.3,28.5,8.4,26.8,8.4,24.6"></path> <path class="st1" d="M61.9,24.6v-9.3c0-2.2,1.9-3.9,4.3-3.9h11.1V16H67v7.8h10.2v4.7H66.2C63.8,28.5,61.9,26.8,61.9,24.6"></path> <polygon class="st1" points="150.8,11.4 142.4,11.4 142.4,16 148.3,16 148.3,28.5 153.4,28.5 153.4,16 159.3,16 159.3,11.4 "></polygon> <path class="st1" d="M43.4,15.3c0-2.2-1.9-3.9-4.3-3.9h-8.6c-2.4,0-4.3,1.7-4.3,3.9v13.2h5.1v-4.7h6.9v4.7h5.1 M31.4,16h6.9v3.3 h-6.9V16z"></path> <path class="st1" d="M96.8,15.3c0-2.2-1.9-3.9-4.3-3.9h-8.6c-2.4,0-4.3,1.7-4.3,3.9v13.2h5.1v-4.7h6.9v4.7h5.1 M84.8,16h6.9v3.3 h-6.9V16z"></path> <path class="st1" d="M115.3,28.5V11.4h5.1v17.1H115.3z"></path> <path class="st1" d="M140,17v-1.7c0-2.2-1.9-3.9-4.3-3.9h-8.6c-2.4,0-4.3,1.7-4.3,3.9V18c0,2.2,1.9,3.9,4.3,3.9h7.7v1.9H128v-1 h-5.1v1.7c0,2.2,1.9,3.9,4.3,3.9h8.6c2.3,0,4.1-1.6,4.3-3.6l0,0v-3c0-2.2-1.9-3.9-4.3-3.9H128v-2h6.9v1H140z"></path> <path class="st1" d="M50.9,23.9V11.4h-5.1c0,0,0,9.4,0,13.2c0,3.8,4.2,3.9,4.2,3.9h9.5v-4.7H50.9z"></path> <path class="st1" d="M104.3,23.9V11.4h-5.1c0,0,0,9.4,0,13.2c0,3.8,4.2,3.9,4.2,3.9h9.5v-4.7H104.3z"></path> </g> </g> </svg> 