<?xml version="1.0" encoding="UTF-8"?> <svg xmlns="http://www.w3.org/2000/svg" width="212" height="80" viewBox="0 0 212 80" fill="none"><path d="M161.25 71.5469H152.177V71.5489H161.25V71.5469Z" fill="black"></path><path d="M187.25 75.3105L178.032 55.5674H174.5V79.4541H177.777V61.6084L186.095 79.4541H188.395L196.677 61.6416V79.4541H199.954V55.5674H196.461L187.25 75.3105Z" fill="black"></path><path d="M211.664 55.3936H208.387V79.4526H211.664V55.3936Z" fill="black"></path><path d="M114.476 75.3105L105.258 55.5674H101.729V79.4541H105.006V61.6084L113.324 79.4541H115.624L123.906 61.6416V79.4541H127.183V55.5674H123.69L114.476 75.3105Z" fill="black"></path><path d="M138.891 55.3936H135.614V79.4526H138.891V55.3936Z" fill="black"></path><path d="M158.623 55.5312H154.843L145.768 79.4551H149.223L151.242 74.1006H162.188L164.203 79.4551H167.662L158.623 55.5312ZM152.177 71.5469L156.713 59.3994L158.624 64.5146L161.25 71.5449L152.177 71.5469Z" fill="black"></path><path d="M59.154 27.9844L59.189 28.4502H42.935L43.035 27.9346C43.3397 26.091 44.2508 24.402 45.624 23.1348C45.787 22.9888 45.956 22.8556 46.124 22.7256C43.5031 21.7877 41.2062 20.1181 39.506 17.9141C38.0915 19.1599 36.913 20.6507 36.027 22.3145C34.5171 25.2385 33.7609 28.493 33.827 31.7832C33.7632 35.0544 34.5294 38.2878 36.054 41.1826C37.48 43.8363 39.636 46.0268 42.267 47.4941C45.0248 49.0001 48.125 49.7675 51.267 49.7227C55.0215 49.8362 58.707 48.698 61.743 46.4863C64.5105 44.4342 66.5371 41.5391 67.518 38.2363L67.552 38.126H57.952L57.928 38.1738C57.3456 39.4801 56.3772 40.5771 55.1529 41.3164C53.9285 42.0557 52.5072 42.4015 51.08 42.3086C49.0049 42.3606 46.99 41.6085 45.457 40.209C44.0133 38.8249 43.1154 36.9676 42.927 34.9766L42.865 34.4912H68.128L68.142 34.418C68.3165 33.3002 68.4008 32.1703 68.394 31.0391C68.4508 27.9036 67.7056 24.8056 66.229 22.0391C66.0577 21.7284 65.8773 21.4261 65.688 21.1328C62.9012 22.1784 60.0278 22.9762 57.101 23.5176C58.3273 24.6918 59.0612 26.2891 59.154 27.9844Z" fill="url(#paint0_linear_2_378)"></path><path d="M23.729 31.2984C26.4598 30.5612 28.8663 28.9335 30.567 26.6734C32.2182 24.4032 33.0979 21.664 33.077 18.857C33.1058 16.4646 32.4866 14.1086 31.285 12.0396C30.0073 9.9343 28.1398 8.25058 25.914 7.19681C23.2064 5.94108 20.2445 5.33023 17.261 5.41263H0.823975V49.1529H9.73298V24.8316L9.59498 24.5865H9.73298V12.8267H16.95C18.8428 12.6798 20.7202 13.2625 22.197 14.4556C22.7917 15.055 23.2525 15.7743 23.5488 16.565C23.8451 17.3557 23.9703 18.1998 23.916 19.0425C23.9653 19.9036 23.8383 20.7655 23.5427 21.5757C23.2471 22.386 22.7892 23.1274 22.197 23.7544C20.7399 24.9896 18.8545 25.6006 16.95 25.4546H11.076L24.496 49.1548H33.643L23.205 31.4605L23.729 31.2984Z" fill="url(#paint1_linear_2_378)"></path><path d="M71.553 18.9699V49.1555H80.59V21.7551H86.644V16.2629C85.8738 16.1524 85.096 16.1041 84.318 16.1174C79.9359 16.366 75.624 17.3293 71.553 18.9699Z" fill="url(#paint2_linear_2_378)"></path><path d="M89.7 49.1543H98.609V31.8418C98.609 28.6768 99.303 26.4301 100.673 25.1631C101.071 24.8008 101.516 24.4934 101.995 24.249C98.077 21.417 94.025 18.4341 89.7 16.9941V49.1543Z" fill="url(#paint3_linear_2_378)"></path><path d="M110.07 31.7783C110.006 35.0495 110.772 38.2829 112.297 41.1777C113.72 43.8325 115.877 46.0226 118.51 47.4854C121.267 48.9951 124.367 49.7639 127.51 49.7178C131.266 49.8304 134.952 48.6924 137.99 46.4814C140.756 44.429 142.78 41.5337 143.758 38.2314L143.792 38.1211H134.192L134.168 38.1689C133.586 39.4752 132.617 40.5723 131.393 41.3115C130.169 42.0508 128.747 42.3966 127.32 42.3037C125.244 42.3553 123.228 41.6033 121.694 40.2041C120.253 38.818 119.356 36.9618 119.164 34.9717L119.102 34.4863H122.615C118.334 33.1894 114.173 31.5247 110.179 29.5117C110.112 30.2487 110.07 30.9993 110.07 31.7783Z" fill="url(#paint4_linear_2_378)"></path><path d="M158.862 32.7099C157.865 33.0146 156.89 33.3864 155.943 33.8222C157.117 34.1942 158.439 34.5583 159.91 34.915C161.778 35.3668 163.602 35.9814 165.363 36.7519C165.857 36.9428 166.282 37.2802 166.58 37.7187C166.878 38.1571 167.035 38.6759 167.03 39.206C167.03 39.7021 166.905 40.19 166.666 40.6249C166.427 41.0598 166.083 41.4279 165.664 41.6943C164.512 42.4117 163.166 42.7545 161.811 42.6767C160.299 42.7295 158.813 42.274 157.59 41.3827C157.058 41.006 156.611 40.522 156.279 39.9618C155.946 39.4017 155.734 38.7779 155.657 38.1308L155.647 38.0585H146.679L146.686 38.1503C146.807 40.2746 147.562 42.3134 148.854 44.0038C150.263 45.8271 152.111 47.2635 154.225 48.1796C156.635 49.2327 159.244 49.7566 161.874 49.7157C164.356 49.7656 166.821 49.3069 169.119 48.3671C171.032 47.5912 172.688 46.293 173.899 44.621C175.007 43.0318 175.591 41.1364 175.57 39.1991C175.563 38.1335 175.394 37.0745 175.07 36.0595C174.776 35.1693 174.314 34.3439 173.71 33.6269C172.891 32.6551 171.914 31.829 170.819 31.1845C166.777 31.038 162.738 31.5535 158.862 32.7099Z" fill="url(#paint5_linear_2_378)"></path><path d="M178.621 32.5938V49.1553H187.534V37.7725C185.395 35.9399 183.004 34.4244 180.434 33.2725C179.839 33.0165 179.232 32.7987 178.621 32.5938Z" fill="url(#paint6_linear_2_378)"></path><path d="M60.148 15.9718C57.3622 14.5592 54.2808 13.829 51.1574 13.84C48.034 13.8509 44.9578 14.6032 42.182 16.0353C41.2276 16.5661 40.3319 17.1961 39.51 17.9152C41.2102 20.1192 43.5071 21.7888 46.128 22.7267C46.7189 22.2841 47.3724 21.932 48.067 21.6818C49.0179 21.3505 50.0191 21.1871 51.026 21.1974C53.1212 21.1427 55.1644 21.8538 56.773 23.1974C56.892 23.2974 56.999 23.4068 57.109 23.5118C60.0358 22.9705 62.9092 22.1727 65.696 21.1271C64.3142 18.9665 62.4048 17.193 60.148 15.9747V15.9718Z" fill="#0000FF"></path><path d="M80.59 14.3999V13.0522C80.59 11.1292 81 9.78308 81.811 9.05908C82.633 8.31708 84.062 7.98299 86.185 8.02099H86.271V0.482904H86.185C81.321 0.349904 77.621 1.30512 75.205 3.30712C72.789 5.30912 71.553 8.48674 71.553 12.7397V18.9673C75.6239 17.3263 79.9358 16.3627 84.318 16.1138C85.096 16.1005 85.8738 16.1488 86.644 16.2593V14.4009L80.59 14.3999Z" fill="#0000FF"></path><path d="M109.218 23.2519V13.9052H109.132C106.945 13.8674 104.787 14.408 102.877 15.4735C101.53 16.248 100.342 17.2717 99.377 18.4892L98.607 19.4481V14.4022H89.7V16.9989C94.025 18.4379 98.077 21.4218 101.995 24.2538C103.501 23.5381 105.157 23.1952 106.824 23.2538L109.218 23.2519Z" fill="#0000FF"></path><path d="M144.384 34.4113C144.558 33.2935 144.641 32.1635 144.632 31.0323C144.687 27.8977 143.944 24.8005 142.472 22.0323C141.069 19.4681 138.954 17.3635 136.383 15.9728C133.597 14.5602 130.516 13.83 127.392 13.8409C124.269 13.8519 121.193 14.6042 118.417 16.0363C115.801 17.4862 113.663 19.666 112.266 22.3107C111.094 24.546 110.385 26.9951 110.181 29.5109C114.175 31.5238 118.336 33.1886 122.617 34.4855H144.37L144.384 34.4113ZM119.169 28.4503L119.269 27.9347C119.571 26.0918 120.48 24.4026 121.851 23.1349C122.567 22.4974 123.399 22.0037 124.302 21.6808C125.251 21.3501 126.251 21.1867 127.256 21.1964C129.352 21.1402 131.396 21.8514 133.004 23.1964C133.709 23.7882 134.284 24.5185 134.694 25.3429C135.104 26.1673 135.339 27.068 135.385 27.9874L135.42 28.4532L119.169 28.4503Z" fill="#0000FF"></path><path d="M163.272 28.5746C161.408 28.1552 159.594 27.5411 157.859 26.7426C157.354 26.5268 156.923 26.167 156.621 25.7084C156.319 25.2499 156.158 24.7127 156.159 24.1635C156.145 23.6959 156.252 23.232 156.469 22.8178C156.687 22.4036 157.008 22.0529 157.401 21.7992C158.592 21.1835 159.924 20.8916 161.264 20.9516C162.604 21.0116 163.904 21.4213 165.036 22.141C165.529 22.5264 165.935 23.0127 166.226 23.5668C166.517 24.121 166.687 24.7311 166.724 25.3559L166.731 25.4389H175.264L175.257 25.3383C175.195 23.7327 174.8 22.1579 174.096 20.7133C173.392 19.2687 172.396 17.9864 171.17 16.9477C168.709 14.8867 165.37 13.8412 161.253 13.8412C158.748 13.7863 156.259 14.2553 153.946 15.2182C152.036 16.0131 150.383 17.3201 149.169 18.9946C148.073 20.5409 147.489 22.3914 147.498 24.2866C147.393 26.3142 148.033 28.3104 149.298 29.8989C150.457 31.2524 151.923 32.3091 153.574 32.9809C154.274 33.2629 155.074 33.5437 155.945 33.8207C156.892 33.3849 157.867 33.0131 158.864 32.7084C162.739 31.5529 166.776 31.0377 170.817 31.184C170.382 30.9277 169.929 30.7023 169.462 30.5092C167.446 29.722 165.378 29.0759 163.272 28.5746Z" fill="#0000FF"></path><path d="M189.6 23.6992C190.331 22.9525 191.214 22.3707 192.188 21.9932C193.163 21.6156 194.207 21.4505 195.25 21.5098C196.279 21.4531 197.308 21.6188 198.267 21.9961C199.226 22.3733 200.092 22.9537 200.807 23.6963C202.262 25.4525 202.989 27.698 202.841 29.9736V49.1602H211.753V28.7881C211.763 27.3188 211.617 25.8526 211.318 24.4141C211.05 23.1342 210.616 21.8943 210.027 20.7266C208.965 18.5887 207.29 16.8164 205.215 15.6357C203.06 14.4622 200.637 13.8679 198.184 13.9102C196.023 13.8823 193.882 14.3204 191.905 15.1943C190.551 15.798 189.321 16.6486 188.278 17.7031L187.536 18.4629V2.79883H178.623V32.5986C179.234 32.7986 179.841 33.0215 180.438 33.2725C183.008 34.4244 185.399 35.9399 187.538 37.7725V29.9717C187.389 27.6928 188.128 25.4452 189.6 23.6992Z" fill="#0000FF"></path><defs><linearGradient id="paint0_linear_2_378" x1="44.9904" y1="58.3208" x2="52.4765" y2="19.952" gradientUnits="userSpaceOnUse"><stop stop-color="#001FFF"></stop><stop offset="0.389" stop-color="#0014C3"></stop><stop offset="0.801" stop-color="#000A89"></stop><stop offset="1" stop-color="#000773"></stop></linearGradient><linearGradient id="paint1_linear_2_378" x1="11.8512" y1="50.686" x2="26.4484" y2="14.9645" gradientUnits="userSpaceOnUse"><stop stop-color="#001FFF"></stop><stop offset="0.389" stop-color="#0014C3"></stop><stop offset="0.801" stop-color="#000A89"></stop><stop offset="1" stop-color="#000773"></stop></linearGradient><linearGradient id="paint2_linear_2_378" x1="69.2139" y1="63.8584" x2="92.9833" y2="42.3134" gradientUnits="userSpaceOnUse"><stop stop-color="#001FFF"></stop><stop offset="0.389" stop-color="#0014C3"></stop><stop offset="0.801" stop-color="#000A89"></stop><stop offset="1" stop-color="#000773"></stop></linearGradient><linearGradient id="paint3_linear_2_378" x1="86.1713" y1="67.775" x2="109.667" y2="52.8464" gradientUnits="userSpaceOnUse"><stop stop-color="#001FFF"></stop><stop offset="0.389" stop-color="#0014C3"></stop><stop offset="0.801" stop-color="#000A89"></stop><stop offset="1" stop-color="#000773"></stop></linearGradient><linearGradient id="paint4_linear_2_378" x1="117.52" y1="74.9925" x2="120.708" y2="36.4284" gradientUnits="userSpaceOnUse"><stop stop-color="#001FFF"></stop><stop offset="0.389" stop-color="#0014C3"></stop><stop offset="0.801" stop-color="#000A89"></stop><stop offset="1" stop-color="#000773"></stop></linearGradient><linearGradient id="paint5_linear_2_378" x1="151.099" y1="82.7178" x2="154.77" y2="44.1293" gradientUnits="userSpaceOnUse"><stop stop-color="#001FFF"></stop><stop offset="0.389" stop-color="#0014C3"></stop><stop offset="0.801" stop-color="#000A89"></stop><stop offset="1" stop-color="#000773"></stop></linearGradient><linearGradient id="paint6_linear_2_378" x1="172.319" y1="87.6111" x2="194.275" y2="59.9803" gradientUnits="userSpaceOnUse"><stop stop-color="#001FFF"></stop><stop offset="0.389" stop-color="#0014C3"></stop><stop offset="0.801" stop-color="#000A89"></stop><stop offset="1" stop-color="#000773"></stop></linearGradient></defs></svg> 