<svg xmlns="http://www.w3.org/2000/svg" width="57" height="97" viewBox="0 0 57 97" fill="none"><g clip-path="url(#clip0_1659_316)"><path d="M32.673 2.47474C35.1798 4.77381 35.6318 8.38446 35.6318 8.38446C35.6318 8.38446 32.0161 8.2633 29.5063 5.9612C26.9965 3.65911 26.5475 0.0514832 26.5475 0.0514832C26.5475 0.0514832 30.1632 0.172646 32.673 2.47474Z" fill="#D3D3D3"></path><path d="M15.0318 87.2282C13.6981 88.9871 12.9119 91.1034 12.7721 93.3106C12.7721 93.353 17.2916 92.0778 19.3404 89.0063C19.93 88.1065 20.3297 87.0946 20.5147 86.0333C20.6997 84.972 20.6662 83.8838 20.4161 82.8361C20.404 82.8664 17.1892 84.4687 15.0318 87.2282Z" fill="#D3D3D3"></path><path d="M18.2106 96.8728C17.0852 96.7026 16.0112 96.2841 15.0657 95.6473C14.1202 95.0104 13.3266 94.1711 12.742 93.1894C12.7902 93.2046 17.0596 91.9778 20.7385 92.4019C22.9578 92.6622 25.03 93.6501 26.635 95.2128C26.6892 95.2128 22.239 97.5695 18.2106 96.8728Z" fill="#D3D3D3"></path><path d="M22.9079 83.7478C21.9985 85.6962 21.676 87.8694 21.9798 89.9998C21.9798 90.0422 25.9661 88.0521 27.3099 84.7353C28.6537 81.4185 27.123 78.5832 27.1532 78.5893C27.1833 78.5954 24.3903 80.7187 22.9079 83.7478Z" fill="#D3D3D3"></path><path d="M27.7738 92.526C26.6681 92.5409 25.5724 92.3124 24.5637 91.8567C23.5551 91.4009 22.6577 90.7289 21.9346 89.8877C21.9768 89.8877 25.719 87.9855 29.2924 87.7825C31.4669 87.6646 33.6204 88.2622 35.4269 89.4848C35.4781 89.4879 31.6907 92.523 27.7738 92.526Z" fill="#D3D3D3"></path><path d="M29.7082 79.0406C29.2093 81.0962 29.314 83.2532 30.0095 85.2502C30.0095 85.2926 33.4263 82.6876 34.1102 79.2406C34.7942 75.7935 32.8056 73.3096 32.8327 73.3096C32.8598 73.3096 30.5549 75.8571 29.7082 79.0406Z" fill="#D3D3D3"></path><path d="M36.0084 86.7042C34.9458 86.9021 33.8532 86.8656 32.806 86.5973C31.7588 86.329 30.782 85.8353 29.9432 85.1502C29.9854 85.1502 33.1792 82.6634 36.5719 81.8516C38.6545 81.3627 40.8389 81.5701 42.7937 82.4423C42.8479 82.4392 39.7566 86.0317 36.0084 86.7042Z" fill="#D3D3D3"></path><path d="M35.3847 73.3036C35.2769 75.3889 35.7707 77.4611 36.8068 79.2708C36.8068 79.3132 39.6361 76.1963 39.6933 72.728C39.7506 69.2597 37.3823 67.1848 37.4064 67.1818C37.4305 67.1788 35.6288 70.0715 35.3847 73.3036Z" fill="#D3D3D3"></path><path d="M42.86 79.6434C41.8653 80.019 40.8013 80.1729 39.7416 80.0945C38.6819 80.016 37.6518 79.7071 36.7225 79.1891C36.7587 79.1891 39.386 76.2175 42.5436 74.8302C44.4859 73.9929 46.646 73.8122 48.6992 74.3153C48.7414 74.3123 46.3521 78.3439 42.86 79.6434Z" fill="#D3D3D3"></path><path d="M39.8891 66.7396C40.1412 68.7876 40.9785 70.7183 42.2995 72.2979C42.2995 72.3373 44.5111 68.8084 43.9808 65.4128C43.4505 62.0172 40.784 60.4149 40.8081 60.4058C40.8322 60.3967 39.5667 63.5288 39.8891 66.7396Z" fill="#D3D3D3"></path><path d="M48.2744 71.5861C47.3704 72.1268 46.3605 72.4637 45.3143 72.5736C44.2682 72.6834 43.2108 72.5635 42.2152 72.2222C42.2484 72.2222 44.2851 68.866 47.1384 66.9516C48.8938 65.7921 50.9742 65.2323 53.071 65.3553C53.1102 65.3371 51.4531 69.705 48.2744 71.5861Z" fill="#D3D3D3"></path><path d="M43.1733 59.5061C43.7687 61.4627 44.9208 63.2012 46.4876 64.5071C46.5057 64.5435 48.0634 60.7087 46.9788 57.4767C45.8941 54.2446 43.0197 53.1481 43.0408 53.136C43.0619 53.1239 42.3237 56.4407 43.1733 59.5061Z" fill="#D3D3D3"></path><path d="M52.1943 62.7594C51.4033 63.448 50.4736 63.9564 49.4688 64.2497C48.464 64.5431 47.4079 64.6143 46.3731 64.4587C46.4032 64.4405 47.8314 60.8238 50.3111 58.4278C51.8309 56.977 53.7746 56.0562 55.8551 55.8016C55.8912 55.7773 54.9903 60.3573 52.1943 62.7594Z" fill="#D3D3D3"></path><path d="M45.18 51.8395C46.0804 53.651 47.4963 55.1524 49.2476 56.1529C49.2687 56.1863 50.1515 52.1455 48.5666 49.1588C48.0823 48.2844 47.4269 47.5177 46.6398 46.9049C45.8526 46.2922 44.9502 45.8461 43.9869 45.5936C44.017 45.6209 43.8513 48.9801 45.18 51.8395Z" fill="#D3D3D3"></path><path d="M54.5655 53.4116C53.9101 54.2318 53.0861 54.9 52.1501 55.3705C51.2141 55.841 50.188 56.1028 49.1421 56.1378C49.1692 56.1166 49.9676 52.303 52.0014 49.5072C53.2434 47.8072 54.9923 46.5498 56.994 45.9177C57.0271 45.8753 56.9066 50.5522 54.5655 53.4116Z" fill="#D3D3D3"></path><path d="M45.894 43.9246C47.0755 45.5471 48.717 46.7729 50.6034 47.4413C50.6305 47.4716 50.8324 43.3279 48.7624 40.6593C48.1428 39.8838 47.3714 39.2444 46.4961 38.7807C45.6207 38.317 44.66 38.0388 43.6735 37.9634C43.6915 37.9785 44.1043 41.3438 45.894 43.9246Z" fill="#D3D3D3"></path><path d="M55.3338 43.7792C54.8326 44.7027 54.1399 45.5072 53.3024 46.138C52.4649 46.7688 51.5023 47.2112 50.4799 47.4353C50.5009 47.411 50.6516 43.4975 52.1671 40.3715C53.0855 38.4685 54.5817 36.9082 56.4396 35.9157C56.4667 35.8824 57.1506 40.5381 55.3338 43.7792Z" fill="#D3D3D3"></path><path d="M45.2342 35.9551C46.6616 37.3481 48.4781 38.2697 50.4407 38.5964C50.4738 38.6207 49.9616 34.4769 47.4608 32.1899C46.7218 31.5292 45.8546 31.0297 44.9138 30.7232C43.973 30.4166 42.9793 30.3096 41.9952 30.4088C42.0224 30.4301 43.0347 33.7227 45.2342 35.9551Z" fill="#D3D3D3"></path><path d="M54.4449 34.1074C54.119 35.1103 53.5825 36.0312 52.8719 36.8078C52.1614 37.5843 51.2932 38.1985 50.3262 38.6086C50.3442 38.5813 49.823 34.6859 50.745 31.2903C51.2979 29.2391 52.481 27.4157 54.1256 26.0803C54.1497 26.044 55.6592 30.5603 54.4449 34.1074Z" fill="#D3D3D3"></path><path d="M43.1613 28.128C44.8007 29.2636 46.7507 29.8585 48.7414 29.8303C48.7775 29.8515 47.5362 25.8107 44.6407 23.963C43.7971 23.4301 42.8512 23.0821 41.8648 22.9417C40.8783 22.8013 39.8735 22.8716 38.916 23.1482C38.9672 23.1633 40.6003 26.2863 43.1613 28.128Z" fill="#D3D3D3"></path><path d="M51.8418 24.6355C51.7124 25.6888 51.3584 26.7017 50.8041 27.605C50.2498 28.5083 49.5082 29.2808 48.6299 29.8697C48.6299 29.8394 47.4247 26.047 47.6898 22.4788C47.8305 20.3399 48.6393 18.3004 50.0008 16.6508C50.0189 16.6084 52.3811 20.8734 51.8418 24.6355Z" fill="#D3D3D3"></path><path d="M39.63 20.6492C41.4428 21.5014 43.4777 21.7538 45.4421 21.3701C45.4873 21.3701 43.4746 17.5504 40.2417 16.1934C39.3184 15.8014 38.3221 15.6137 37.3203 15.6429C36.3185 15.6722 35.3347 15.9178 34.4356 16.3631C34.4748 16.3721 36.7436 19.2467 39.63 20.6492Z" fill="#D3D3D3"></path><path d="M47.4668 15.5997C47.5586 16.6665 47.4174 17.7405 47.0531 18.7467C46.6888 19.7529 46.1102 20.6668 45.3577 21.4246C45.3577 21.3944 43.4445 17.7898 42.9473 14.1549C42.4502 10.52 43.9778 7.86651 44.0079 7.86954C44.038 7.87257 47.2589 11.7255 47.4668 15.5997Z" fill="#D3D3D3"></path><path d="M34.5892 13.7126C36.5356 14.2674 38.6087 14.1696 40.4947 13.4339C40.5459 13.4339 37.7499 9.92022 34.2187 9.09025C33.233 8.84202 32.2049 8.81649 31.2082 9.01552C30.2116 9.21455 29.2712 9.63318 28.4548 10.2413C28.5 10.2474 31.4346 12.7918 34.5892 13.7126Z" fill="#D3D3D3"></path><path d="M41.2631 7.24857C42.3207 11.0925 40.3592 13.5066 40.3984 13.5066C40.4375 13.5066 37.7499 10.1747 36.4453 6.564C35.1407 2.95335 36.0416 0.00303111 36.0747 2.03958e-06C36.1078 -0.00302703 40.2296 3.36833 41.2631 7.24857Z" fill="#D3D3D3"></path><path d="M0 94.3223L0.0632797 93.6165C5.86899 94.1461 11.7212 93.4887 17.2675 91.684C22.7568 89.9047 27.8599 87.0934 32.3054 83.3995C41.6729 75.6602 47.7139 64.6192 49.3138 52.306C50.6275 42.2222 49.9526 33.2229 47.3162 25.6017C44.481 17.399 39.4342 10.9804 32.3175 6.51856L32.6881 5.91275C39.9464 10.4564 45.0926 16.9992 47.9791 25.3564C50.6546 33.0987 51.3386 42.192 50.0129 52.3848C48.3889 64.8767 42.2574 76.0812 32.7514 83.9356C28.2356 87.6827 23.0542 90.5349 17.4815 92.3413C11.8466 94.179 5.9004 94.8528 0 94.3223Z" fill="#D3D3D3"></path></g><defs><clipPath id="clip0_1659_316"><rect width="57" height="97" fill="white"></rect></clipPath></defs></svg>