<?xml version="1.0" encoding="UTF-8"?> <svg xmlns="http://www.w3.org/2000/svg" xmlns:xlink="http://www.w3.org/1999/xlink" version="1.1" id="Layer_1" x="0px" y="0px" viewBox="0 0 102 59" style="enable-background:new 0 0 102 59;" xml:space="preserve"> <style type="text/css"> .st0{fill-rule:evenodd;clip-rule:evenodd;fill:#222222;} </style> <g> <g transform="translate(-140.000000, -761.000000)"> <g transform="translate(120.000000, 715.000000)"> <g transform="translate(20.000000, 46.000000)"> <path id="WSJ" class="st0" d="M24.7,10.5c-1.6-7.6-2.1-7.9-5.7-8.1V1.1h16.1v1.3c-4.4,0.4-4.5,0.4-2.9,9.3l5.3,28.1l6.3-30.2 c1.3-6.2,0.8-6.8-3.3-7.1l-1.3-0.1V1.1h11.5v1.3c-3.5,0.3-3.5,1.2-4.9,7.8L35.5,59h-1l-8.8-43.7L16.4,59h-1L4.9,7.8 C4,3.3,3.8,2.6,0,2.4V1.1h15.7v1.3c-4,0.4-4.1,0.8-2.5,9.3l5.4,27.9L24.7,10.5L24.7,10.5z M66.6,58.7c-5.7,0-9.1-5.3-10.4-5.3 c-1.4,0-3,3-3.5,4.3h-1.2V38.9h1.2c3.5,10.3,9.1,18.4,13.7,18.4c2.7,0,4.4-2.5,4.4-6.2c0-13.6-19-22.4-19-39.1 c0-6.8,4.8-12.1,10-12.1c4.7,0,7.3,3.8,8.8,3.8c0.8,0,1.4-0.6,2.4-3h0.9v16.8h-1.2C70.5,9.4,66,1.2,61.6,1.2 c-2.7,0-4.7,2.5-4.7,6.2c0,13.1,19,21.4,19,38.7C76,53.3,71.6,58.7,66.6,58.7z M86.3,58.7c-5.8,0-8.1-3.6-8.1-7.1 c0-3.5,2.1-7.1,5.3-7.1c3.4,0,4.8,3.4,3.2,5.8c-1.3,2.1-4.8,2.3-4.8,3.9c0,2.5,2.1,3.1,3.8,3.1c5,0,4.7-3.1,4.7-13.7V6.1 c0-3-0.7-3.7-3.9-3.7h-1.2V1.1H102v1.3h-1.4c-1.7,0-2.4,0.7-2.4,3.8v36.7C98.2,53.2,90.8,58.7,86.3,58.7z"> </path> </g> </g> </g> </g> </svg> 