<?xml version="1.0" encoding="UTF-8"?> <svg xmlns="http://www.w3.org/2000/svg" width="150" height="59" viewBox="0 0 150 59" fill="none"><g clip-path="url(#clip0_3765_4318)"><path fill-rule="evenodd" clip-rule="evenodd" d="M83.87 37.92C82.6502 39.1286 81.2005 40.0805 79.6066 40.7195C78.0127 41.3584 76.3069 41.6714 74.59 41.64C70.97 41.64 67.89 40.4 65.32 37.92C64.0881 36.7744 63.11 35.3835 62.4486 33.8368C61.7872 32.2901 61.4572 30.622 61.48 28.94C61.48 25.44 62.76 22.44 65.32 19.96C66.5389 18.753 67.9871 17.802 69.5791 17.1632C71.1711 16.5243 72.8748 16.2104 74.59 16.24C78.22 16.24 81.31 17.48 83.87 19.96L80.32 23.4C79.5636 22.6593 78.6675 22.0763 77.6838 21.6849C76.7002 21.2934 75.6485 21.1014 74.59 21.12C72.37 21.12 70.46 21.88 68.89 23.42C68.1302 24.1231 67.5259 24.9775 67.116 25.9281C66.7061 26.8788 66.4997 27.9047 66.51 28.94C66.51 31.1 67.31 32.94 68.89 34.47C69.6401 35.215 70.5317 35.8024 71.5124 36.1974C72.4931 36.5924 73.5429 36.7871 74.6 36.77C76.83 36.77 78.74 36.01 80.33 34.48L83.87 37.92ZM104.14 40.58H87.07V16.24H92.14V35.77H104.14V40.58ZM126.54 30.7C126.54 33.72 125.44 36.3 123.26 38.44C122.223 39.4787 120.987 40.2975 119.626 40.8473C118.265 41.3971 116.808 41.6667 115.34 41.64C112.24 41.64 109.6 40.57 107.42 38.44C106.366 37.4484 105.53 36.248 104.965 34.9154C104.4 33.5828 104.119 32.1471 104.14 30.7V16.24H109.2V30.7C109.2 32.35 109.8 33.76 111 34.93C111.567 35.5007 112.244 35.9508 112.99 36.2533C113.736 36.5557 114.535 36.7043 115.34 36.69C117.03 36.69 118.47 36.11 119.67 34.93C120.247 34.3885 120.705 33.7327 121.015 33.0045C121.325 32.2762 121.48 31.4914 121.47 30.7V16.24H126.54V30.7ZM141.73 16.24C143.75 16.24 145.48 16.96 146.91 18.39C147.603 19.0569 148.151 19.8591 148.521 20.7467C148.891 21.6343 149.074 22.5885 149.06 23.55C149.06 25.2 148.56 26.68 147.57 27.99C148.358 28.7206 148.982 29.61 149.401 30.5994C149.819 31.5888 150.024 32.6558 150 33.73C150 35.9 149.22 37.76 147.68 39.31C146.965 40.0586 146.102 40.6519 145.148 41.0528C144.193 41.4537 143.166 41.6535 142.13 41.64H130.8V16.24H141.73ZM142.03 31.06H136.13V36.35H142.03C142.77 36.35 143.39 36.1 143.9 35.59C144.144 35.3451 144.337 35.0546 144.468 34.7351C144.599 34.4156 144.667 34.0733 144.666 33.7279C144.665 33.3824 144.596 33.0405 144.463 32.7218C144.33 32.403 144.135 32.1135 143.89 31.87C143.654 31.6125 143.366 31.4073 143.046 31.2678C142.725 31.1283 142.379 31.0575 142.03 31.06ZM142.29 21.53H136.13V25.77H142.29C142.94 25.77 143.5 25.56 143.97 25.14C144.19 24.9589 144.367 24.7314 144.489 24.4738C144.61 24.2162 144.673 23.9348 144.673 23.65C144.673 23.3651 144.61 23.0837 144.489 22.8261C144.367 22.5685 144.19 22.341 143.97 22.16C143.511 21.7433 142.91 21.518 142.29 21.53ZM47.26 5.93996C50.4035 8.25235 53.0569 11.1655 55.0667 14.5106C57.0764 17.8556 58.4025 21.5663 58.9681 25.4274C59.5337 29.2886 59.3275 33.2237 58.3617 37.0046C57.3958 40.7856 55.6893 44.3374 53.3411 47.4542C50.9929 50.571 48.0496 53.191 44.6817 55.1623C41.3139 57.1336 37.5883 58.4172 33.7209 58.9386C29.8535 59.4599 25.9211 59.2088 22.1514 58.1997C18.3818 57.1907 14.8498 55.4437 11.76 53.06C8.61651 50.7476 5.96306 47.8345 3.95333 44.4894C1.9436 41.1443 0.617531 37.4337 0.051936 33.5725C-0.513659 29.7113 -0.307543 25.7762 0.658346 21.9953C1.62424 18.2143 3.3307 14.6625 5.67891 11.5457C8.02711 8.42889 10.9704 5.80893 14.3383 3.8376C17.7061 1.86627 21.4317 0.582744 25.2991 0.0613591C29.1665 -0.460026 33.0989 -0.208905 36.8686 0.800177C40.6382 1.80926 44.1702 3.55625 47.26 5.93996ZM31.93 16.86H26.35L38.06 41.09L49.53 16.86H44.18L37.95 30.36L31.93 16.86ZM21.63 16.86L9.48 41.09H14.76L16.22 37.92H26.19L27.42 41.09H32.67L21.63 16.86ZM21.71 28.45L24.24 33.71H18.97L21.71 28.45Z" fill="#1C263C"></path></g><defs><clipPath id="clip0_3765_4318"><rect width="150" height="59" fill="white"></rect></clipPath></defs></svg> 