<?xml version="1.0" encoding="UTF-8"?> <svg xmlns="http://www.w3.org/2000/svg" width="149" height="16" viewBox="0 0 149 16" fill="none"><path d="M35.8436 3.82219V0.22229H48.0226V3.82219H35.8436ZM40.0977 15.7775V0.22229H43.7686V15.7775H40.0977Z" fill="black"></path><path d="M48.7003 15.2444C47.8437 14.7407 47.1634 14.0485 46.6592 13.1663C46.1551 12.2849 45.9034 11.3185 45.9034 10.2665C45.9034 9.21454 46.1516 8.23668 46.6488 7.37754C47.1452 6.5184 47.8178 5.84058 48.6674 5.3441C49.517 4.84761 50.4525 4.59937 51.4748 4.59937C52.425 4.59937 53.3025 4.83682 54.1094 5.31028C54.9156 5.78446 55.5596 6.42918 56.0421 7.2437C56.5245 8.05895 56.7658 8.9699 56.7658 9.97727C56.7658 10.3032 56.7441 10.7328 56.7007 11.266H47.6745V8.97709H53.1382C53.1095 8.68064 53.0047 8.4252 52.825 8.21078C52.6446 7.99635 52.4257 7.82582 52.1663 7.6999C51.9069 7.57398 51.6188 7.51066 51.3028 7.51066C50.842 7.51066 50.4462 7.61427 50.1148 7.8215C49.7834 8.02945 49.5211 8.359 49.3268 8.81016C49.1324 9.26203 49.0352 9.83623 49.0352 10.532C49.0352 11.0357 49.1394 11.4768 49.3484 11.8546C49.5568 12.2323 49.8449 12.5252 50.212 12.7324C50.5791 12.9404 50.993 13.0433 51.4538 13.0433C51.9432 13.0433 52.3355 12.9512 52.6306 12.7655C52.9256 12.5806 53.1165 12.3323 53.2025 12.0208H56.6147C56.442 13.2354 55.891 14.2024 54.9632 14.9206C54.0346 15.6394 52.8935 15.9984 51.5405 15.9984C50.5043 15.9984 49.5575 15.7466 48.701 15.2429L48.7003 15.2444Z" fill="black"></path><path d="M60.1499 15.2558C59.308 14.7593 58.6452 14.0779 58.1634 13.2116C57.6809 12.3452 57.4397 11.3861 57.4397 10.3341C57.4397 9.28213 57.6802 8.27477 58.1634 7.40052C58.6459 6.52627 59.308 5.84126 60.1499 5.34477C60.9924 4.84828 61.9315 4.60004 62.9677 4.60004C63.8746 4.60004 64.7172 4.80007 65.494 5.20014C66.2708 5.60021 66.905 6.1485 67.3945 6.84431C67.8839 7.54083 68.172 8.31866 68.258 9.1778H64.7382C64.6522 8.83745 64.4431 8.56331 64.1117 8.35536C63.7802 8.14813 63.3991 8.04451 62.967 8.04451C62.5783 8.04451 62.2182 8.14093 61.8874 8.33305C61.556 8.52589 61.3008 8.79644 61.1211 9.14398C60.9407 9.49224 60.8512 9.88871 60.8512 10.3327C60.8512 10.7479 60.9407 11.1292 61.1211 11.4768C61.3008 11.825 61.556 12.0956 61.8874 12.2877C62.2182 12.4805 62.5783 12.5762 62.967 12.5762C63.4131 12.5762 63.8019 12.4618 64.1333 12.2316C64.4641 12.002 64.6731 11.7092 64.7598 11.3537H68.2797C68.2077 12.2424 67.9308 13.0389 67.4483 13.7426C66.9659 14.4463 66.3289 14.9982 65.5374 15.3983C64.7451 15.7984 63.8886 15.9984 62.9677 15.9984C61.9315 15.9984 60.9917 15.7501 60.1499 15.2537V15.2558Z" fill="black"></path><path d="M72.491 0.22229V15.7775H69.0362V0.22229H72.491ZM75.7844 9.11086C75.6473 8.80002 75.4459 8.56617 75.1795 8.41074C74.9131 8.25532 74.5999 8.17761 74.2405 8.17761C73.8811 8.17761 73.5601 8.27403 73.2364 8.46615C72.9127 8.65899 72.6568 8.91803 72.4701 9.24398V6.04415C72.7435 5.59947 73.121 5.24761 73.6035 4.98857C74.086 4.72954 74.5999 4.60002 75.1474 4.60002C76.0396 4.60002 76.8101 4.80005 77.4583 5.20012C78.1065 5.60019 78.6029 6.17799 78.9483 6.93351C79.2937 7.68904 79.4665 8.58559 79.4665 9.62246V15.7782H75.9899V10.2226C75.9899 9.793 75.9214 9.42243 75.7851 9.11158L75.7844 9.11086Z" fill="black"></path><path d="M83.98 14.9666C82.8067 14.278 81.8816 13.3224 81.2048 12.0999C80.5279 10.8774 80.1895 9.51098 80.1895 7.99993C80.1895 6.48888 80.5279 5.14405 81.2048 3.92225C81.8809 2.69974 82.806 1.74131 83.98 1.04478C85.1533 0.348261 86.4664 0 87.9208 0C89.1297 0 90.2674 0.251842 91.333 0.755525C92.3979 1.25921 93.2796 1.95933 93.9781 2.85517C94.676 3.75172 95.0829 4.74038 95.1983 5.82186H91.1386C91.0232 5.4074 90.8107 5.03324 90.5016 4.69937C90.1919 4.36622 89.8108 4.11078 89.357 3.93305C88.9032 3.75532 88.4249 3.6661 87.9208 3.6661C87.1719 3.6661 86.4958 3.85534 85.891 4.2331C85.2861 4.61086 84.8114 5.12966 84.4659 5.78876C84.1205 6.44787 83.9478 7.1854 83.9478 7.99993C83.9478 8.81446 84.1205 9.55559 84.4659 10.2219C84.8114 10.8882 85.2868 11.407 85.891 11.7776C86.4958 12.1481 87.1719 12.333 87.9208 12.333C88.4389 12.333 88.9214 12.233 89.3675 12.033C89.8136 11.833 90.1954 11.5552 90.5121 11.1998C90.8289 10.8443 91.0442 10.437 91.1603 9.97725H95.2416C95.0689 11.148 94.6403 12.1884 93.9565 13.0994C93.2726 14.0103 92.4049 14.7219 91.3547 15.2328C90.3037 15.7437 89.1591 15.9991 87.9215 15.9991C86.4671 15.9991 85.1533 15.6552 83.98 14.9666Z" fill="black"></path><path d="M102.907 8.24474H99.5817V15.7784H96.1268V4.82257H102.907V8.24474Z" fill="black"></path><path d="M113.386 13.4334C112.947 14.2407 112.342 14.8703 111.573 15.3222C110.802 15.7741 109.928 16 108.949 16C107.97 16 107.07 15.7741 106.293 15.3222C105.515 14.8703 104.907 14.2407 104.468 13.4334C104.029 12.6261 103.809 11.7115 103.809 10.689V4.82257H107.264V10.689C107.264 11.2668 107.415 11.7259 107.718 12.067C108.02 12.408 108.43 12.5779 108.948 12.5779C109.466 12.5779 109.855 12.408 110.157 12.067C110.459 11.7266 110.611 11.2668 110.611 10.689V4.82257H114.045V10.689C114.045 11.7115 113.825 12.6261 113.386 13.4334Z" fill="black"></path><path d="M118.552 15.7775H115.098V4.82238H118.552V15.7775ZM121.867 9.11088C121.73 8.80004 121.529 8.56618 121.263 8.41076C120.996 8.25534 120.683 8.17763 120.324 8.17763C119.964 8.17763 119.625 8.27405 119.309 8.46617C118.992 8.65901 118.733 8.91804 118.531 9.244V6.04417C118.819 5.59949 119.204 5.24763 119.687 4.98859C120.169 4.72956 120.683 4.60004 121.23 4.60004C122.123 4.60004 122.893 4.80007 123.541 5.20014C124.189 5.60021 124.686 6.178 125.031 6.93353C125.377 7.68906 125.549 8.58561 125.549 9.62248V15.7782H122.073V10.2226C122.073 9.79301 122.004 9.42245 121.868 9.1116L121.867 9.11088Z" fill="black"></path><path d="M129.036 15.2558C128.195 14.7593 127.532 14.0779 127.05 13.2116C126.568 12.3452 126.326 11.3861 126.326 10.3341C126.326 9.28213 126.567 8.27477 127.05 7.40052C127.532 6.52627 128.195 5.84126 129.036 5.34477C129.879 4.84828 130.818 4.60004 131.854 4.60004C132.761 4.60004 133.604 4.80007 134.381 5.20014C135.157 5.60021 135.792 6.1485 136.281 6.84431C136.771 7.54083 137.059 8.31866 137.145 9.1778H133.625C133.539 8.83745 133.33 8.56331 132.998 8.35536C132.667 8.14813 132.286 8.04451 131.854 8.04451C131.465 8.04451 131.105 8.14093 130.774 8.33305C130.443 8.52589 130.187 8.79644 130.008 9.14398C129.827 9.49224 129.738 9.88871 129.738 10.3327C129.738 10.7479 129.827 11.1292 130.008 11.4768C130.187 11.825 130.443 12.0956 130.774 12.2877C131.105 12.4805 131.465 12.5762 131.854 12.5762C132.3 12.5762 132.688 12.4618 133.02 12.2316C133.351 12.002 133.56 11.7092 133.646 11.3537H137.166C137.094 12.2424 136.817 13.0389 136.335 13.7426C135.852 14.4463 135.215 14.9982 134.424 15.3983C133.632 15.7984 132.775 15.9984 131.854 15.9984C130.818 15.9984 129.878 15.7501 129.036 15.2537V15.2558Z" fill="black"></path><path d="M141.389 0.22229V15.7775H137.934V0.22229H141.389ZM144.682 9.11086C144.545 8.80002 144.344 8.56617 144.077 8.41074C143.811 8.25532 143.498 8.17761 143.138 8.17761C142.779 8.17761 142.458 8.27403 142.134 8.46615C141.81 8.65899 141.555 8.91803 141.368 9.24398V6.04415C141.641 5.59947 142.019 5.24761 142.501 4.98857C142.984 4.72954 143.498 4.60002 144.045 4.60002C144.937 4.60002 145.708 4.80005 146.356 5.20012C147.004 5.60019 147.501 6.17799 147.846 6.93351C148.192 7.68904 148.364 8.58559 148.364 9.62246V15.7782H144.888V10.2226C144.888 9.793 144.819 9.42243 144.683 9.11158L144.682 9.11086Z" fill="black"></path><path d="M15.699 0.222229V5.40297H10.6646V15.7781H5.63021V5.40297H0.595825V0.222229H15.699Z" fill="black"></path><path d="M30.8021 10.5975V15.7783H15.6989V5.40601H20.7333V10.5975H30.8021Z" fill="black"></path><path d="M30.802 0.222229H20.7333V5.40297H30.802V0.222229Z" fill="black"></path></svg> 