<?xml version="1.0" encoding="UTF-8"?> <svg xmlns="http://www.w3.org/2000/svg" width="250" height="40" viewBox="0 0 250 40" fill="none"><path d="M4.71898 6.9115H0V0.548828H16.1294V6.9115H11.3998V38.9528H4.71898V6.9115Z" fill="black"></path><path d="M17.8843 0.548828H24.5783V16.4555H30.3922V0.548828H37.0863V38.9528H30.3922V22.8235H24.5783V38.9528H17.8843V0.548828Z" fill="black"></path><path d="M39.1145 0.548828H53.8176V6.9115H45.8086V16.4555H52.887V22.8182H45.8086V32.5821H53.9819V38.9448H39.1145V0.548828Z" fill="black"></path><path d="M62.7597 0.548828H68.5762C75.0476 0.548828 81.0842 3.18138 81.0842 10.3129V10.578C81.0842 15.5144 78.2846 17.9295 75.5434 19.2471C78.7804 20.6734 81.5773 22.9216 81.5773 27.8048V28.298C81.5773 35.1007 76.3096 38.9422 68.852 38.9422H62.7544L62.7597 0.548828ZM69.5625 16.6782C72.5264 16.6782 74.5015 14.9762 74.5015 11.6411V11.5324C74.5015 8.18403 72.5264 6.76038 69.5625 6.76038H69.4591V16.6782H69.5625ZM69.6181 32.7518C72.6908 32.7518 74.8833 30.9411 74.8833 27.7598V27.4947C74.8833 24.3134 72.6908 22.5027 69.6181 22.5027H69.4591V32.7598L69.6181 32.7518Z" fill="black"></path><path d="M82.6194 20.737V18.7619C82.6194 6.09756 86.7339 0 92.8235 0C98.9131 0 103.028 6.09756 103.028 18.7619V20.737C103.028 33.404 98.9131 39.5016 92.8235 39.5016C86.7339 39.5016 82.6194 33.404 82.6194 20.737ZM96.2249 20.737V18.7619C96.2249 8.88653 94.8543 6.14528 92.8235 6.14528C90.7928 6.14528 89.4221 8.88653 89.4221 18.7619V20.737C89.4221 30.6124 90.7954 33.3563 92.8235 33.3563C94.8516 33.3563 96.2355 30.6124 96.2355 20.737H96.2249Z" fill="black"></path><path d="M104.565 20.737V18.7619C104.565 6.09756 108.68 0 114.769 0C120.859 0 124.973 6.09756 124.973 18.7619V20.737C124.973 33.404 120.859 39.5016 114.769 39.5016C108.68 39.5016 104.565 33.404 104.565 20.737ZM118.171 20.737V18.7619C118.171 8.88653 116.797 6.14528 114.769 6.14528C112.741 6.14528 111.368 8.88653 111.368 18.7619V20.737C111.368 30.6124 112.739 33.3563 114.769 33.3563C116.8 33.3563 118.171 30.6124 118.171 20.737Z" fill="black"></path><path d="M127.166 0.548828H133.86V16.6225L139.292 0.548828H146.872L140.39 16.7869L146.972 38.9528H139.51L135.342 24.4142L133.86 28.632V38.9475H127.166V0.548828Z" fill="black"></path><path d="M147.357 37.6458V30.6681C149.714 32.0387 151.58 32.8076 153.391 32.8076C155.31 32.8076 156.956 31.8744 156.956 29.5149V29.4062C156.946 27.6511 156.416 26.3335 153.234 22.7121C148.68 17.5557 146.816 15.0875 146.816 10.4242V10.3129C146.808 4.17023 150.811 0.265137 156.135 0.265137C158.823 0.265137 160.414 0.649548 162.06 1.47404V8.44912C159.973 7.24287 158.712 6.69409 156.956 6.69409C155.101 6.69409 153.51 7.90034 153.51 9.98412V10.0955C153.51 11.9062 154.059 12.5637 157.24 16.2381C162.508 22.3357 163.661 24.6872 163.661 29.0774V29.1861C163.661 35.2201 159.435 39.2259 154.17 39.2259C151.808 39.2309 149.476 38.6901 147.357 37.6458Z" fill="black"></path><path d="M164.913 0.548828H179.613V6.9115H171.604V16.4555H178.685V22.8182H171.607V32.5821H179.783V38.9448H164.913V0.548828Z" fill="black"></path><path d="M181.972 0.548828H188.666V32.5875H195.742V38.9501H181.972V0.548828Z" fill="black"></path><path d="M197.662 0.548828H204.356V32.5875H211.432V38.9501H197.662V0.548828Z" fill="black"></path><path d="M213.351 0.548828H228.054V6.9115H220.042V16.4555H227.121V22.8182H220.042V32.5821H228.216V38.9448H213.351V0.548828Z" fill="black"></path><path d="M230.414 0.548828H237.325C244.183 0.548828 249.176 4.17025 249.176 12.7837V13.2768C249.176 18.2689 247.2 21.4502 244.669 23.3723L249.825 38.9528H242.694L238.359 25.5647H237.097V38.9528H230.414V0.548828ZM237.436 19.5308C240.353 19.5308 242.473 17.8314 242.473 13.3325V12.8924C242.473 8.06473 240.17 6.79485 237.261 6.79485H237.097V19.5202L237.436 19.5308Z" fill="black"></path></svg> 