<svg width="20" height="21" viewBox="0 0 20 21" fill="none" xmlns="http://www.w3.org/2000/svg">
<path d="M10.4166 19.025H3.39993C2.0916 19.025 1.0166 17.975 1.0166 16.675V4.30831C1.0166 3.03331 1.4916 2.04164 2.35827 1.49998C3.23327 0.949977 4.3666 0.966644 5.5416 1.54998L9.2416 3.36664C10.2499 3.86664 11.0416 5.12498 11.0416 6.24164V18.4C11.0416 18.7416 10.7583 19.025 10.4166 19.025ZM3.79993 2.35831C3.50827 2.35831 3.2416 2.42498 3.0166 2.56664C2.53327 2.86664 2.2666 3.49164 2.2666 4.30831V16.675C2.2666 17.2833 2.77493 17.775 3.39993 17.775H9.7916V6.24164C9.7916 5.59998 9.27493 4.77498 8.68327 4.49164L4.98327 2.67498C4.55827 2.46664 4.15827 2.35831 3.79993 2.35831Z" fill="#9B9FA3"/>
<path d="M15.6753 19.0248H10.417C10.0753 19.0248 9.79199 18.7415 9.79199 18.3998V8.7498C9.79199 8.55813 9.87533 8.38313 10.0253 8.26647C10.1753 8.1498 10.3587 8.0998 10.5503 8.14147L10.942 8.2248L16.392 9.44147C18.0503 9.80813 18.8837 10.7831 18.9337 12.4415C18.942 12.4415 18.942 12.5248 18.942 12.6165V15.7665C18.9337 17.8998 17.8087 19.0248 15.6753 19.0248ZM11.042 17.7748H15.6753C17.142 17.7748 17.6837 17.2331 17.6837 15.7665V12.5498C17.642 11.4081 17.2087 10.8998 16.117 10.6581L11.042 9.5248V17.7748Z" fill="#9B9FA3"/>
<path d="M7.47468 8.19141H4.58301C4.24134 8.19141 3.95801 7.90807 3.95801 7.56641C3.95801 7.22474 4.24134 6.94141 4.58301 6.94141H7.47468C7.81634 6.94141 8.09968 7.22474 8.09968 7.56641C8.09968 7.90807 7.82468 8.19141 7.47468 8.19141Z" fill="#9B9FA3"/>
<path d="M7.47468 11.5244H4.58301C4.24134 11.5244 3.95801 11.2411 3.95801 10.8994C3.95801 10.5577 4.24134 10.2744 4.58301 10.2744H7.47468C7.81634 10.2744 8.09968 10.5577 8.09968 10.8994C8.09968 11.2411 7.82468 11.5244 7.47468 11.5244Z" fill="#9B9FA3"/>
<path d="M12.6836 14.8585C11.3086 14.8585 10.1836 13.7335 10.1836 12.3585V8.83346C10.1836 8.6418 10.2669 8.4668 10.4169 8.3418C10.5669 8.2168 10.7586 8.17513 10.9419 8.2168L14.6919 9.05846C14.9753 9.12513 15.1836 9.37513 15.1836 9.6668V12.3501C15.1836 13.7335 14.0669 14.8585 12.6836 14.8585ZM11.4336 9.6168V12.3585C11.4336 13.0501 11.9919 13.6085 12.6836 13.6085C13.3753 13.6085 13.9336 13.0501 13.9336 12.3585V10.1751L11.4336 9.6168Z" fill="#9B9FA3"/>
<path d="M16.4336 14.8579C15.0586 14.8579 13.9336 13.7329 13.9336 12.3579V9.6746C13.9336 9.48294 14.0169 9.30794 14.1669 9.19127C14.3169 9.0746 14.5086 9.0246 14.6919 9.06627L16.3836 9.44127C18.0419 9.80794 18.8753 10.7829 18.9253 12.4413C18.9253 12.4579 18.9253 12.4746 18.9253 12.4913C18.8586 13.8163 17.7669 14.8579 16.4336 14.8579ZM15.1836 10.4496V12.3579C15.1836 13.0496 15.7419 13.6079 16.4336 13.6079C17.0919 13.6079 17.6336 13.0996 17.6753 12.4496C17.6336 11.3996 17.2003 10.8996 16.1169 10.6579L15.1836 10.4496Z" fill="#9B9FA3"/>
</svg>
