<svg width="20" height="21" viewBox="0 0 20 21" fill="none" xmlns="http://www.w3.org/2000/svg">
<path d="M10.0003 19.0251C5.05866 19.0251 1.04199 15.0084 1.04199 10.0667C1.04199 5.12507 5.05866 1.1084 10.0003 1.1084C14.942 1.1084 18.9587 5.12507 18.9587 10.0667C18.9587 15.0084 14.942 19.0251 10.0003 19.0251ZM10.0003 2.3584C5.75033 2.3584 2.29199 5.81673 2.29199 10.0667C2.29199 14.3167 5.75033 17.7751 10.0003 17.7751C14.2503 17.7751 17.7087 14.3167 17.7087 10.0667C17.7087 5.81673 14.2503 2.3584 10.0003 2.3584Z" fill="#9B9FA3"/>
<path d="M7.5002 18.1914H6.66686C6.3252 18.1914 6.04186 17.9081 6.04186 17.5664C6.04186 17.2247 6.30853 16.9497 6.6502 16.9414C5.34186 12.4747 5.34186 7.65807 6.6502 3.19141C6.30853 3.18307 6.04186 2.90807 6.04186 2.56641C6.04186 2.22474 6.3252 1.94141 6.66686 1.94141H7.5002C7.7002 1.94141 7.89186 2.04141 8.00853 2.19974C8.1252 2.36641 8.15853 2.57474 8.09186 2.76641C6.5252 7.47474 6.5252 12.6581 8.09186 17.3747C8.15853 17.5664 8.1252 17.7747 8.00853 17.9414C7.89186 18.0914 7.7002 18.1914 7.5002 18.1914Z" fill="#9B9FA3"/>
<path d="M12.5 18.1916C12.4333 18.1916 12.3667 18.1833 12.3 18.1583C11.975 18.05 11.7917 17.6916 11.9083 17.3666C13.475 12.6583 13.475 7.47497 11.9083 2.7583C11.8 2.4333 11.975 2.07497 12.3 1.96664C12.6333 1.8583 12.9833 2.0333 13.0917 2.3583C14.75 7.32497 14.75 12.7916 13.0917 17.75C13.0083 18.025 12.7583 18.1916 12.5 18.1916Z" fill="#9B9FA3"/>
<path d="M10 14.3994C7.675 14.3994 5.35833 14.0744 3.125 13.4161C3.11667 13.7494 2.84167 14.0244 2.5 14.0244C2.15833 14.0244 1.875 13.7411 1.875 13.3994V12.5661C1.875 12.3661 1.975 12.1744 2.13333 12.0577C2.3 11.9411 2.50833 11.9077 2.7 11.9744C7.40833 13.5411 12.6 13.5411 17.3083 11.9744C17.5 11.9077 17.7083 11.9411 17.875 12.0577C18.0417 12.1744 18.1333 12.3661 18.1333 12.5661V13.3994C18.1333 13.7411 17.85 14.0244 17.5083 14.0244C17.1667 14.0244 16.8917 13.7577 16.8833 13.4161C14.6417 14.0744 12.325 14.3994 10 14.3994Z" fill="#9B9FA3"/>
<path d="M17.5001 8.19186C17.4335 8.19186 17.3668 8.18353 17.3001 8.15853C12.5918 6.59186 7.40015 6.59186 2.69181 8.15853C2.35848 8.26686 2.00848 8.09186 1.90015 7.76686C1.80015 7.43353 1.97515 7.08353 2.30015 6.9752C7.26681 5.31686 12.7335 5.31686 17.6918 6.9752C18.0168 7.08353 18.2001 7.44186 18.0835 7.76686C18.0085 8.0252 17.7585 8.19186 17.5001 8.19186Z" fill="#9B9FA3"/>
</svg>
