<svg width="20" height="20" viewBox="0 0 20 20" fill="none" xmlns="http://www.w3.org/2000/svg">
<path d="M17.3913 1.28685L10 8.6781L2.60875 1.28685C2.43098 1.12417 2.1973 1.03636 1.95639 1.0417C1.71548 1.04703 1.48592 1.14511 1.31553 1.3155C1.14514 1.48589 1.04706 1.71546 1.04172 1.95636C1.03639 2.19727 1.1242 2.43095 1.28688 2.60873L8.67438 9.99998L1.285 17.3894C1.19473 17.4754 1.12256 17.5786 1.07275 17.6929C1.02293 17.8072 0.996474 17.9304 0.99493 18.0551C0.993385 18.1798 1.01678 18.3035 1.06375 18.419C1.11072 18.5346 1.18031 18.6395 1.26843 18.7278C1.35655 18.816 1.46142 18.8858 1.57687 18.9329C1.69233 18.98 1.81604 19.0036 1.94074 19.0022C2.06544 19.0009 2.18861 18.9746 2.30301 18.9249C2.4174 18.8753 2.52072 18.8033 2.60688 18.7131L10 11.3237L17.3913 18.715C17.569 18.8777 17.8027 18.9655 18.0436 18.9601C18.2845 18.9548 18.5141 18.8567 18.6845 18.6863C18.8549 18.5159 18.9529 18.2864 18.9583 18.0455C18.9636 17.8046 18.8758 17.5709 18.7131 17.3931L11.3219 10.0019L18.7131 2.60873C18.8034 2.52269 18.8756 2.41948 18.9254 2.30515C18.9752 2.19083 19.0017 2.0677 19.0032 1.943C19.0047 1.8183 18.9813 1.69456 18.9344 1.57903C18.8874 1.46351 18.8178 1.35854 18.7297 1.2703C18.6416 1.18205 18.5367 1.11232 18.4213 1.06518C18.3058 1.01805 18.1821 0.994477 18.0574 0.995845C17.9327 0.997212 17.8095 1.02349 17.6951 1.07315C17.5807 1.1228 17.4774 1.19482 17.3913 1.28497V1.28685Z" fill="#474747"/>
</svg>
