<svg width="13" height="11" viewBox="0 0 13 11" fill="none" xmlns="http://www.w3.org/2000/svg">
<g clip-path="url(#clip0_1972_916)">
<path fill-rule="evenodd" clip-rule="evenodd" d="M0.889417 0.347746C1.24197 -0.00481093 1.81358 -0.00481093 2.16614 0.347746L6.68003 4.86163C7.03258 5.21419 7.03258 5.7858 6.68003 6.13836L2.16614 10.6522C1.81358 11.0048 1.24197 11.0048 0.889417 10.6522C0.536861 10.2997 0.536861 9.72808 0.889417 9.37552L4.76495 5.49999L0.889417 1.62447C0.536861 1.27191 0.536861 0.700302 0.889417 0.347746Z" fill="#08483A"/>
<path fill-rule="evenodd" clip-rule="evenodd" d="M6.30608 0.347746C6.65864 -0.00481093 7.23025 -0.00481093 7.58281 0.347746L12.0967 4.86163C12.4493 5.21419 12.4493 5.7858 12.0967 6.13836L7.58281 10.6522C7.23025 11.0048 6.65864 11.0048 6.30608 10.6522C5.95353 10.2997 5.95353 9.72808 6.30608 9.37552L10.1816 5.49999L6.30608 1.62447C5.95353 1.27191 5.95353 0.700302 6.30608 0.347746Z" fill="#08483A"/>
</g>
<defs>
<clipPath id="clip0_1972_916">
<rect width="13" height="11" fill="#08483A"/>
</clipPath>
</defs>
</svg>
