<svg width="20" height="21" viewBox="0 0 20 21" fill="none" xmlns="http://www.w3.org/2000/svg">
<path d="M16.9835 17.6744C16.8169 17.6744 16.6585 17.6078 16.5419 17.4911L11.2252 12.1744C10.9835 11.9327 10.9835 11.5328 11.2252 11.2911L17.6669 4.84942C17.8252 4.69109 18.0669 4.63275 18.2835 4.69109C18.5002 4.75775 18.6669 4.93276 18.7169 5.14942C18.8752 5.85776 18.9585 6.64942 18.9585 7.56608V12.5661C18.9585 14.8744 18.4752 16.4328 17.4252 17.4911C17.3085 17.6078 17.1335 17.6328 16.9835 17.6744ZM12.5502 11.7328L16.9335 16.1161C17.4585 15.3077 17.7085 14.1578 17.7085 12.5661V7.56608C17.7085 7.22442 17.7002 6.90776 17.6752 6.60776L12.5502 11.7328Z" fill="#9B9FA3"/>
<path d="M5.22532 18.8001C5.17532 18.8001 5.13366 18.7917 5.08366 18.7834C2.32533 18.1501 1.04199 16.1751 1.04199 12.5667V7.56673C1.04199 3.04173 2.97533 1.1084 7.50033 1.1084H12.5003C16.1087 1.1084 18.0837 2.39174 18.717 5.15007C18.767 5.3584 18.7003 5.5834 18.5503 5.7334L5.66698 18.6167C5.55032 18.7334 5.39198 18.8001 5.22532 18.8001ZM7.50033 2.3584C3.65866 2.3584 2.29199 3.72507 2.29199 7.56673V12.5667C2.29199 15.4584 3.092 16.9084 5.03367 17.4834L17.4087 5.1084C16.842 3.16673 15.3837 2.36673 12.492 2.36673H7.50033V2.3584Z" fill="#9B9FA3"/>
<path d="M12.5003 19.0249H7.50031C6.58364 19.0249 5.80032 18.9499 5.08365 18.7833C4.85865 18.7333 4.68363 18.5666 4.6253 18.3499C4.55863 18.1333 4.6253 17.8999 4.78364 17.7333L11.2253 11.2916C11.467 11.0499 11.867 11.0499 12.1086 11.2916L17.4253 16.6083C17.542 16.7249 17.6086 16.8833 17.6086 17.0499C17.6086 17.2166 17.542 17.3749 17.4253 17.4916C16.367 18.5416 14.8086 19.0249 12.5003 19.0249ZM6.54198 17.7416C6.84198 17.7666 7.15864 17.7749 7.50031 17.7749H12.5003C14.1003 17.7749 15.242 17.5249 16.0503 16.9999L11.667 12.6166L6.54198 17.7416Z" fill="#9B9FA3"/>
<path d="M7.60011 11.1583C7.07511 11.1583 6.55011 10.9666 6.13344 10.5749C4.80844 9.31661 4.27513 7.93328 4.59179 6.58328C4.90846 5.19995 6.11678 4.2666 7.60011 4.2666C9.08345 4.2666 10.2918 5.19995 10.6085 6.58328C10.9168 7.94161 10.3834 9.31661 9.05845 10.5749C8.65011 10.9583 8.12511 11.1583 7.60011 11.1583ZM5.80845 6.85827C5.54179 7.9916 6.30845 9.00828 7.00011 9.66661C7.34178 9.99161 7.86678 9.99161 8.20011 9.66661C8.88345 9.01661 9.65011 7.99994 9.39178 6.85827C9.16677 5.8666 8.28345 5.50827 7.60011 5.50827C6.91678 5.50827 6.04179 5.8666 5.80845 6.85827Z" fill="#9B9FA3"/>
<path d="M7.62533 7.97428C7.16699 7.97428 6.79199 7.59928 6.79199 7.14095C6.79199 6.68262 7.15866 6.30762 7.62533 6.30762H7.63367C8.092 6.30762 8.467 6.68262 8.467 7.14095C8.467 7.59928 8.08366 7.97428 7.62533 7.97428Z" fill="#9B9FA3"/>
</svg>
