<svg width="61" height="40" viewBox="0 0 61 40" fill="none" xmlns="http://www.w3.org/2000/svg">
<g clip-path="url(#clip0_2501_3057)">
<path d="M4.14032 2.13086H56.2369C57.8812 2.13086 59.214 3.44411 59.214 5.06392V35.8611C59.214 37.4809 57.8812 38.7941 56.2369 38.7941H4.14032C2.49621 38.7941 1.16333 37.4809 1.16333 35.8611V5.06392C1.16333 3.44411 2.49621 2.13086 4.14032 2.13086Z" stroke="#393939" stroke-width="2.24781"/>
<path d="M54.6723 20.4609C54.6723 28.6998 47.8548 35.4052 39.4752 35.4052C35.9802 35.4052 32.7582 34.2362 30.1879 32.2812C27.619 34.2362 24.397 35.4052 20.9021 35.4052C12.523 35.4052 5.70581 28.6999 5.70581 20.4609C5.70581 12.2212 12.5231 5.51978 20.9021 5.51978C24.3972 5.51978 27.6193 6.68435 30.1879 8.64211C32.7583 6.68435 35.9803 5.51978 39.4752 5.51978C47.8544 5.51978 54.6723 12.2219 54.6723 20.4609ZM39.4535 6.83903C36.3709 6.83903 33.5251 7.83209 31.2256 9.50793C33.3108 11.4161 34.853 13.8941 35.5898 16.6868H34.1813C33.4598 14.2178 32.0493 12.038 30.1657 10.3606C28.2842 12.038 26.8727 14.2178 26.1538 16.6868H24.7432C25.4818 13.8941 27.0239 11.4161 29.1092 9.50793C26.8087 7.83209 23.964 6.83903 20.8797 6.83903C13.2388 6.83903 7.0445 12.9296 7.0445 20.4446C7.0445 27.9575 13.2388 34.0501 20.8797 34.0501C23.9639 34.0501 26.8086 33.057 29.1092 31.3814C27.1471 29.5845 25.6669 27.2823 24.8843 24.6911H26.3086C27.0651 26.9601 28.4083 28.9628 30.1657 30.5284C31.9251 28.9628 33.27 26.9601 34.0266 24.6911H35.4504C34.6665 27.2825 33.1867 29.5846 31.2255 31.3814C33.5247 33.057 36.3705 34.0501 39.4534 34.0501C47.0943 34.0501 53.2887 27.9576 53.2887 20.4446C53.2887 12.9297 47.0945 6.83903 39.4535 6.83903Z" fill="#393939" stroke="#979797" stroke-width="0.074927"/>
<path d="M15.2839 17.1788H13.0685L11.684 21.2373L11.6264 17.1788H9.5733L8.45874 23.7361H9.7948L10.6529 18.7264L10.7727 23.7361H11.7461L13.5703 18.6965L12.7529 23.7361H14.1798L15.2839 17.1788ZM18.961 23.73H17.7783L17.8058 23.1766C17.4448 23.6135 16.964 23.8225 16.3107 23.8225C15.5359 23.8225 15.0082 23.2276 15.0082 22.3671C15.0082 21.0668 15.9285 20.311 17.5116 20.311C17.6739 20.311 17.8815 20.3258 18.0938 20.3526C18.1379 20.1752 18.1486 20.1007 18.1486 20.0053C18.1486 19.6534 17.9012 19.5207 17.234 19.5207C16.5366 19.5118 15.9604 19.6834 15.724 19.7609C15.7391 19.6714 15.9227 18.562 15.9227 18.562C16.6324 18.3563 17.1021 18.2788 17.63 18.2788C18.8551 18.2788 19.5043 18.8185 19.5027 19.8414C19.5043 20.1158 19.4587 20.4541 19.3873 20.9002C19.2631 21.6708 18.9977 23.3258 18.9611 23.7298V23.73H18.961ZM17.9585 21.3794C17.8084 21.3643 17.743 21.3584 17.64 21.3584C16.8302 21.3584 16.4222 21.631 16.4222 22.168C16.4222 22.5008 16.6224 22.7122 16.9317 22.7122C17.5142 22.7122 17.9324 22.168 17.9585 21.3794ZM37.6461 17.0322C35.755 17.0322 34.4325 18.6693 34.4325 21.0134C34.4325 22.7547 35.3897 23.8433 36.9257 23.8433C37.3199 23.8433 37.661 23.7925 38.1857 23.6495L38.4359 22.1568C37.9643 22.3851 37.5763 22.4938 37.2241 22.4938C36.3947 22.4938 35.8941 21.8913 35.8941 20.8967C35.8941 19.452 36.639 18.4396 37.7049 18.4396C38.1007 18.4396 38.4707 18.5411 38.9801 18.7946L39.2136 17.3723C39.0046 17.2916 38.269 17.0322 37.6461 17.0322ZM42.7784 23.73H41.5973L41.6246 23.1766C41.2621 23.6135 40.7799 23.8225 40.1277 23.8225C39.3545 23.8225 38.8237 23.2276 38.8237 22.3671C38.8237 21.0668 39.7472 20.311 41.3288 20.311C41.4911 20.311 41.6988 20.3258 41.9114 20.3526C41.955 20.1752 41.9658 20.1007 41.9658 20.0053C41.9658 19.6534 41.7186 19.5207 41.0527 19.5207C40.3539 19.5118 39.7793 19.6834 39.5425 19.7609C39.5562 19.6714 39.7398 18.562 39.7398 18.562C40.4508 18.3563 40.9208 18.2788 41.4455 18.2788C42.6724 18.2788 43.3216 18.8185 43.3199 19.8414C43.3229 20.1158 43.276 20.4541 43.2047 20.9002C43.0819 21.6708 42.8153 23.3258 42.7786 23.7298V23.73H42.7784ZM41.7754 21.3794C41.6268 21.3643 41.5601 21.3584 41.4554 21.3584C40.6471 21.3584 40.2376 21.631 40.2376 22.168C40.2376 22.5008 40.4379 22.7122 40.7504 22.7122C41.3313 22.7122 41.7512 22.168 41.7754 21.3794ZM25.9827 22.4942C25.8871 22.5271 25.7613 22.5447 25.5991 22.5447C25.2595 22.5447 25.1094 22.4257 25.1094 22.1497C25.1125 21.9799 25.3475 20.7184 25.5114 19.7059H26.2434L26.4377 18.4236H25.7082L25.8735 17.6188H24.4556C24.4556 17.6188 23.919 20.7573 23.8386 21.2537C23.7476 21.8218 23.6325 22.4406 23.6413 22.6761C23.6413 23.4352 24.0387 23.8482 24.7679 23.8482C25.0988 23.8482 25.4031 23.7944 25.7948 23.6753L25.9827 22.4942ZM30.3418 23.6077C29.8536 23.754 29.3832 23.8225 28.8861 23.8225C27.2966 23.8192 26.4689 23.0039 26.4689 21.4428C26.4689 19.6206 27.5227 18.2787 28.9527 18.2787C30.1218 18.2787 30.8696 19.0287 30.8696 20.2095C30.8696 20.6001 30.8164 20.9804 30.6934 21.5217H27.8699C27.7744 22.2925 28.2781 22.6146 29.103 22.6146C29.6107 22.6146 30.0673 22.5131 30.5768 22.2806L30.3418 23.6077ZM29.5983 20.4797C29.6074 20.3694 29.7482 19.5253 28.9385 19.5253C28.4865 19.5253 28.1621 19.8669 28.0319 20.4797H29.5983ZM20.0907 20.0829C20.0907 20.7584 20.4211 21.2221 21.1763 21.5725C21.7541 21.8408 21.8435 21.9184 21.8435 22.1617C21.8435 22.4923 21.5887 22.6416 21.0231 22.6416C20.5986 22.6416 20.2013 22.5788 19.7447 22.4329C19.7447 22.4329 19.5569 23.6078 19.5477 23.6646C19.8738 23.7333 20.1618 23.7984 21.0337 23.8226C22.5393 23.8226 23.2341 23.2573 23.2341 22.0407C23.2341 21.3057 22.9443 20.8793 22.2284 20.5554C21.6312 20.2841 21.5614 20.2245 21.5614 19.9756C21.5614 19.6862 21.7995 19.5401 22.2619 19.5401C22.5408 19.5401 22.9245 19.5701 23.2854 19.6208L23.4888 18.3831C23.1187 18.3265 22.5593 18.2788 22.2331 18.2788C20.6364 18.2787 20.0845 19.0973 20.0907 20.0829ZM50.8106 23.7362H49.4597L49.5279 23.2399C49.1351 23.6501 48.7335 23.8289 48.2118 23.8289C47.1744 23.8289 46.4891 22.9506 46.4891 21.6177C46.4891 19.8416 47.5518 18.3477 48.8103 18.3477C49.3626 18.3477 49.7839 18.5684 50.1739 19.074L50.4892 17.179H51.8966L50.8106 23.7362ZM48.7088 22.5141C49.3729 22.5141 49.8414 21.7727 49.8414 20.7171C49.8414 20.0387 49.5762 19.6718 49.0845 19.6718C48.4371 19.6718 47.9776 20.413 47.9776 21.4612C47.9776 22.1606 48.2236 22.5141 48.7088 22.5141ZM44.3205 18.4097C44.1417 20.0589 43.8247 21.7303 43.5776 23.3824L43.5123 23.7416H44.9377C45.4488 20.4809 45.5729 19.8442 46.3721 19.9246C46.4993 19.2552 46.7359 18.6724 46.9148 18.3772C46.3163 18.2546 45.9823 18.5888 45.5474 19.2196C45.5821 18.9451 45.6444 18.6812 45.6308 18.4097H44.3205ZM31.8193 18.4097C31.64 20.0589 31.3217 21.7303 31.0745 23.3824L31.0092 23.7416H32.436C32.9471 20.4809 33.0699 19.8442 33.869 19.9246C33.9979 19.2552 34.2359 18.6724 34.412 18.3772C33.8159 18.2546 33.4797 18.5888 33.0441 19.2196C33.079 18.9451 33.1409 18.6812 33.129 18.4097H31.8193Z" fill="#393939"/>
</g>
<defs>
<clipPath id="clip0_2501_3057">
<rect width="60.4937" height="38.962" fill="white" transform="translate(0 0.962036)"/>
</clipPath>
</defs>
</svg>
