<svg width="61" height="39" viewBox="0 0 61 39" fill="none" xmlns="http://www.w3.org/2000/svg">
<g clip-path="url(#clip0_2501_3053)">
<path fill-rule="evenodd" clip-rule="evenodd" d="M4.75861 2.33772H56.7224C57.7929 2.33772 58.6606 3.20977 58.6606 4.28621V21.4232C58.6606 21.4232 52.7973 25.4034 46.0041 28.154C35.2146 33.1653 19.5854 36.7022 18.5153 36.7022H4.75853C3.68818 36.7022 2.82033 35.8302 2.82033 34.7537V4.28621C2.82033 3.21032 3.68865 2.33772 4.75861 2.33772ZM0.493652 4.28621V34.7537C0.493652 37.1211 2.40293 39.04 4.75861 39.04H56.7224C59.0774 39.04 60.9873 37.1207 60.9873 34.7537V4.28621C60.9873 1.91888 59.0781 0 56.7224 0H4.75861C2.40355 0 0.493652 1.91927 0.493652 4.28621Z" fill="#393939"/>
<path fill-rule="evenodd" clip-rule="evenodd" d="M5.72205 12.8107V20.5363H8.04811C9.28489 20.5363 10.1782 20.2602 10.9621 19.6444C11.8939 18.9151 12.4448 17.8158 12.4448 16.6789C12.4448 14.3988 10.6439 12.8107 8.06036 12.8107H5.72205ZM9.92139 18.6145C9.42085 19.0418 8.77069 19.2284 7.74129 19.2284H7.31388V14.1198H7.74129C8.77069 14.1198 9.39525 14.2941 9.92139 14.7445C10.4724 15.2086 10.8037 15.9276 10.8037 16.6678C10.8037 17.4093 10.4724 18.1503 9.92139 18.6144V18.6145ZM13.1777 20.5363H14.7707V12.8107H13.1777V20.5363ZM18.6661 15.7566C17.7102 15.4221 17.4294 15.2012 17.4294 14.784C17.4294 14.2974 17.9296 13.9276 18.6162 13.9276C19.0934 13.9276 19.4858 14.1133 19.9008 14.5533L20.7343 13.5208C20.0493 12.954 19.2299 12.6642 18.3344 12.6642C16.8894 12.6642 15.7872 13.6137 15.7872 14.878C15.7872 15.9423 16.3004 16.487 17.7966 16.9965C18.4201 17.2045 18.7376 17.3433 18.8979 17.4364C19.2161 17.6331 19.3755 17.9113 19.3755 18.2357C19.3755 18.8616 18.8492 19.3255 18.1386 19.3255C17.3787 19.3255 16.7668 18.9661 16.3998 18.2952L15.3708 19.2326C16.1048 20.2516 16.9861 20.7032 18.1983 20.7032C19.8538 20.7032 21.0152 19.6621 21.0152 18.1665C21.0152 16.9392 20.4782 16.3835 18.6661 15.7566ZM21.5177 16.658C21.5177 18.9287 23.4026 20.6895 25.8283 20.6895C26.5143 20.6895 27.1015 20.562 27.826 20.2394V18.4655C27.1889 19.0684 26.6247 19.3118 25.9025 19.3118C24.298 19.3118 23.1593 18.2112 23.1593 16.647C23.1593 15.1636 24.3343 13.9936 25.8284 13.9936C26.5884 13.9936 27.1633 14.25 27.826 14.8628V13.0898C27.1264 12.7544 26.5516 12.6153 25.8662 12.6153C23.4527 12.6153 21.5176 14.4117 21.5176 16.658M40.4568 17.988L38.2787 12.7989H36.5386L40.0044 20.7222H40.8617L44.3898 12.7989H42.6631L40.4569 17.9881M45.1103 20.5363H49.628V19.2284H46.7021V17.143H49.5201V15.8345H46.7021V14.1198H49.628V12.8107H45.1103V20.5363ZM55.9355 15.0916C55.9355 13.6453 54.8826 12.8107 53.0453 12.8107H50.6833V20.5363H52.2745V17.4328H52.4821L54.687 20.5363H56.6461L54.0752 17.2818C55.2751 17.0508 55.9355 16.2744 55.9355 15.0916V15.0916ZM52.7399 16.3673H52.2745V14.0276H52.7651C53.7571 14.0276 54.2964 14.4209 54.2964 15.1728C54.2964 15.9494 53.7572 16.3673 52.7399 16.3673ZM28.3447 16.6722V16.6696C28.3447 14.3997 30.2898 12.5624 32.6894 12.5624C35.089 12.5624 37.0343 14.3997 37.0343 16.6696V16.6722C37.0343 18.9422 35.089 20.7822 32.6894 20.7822C30.2898 20.7822 28.3446 18.9421 28.3446 16.6722" fill="#393939"/>
</g>
<defs>
<clipPath id="clip0_2501_3053">
<rect width="60.4937" height="38.962" fill="white" transform="translate(0.493652)"/>
</clipPath>
</defs>
</svg>
