<svg width="61" height="40" viewBox="0 0 61 40" fill="none" xmlns="http://www.w3.org/2000/svg">
<g clip-path="url(#clip0_2501_3062)">
<path d="M4.64188 2.05298H56.8777C58.5263 2.05298 59.8627 3.36335 59.8627 4.97973V35.7114C59.8627 37.3279 58.5263 38.6383 56.8777 38.6383H4.64188C2.99335 38.6383 1.65698 37.328 1.65698 35.7114V4.97973C1.65698 3.36335 2.99335 2.05298 4.64188 2.05298Z" stroke="#393939" stroke-width="2.24781"/>
<path d="M23.517 27.6666L26.0065 13.3426H29.9885L27.4972 27.6666H23.517ZM41.8823 13.6512C41.0934 13.361 39.8574 13.0496 38.3136 13.0496C34.3791 13.0496 31.6076 14.9923 31.5841 17.7766C31.5618 19.8349 33.5626 20.9831 35.0728 21.6682C36.6228 22.3703 37.1438 22.818 37.1364 23.4449C37.1266 24.4051 35.8987 24.8438 34.7543 24.8438C33.1606 24.8438 32.3139 24.6267 31.0063 24.0919L30.4932 23.8643L29.9342 27.0707C30.8643 27.4707 32.5841 27.8171 34.3697 27.835C38.5552 27.835 41.2724 25.9145 41.3033 22.9413C41.3183 21.3118 40.2575 20.0717 37.9602 19.0494C36.5685 18.3869 35.7161 17.9446 35.7252 17.2737C35.7252 16.6783 36.4466 16.0415 38.0053 16.0415C39.3076 16.0217 40.2506 16.3002 40.9856 16.5904L41.3424 16.7557L41.8822 13.651M52.1289 13.3422H49.0522C48.099 13.3422 47.3857 13.5973 46.967 14.5301L41.0537 27.6572H45.2348C45.2348 27.6572 45.9184 25.892 46.0732 25.5046C46.5301 25.5046 50.5919 25.5107 51.1726 25.5107C51.2917 26.0122 51.6569 27.6572 51.6569 27.6572H55.3518L52.1289 13.3418V13.3422ZM47.2473 22.5918C47.5766 21.7665 48.8337 18.5876 48.8337 18.5876C48.8102 18.6259 49.1606 17.7583 49.3618 17.2206L49.6308 18.4556C49.6308 18.4556 50.3933 21.8748 50.5526 22.5918H47.2473ZM20.1376 13.3422L16.2393 23.1099L15.8239 21.1248C15.0982 18.8364 12.8372 16.3572 10.3094 15.116L13.8738 27.6431L18.0867 27.6383L24.3553 13.3416H20.1376" fill="#393939"/>
<path d="M12.6009 13.3427H6.18032L6.12952 13.6407C11.1246 14.8264 14.4296 17.6915 15.8023 21.1344L14.4061 14.5519C14.1651 13.645 13.4661 13.3744 12.6013 13.3427" fill="#393939"/>
</g>
<defs>
<clipPath id="clip0_2501_3062">
<rect width="60.4937" height="38.962" fill="white" transform="translate(0.493652 0.962036)"/>
</clipPath>
</defs>
</svg>
