<svg width="61" height="39" viewBox="0 0 61 39" fill="none" xmlns="http://www.w3.org/2000/svg">
<g clip-path="url(#clip0_2501_3041)">
<path d="M4.15226 1.16882H56.4578C58.1086 1.16882 59.4467 2.48753 59.4467 4.11435V35.0424C59.4467 36.6691 58.1086 37.9879 56.4578 37.9879H4.15226C2.50148 37.9879 1.16333 36.6691 1.16333 35.0424V4.11435C1.16333 2.48753 2.50148 1.16882 4.15226 1.16882Z" stroke="#393939" stroke-width="2.24781"/>
<path d="M9.11182 15.027H10.8812L9.99673 12.7644L9.11182 15.027Z" fill="#393939"/>
<path d="M18.5214 22.6222V23.6728H21.4972V24.8044H18.5214V26.0168H21.8187L23.3467 24.3194L21.8992 22.6222H18.5214Z" fill="#393939"/>
<path d="M41.7635 12.7644L40.7983 15.027H42.6483L41.7635 12.7644Z" fill="#393939"/>
<path d="M27.1268 26.6626V22.0568L25.0356 24.3195L27.1268 26.6626Z" fill="#393939"/>
<path d="M31.0674 23.3498C30.9869 22.865 30.6649 22.6222 30.1822 22.6222H28.4937V24.0767H30.2631C30.7455 24.0768 31.0674 23.8345 31.0674 23.3498Z" fill="#393939"/>
<path d="M36.6966 23.9155C36.8575 23.8345 36.9382 23.5919 36.9382 23.35C37.0187 23.027 36.8575 22.8651 36.6966 22.7843C36.5362 22.7034 36.2946 22.7034 36.0537 22.7034H34.4448V23.9964H36.0535C36.2945 23.9964 36.5361 23.9964 36.6966 23.9155Z" fill="#393939"/>
<path d="M48.2774 10.6633V11.633L47.7952 10.6633H44.0156V11.633L43.5329 10.6633H38.3858C37.5012 10.6633 36.7771 10.8251 36.134 11.1483V10.6633H32.5151V10.7442V11.1483C32.1131 10.8252 31.6305 10.6633 30.9871 10.6633H18.039L17.154 12.6835L16.2695 10.6633H13.3744H12.168V11.633L11.7658 10.6633H11.6853H8.22722L6.61851 14.461L4.76899 18.582L4.73499 18.663H4.76899H8.87064H8.92199L8.95114 18.582L9.4339 17.3702H10.4794L10.9619 18.663H15.626V18.582V17.6934L16.0284 18.6629H18.3604L18.7623 17.6934V18.582V18.663H20.6121H29.8608H29.9413V16.562H30.1026C30.2632 16.562 30.2632 16.562 30.2632 16.8045V18.5821H36.0537V18.0973C36.5363 18.3401 37.2596 18.5821 38.2248 18.5821H40.6378L41.1203 17.2896H42.2459L42.7285 18.5821H47.3928V17.7743V17.3703L48.1169 18.5821H48.2774H48.3581H51.8967V10.6633H48.2776H48.2774ZM21.0145 17.4512H20.2101H19.7276V16.9667V13.0068L19.6471 13.1921V13.1899L17.7762 17.4512H17.717H17.2869H16.5909L14.6609 13.0068V17.4512H11.9267L11.3638 16.2391H8.62914L8.06611 17.4512H6.6524L9.03152 11.7947H11.0419L13.2937 17.2086V11.7947H13.7761H15.4244L15.4623 11.8757H15.4651L16.4798 14.0946L17.2084 15.7571L17.2342 15.6733L18.8426 11.7949H21.0143V17.4512H21.0145ZM26.5638 13.0068H23.4272V14.0572H26.4833V15.1884H23.4272V16.32H26.5638V17.5317H22.0601V11.7949H26.5638V13.0068ZM32.3 15.0904C32.3021 15.0923 32.3047 15.0936 32.3073 15.0953C32.3377 15.1276 32.3637 15.16 32.3859 15.1911C32.54 15.394 32.6645 15.6958 32.6708 16.1383C32.6712 16.1459 32.6716 16.1535 32.6721 16.1612C32.6721 16.1656 32.6729 16.1694 32.6729 16.174C32.6729 16.1765 32.6726 16.1785 32.6726 16.1809C32.6745 16.2254 32.6756 16.2709 32.6756 16.32V17.4513H31.4695V16.8046C31.4695 16.4814 31.4695 15.9965 31.2279 15.6733C31.1519 15.597 31.075 15.5467 30.9913 15.5109C30.8708 15.4324 30.6423 15.4311 30.2632 15.4311H28.8151V17.4513H27.4483V11.7949H30.5046C31.2279 11.7949 31.7107 11.7949 32.113 12.0373C32.507 12.275 32.745 12.6693 32.7541 13.2937C32.7354 14.1537 32.1861 14.6255 31.7911 14.7846C31.7911 14.7846 32.0594 14.8388 32.3 15.0904ZM35.0082 17.4512H33.6408V11.7947H35.0082V17.4512ZM50.6907 17.4512H48.9211L46.3477 13.1683V16.7237L46.3392 16.7154V17.4547H44.9806V17.4513H43.6133L43.1307 16.2393H40.3157L39.8331 17.5319H38.3052C37.6622 17.5319 36.8574 17.3704 36.3751 16.8856C35.8926 16.4008 35.6516 15.7543 35.6516 14.704C35.6516 13.896 35.8122 13.0874 36.3751 12.4412C36.7769 11.956 37.5011 11.7949 38.3855 11.7949H39.6726V13.0068H38.3855C37.903 13.0068 37.6622 13.0873 37.3399 13.3302C37.0991 13.5725 36.9381 14.0572 36.9381 14.6228C36.9381 15.2694 37.0186 15.6733 37.3399 15.9965C37.5817 16.2393 37.9031 16.3201 38.3052 16.3201H38.8681L40.7176 11.876H41.5222H42.7283L44.9805 17.2898V17.0137V15.1886V15.0272V11.8761H46.9909L49.3227 15.8353V11.8761H50.6905V17.4514H50.6907V17.4512Z" fill="#393939"/>
<path d="M31.1531 14.1507C31.1766 14.1255 31.1979 14.0969 31.2159 14.0641C31.2888 13.9482 31.3723 13.7395 31.3273 13.4547C31.3255 13.4286 31.3207 13.4044 31.3152 13.381C31.3137 13.3745 31.3139 13.3688 31.3122 13.3623L31.3113 13.3624C31.2713 13.224 31.1692 13.139 31.0673 13.0874C30.9061 13.0068 30.6648 13.0068 30.4237 13.0068H28.8149V14.2999H30.4237C30.6648 14.2999 30.9062 14.2999 31.0673 14.2189C31.0915 14.2066 31.113 14.1898 31.1337 14.1709L31.1339 14.1719C31.1339 14.1719 31.1423 14.1632 31.1531 14.1507Z" fill="#393939"/>
<path d="M55.4353 25.5317C55.4353 24.9661 55.2747 24.4003 55.0335 23.9964V20.3603H55.0298V20.1175C55.0298 20.1175 51.6589 20.1175 51.1572 20.1175C50.6557 20.1175 50.0471 20.6022 50.0471 20.6022V20.1175H46.3478C45.7845 20.1175 45.0612 20.2793 44.7391 20.6022V20.1175H38.1446V20.3603V20.6021C37.6624 20.1984 36.7771 20.1174 36.3753 20.1174H32.0324V20.3602V20.602C31.6303 20.1983 30.6648 20.1173 30.182 20.1173H25.3574L24.2312 21.3295L23.1856 20.1173H22.849H22.3011H15.9479V20.3601V20.9984V28.279H23.0251L24.1879 27.1103L25.1959 28.279H25.2767H29.3546H29.5394H29.6199H29.7V27.471V26.4206H30.1023C30.6648 26.4206 31.3889 26.4206 31.9519 26.1778V28.1978V28.3598H35.571V28.1978V26.2587H35.7314C35.973 26.2587 35.973 26.2587 35.973 26.5011V28.1978V28.3598H46.9101C47.6345 28.3598 48.3579 28.1978 48.7599 27.8746V28.1978V28.3598H52.2184C52.9417 28.3598 53.6661 28.279 54.1486 27.9556C54.8891 27.5092 55.3557 26.7191 55.4251 25.7768C55.4284 25.7489 55.4324 25.721 55.435 25.693L55.4302 25.6885C55.4332 25.6362 55.4353 25.5845 55.4353 25.5317ZM30.1024 25.047H28.4936V25.2888V25.7739V26.2588V27.1477H25.8502L24.3117 25.3698L24.3064 25.3758L24.2312 25.2888L22.462 27.1477H17.315V21.4915H22.5425L23.9706 23.0632L24.2709 23.3923L24.3116 23.3499L26.0007 21.4916H30.263C31.0902 21.4916 32.0165 21.6967 32.3675 22.5424C32.4097 22.7098 32.4343 22.896 32.4343 23.1075C32.4343 24.7235 31.3083 25.047 30.1024 25.047ZM38.1446 24.966C38.3053 25.2078 38.3858 25.5316 38.3858 26.0166V27.1476H37.0188V26.4206C37.0188 26.0968 37.0188 25.5316 36.7772 25.2888C36.6168 25.047 36.2946 25.047 35.8125 25.047H34.365V27.1477H32.9979V21.4106H36.0537C36.6967 21.4106 37.2596 21.4106 37.6624 21.6528C38.0642 21.8954 38.3858 22.2995 38.3858 22.9459C38.3858 23.8346 37.8231 24.3194 37.4208 24.4813C37.8231 24.6422 38.0642 24.8044 38.1446 24.966ZM43.694 22.6222H40.5571V23.6727H43.6133V24.8042H40.5571V25.9357H43.694V27.1476H39.1903V21.4105H43.694V22.6222ZM47.0715 27.1477H44.4978V25.9358H47.0715C47.3123 25.9358 47.4735 25.9358 47.6348 25.774C47.7153 25.693 47.7952 25.5317 47.7952 25.3699C47.7952 25.208 47.7153 25.0471 47.6348 24.9661C47.554 24.8854 47.3929 24.8045 47.1518 24.8045C45.8649 24.7236 44.3369 24.8045 44.3369 23.0269C44.3369 22.2188 44.8195 21.3298 46.2672 21.3298H48.921V22.7033H46.4281C46.1869 22.7033 46.0258 22.7033 45.8648 22.7842C45.7044 22.8652 45.7044 23.0269 45.7044 23.1884C45.7044 23.4309 45.8648 23.5118 46.0257 23.592C46.1869 23.6729 46.3476 23.6729 46.5082 23.6729H47.2321C47.9561 23.6729 48.4385 23.8346 48.7601 24.1579C49.0015 24.4004 49.1624 24.8045 49.1624 25.3699C49.1624 26.5817 48.4386 27.1477 47.0715 27.1477ZM53.9878 26.5817C53.6665 26.9053 53.1033 27.1477 52.2987 27.1477H49.7258V25.9358H52.2986C52.54 25.9358 52.7012 25.9358 52.8619 25.774C52.942 25.693 53.0228 25.5317 53.0228 25.3699C53.0228 25.208 52.942 25.0471 52.8619 24.9661C52.7814 24.8854 52.6207 24.8045 52.3794 24.8045C51.093 24.7236 49.5645 24.8045 49.5645 23.0271C49.5645 22.259 50.0019 21.5653 51.0804 21.3592C51.2093 21.3413 51.3456 21.3298 51.4948 21.3298H54.149V22.7033H52.3794H51.7362H51.6557C51.4143 22.7033 51.2536 22.7033 51.093 22.7842C51.012 22.8652 50.9315 23.0269 50.9315 23.1884C50.9315 23.4309 51.012 23.5118 51.2536 23.592C51.4143 23.6729 51.5752 23.6729 51.7362 23.6729H51.8161H52.4597C52.8112 23.6729 53.077 23.7165 53.3202 23.8024C53.543 23.8834 54.2805 24.2148 54.4454 25.08C54.4597 25.1706 54.4703 25.2652 54.4703 25.3699C54.4703 25.8549 54.3094 26.2588 53.9878 26.5817Z" fill="#393939"/>
</g>
<defs>
<clipPath id="clip0_2501_3041">
<rect width="60.4937" height="38.962" fill="white"/>
</clipPath>
</defs>
</svg>
