<svg width="20" height="21" viewBox="0 0 20 21" fill="none" xmlns="http://www.w3.org/2000/svg">
<g clip-path="url(#clip0_339_14518)">
<path d="M9.85748 9.70049C11.181 9.70049 12.3269 9.22576 13.2635 8.28916C14.1998 7.35276 14.6747 6.20698 14.6747 4.88331C14.6747 3.56003 14.2 2.41414 13.2634 1.47738C12.3268 0.541093 11.1808 0.0664062 9.85748 0.0664062C8.53378 0.0664062 7.38796 0.541093 6.45155 1.47754C5.51515 2.41398 5.04027 3.55992 5.04027 4.88331C5.04027 6.20698 5.51511 7.35291 6.45159 8.28936C7.38831 9.22565 8.53424 9.70049 9.85744 9.70049H9.85748ZM7.28042 2.30625C7.99893 1.58769 8.84186 1.23844 9.85748 1.23844C10.873 1.23844 11.716 1.58769 12.4347 2.30625C13.1532 3.02492 13.5026 3.86796 13.5026 4.88327C13.5026 5.89889 13.1532 6.74182 12.4347 7.46049C11.716 8.1792 10.873 8.52846 9.85748 8.52846C8.84213 8.52846 7.99928 8.17905 7.28042 7.46049C6.56171 6.74198 6.2123 5.89893 6.2123 4.88331C6.2123 3.86796 6.56171 3.02492 7.28042 2.30625ZM18.2863 15.4454C18.2592 15.0557 18.2046 14.6306 18.1242 14.1817C18.043 13.7294 17.9385 13.3018 17.8134 12.9111C17.684 12.5072 17.5084 12.1083 17.2909 11.7261C17.0655 11.3294 16.8007 10.9839 16.5034 10.6996C16.1926 10.4022 15.812 10.1631 15.372 9.98869C14.9335 9.81525 14.4474 9.72736 13.9276 9.72736C13.7234 9.72736 13.526 9.81111 13.1447 10.0594C12.8736 10.2359 12.6017 10.4112 12.3291 10.5852C12.0671 10.7521 11.7122 10.9085 11.2738 11.0501C10.8461 11.1885 10.4118 11.2587 9.98303 11.2587C9.55459 11.2587 9.1203 11.1885 8.69229 11.0501C8.2544 10.9086 7.89932 10.7523 7.63776 10.5853C7.33425 10.3914 7.05964 10.2144 6.82143 10.0592C6.44042 9.81096 6.24296 9.72717 6.03882 9.72717C5.51878 9.72717 5.03296 9.81522 4.59456 9.98889C4.1548 10.163 3.7741 10.4021 3.46297 10.6998C3.16574 10.9842 2.90086 11.3295 2.67562 11.7261C2.45851 12.1083 2.28273 12.507 2.15332 12.9112C2.02832 13.302 1.92383 13.7294 1.84266 14.1817C1.76207 14.63 1.70762 15.0552 1.68059 15.4459C1.65402 15.8278 1.64062 16.2253 1.64062 16.6269C1.64062 17.6709 1.9725 18.5161 2.62695 19.1394C3.27332 19.7545 4.12843 20.0664 5.16859 20.0664H14.7987C15.8386 20.0664 16.6937 19.7545 17.3402 19.1394C17.9948 18.5165 18.3267 17.6711 18.3267 16.6267C18.3265 16.2238 18.313 15.8263 18.2863 15.4454ZM16.5321 18.2902C16.105 18.6967 15.538 18.8943 14.7985 18.8943H5.16863C4.42906 18.8943 3.86203 18.6967 3.43507 18.2904C3.01625 17.8917 2.81269 17.3474 2.81269 16.6269C2.81269 16.2521 2.82504 15.8821 2.8498 15.5269C2.87386 15.1784 2.92316 14.7955 2.99629 14.3887C3.06843 13.987 3.16027 13.6099 3.26953 13.2686C3.37437 12.9413 3.51734 12.6172 3.69464 12.305C3.86386 12.0074 4.05855 11.7522 4.27339 11.5465C4.47437 11.3541 4.72769 11.1966 5.02613 11.0785C5.30214 10.9692 5.61237 10.9094 5.94913 10.9004C5.99015 10.9223 6.06327 10.9639 6.18167 11.0411C6.42261 11.1981 6.7003 11.3773 7.00733 11.5733C7.35343 11.794 7.79925 11.9933 8.33194 12.1652C8.87651 12.3413 9.43194 12.4307 9.98323 12.4307C10.5346 12.4307 11.0901 12.3413 11.6344 12.1654C12.1675 11.9931 12.6132 11.794 12.9598 11.573C13.274 11.3722 13.5439 11.1983 13.7848 11.0411C13.9032 10.964 13.9763 10.9222 14.0174 10.9004C14.3543 10.9094 14.6645 10.9692 14.9406 11.0785C15.239 11.1966 15.4923 11.3542 15.6932 11.5465C15.9081 11.752 16.1027 12.0073 16.272 12.3052C16.4494 12.6172 16.5926 12.9415 16.6972 13.2684C16.8067 13.6102 16.8986 13.9871 16.9707 14.3886C17.0436 14.7961 17.0931 15.1791 17.1172 15.527V15.5274C17.142 15.8812 17.1545 16.2511 17.1547 16.6269C17.1545 17.3476 16.951 17.8917 16.5322 18.2902H16.5321Z" fill="#9B9FA3"/>
</g>
<defs>
<clipPath id="clip0_339_14518">
<rect width="20" height="20" fill="white" transform="translate(0 0.0664062)"/>
</clipPath>
</defs>
</svg>
