<svg xmlns="http://www.w3.org/2000/svg" width="104" height="22" viewBox="0 0 104 22" fill="none"><path d="M31.7594 16.6848H27.8566L26.9383 19.4213H25.293L28.9662 9.27344H30.688L34.3613 19.4213H32.6777L31.7594 16.6848ZM28.2775 15.3926H31.3768L29.8463 10.9458H29.808L28.2775 15.3926Z" fill="#010101"></path><path d="M42.3576 15.7332C42.3576 18.0897 41.1332 19.572 39.2583 19.572C38.1869 19.572 37.3451 19.0399 36.9243 18.2417H36.886V21.8904H35.3555V12.0086H36.8477V13.3008H36.886C37.3069 12.4646 38.1869 11.8945 39.2583 11.8945C41.0949 11.8945 42.3576 13.3768 42.3576 15.7332ZM40.7506 15.7332C40.7506 14.175 39.9853 13.1868 38.7991 13.1868C37.613 13.1868 36.8477 14.213 36.8477 15.7332C36.8477 17.2915 37.613 18.2797 38.7991 18.2797C40.0236 18.2417 40.7506 17.2535 40.7506 15.7332Z" fill="#010101"></path><path d="M50.5482 15.7332C50.5482 18.0897 49.3238 19.572 47.4489 19.572C46.3775 19.572 45.5357 19.0399 45.1149 18.2417H45.0383V21.8904H43.5078V12.0086H45.0001V13.3008H45.0383C45.4592 12.4646 46.3393 11.8945 47.4106 11.8945C49.2855 11.8945 50.5482 13.3768 50.5482 15.7332ZM48.9794 15.7332C48.9794 14.175 48.2142 13.1868 47.028 13.1868C45.8419 13.1868 45.0766 14.213 45.0766 15.7332C45.0766 17.2915 45.8419 18.2797 47.028 18.2797C48.2142 18.2417 48.9794 17.2535 48.9794 15.7332Z" fill="#010101"></path><path d="M51.7695 9.27344H53.3001V19.4213H51.7695V9.27344Z" fill="#010101"></path><path d="M61.2616 17.2535C61.032 18.6218 59.7694 19.572 58.0475 19.572C55.8665 19.572 54.5273 18.0897 54.5273 15.7713C54.5273 13.4528 55.8665 11.8945 57.971 11.8945C60.0372 11.8945 61.3382 13.3388 61.3382 15.5812V16.1133H56.0579V16.1893C56.0579 17.4816 56.8231 18.3177 58.0475 18.3177C58.9276 18.3177 59.5781 17.8997 59.7694 17.2155H61.2616V17.2535ZM56.0961 15.0491H59.8076C59.7694 13.9089 59.0424 13.1108 57.971 13.1108C56.9379 13.1108 56.1726 13.9089 56.0961 15.0491Z" fill="#010101"></path><path d="M65.6602 19.4213V9.27344H69.7543C71.5527 9.27344 72.7771 10.2616 72.7771 11.8199C72.7771 12.8841 71.9735 13.8723 70.9404 14.0243V14.0623C72.3179 14.2144 73.2745 15.2025 73.2745 16.5328C73.2745 18.3191 71.9735 19.4213 69.7926 19.4213H65.6602ZM67.2672 13.5682H69.0273C70.4048 13.5682 71.17 12.9981 71.17 12.01C71.17 11.0598 70.5196 10.5277 69.3717 10.5277H67.2672V13.5682ZM69.4482 18.1291C70.8639 18.1291 71.6292 17.559 71.6292 16.4568C71.6292 15.3546 70.8639 14.7845 69.3334 14.7845H67.2289V18.1291H69.4482Z" fill="#010101"></path><path d="M74.2695 15.7332C74.2695 13.3388 75.6853 11.8945 77.7897 11.8945C79.9325 11.8945 81.3099 13.3388 81.3099 15.7332C81.3099 18.1277 79.8942 19.572 77.7897 19.572C75.6853 19.572 74.2695 18.0897 74.2695 15.7332ZM79.7794 15.7332C79.7794 14.0989 79.0141 13.1488 77.7897 13.1488C76.6036 13.1488 75.8001 14.0989 75.8001 15.7332C75.8001 17.3676 76.5653 18.3177 77.7897 18.3177C79.0141 18.3177 79.7794 17.3676 79.7794 15.7332Z" fill="#010101"></path><path d="M82.4219 15.7332C82.4219 13.3388 83.8376 11.8945 85.9421 11.8945C88.0848 11.8945 89.4623 13.3388 89.4623 15.7332C89.4623 18.1277 88.0465 19.572 85.9421 19.572C83.7993 19.572 82.4219 18.0897 82.4219 15.7332ZM87.9317 15.7332C87.9317 14.0989 87.1665 13.1488 85.9421 13.1488C84.7559 13.1488 83.9524 14.0989 83.9524 15.7332C83.9524 17.3676 84.7177 18.3177 85.9421 18.3177C87.1665 18.3177 87.9317 17.3676 87.9317 15.7332Z" fill="#010101"></path><path d="M95.2759 12.01H97.0743L93.975 15.2025L97.1891 19.4213H95.429L92.9037 16.1527L92.2532 16.7608V19.4213H90.7227V9.27344H92.2532V15.2025L95.2759 12.01Z" fill="#010101"></path><path d="M100.478 11.8945C102.2 11.8945 103.348 12.8447 103.386 14.213H101.932C101.856 13.4908 101.32 13.0347 100.44 13.0347C99.5982 13.0347 99.0625 13.4528 99.0625 14.0229C99.0625 14.479 99.4069 14.8211 100.21 14.9731L101.435 15.2392C102.965 15.5812 103.539 16.1893 103.539 17.2535C103.539 18.6218 102.277 19.534 100.516 19.534C98.6416 19.534 97.532 18.6218 97.3789 17.2155H98.9094C99.0625 17.9757 99.5982 18.3557 100.516 18.3557C101.435 18.3557 102.009 17.9757 102.009 17.3676C102.009 16.8735 101.741 16.6074 100.899 16.4174L99.6747 16.1513C98.259 15.8093 97.5702 15.1631 97.5702 14.0609C97.6085 12.7687 98.7946 11.8945 100.478 11.8945Z" fill="#010101"></path><path d="M28.1239 5.96584C26.7082 5.96584 25.8281 4.97766 25.8281 3.38136C25.8281 1.78506 26.7464 0.796875 28.1239 0.796875C29.2718 0.796875 30.0753 1.443 30.2666 2.43118H29.5014C29.3101 1.82307 28.8509 1.51901 28.1622 1.51901C27.2439 1.51901 26.6699 2.24115 26.6699 3.38136C26.6699 4.55958 27.2439 5.28171 28.2004 5.28171C29.004 5.28171 29.5779 4.78762 29.5779 4.06549V3.95147H28.277V3.30534H30.3049V3.91346C30.2666 5.16769 29.4248 5.96584 28.1239 5.96584Z" fill="#010101"></path><path d="M34.5117 4.82425C34.3586 5.50837 33.7464 5.88844 32.8664 5.88844C31.795 5.88844 31.1445 5.16631 31.1445 3.95008C31.1445 2.77186 31.8333 2.01172 32.8664 2.01172C33.8995 2.01172 34.5499 2.73385 34.5499 3.91207V4.17813H31.9098V4.21613C31.9481 4.86225 32.3307 5.28033 32.9046 5.28033C33.3638 5.28033 33.6699 5.1283 33.7847 4.82425H34.5117ZM31.9098 3.64603H33.8229C33.8229 3.07592 33.4403 2.69585 32.9046 2.69585C32.3307 2.65784 31.9481 3.03791 31.9098 3.64603Z" fill="#010101"></path><path d="M36.5806 1.17578V2.12596H37.3841V2.73407H36.5806V4.67244C36.5806 5.05251 36.7336 5.24254 37.1163 5.24254C37.2311 5.24254 37.3076 5.24254 37.3841 5.24254V5.85066C37.2693 5.88866 37.1163 5.88866 36.9632 5.88866C36.1214 5.88866 35.8153 5.58461 35.8153 4.86247V2.73407H35.2031V2.12596H35.8153V1.17578H36.5806V1.17578Z" fill="#010101"></path><path d="M40.293 0.98628C40.293 0.720231 40.5225 0.492188 40.7521 0.492188C41.02 0.492188 41.2113 0.720231 41.2113 0.98628C41.2113 1.25233 40.9817 1.48037 40.7521 1.48037C40.5225 1.48037 40.293 1.25233 40.293 0.98628ZM40.4078 2.12649H41.1348V5.85119H40.4078V2.12649Z" fill="#010101"></path><path d="M43.3501 1.17578V2.12596H44.1536V2.73407H43.3501V4.67244C43.3501 5.05251 43.5032 5.24254 43.8858 5.24254C44.0006 5.24254 44.0771 5.24254 44.1536 5.24254V5.85066C44.0389 5.88866 43.8858 5.88866 43.7328 5.88866C42.891 5.88866 42.5849 5.58461 42.5849 4.86247V2.73407H41.9727V2.12596H42.5849V1.17578H43.3501V1.17578Z" fill="#010101"></path><path d="M46.9883 3.98914C46.9883 2.77292 47.677 2.05078 48.7484 2.05078C49.858 2.05078 50.5085 2.77292 50.5085 3.98914C50.5085 5.20537 49.8197 5.92751 48.7484 5.92751C47.6387 5.92751 46.9883 5.20537 46.9883 3.98914ZM49.7815 3.98914C49.7815 3.19099 49.3988 2.6969 48.7866 2.6969C48.1362 2.6969 47.7918 3.15299 47.7918 3.98914C47.7918 4.78729 48.1362 5.28139 48.7866 5.28139C49.3988 5.28139 49.7815 4.78729 49.7815 3.98914Z" fill="#010101"></path><path d="M51.5 2.1268H52.227V2.73491H52.2653C52.4566 2.31683 52.8392 2.05078 53.3749 2.05078C54.2167 2.05078 54.6758 2.54487 54.6758 3.45704V5.8895H53.9488V3.64708C53.9488 3.03897 53.681 2.73491 53.1453 2.73491C52.6096 2.73491 52.2653 3.11498 52.2653 3.68509V5.85149H51.5383V2.1268H51.5Z" fill="#010101"></path><path d="M20.7003 6.4232C20.7003 6.19516 20.7003 5.92911 20.7003 5.70107C20.7003 5.51103 20.7003 5.28299 20.7003 5.09295C20.7003 4.63687 20.662 4.18078 20.5855 3.7247C20.509 3.26861 20.3559 2.85053 20.1646 2.43246C19.9733 2.01438 19.7054 1.67231 19.3611 1.33025C19.0167 1.02619 18.6341 0.760142 18.2514 0.532099C17.8305 0.304057 17.4097 0.190035 16.9505 0.114021C16.4913 0.0380068 16.0322 0 15.573 0C15.3817 0 15.1521 0 14.9608 0C14.7312 0 14.4634 0 14.2338 0H6.46644C6.23687 0 5.96902 0 5.73945 0C5.54813 0 5.31855 0 5.12724 0C4.66808 0 4.20893 0.0380068 3.74977 0.114021C3.29062 0.190035 2.86972 0.342064 2.44883 0.532099C2.02794 0.722135 1.68357 0.988185 1.3392 1.33025C1.0331 1.63431 0.76526 2.01438 0.535682 2.43246C0.306104 2.85053 0.191315 3.26861 0.114789 3.7247C0.0382634 4.18078 0 4.63687 0 5.09295C0 5.28299 0 5.51103 0 5.70107C0 5.92911 0 6.19516 0 6.4232V14.1386C0 14.3667 0 14.6327 0 14.8608C0 15.0508 0 15.2789 0 15.4689C0 15.925 0.0382634 16.3811 0.114789 16.8372C0.191315 17.2932 0.344367 17.7113 0.535682 18.1294C0.726997 18.5475 0.994837 18.8895 1.3392 19.2316C1.64531 19.5357 2.02794 19.8397 2.44883 20.0298C2.86972 20.2578 3.29062 20.3718 3.74977 20.4478C4.20893 20.5238 4.66808 20.5618 5.12724 20.5618C5.31855 20.5618 5.54813 20.5618 5.73945 20.5618C5.96902 20.5618 6.23687 20.5618 6.46644 20.5618H14.2338C14.4634 20.5618 14.7312 20.5618 14.9608 20.5618C15.1521 20.5618 15.3817 20.5618 15.573 20.5618C16.0322 20.5618 16.4913 20.5238 16.9505 20.4478C17.4097 20.3718 17.8305 20.2198 18.2514 20.0298C18.6723 19.8397 19.0167 19.5737 19.3611 19.2316C19.6672 18.9275 19.935 18.5475 20.1646 18.1294C20.3942 17.7113 20.509 17.2932 20.5855 16.8372C20.662 16.3811 20.7003 15.925 20.7003 15.4689C20.7003 15.2789 20.7003 15.0508 20.7003 14.8608C20.7003 14.6327 20.7003 14.3667 20.7003 14.1386V6.4232V6.4232Z" fill="url(#paint0_linear_13281_27266)"></path><path d="M9.56499 5.77622C9.90936 6.30832 10.1007 6.46035 10.1007 7.94263C10.1007 9.80497 10.1007 14.4418 10.1007 16.2662C10.1007 16.6082 10.1007 15.43 8.91452 14.5559C7.6901 13.6057 5.58564 13.5297 3.86381 14.7839C3.5577 15.0119 3.32812 14.9739 3.32812 14.6319C3.32812 12.7695 3.32812 8.39871 3.32812 6.53636C3.32812 6.1943 3.36639 5.81423 3.86381 5.43416C5.58564 4.25594 8.22579 4.21793 9.56499 5.77622ZM17.3706 6.57437C17.3706 6.23231 17.3324 5.85223 16.835 5.47216C15.1131 4.21793 12.473 4.21793 11.1338 5.77622C10.7894 6.30832 10.5981 6.46035 10.5981 7.94263C10.5981 9.80497 10.5981 14.4418 10.5981 16.2662C10.5981 16.6082 10.5981 15.43 11.7842 14.5559C13.0087 13.6057 15.1131 13.5297 16.835 14.7839C17.1411 15.0119 17.3706 14.9739 17.3706 14.6319C17.3706 12.8075 17.3706 8.43672 17.3706 6.57437Z" fill="white"></path><defs><linearGradient id="paint0_linear_13281_27266" x1="10.3501" y1="0" x2="10.3501" y2="20.5618" gradientUnits="userSpaceOnUse"><stop stop-color="#FEAC26"></stop><stop offset="1" stop-color="#F38020"></stop></linearGradient></defs></svg>