<svg xmlns="http://www.w3.org/2000/svg" width="79" height="25" viewBox="0 0 79 25" fill="none"><g clip-path="url(#clip0_13281_27253)"><path d="M33.4824 13.0996C33.4824 16.6812 30.5837 19.3204 27.0264 19.3204C23.469 19.3204 20.5703 16.6812 20.5703 13.0996C20.5703 9.49284 23.469 6.87891 27.0264 6.87891C30.5837 6.87891 33.4824 9.49284 33.4824 13.0996ZM30.6563 13.0996C30.6563 10.8615 28.9762 9.33017 27.0264 9.33017C25.0765 9.33017 23.3965 10.8615 23.3965 13.0996C23.3965 15.3153 25.0765 16.8691 27.0264 16.8691C28.9762 16.8691 30.6563 15.3125 30.6563 13.0996Z" fill="#EA4940"></path><path d="M47.4082 13.0996C47.4082 16.6812 44.5095 19.3204 40.9521 19.3204C37.3948 19.3204 34.4961 16.6812 34.4961 13.0996C34.4961 9.49565 37.3948 6.87891 40.9521 6.87891C44.5095 6.87891 47.4082 9.49284 47.4082 13.0996ZM44.582 13.0996C44.582 10.8615 42.902 9.33017 40.9521 9.33017C39.0023 9.33017 37.3223 10.8615 37.3223 13.0996C37.3223 15.3153 39.0023 16.8691 40.9521 16.8691C42.902 16.8691 44.582 15.3125 44.582 13.0996Z" fill="#FABF12"></path><path d="M60.7556 7.25473V18.4229C60.7556 23.0169 57.9526 24.8932 54.639 24.8932C51.5198 24.8932 49.6424 22.8767 48.9345 21.2275L51.395 20.2375C51.8332 21.25 52.9067 22.4447 54.6361 22.4447C56.7572 22.4447 58.0716 21.1798 58.0716 18.7987V17.904H57.9729C57.3404 18.6585 56.1217 19.3176 54.5839 19.3176C51.366 19.3176 48.418 16.6083 48.418 13.1221C48.418 9.61064 51.366 6.87891 54.5839 6.87891C56.1188 6.87891 57.3375 7.538 57.9729 8.27001H58.0716V7.25753H60.7556V7.25473ZM58.2718 13.1221C58.2718 10.9316 56.7601 9.33017 54.8363 9.33017C52.8864 9.33017 51.2528 10.9316 51.2528 13.1221C51.2528 15.2901 52.8864 16.8691 54.8363 16.8691C56.7601 16.8691 58.2718 15.2901 58.2718 13.1221Z" fill="#4E8BF4"></path><path d="M65.1823 0.710938V18.9412H62.4258V0.710938H65.1823Z" fill="#32A258"></path><path d="M75.9221 15.1498L78.1158 16.5634C77.4078 17.5759 75.7016 19.3204 72.7536 19.3204C69.0976 19.3204 66.3672 16.5886 66.3672 13.0996C66.3672 9.40029 69.1208 6.87891 72.4373 6.87891C75.7771 6.87891 77.4107 9.44797 77.9446 10.8363L78.2376 11.543L69.6344 14.9872C70.2931 16.2352 71.3173 16.8719 72.7536 16.8719C74.1928 16.8719 75.1909 16.1876 75.9221 15.1498ZM69.1701 12.9117L74.9211 10.6035C74.6048 9.8266 73.6531 9.2853 72.5331 9.2853C71.0968 9.2853 69.0976 10.5109 69.1701 12.9117V12.9117Z" fill="#EA4940"></path><path d="M10.1353 11.4823V8.84308H19.3362C19.4262 9.30304 19.4726 9.84714 19.4726 10.4361C19.4726 12.4162 18.9126 14.8647 17.1078 16.6092C15.3523 18.3761 13.1094 19.3185 10.1382 19.3185C4.63095 19.3185 0 14.9825 0 9.65923C0 4.336 4.63095 0 10.1382 0C13.1849 0 15.3552 1.15552 16.9859 2.66162L15.0593 4.52391C13.8899 3.46375 12.3057 2.63918 10.1353 2.63918C6.11366 2.63918 2.96833 5.77198 2.96833 9.65923C2.96833 13.5465 6.11366 16.6793 10.1353 16.6793C12.7438 16.6793 14.2294 15.6668 15.1812 14.7469C15.953 14.0008 16.4608 12.9351 16.661 11.4795L10.1353 11.4823Z" fill="#4E8BF4"></path><path d="M62.9023 24.5593V21.3438H63.9899C64.3508 21.3438 64.622 21.4159 64.8032 21.5602C64.986 21.7045 65.0774 21.9179 65.0774 22.2006C65.0774 22.3508 65.0332 22.484 64.9449 22.6003C64.8566 22.7152 64.7362 22.8042 64.5839 22.8675C64.7636 22.9161 64.9053 23.0089 65.0089 23.1458C65.114 23.2813 65.1665 23.4432 65.1665 23.6317C65.1665 23.9202 65.0698 24.1469 64.8764 24.3118C64.6829 24.4767 64.4095 24.5592 64.0561 24.5592L62.9023 24.5593ZM63.341 23.0554V24.2126H64.0653C64.2694 24.2126 64.4301 24.1618 64.5473 24.0602C64.6661 23.9571 64.7256 23.8158 64.7256 23.6362C64.7256 23.249 64.5077 23.0554 64.0721 23.0554L63.341 23.0554ZM63.341 22.7153H64.0036C64.1955 22.7153 64.3486 22.6689 64.4628 22.5762C64.5786 22.4834 64.6365 22.3575 64.6365 22.1985C64.6365 22.0218 64.5832 21.8937 64.4765 21.8142C64.3699 21.7333 64.2077 21.6928 63.9899 21.6928H63.341L63.341 22.7153Z" fill="#4C8BF5"></path><path d="M65.6367 23.3418C65.6367 23.1077 65.6839 22.8972 65.7784 22.7102C65.8743 22.5232 66.0069 22.379 66.1759 22.2774C66.3465 22.1758 66.5407 22.125 66.7585 22.125C67.0952 22.125 67.367 22.2376 67.5742 22.4629C67.7828 22.6881 67.8872 22.9877 67.8872 23.3617V23.3904C67.8872 23.623 67.8407 23.8321 67.7478 24.0176C67.6564 24.2016 67.5247 24.3451 67.3526 24.4482C67.182 24.5513 66.9855 24.6028 66.7631 24.6028C66.428 24.6028 66.1561 24.4902 65.9475 24.2649C65.7403 24.0397 65.6367 23.7415 65.6367 23.3705L65.6367 23.3418ZM66.0617 23.3904C66.0617 23.6554 66.1249 23.8682 66.2513 24.0286C66.3793 24.1891 66.5499 24.2694 66.7631 24.2694C66.9779 24.2694 67.1485 24.1884 67.2749 24.0264C67.4013 23.863 67.4645 23.6348 67.4645 23.3418C67.4645 23.0798 67.3998 22.8678 67.2703 22.7058C67.1424 22.5424 66.9718 22.4607 66.7585 22.4607C66.5499 22.4607 66.3816 22.5409 66.2536 22.7014C66.1257 22.8619 66.0617 23.0916 66.0617 23.3904L66.0617 23.3904Z" fill="#4C8BF5"></path><path d="M68.3086 23.3418C68.3086 23.1077 68.3558 22.8972 68.4503 22.7102C68.5462 22.5232 68.6787 22.379 68.8478 22.2774C69.0184 22.1758 69.2126 22.125 69.4304 22.125C69.767 22.125 70.0389 22.2376 70.2461 22.4629C70.4547 22.6881 70.559 22.9877 70.559 23.3617V23.3904C70.559 23.623 70.5126 23.8321 70.4197 24.0176C70.3283 24.2016 70.1965 24.3451 70.0244 24.4482C69.8538 24.5513 69.6573 24.6028 69.435 24.6028C69.0999 24.6028 68.828 24.4902 68.6193 24.2649C68.4122 24.0397 68.3086 23.7415 68.3086 23.3705L68.3086 23.3418ZM68.7336 23.3904C68.7336 23.6554 68.7968 23.8682 68.9232 24.0286C69.0511 24.1891 69.2217 24.2694 69.435 24.2694C69.6497 24.2694 69.8203 24.1884 69.9468 24.0264C70.0732 23.863 70.1364 23.6348 70.1364 23.3418C70.1364 23.0798 70.0717 22.8678 69.9422 22.7058C69.8143 22.5424 69.6437 22.4607 69.4304 22.4607C69.2217 22.4607 69.0534 22.5409 68.9255 22.7014C68.7975 22.8619 68.7336 23.0916 68.7336 23.3904L68.7336 23.3904Z" fill="#4C8BF5"></path><path d="M71.7775 23.4535L71.5125 23.7207V24.5599H71.0898V21.168H71.5125V23.2196L71.7387 22.9568L72.5087 22.1706H73.0227L72.0608 23.1688L73.1347 24.5601H72.6389L71.7775 23.4535Z" fill="#4C8BF5"></path><path d="M74.9016 23.9248C74.9016 23.8144 74.8582 23.729 74.7713 23.6687C74.686 23.6068 74.536 23.5538 74.3212 23.5097C74.108 23.4655 73.9382 23.4125 73.8117 23.3507C73.6868 23.2888 73.5939 23.2152 73.533 23.1298C73.4736 23.0444 73.4439 22.9429 73.4439 22.8251C73.4439 22.6293 73.5292 22.4636 73.6998 22.3282C73.8719 22.1927 74.0912 22.125 74.3578 22.125C74.638 22.125 74.865 22.1949 75.0386 22.3348C75.2138 22.4747 75.3014 22.6535 75.3014 22.8714H74.8764C74.8764 22.7595 74.8269 22.6631 74.7279 22.5821C74.6304 22.5012 74.5071 22.4607 74.3578 22.4607C74.204 22.4607 74.0836 22.4931 73.9968 22.5578C73.91 22.6226 73.8666 22.7073 73.8666 22.8118C73.8666 22.9105 73.9069 22.9848 73.9877 23.0349C74.0684 23.0849 74.2138 23.1328 74.424 23.1784C74.6358 23.224 74.8071 23.2785 74.9381 23.3418C75.0691 23.4051 75.1658 23.4817 75.2283 23.5715C75.2922 23.6598 75.3242 23.768 75.3242 23.8961C75.3242 24.1096 75.2359 24.2811 75.0592 24.4107C74.8825 24.5388 74.6533 24.6028 74.3715 24.6028C74.1735 24.6028 73.9983 24.569 73.846 24.5012C73.6937 24.4335 73.5741 24.3393 73.4873 24.2185C73.402 24.0963 73.3594 23.9646 73.3594 23.8233H73.782C73.7897 23.9602 73.846 24.0691 73.9511 24.1501C74.0577 24.2296 74.1979 24.2694 74.3715 24.2694C74.5314 24.2694 74.6594 24.2384 74.7553 24.1766C74.8528 24.1133 74.9015 24.0294 74.9015 23.9249L74.9016 23.9248Z" fill="#4C8BF5"></path></g><defs><clipPath id="clip0_13281_27253"><rect width="78.2387" height="24.8941" rx="4.64361" fill="white"></rect></clipPath></defs></svg>