<svg xmlns="http://www.w3.org/2000/svg" width="139" height="58" viewBox="0 0 139 58" fill="none"><path d="M11.4011 17.7703L16.3552 16.5196L18.425 22.8747L11.4011 17.7703ZM22.8022 9.55601H14.0817L11.4011 1.37549L8.72049 9.55601H0L7.05783 14.6266L4.37721 22.8071L11.435 17.7365L15.7783 14.6266L22.8022 9.55601Z" fill="#149480"></path><path d="M34.0428 1.92144V20.4482H30.2382V1.92144H34.0428ZM39.7433 1.92144V4.91169H24.6267V1.92144H39.7433ZM44.4641 9.68336V20.4482H40.7995V6.68039H44.2478L44.4641 9.68336ZM48.6123 6.59132L48.5486 9.98874C48.3705 9.9633 48.1542 9.94209 47.8997 9.92512C47.6537 9.89967 47.4289 9.88695 47.2253 9.88695C46.7078 9.88695 46.2582 9.95481 45.8765 10.0905C45.5033 10.2178 45.1894 10.4087 44.9349 10.6631C44.6889 10.9176 44.5023 11.2273 44.375 11.592C44.2563 11.9568 44.1884 12.3725 44.1714 12.839L43.4334 12.61C43.4334 11.7193 43.5225 10.9007 43.7006 10.1542C43.8788 9.39918 44.1375 8.74175 44.4768 8.18187C44.8246 7.622 45.2488 7.18937 45.7493 6.88398C46.2498 6.57859 46.8224 6.4259 47.4671 6.4259C47.6707 6.4259 47.8785 6.44286 48.0906 6.4768C48.3026 6.50225 48.4765 6.54042 48.6123 6.59132ZM58.4864 17.1526V6.68039H62.1511V20.4482H58.7028L58.4864 17.1526ZM58.8936 14.3278L59.9752 14.3023C59.9752 15.2185 59.8692 16.071 59.6571 16.8599C59.445 17.6404 59.1269 18.319 58.7028 18.8959C58.2786 19.4642 57.7442 19.9096 57.0995 20.2319C56.4548 20.5458 55.6955 20.7027 54.8218 20.7027C54.1516 20.7027 53.5324 20.6094 52.964 20.4228C52.4042 20.2277 51.9206 19.9265 51.5134 19.5194C51.1147 19.1037 50.8009 18.5735 50.5718 17.9288C50.3513 17.2756 50.241 16.4909 50.241 15.5748V6.68039H53.9056V15.6002C53.9056 16.0074 53.9523 16.351 54.0456 16.6309C54.1474 16.9108 54.2874 17.1399 54.4655 17.318C54.6437 17.4962 54.8515 17.6234 55.089 17.6998C55.335 17.7761 55.6065 17.8143 55.9034 17.8143C56.6584 17.8143 57.2522 17.6616 57.6848 17.3562C58.1259 17.0508 58.4355 16.6351 58.6137 16.1092C58.8003 15.5748 58.8936 14.981 58.8936 14.3278ZM72.3943 16.6436C72.3943 16.3807 72.3179 16.1431 72.1652 15.9311C72.0125 15.719 71.7284 15.5239 71.3127 15.3457C70.9055 15.1591 70.3159 14.9895 69.544 14.8368C68.8484 14.6841 68.1994 14.4932 67.5971 14.2642C67.0033 14.0266 66.4859 13.7425 66.0448 13.4116C65.6121 13.0808 65.2728 12.6906 65.0268 12.241C64.7808 11.7829 64.6578 11.2612 64.6578 10.6759C64.6578 10.099 64.7808 9.55611 65.0268 9.04714C65.2813 8.53816 65.6418 8.08856 66.1084 7.69834C66.5834 7.29964 67.1603 6.99002 67.8389 6.76946C68.526 6.54042 69.298 6.4259 70.1548 6.4259C71.3509 6.4259 72.3773 6.61677 73.2341 6.9985C74.0993 7.38023 74.761 7.90618 75.2191 8.57633C75.6857 9.238 75.9189 9.99299 75.9189 10.8413H72.2543C72.2543 10.485 72.178 10.1669 72.0253 9.88695C71.881 9.59853 71.652 9.37373 71.3381 9.21255C71.0328 9.04289 70.6341 8.95806 70.142 8.95806C69.7349 8.95806 69.3828 9.03017 69.0859 9.17438C68.789 9.31011 68.56 9.49673 68.3988 9.73426C68.2461 9.9633 68.1697 10.2178 68.1697 10.4977C68.1697 10.7098 68.2122 10.9007 68.297 11.0703C68.3903 11.2315 68.5388 11.38 68.7424 11.5157C68.9459 11.6514 69.2089 11.7787 69.5313 11.8974C69.8621 12.0077 70.2693 12.1095 70.7528 12.2028C71.7453 12.4064 72.6318 12.6736 73.4122 13.0044C74.1927 13.3268 74.8119 13.7679 75.27 14.3278C75.7281 14.8792 75.9571 15.6045 75.9571 16.5037C75.9571 17.1144 75.8214 17.6743 75.5499 18.1833C75.2785 18.6923 74.8883 19.1376 74.3793 19.5194C73.8703 19.8926 73.2595 20.1853 72.547 20.3973C71.8429 20.6009 71.0497 20.7027 70.1675 20.7027C68.8866 20.7027 67.8007 20.4737 66.91 20.0156C66.0278 19.5575 65.3576 18.9764 64.8996 18.2724C64.45 17.5598 64.2252 16.8303 64.2252 16.0838H67.6989C67.7159 16.5843 67.8432 16.9872 68.0807 17.2926C68.3267 17.598 68.6363 17.8185 69.0096 17.9543C69.3913 18.09 69.8027 18.1578 70.2438 18.1578C70.7189 18.1578 71.1133 18.0942 71.4272 17.967C71.7411 17.8312 71.9786 17.6531 72.1398 17.4325C72.3094 17.2035 72.3943 16.9405 72.3943 16.6436ZM85.0805 6.68039V9.27618H77.0641V6.68039H85.0805ZM79.0492 3.28296H82.7138V16.3001C82.7138 16.6988 82.7647 17.0042 82.8665 17.2162C82.9768 17.4283 83.1379 17.5768 83.35 17.6616C83.5621 17.7379 83.8293 17.7761 84.1517 17.7761C84.3807 17.7761 84.5843 17.7676 84.7624 17.7507C84.9491 17.7252 85.106 17.6998 85.2332 17.6743L85.246 20.3719C84.9321 20.4737 84.5928 20.5543 84.228 20.6137C83.8632 20.673 83.4603 20.7027 83.0192 20.7027C82.2133 20.7027 81.5092 20.5712 80.9069 20.3083C80.3131 20.0368 79.855 19.6042 79.5327 19.0104C79.2103 18.4166 79.0492 17.6361 79.0492 16.6691V3.28296ZM90.832 9.32707V25.7416H87.1674V6.68039H90.5648L90.832 9.32707ZM99.5482 13.4116V13.6788C99.5482 14.6798 99.4295 15.6087 99.192 16.4655C98.9629 17.3223 98.6236 18.0688 98.174 18.705C97.7244 19.3327 97.1645 19.8247 96.4944 20.181C95.8327 20.5288 95.0692 20.7027 94.204 20.7027C93.3642 20.7027 92.6346 20.5331 92.0154 20.1938C91.3961 19.8544 90.8744 19.3794 90.4503 18.7686C90.0346 18.1494 89.6995 17.4325 89.445 16.6182C89.1905 15.8038 88.9954 14.9301 88.8597 13.9969V13.2971C88.9954 12.2961 89.1905 11.38 89.445 10.5486C89.6995 9.70881 90.0346 8.98351 90.4503 8.37274C90.8744 7.75348 91.3919 7.2742 92.0026 6.93488C92.6219 6.59556 93.3472 6.4259 94.1785 6.4259C95.0523 6.4259 95.82 6.59132 96.4817 6.92215C97.1518 7.25299 97.7117 7.72803 98.1613 8.34729C98.6194 8.96655 98.9629 9.70457 99.192 10.5613C99.4295 11.4181 99.5482 12.3682 99.5482 13.4116ZM95.8709 13.6788V13.4116C95.8709 12.8263 95.82 12.2876 95.7182 11.7956C95.6249 11.2951 95.4722 10.8582 95.2601 10.485C95.0565 10.1117 94.7851 9.82333 94.4457 9.61974C94.1149 9.40766 93.712 9.30162 93.2369 9.30162C92.7364 9.30162 92.308 9.38221 91.9517 9.54339C91.6039 9.70457 91.3198 9.93785 91.0992 10.2432C90.8787 10.5486 90.7132 10.9134 90.603 11.3375C90.4927 11.7617 90.4248 12.241 90.3994 12.7754V14.5441C90.4418 15.1718 90.5605 15.736 90.7557 16.2364C90.9508 16.7285 91.2519 17.1187 91.6591 17.4071C92.0663 17.6955 92.6007 17.8397 93.2624 17.8397C93.7459 17.8397 94.1531 17.7337 94.4839 17.5216C94.8148 17.3011 95.082 16.9999 95.2856 16.6182C95.4976 16.2364 95.6461 15.7953 95.7309 15.2948C95.8242 14.7943 95.8709 14.2557 95.8709 13.6788ZM105.694 6.68039V20.4482H102.017V6.68039H105.694ZM101.788 3.09209C101.788 2.55767 101.974 2.11655 102.348 1.76875C102.721 1.42095 103.221 1.24705 103.849 1.24705C104.468 1.24705 104.965 1.42095 105.338 1.76875C105.72 2.11655 105.91 2.55767 105.91 3.09209C105.91 3.62652 105.72 4.06763 105.338 4.41544C104.965 4.76324 104.468 4.93714 103.849 4.93714C103.221 4.93714 102.721 4.76324 102.348 4.41544C101.974 4.06763 101.788 3.62652 101.788 3.09209ZM112.591 0.903487V20.4482H108.913V0.903487H112.591ZM115.034 13.7043V13.4371C115.034 12.4276 115.178 11.4987 115.467 10.6504C115.755 9.79364 116.175 9.05138 116.726 8.42364C117.278 7.7959 117.956 7.30813 118.762 6.96033C119.568 6.60404 120.493 6.4259 121.536 6.4259C122.579 6.4259 123.508 6.60404 124.323 6.96033C125.137 7.30813 125.82 7.7959 126.371 8.42364C126.931 9.05138 127.355 9.79364 127.644 10.6504C127.932 11.4987 128.076 12.4276 128.076 13.4371V13.7043C128.076 14.7053 127.932 15.6342 127.644 16.4909C127.355 17.3392 126.931 18.0815 126.371 18.7177C125.82 19.3455 125.141 19.8332 124.335 20.181C123.53 20.5288 122.605 20.7027 121.562 20.7027C120.518 20.7027 119.589 20.5288 118.775 20.181C117.969 19.8332 117.286 19.3455 116.726 18.7177C116.175 18.0815 115.755 17.3392 115.467 16.4909C115.178 15.6342 115.034 14.7053 115.034 13.7043ZM118.699 13.4371V13.7043C118.699 14.2811 118.749 14.8198 118.851 15.3203C118.953 15.8208 119.114 16.2619 119.335 16.6436C119.564 17.0169 119.861 17.3095 120.225 17.5216C120.59 17.7337 121.036 17.8397 121.562 17.8397C122.071 17.8397 122.507 17.7337 122.872 17.5216C123.237 17.3095 123.53 17.0169 123.75 16.6436C123.971 16.2619 124.132 15.8208 124.234 15.3203C124.344 14.8198 124.399 14.2811 124.399 13.7043V13.4371C124.399 12.8772 124.344 12.3513 124.234 11.8592C124.132 11.3587 123.966 10.9176 123.737 10.5359C123.517 10.1457 123.224 9.84029 122.859 9.61974C122.495 9.39918 122.054 9.2889 121.536 9.2889C121.019 9.2889 120.578 9.39918 120.213 9.61974C119.856 9.84029 119.564 10.1457 119.335 10.5359C119.114 10.9176 118.953 11.3587 118.851 11.8592C118.749 12.3513 118.699 12.8772 118.699 13.4371ZM137.073 6.68039V9.27618H129.056V6.68039H137.073ZM131.041 3.28296H134.706V16.3001C134.706 16.6988 134.757 17.0042 134.859 17.2162C134.969 17.4283 135.13 17.5768 135.342 17.6616C135.554 17.7379 135.821 17.7761 136.144 17.7761C136.373 17.7761 136.576 17.7676 136.755 17.7507C136.941 17.7252 137.098 17.6998 137.225 17.6743L137.238 20.3719C136.924 20.4737 136.585 20.5543 136.22 20.6137C135.855 20.673 135.452 20.7027 135.011 20.7027C134.205 20.7027 133.501 20.5712 132.899 20.3083C132.305 20.0368 131.847 19.6042 131.525 19.0104C131.202 18.4166 131.041 17.6361 131.041 16.6691V3.28296Z" fill="#464646"></path><path d="M26.1418 32.0229H0.360352V57.8044H26.1418V32.0229Z" fill="#149480"></path><path d="M54.072 32.0229H28.2905V57.8044H54.072V32.0229Z" fill="#149480"></path><path d="M82.0017 32.0234H56.2202V57.8049H82.0017V32.0234Z" fill="#149480"></path><path d="M109.932 32.0229H84.1504V57.8044H109.932V32.0229Z" fill="#149480"></path><path opacity="0.9" d="M137.862 32.0229H112.08V57.8044H137.862V32.0229Z" fill="#B4EDD8"></path><path d="M127 32H112V58H127V32Z" fill="#149480"></path><path d="M13.2511 49.3986L17.172 48.4049L18.8102 53.4538L13.2511 49.3986ZM22.2746 42.8726H15.3727L13.2511 36.3735L11.1295 42.8726H4.22754L9.81353 46.901L7.69192 53.4001L13.2779 49.3717L16.7154 46.901L22.2746 42.8726Z" fill="white"></path><path d="M41.1807 49.3986L45.1017 48.4049L46.7399 53.4538L41.1807 49.3986ZM50.2043 42.8726H43.3023L41.1807 36.3735L39.0591 42.8726H32.1572L37.7432 46.901L35.6216 53.4001L41.2076 49.3717L44.6451 46.901L50.2043 42.8726Z" fill="white"></path><path d="M69.1104 49.3986L73.0314 48.4049L74.6696 53.4538L69.1104 49.3986ZM78.1339 42.8726H71.232L69.1104 36.3735L66.9888 42.8726H60.0869L65.6729 46.901L63.5513 53.4001L69.1373 49.3717L72.5748 46.901L78.1339 42.8726Z" fill="white"></path><path d="M97.0406 49.3986L100.962 48.4049L102.6 53.4538L97.0406 49.3986ZM106.064 42.8726H99.1622L97.0406 36.3735L94.919 42.8726H88.0171L93.6031 46.901L91.4815 53.4001L97.0675 49.3717L100.505 46.901L106.064 42.8726Z" fill="white"></path><path d="M124.971 49.3986L128.892 48.4049L130.53 53.4538L124.971 49.3986ZM133.994 42.8726H127.092L124.971 36.3735L122.849 42.8726H115.947L121.533 46.901L119.412 53.4001L124.998 49.3717L128.435 46.901L133.994 42.8726Z" fill="white"></path></svg>