<svg xmlns="http://www.w3.org/2000/svg" width="135" height="233" viewBox="0 0 135 233" fill="none"><g clip-path="url(#clip0_2701_7726)"><g style="mix-blend-mode:multiply" opacity="0.15"><path d="M229 225.246C229 229.665 177.697 233.248 114.418 233.248C51.1391 233.248 -0.164429 229.665 -0.164429 225.246C-0.164429 220.827 51.1329 217.244 114.418 217.244C177.703 217.244 229 220.839 229 225.246Z" fill="#1A1A1A"></path></g><path d="M143.184 187.796H186.225V185.632H34.0937C25.1123 185.632 23.0049 195.661 22.4718 201.897V208.895C22.9367 214.752 25.0999 225.178 34.0937 225.178H141.486V225.265H186.213V223.101H143.215C140.389 217.647 138.911 211.595 138.905 205.452C138.9 199.309 140.367 193.255 143.184 187.796Z" fill="#01A79D"></path><path d="M131.953 189.308H33.2694C31.6844 189.308 30.3995 190.593 30.3995 192.178V217.194C30.3995 218.779 31.6844 220.064 33.2694 220.064H131.953C133.538 220.064 134.823 218.779 134.823 217.194V192.178C134.823 190.593 133.538 189.308 131.953 189.308Z" stroke="#FCFFF5" stroke-opacity="0.4" stroke-width="0.97118" stroke-miterlimit="10"></path><path d="M121.862 211.442C125.696 211.442 128.804 208.334 128.804 204.5C128.804 200.666 125.696 197.558 121.862 197.558C118.028 197.558 114.92 200.666 114.92 204.5C114.92 208.334 118.028 211.442 121.862 211.442Z" stroke="#FCFFF5" stroke-opacity="0.4" stroke-width="0.97118" stroke-miterlimit="10"></path><path d="M107.978 193.783V216.19" stroke="#FCFFF5" stroke-opacity="0.4" stroke-width="0.97118" stroke-miterlimit="10" stroke-linecap="round"></path><path d="M104.333 193.783V216.19" stroke="#FCFFF5" stroke-opacity="0.4" stroke-width="0.97118" stroke-miterlimit="10" stroke-linecap="round"></path><path d="M47.9966 192.401V214.814" stroke="#FCFFF5" stroke-opacity="0.4" stroke-width="0.97118" stroke-miterlimit="10" stroke-linecap="round"></path><path d="M44.3519 192.401V214.814" stroke="#FCFFF5" stroke-opacity="0.4" stroke-width="0.97118" stroke-miterlimit="10" stroke-linecap="round"></path><g style="mix-blend-mode:multiply" opacity="0.15"><path d="M186.213 225.246V223.083H143.215C141.416 219.603 140.162 215.867 139.496 212.006C96.4798 211.926 40.7693 211.312 22.7197 211.101C23.5565 217.039 26.1412 225.178 34.0937 225.178H141.486V225.264L186.213 225.246Z" fill="#0C7475"></path></g><path d="M140.767 69.5316H73.8249C65.6245 55.3684 73.8249 46.5978 73.8249 46.5978H140.767C140.767 46.5978 134.748 56.8188 140.767 69.5316Z" fill="white"></path><g style="mix-blend-mode:multiply" opacity="0.15"><path d="M107.544 51.9532C117.483 51.3643 127.449 51.3643 137.389 51.9532C127.449 52.5358 117.484 52.5358 107.544 51.9532Z" fill="#00495C"></path></g><g style="mix-blend-mode:multiply" opacity="0.15"><path d="M77.4819 63.0419C83.6893 62.4593 89.9377 62.4593 96.1451 63.0419C89.938 63.6307 83.6891 63.6307 77.4819 63.0419Z" fill="#00495C"></path></g><g style="mix-blend-mode:multiply" opacity="0.15"><path d="M138.225 55.0833H70.3228C70.0886 57.0705 70.1638 59.082 70.5459 61.0461H138.281C138.034 59.0672 138.015 57.0665 138.225 55.0833Z" fill="#01708B"></path></g><g style="mix-blend-mode:multiply" opacity="0.15"><path d="M73.8311 69.5315H140.773C140.303 68.5455 139.889 67.5335 139.533 66.5005H72.2877C72.7479 67.5376 73.2631 68.5493 73.8311 69.5315Z" fill="#01708B"></path></g><g style="mix-blend-mode:multiply" opacity="0.15"><path d="M72.8952 47.8499C72.448 48.542 72.0543 49.2672 71.7175 50.0193H139.329C139.62 49.1329 139.905 48.4077 140.153 47.8499H72.8952Z" fill="#01708B"></path></g><path d="M145.044 46.604H72.6784C72.6784 46.604 64.4718 55.3684 72.6784 69.5378H145.044" stroke="#4493BF" stroke-width="2.91354" stroke-miterlimit="10"></path><path d="M168.517 173.409H41.5192V185.552H168.517V173.409Z" fill="#FF4588"></path><path d="M168.511 175.263H118.533V183.593H168.511V175.263Z" fill="white"></path><g style="mix-blend-mode:multiply" opacity="0.15"><path d="M118.533 177.06H168.511" stroke="#01A79D" stroke-width="0.97118" stroke-miterlimit="10"></path></g><g style="mix-blend-mode:multiply" opacity="0.15"><path d="M118.533 179.8H168.511" stroke="#01A79D" stroke-width="0.97118" stroke-miterlimit="10"></path></g><g style="mix-blend-mode:multiply" opacity="0.15"><path d="M168.511 181.418H118.533V183.593H168.511V181.418Z" fill="#01708B"></path></g><g style="mix-blend-mode:multiply" opacity="0.15"><path d="M168.517 183.593H41.5192V185.552H168.517V183.593Z" fill="#253745"></path></g><path d="M51.0833 173.409H46.4531V185.552H51.0833V173.409Z" fill="black" fill-opacity="0.22"></path><path d="M55.8871 173.409H53.5751V185.552H55.8871V173.409Z" fill="black" fill-opacity="0.22"></path><path d="M111.343 173.409H106.713V185.552H111.343V173.409Z" fill="black" fill-opacity="0.22"></path><g style="mix-blend-mode:multiply" opacity="0.15"><path d="M119.792 175.263H118.533V183.488H119.792V175.263Z" fill="#253745"></path></g><path d="M61.1617 179.372H101.438" stroke="black" stroke-opacity="0.26" stroke-width="4.8559" stroke-miterlimit="10"></path><g style="mix-blend-mode:multiply" opacity="0.34"><path d="M83.606 173.794L97.7815 183.482L110.284 173.794H83.606Z" fill="#253745"></path></g><path d="M37.9427 70.3125H164.934V98.6141H37.9427V94.1699H40.3911L43.3415 74.7505L37.9427 74.6327V70.3125Z" fill="#13D3A5"></path><path d="M39.4427 74.7567H87.7897L87.8765 74.9675C89.1656 78.0088 89.8226 81.2805 89.8077 84.5838C89.7928 87.887 89.1062 91.1527 87.7897 94.1823H39.4427V74.7567Z" fill="white"></path><g style="mix-blend-mode:multiply" opacity="0.15"><path d="M89.4509 88.7153H39.6163V89.6451H89.2587C89.3393 89.3352 89.3951 89.0252 89.4509 88.7153Z" fill="#01A79D"></path></g><g style="mix-blend-mode:multiply" opacity="0.15"><path d="M89.7298 82.3H39.6163V83.2979H89.8228C89.7856 82.9632 89.7608 82.6161 89.7298 82.3Z" fill="#01A79D"></path></g><g style="mix-blend-mode:multiply" opacity="0.15"><path d="M87.9013 74.9675L87.8145 74.7567H39.6163V79.0212H89.2029C88.8903 77.6339 88.4547 76.2774 87.9013 74.9675Z" fill="#01708B"></path></g><g style="mix-blend-mode:multiply" opacity="0.15"><path d="M87.8145 74.7567H84.5232V94.1761H87.8145C89.131 91.1465 89.8176 87.8808 89.8325 84.5776C89.8475 81.2743 89.1904 78.0026 87.9013 74.9613L87.8145 74.7567Z" fill="#253745"></path></g><g style="mix-blend-mode:multiply" opacity="0.15"><path d="M164.94 70.4861H37.9427V73.951H164.94V70.4861Z" fill="#253745"></path></g><path d="M95.11 98.6078H99.7401V70.3124H95.11V98.6078Z" fill="white" fill-opacity="0.49"></path><g style="mix-blend-mode:multiply" opacity="0.15"><path d="M146.413 78.2836H104.234V91.517H146.413V78.2836Z" fill="#253745"></path></g><path d="M50.8291 148.151C50.8291 148.151 46.918 154.442 46.918 160.17C46.918 165.897 50.0791 171.847 50.0791 171.847L96.8455 172.201L96.7773 148.492L50.8291 148.151Z" fill="white"></path><path d="M97.0626 147.444C97.0626 147.444 93.4675 153.494 93.4675 159.531C93.4675 165.568 96.6287 171.829 96.6287 171.829L152.897 172.201L152.779 171.847C150.22 163.838 150.237 155.227 152.829 147.228L97.0626 147.444Z" fill="#EDF4F3"></path><g style="mix-blend-mode:multiply" opacity="0.15"><path d="M106.255 156.054C114.964 155.539 123.696 155.539 132.405 156.054C123.696 156.568 114.964 156.568 106.255 156.054Z" fill="#19525E"></path></g><g style="mix-blend-mode:multiply" opacity="0.15"><path d="M54.8829 162.481C60.5945 161.967 66.3407 161.967 72.0523 162.481C66.3407 162.996 60.5945 162.996 54.8829 162.481Z" fill="#19525E"></path></g><g style="mix-blend-mode:multiply" opacity="0.15"><path d="M67.106 153.376C72.8175 152.862 78.5638 152.862 84.2753 153.376C78.5635 153.885 72.8178 153.885 67.106 153.376Z" fill="#19525E"></path></g><g style="mix-blend-mode:multiply" opacity="0.15"><path d="M119.327 167.242C128.038 166.727 136.772 166.727 145.484 167.242C136.772 167.756 128.038 167.756 119.327 167.242Z" fill="#19525E"></path></g><g style="mix-blend-mode:multiply" opacity="0.15"><path d="M67.106 168.011C74.8108 168.465 82.5341 168.517 90.2443 168.166L90.1885 167.856C82.4968 167.507 74.7923 167.559 67.106 168.011Z" fill="#19525E"></path></g><path d="M96.833 172.759H50.5316L49.763 171.345C47.8085 167.763 46.8489 163.722 46.9841 159.643C47.1193 155.565 48.3442 151.596 50.5316 148.151H96.833" stroke="#19CAA2" stroke-width="2.91354" stroke-miterlimit="10"></path><path d="M155.922 147.11H96.8207V149.192H155.922V147.11Z" fill="#19CAA2"></path><path d="M155.984 171.711H96.8827V173.794H155.984V171.711Z" fill="#19CAA2"></path><path d="M169.849 116.317H62.073V147.11H169.849V116.317Z" fill="#BA216B"></path><path d="M78.0397 116.317H73.4095V147.11H78.0397V116.317Z" fill="white" fill-opacity="0.56"></path><g style="mix-blend-mode:multiply" opacity="0.15"><path d="M169.849 139.151H62.073V147.11H169.849V139.151Z" fill="#253745"></path></g><g style="mix-blend-mode:multiply" opacity="0.15"><path d="M169.849 116.317H62.073V120.947H169.849V116.317Z" fill="#253745"></path></g><g style="mix-blend-mode:overlay" opacity="0.2"><path d="M169.849 121.256H62.073V124.957H169.849V121.256Z" fill="#AD38AD"></path></g><g style="mix-blend-mode:overlay" opacity="0.2"><path d="M169.849 135.413H62.073V139.114H169.849V135.413Z" fill="#AD38AD"></path></g><path d="M53.575 116.509H171.343C173.783 116.509 176.124 115.54 177.85 113.815C179.576 112.09 180.546 109.75 180.548 107.31C180.548 104.874 179.581 102.537 177.86 100.813C176.139 99.0881 173.804 98.1169 171.368 98.1119H53.5997V99.0479L71.6121 99.3392L73.4716 115.207L53.6369 115.424L53.575 116.509Z" fill="#226481"></path><path d="M55.6762 115.275L108.604 114.804L108.703 114.507C110.335 109.486 110.3 104.072 108.604 99.0728H55.3849C55.5956 99.4447 59.1039 101.552 58.8807 107.682C58.701 112.405 55.8374 115.771 55.6762 115.275Z" fill="white"></path><g style="mix-blend-mode:multiply" opacity="0.15"><path d="M56.7981 100.542H109.044C108.907 100.046 108.771 99.5563 108.604 99.0728H55.3849C55.8805 99.5383 56.3522 100.029 56.7981 100.542Z" fill="#01A79D"></path></g><g style="mix-blend-mode:multiply" opacity="0.15"><path d="M109.031 113.354C109.164 112.866 109.281 112.377 109.385 111.885H58.5584C58.3312 112.394 58.066 112.885 57.765 113.354H109.031Z" fill="#01A79D"></path></g><g style="mix-blend-mode:multiply" opacity="0.15"><path d="M58.8869 107.056H109.899C109.91 105.667 109.802 104.28 109.577 102.91H58.1307C58.6356 104.234 58.892 105.639 58.8869 107.056Z" fill="#01A79D"></path></g><g style="mix-blend-mode:multiply" opacity="0.15"><path d="M108.604 99.0728H106.23C107.477 101.473 108.063 104.162 107.928 106.864C107.883 109.583 107.408 112.277 106.521 114.848H108.604L108.703 114.55C110.345 109.516 110.31 104.085 108.604 99.0728Z" fill="#8999A1"></path></g><g style="mix-blend-mode:multiply" opacity="0.15"><path d="M176.711 114.785C154.558 114.711 73.4406 115.207 73.4406 115.207L53.606 115.424V116.509H171.374C173.29 116.508 175.156 115.905 176.711 114.785Z" fill="#253745"></path></g><g style="mix-blend-mode:multiply" opacity="0.15"><path d="M171.374 98.1119H53.606V99.0479L72.1637 98.9921L108.635 99.0727L109.416 101.552H178.515C177.657 100.482 176.57 99.6169 175.335 99.0216C174.099 98.4263 172.746 98.1155 171.374 98.1119Z" fill="#253745"></path></g><g style="mix-blend-mode:multiply" opacity="0.15"><path d="M57.7589 102.017H109.385" stroke="#253745" stroke-width="0.48559" stroke-miterlimit="10"></path></g><g style="mix-blend-mode:multiply" opacity="0.15"><path d="M58.7692 109.511L109.856 109.635" stroke="#253745" stroke-width="0.48559" stroke-miterlimit="10"></path></g><g style="mix-blend-mode:multiply" opacity="0.15"><path d="M57.5481 113.416H109.031" stroke="#253745" stroke-width="0.48559" stroke-miterlimit="10"></path></g><path d="M117.362 98.1059H116.779V116.503H117.362V98.1059Z" fill="#253745"></path><path d="M124.112 98.1059H123.529V116.503H124.112V98.1059Z" fill="#253745"></path><g style="mix-blend-mode:multiply" opacity="0.15"><path d="M165.176 104.775H125.29V111.104H165.176V104.775Z" fill="#334E63"></path></g><path d="M101.346 135.736L96.8208 133.368L92.296 135.736V105.897H101.346V135.736Z" fill="#01A79D"></path><g style="mix-blend-mode:multiply" opacity="0.15"><path d="M101.346 105.897H92.296V108.587H101.346V105.897Z" fill="#253745"></path></g><g style="mix-blend-mode:multiply"><path d="M130.992 0.0979004L128.469 6.55655C128.469 6.55655 116.835 12.7549 113.116 32.3292C112.285 36.7114 111.48 27.2342 110.816 32.0999C110.816 32.0999 109.131 22.2445 123.833 7.25077C123.703 7.07102 129.746 1.05244 130.992 0.0979004Z" fill="#EDEFEF"></path></g><path d="M130.992 0.0979004C125.859 4.17797 121.233 8.85795 117.213 14.0379C115.166 16.663 113.51 19.5714 112.298 22.6722C111.327 25.5458 110.529 28.4745 109.905 31.4428L110.879 33.166C111.126 33.0234 113.085 31.1081 113.079 30.8478C112.998 28.0585 112.788 26.2176 113.699 23.1433C114.729 20.1052 116.19 17.2308 118.038 14.6082C121.769 9.272 126.124 4.40072 131.011 0.0979004H130.992Z" fill="#F0F7F8"></path><g style="mix-blend-mode:multiply"><path d="M76.3785 13.04L79.6265 16.3437C79.6265 16.3437 91.0624 15.0544 105.405 29.3974C108.56 32.5523 105.61 26.4408 108.585 30.3457C108.585 30.3457 105.201 20.9428 85.0314 15.1226C85.0438 14.9181 77.9343 13.2507 76.3785 13.04Z" fill="#DCE4E5"></path></g><g style="mix-blend-mode:multiply"><path d="M56.9407 22.7714L65.8229 25.2507C68.5978 24.2672 71.5083 23.7194 74.4509 23.6268C85.3104 23.2239 91.7629 26.0503 95.767 27.4821L105.374 32.5957L106.533 30.7362C106.533 30.7362 89.3517 19.3189 81.1203 19.5049C63.1204 19.9264 56.9407 22.7714 56.9407 22.7714Z" fill="#DCE4E5"></path></g><g style="mix-blend-mode:multiply"><path d="M164.035 22.8582L155.147 25.3375C152.371 24.3584 149.461 23.8168 146.519 23.7321C135.659 23.323 129.213 26.1495 125.209 27.5813L115.577 32.6763L114.418 30.8168C114.418 30.8168 131.599 19.3995 139.831 19.5854C157.856 20.0131 164.035 22.8582 164.035 22.8582Z" fill="#DCE4E5"></path></g><path d="M85.7257 26.9801C68.9902 29.0069 47.9655 35.23 47.5626 35.6577C47.7331 36.1057 47.878 36.5631 47.9965 37.0275C48.0709 37.3375 50.1597 37.2569 50.1597 37.2569L48.3002 38.2672C48.3498 38.6391 48.3932 39.0172 48.4242 39.4015C48.4242 39.5069 49.6948 39.2775 49.6948 39.4015C49.6948 39.6061 48.4552 40.0585 48.4552 40.2197C48.5619 42.1418 48.5619 44.0683 48.4552 45.9903L104.24 39.3271C104.24 39.3271 111.207 37.1267 111.058 35.6887C110.581 30.1226 102.461 24.9718 85.7257 26.9801Z" fill="#F0F7F8"></path><path d="M135.697 29.5833C152.432 31.6101 165.368 36.2403 165.771 36.6432C165.604 37.0771 165.771 38.3787 165.641 38.856C165.56 39.1659 163.478 39.0791 163.478 39.0791L165.337 40.0956C165.287 40.4675 165.244 40.8456 165.207 41.2299C165.207 41.3353 163.967 41.106 163.967 41.2299C163.967 41.4345 165.207 41.8808 165.17 42.0419C164.978 44.9613 164.829 45.9655 164.829 45.9655L109.044 39.3023C109.557 38.6277 109.868 37.8219 109.943 36.9779C110.451 31.4366 118.961 27.5502 135.697 29.5833Z" fill="#F0F7F8"></path><path d="M57.0708 22.7714C57.0708 22.7714 73.4716 16.573 92.4013 24.3271C98.8661 26.7631 99.7649 27.5193 101.779 29.2362C104.011 31.1329 106.546 37.6721 106.217 37.1205L108.858 31.1577C108.858 31.1577 91.6451 17.8809 75.8145 18.4387C62.3766 18.9098 57.0708 22.7714 57.0708 22.7714Z" fill="#F0F7F8"></path><path d="M164.258 22.7714C164.258 22.7714 147.858 16.5731 128.928 24.3272C122.463 26.7632 121.571 27.5194 119.55 29.2363C117.319 31.133 114.79 37.6722 115.118 37.1206L106.812 35.5958L109.912 32.3603C109.912 32.3603 129.684 17.881 145.515 18.4388C158.953 18.9099 164.258 22.7714 164.258 22.7714Z" fill="#F0F7F8"></path><path d="M76.106 12.9905C82.5815 14.0106 88.9117 15.8022 94.9613 18.3272C98.0444 19.6019 100.926 21.3182 103.515 23.4223C105.864 25.4243 107.643 28.1826 110.129 31.0214C110.06 30.9408 111.517 34.164 110.835 32.0999C111.604 34.4243 109.403 34.5792 109.403 34.5792C109.118 34.5792 106.986 31.1702 106.868 30.9346C105.56 28.4553 104.841 26.7694 102.529 24.5442C100.147 22.402 97.466 20.6169 94.5708 19.2446C88.6955 16.4364 82.5046 14.3429 76.1308 13.0091L76.106 12.9905Z" fill="#F0F7F8"></path><g style="mix-blend-mode:multiply" opacity="0.15"><path d="M96.3931 29.5833C89.6555 30.823 82.1679 31.9511 75.356 32.825C82.2329 30.9983 89.2853 29.9116 96.3931 29.5833Z" fill="#778084"></path></g><g style="mix-blend-mode:multiply" opacity="0.15"><path d="M102.678 34.0894C96.4364 35.1679 64.8311 37.951 57.4303 39.0047C49.3725 40.1576 77.4137 35.6824 84.5418 35.3539L102.678 34.0894Z" fill="#778084"></path></g><g style="mix-blend-mode:multiply" opacity="0.15"><path d="M52.7568 42.5689C55.0762 41.6091 57.5608 41.1122 60.0709 41.1061C58.2424 41.4408 54.5729 42.1722 52.7568 42.5689Z" fill="#778084"></path></g><g style="mix-blend-mode:multiply" opacity="0.15"><path d="M125.68 36.2713C130.899 35.7259 136.174 36.0482 141.393 36.5441C146.587 37.1639 151.837 38.0875 156.672 40.1639C156.052 39.9841 155.432 39.7982 154.812 39.5999C145.335 37.1515 135.467 36.3829 125.68 36.2713Z" fill="#778084"></path></g><path d="M117.368 39.9408C117.368 39.9408 114.852 34.8892 110.829 34.8892C106.806 34.8892 103.1 39.9656 103.1 39.9656C103.1 39.9656 104.166 43.9573 110.234 43.9573C116.302 43.9573 117.368 43.3871 117.368 39.9408Z" fill="#778084"></path><path d="M47.2404 46.9572L103.472 40.4552" stroke="#43BB90" stroke-width="3.04985" stroke-miterlimit="10" stroke-linecap="round"></path><path d="M117.368 40.4366L168.889 48.2899" stroke="#43BB90" stroke-width="3.04985" stroke-miterlimit="10" stroke-linecap="round"></path><path d="M117.368 40.7899C117.368 42.9531 114.331 44.7073 110.581 44.7073C106.831 44.7073 103.763 42.9531 103.763 40.7899" stroke="#43BB90" stroke-width="3.00725" stroke-miterlimit="10" stroke-linecap="round"></path><g style="mix-blend-mode:multiply" opacity="0.15"><path d="M110.829 34.8892C107.581 34.8892 104.538 38.1991 103.49 39.4697L104.005 39.2156C105.349 38.4668 106.76 37.8443 108.219 37.3561C110.426 36.7363 112.912 36.6991 114.92 37.8148C115.665 38.2674 116.368 38.786 117.021 39.3644C116.203 37.9883 113.984 34.8892 110.829 34.8892Z" fill="#4B5254"></path></g></g><defs><clipPath id="clip0_2701_7726"><rect width="135" height="233" fill="white"></rect></clipPath></defs></svg>