<svg xmlns="http://www.w3.org/2000/svg" width="125" height="188" viewBox="0 0 125 188" fill="none"><g clip-path="url(#clip0_2701_8021)"><g style="mix-blend-mode:multiply" opacity="0.15"><path d="M125 179.746C125 184.165 73.6964 187.748 10.4177 187.748C-52.861 187.748 -104.165 184.165 -104.165 179.746C-104.165 175.327 -52.8672 171.744 10.4177 171.744C73.7026 171.744 125 175.339 125 179.746Z" fill="#1A1A1A"></path></g><path d="M78.0415 177.645C78.0415 177.645 70.0209 166.488 77.465 142.023C77.7316 141.756 33.3516 142.023 33.3516 142.023L36.4507 178.06L78.0415 177.645Z" fill="#ECFAFC"></path><g style="mix-blend-mode:multiply" opacity="0.15"><path d="M43.2999 153.564C53.2397 152.982 63.2051 152.982 73.1449 153.564C63.2053 154.153 53.2395 154.153 43.2999 153.564Z" fill="#00495C"></path></g><g style="mix-blend-mode:multiply" opacity="0.15"><path d="M42.4135 170.257C48.6229 169.674 54.8733 169.674 61.0828 170.257C54.8735 170.842 48.6228 170.842 42.4135 170.257Z" fill="#00495C"></path></g><g style="mix-blend-mode:multiply" opacity="0.15"><path d="M74.1118 160.649H32.9115V165.143H74.4403C74.2504 163.652 74.1408 162.152 74.1118 160.649Z" fill="#01708B"></path></g><g style="mix-blend-mode:multiply" opacity="0.15"><path d="M76.5167 173.901H32.9115V177.62H78.0415C77.4713 176.418 76.994 175.166 76.5167 173.901Z" fill="#01708B"></path></g><g style="mix-blend-mode:multiply" opacity="0.15"><path d="M32.9115 145.99V147.316H76.0208C76.1634 146.87 76.3308 146.43 76.4857 145.99H32.9115Z" fill="#01708B"></path></g><path d="M39.1842 142.296H82.2254V140.133H-69.9063C-78.8877 140.133 -80.9951 150.161 -81.5282 156.397V163.395C-81.0633 169.252 -78.9001 179.678 -69.9063 179.678H37.4858V179.765H82.213V177.601H39.2152C36.3886 172.147 34.9107 166.095 34.9053 159.952C34.8999 153.809 36.3672 147.755 39.1842 142.296Z" fill="#017FA7"></path><path d="M27.9529 143.808H-70.7306C-72.3156 143.808 -73.6005 145.093 -73.6005 146.678V171.694C-73.6005 173.279 -72.3156 174.564 -70.7306 174.564H27.9529C29.5379 174.564 30.8227 173.279 30.8227 171.694V146.678C30.8227 145.093 29.5379 143.808 27.9529 143.808Z" stroke="#FCFFF5" stroke-opacity="0.4" stroke-width="0.97118" stroke-miterlimit="10"></path><path d="M17.8619 165.942C21.696 165.942 24.8041 162.834 24.8041 159C24.8041 155.166 21.696 152.058 17.8619 152.058C14.0279 152.058 10.9198 155.166 10.9198 159C10.9198 162.834 14.0279 165.942 17.8619 165.942Z" stroke="#FCFFF5" stroke-opacity="0.4" stroke-width="0.97118" stroke-miterlimit="10"></path><path d="M3.97766 148.283V170.69" stroke="#FCFFF5" stroke-opacity="0.4" stroke-width="0.97118" stroke-miterlimit="10" stroke-linecap="round"></path><path d="M0.333008 148.283V170.69" stroke="#FCFFF5" stroke-opacity="0.4" stroke-width="0.97118" stroke-miterlimit="10" stroke-linecap="round"></path><g style="mix-blend-mode:multiply" opacity="0.15"><path d="M82.213 179.746V177.583H39.2152C37.4158 174.103 36.1616 170.367 35.4962 166.506C-7.52021 166.426 -63.2307 165.812 -81.2803 165.601C-80.4435 171.539 -77.8588 179.678 -69.9063 179.678H37.4858V179.764L82.213 179.746Z" fill="#0C7475"></path></g><path d="M-4.1753 1.76407C-4.09768 1.66435 -4.03214 1.58414 -3.98148 1.52386H62.0635C61.9155 1.82695 61.7291 2.23313 61.5259 2.73319C61.0466 3.91237 60.473 5.61565 60.0908 7.72144C59.3499 11.8028 59.3281 17.3965 62.102 23.6057H-3.9285C-7.85015 16.7195 -7.82476 11.1759 -6.83785 7.36028C-6.33776 5.42684 -5.58798 3.92681 -4.96526 2.91247C-4.65399 2.40545 -4.37486 2.02043 -4.1753 1.76407Z" fill="#F3FFFD" stroke="#FF4588" stroke-width="0.851913"></path><g style="mix-blend-mode:multiply" opacity="0.15"><path d="M47.0664 6.45109C45.333 6.4688 43.5995 6.4688 41.8662 6.45109C43.5995 6.4332 45.333 6.4332 47.0664 6.45109Z" fill="#00495C"></path><path d="M47.0664 6.45109C45.333 6.4688 43.5995 6.4688 41.8662 6.45109C43.5995 6.4332 45.333 6.4332 47.0664 6.45109Z" stroke="#FF4588" stroke-width="0.851913"></path></g><g style="mix-blend-mode:multiply" opacity="0.15"><path d="M10.4385 17.5442C9.35524 17.5621 8.27179 17.5621 7.18856 17.5442C8.27179 17.5265 9.35524 17.5265 10.4385 17.5442Z" fill="#00495C"></path><path d="M10.4385 17.5442C9.35524 17.5621 8.27179 17.5621 7.18856 17.5442C8.27179 17.5265 9.35524 17.5265 10.4385 17.5442Z" stroke="#FF4588" stroke-width="0.851913"></path></g><g style="mix-blend-mode:multiply" opacity="0.15"><path d="M-7.09968 15.1203C-7.39558 13.4333 -7.46118 11.714 -7.2947 10.0095H59.7562C59.6065 11.7106 59.6223 13.4222 59.8031 15.1203H-7.09968Z" fill="#01708B"></path><path d="M-7.09968 15.1203C-7.39558 13.4333 -7.46118 11.714 -7.2947 10.0095H59.7562C59.6065 11.7106 59.6223 13.4222 59.8031 15.1203H-7.09968Z" stroke="#FF4588" stroke-width="0.851913"></path></g><g style="mix-blend-mode:multiply" opacity="0.15"><path d="M-5.04976 21.4267H61.2311C61.4935 22.1645 61.7855 22.8915 62.1064 23.6058H-3.92208C-4.32621 22.8943 -4.70239 22.1674 -5.04976 21.4267Z" fill="#01708B"></path><path d="M-5.04976 21.4267H61.2311C61.4935 22.1645 61.7855 22.8915 62.1064 23.6058H-3.92208C-4.32621 22.8943 -4.70239 22.1674 -5.04976 21.4267Z" stroke="#FF4588" stroke-width="0.851913"></path></g><g style="mix-blend-mode:multiply" opacity="0.15"><path d="M61.5104 2.77605C61.3542 3.16217 61.1896 3.60173 61.0222 4.09356H-5.6097C-5.38466 3.6429 -5.13811 3.20323 -4.87087 2.77605H61.5104Z" fill="#01708B"></path><path d="M61.5104 2.77605C61.3542 3.16217 61.1896 3.60173 61.0222 4.09356H-5.6097C-5.38466 3.6429 -5.13811 3.20323 -4.87087 2.77605H61.5104Z" stroke="#FF4588" stroke-width="0.851913"></path></g><path d="M67.0437 1.10425H-5.32175C-5.32175 1.10425 -13.5283 9.86868 -5.32175 24.0381H67.0437" stroke="#FF4588" stroke-width="2.91354" stroke-miterlimit="10"></path><path d="M69.5167 101.909H-57.4808V114.052H69.5167V101.909Z" fill="#00D7E5"></path><path d="M69.5104 103.763H19.5333V112.093H69.5104V103.763Z" fill="white"></path><g style="mix-blend-mode:multiply" opacity="0.15"><path d="M19.5333 105.56H69.5104" stroke="#01A79D" stroke-width="0.97118" stroke-miterlimit="10"></path></g><g style="mix-blend-mode:multiply" opacity="0.15"><path d="M19.5333 108.3H69.5104" stroke="#01A79D" stroke-width="0.97118" stroke-miterlimit="10"></path></g><g style="mix-blend-mode:multiply" opacity="0.15"><path d="M69.5104 109.918H19.5333V112.093H69.5104V109.918Z" fill="#01708B"></path></g><g style="mix-blend-mode:multiply" opacity="0.15"><path d="M69.5167 112.093H-57.4808V114.052H69.5167V112.093Z" fill="#253745"></path></g><path d="M12.3434 101.909H7.71326V114.052H12.3434V101.909Z" fill="#253745"></path><g style="mix-blend-mode:multiply" opacity="0.15"><path d="M20.7916 103.763H19.5333V111.988H20.7916V103.763Z" fill="#253745"></path></g><path d="M-37.8383 107.872H2.43846" stroke="#253745" stroke-width="4.8559" stroke-miterlimit="10"></path><g style="mix-blend-mode:multiply" opacity="0.34"><path d="M-15.3942 102.294L-1.21859 111.982L11.2834 102.294H-15.3942Z" fill="#253745"></path></g><path d="M-36.0573 24.8125H90.934V53.1141H-36.0573V48.6699H-33.6089L-30.6585 29.2505L-36.0573 29.1327V24.8125Z" fill="#226481"></path><path d="M-34.5573 29.2568H13.7897L13.8765 29.4676C15.1656 32.5089 15.8226 35.7807 15.8077 39.0839C15.7928 42.3871 15.1062 45.6528 13.7897 48.6824H-34.5573V29.2568Z" fill="#F0FBFD"></path><g style="mix-blend-mode:multiply" opacity="0.15"><path d="M15.4509 43.2156H-34.3837V44.1453H15.2587C15.3393 43.8354 15.3951 43.5255 15.4509 43.2156Z" fill="#01A79D"></path></g><g style="mix-blend-mode:multiply" opacity="0.15"><path d="M15.7298 36.8H-34.3837V37.798H15.8228C15.7856 37.4633 15.7608 37.1162 15.7298 36.8Z" fill="#01A79D"></path></g><g style="mix-blend-mode:multiply" opacity="0.15"><path d="M13.9013 29.4676L13.8145 29.2568H-34.3837V33.5213H15.2029C14.8903 32.1341 14.4547 30.7775 13.9013 29.4676Z" fill="#01708B"></path></g><g style="mix-blend-mode:multiply" opacity="0.15"><path d="M13.8145 29.2568H10.5232V48.6762H13.8145C15.131 45.6466 15.8176 42.3809 15.8325 39.0777C15.8475 35.7745 15.1904 32.5027 13.9013 29.4614L13.8145 29.2568Z" fill="#253745"></path></g><g style="mix-blend-mode:multiply" opacity="0.15"><path d="M90.9402 24.9863H-36.0573V28.4512H90.9402V24.9863Z" fill="#253745"></path></g><path d="M81.3639 53.1079H85.994V24.8126H81.3639V53.1079Z" fill="white" fill-opacity="0.41"></path><path d="M76.5664 53.1079H78.8784V24.8126H76.5664V53.1079Z" fill="white" fill-opacity="0.41"></path><path d="M21.11 53.1079H25.7401L25.7401 24.8126H21.11L21.11 53.1079Z" fill="white" fill-opacity="0.41"></path><g style="mix-blend-mode:multiply" opacity="0.15"><path d="M72.4135 32.7837H30.2339V46.0171H72.4135V32.7837Z" fill="#253745"></path></g><path d="M-6.93756 113.945C-6.93756 113.945 -10.5326 119.994 -10.5326 126.031C-10.5326 132.069 -7.37144 138.329 -7.37144 138.329L48.897 138.701L48.7792 138.348C46.2198 130.338 46.2371 121.727 48.8288 113.728L-6.93756 113.945Z" fill="#EDF4F3"></path><g style="mix-blend-mode:multiply" opacity="0.15"><path d="M2.25464 122.554C10.964 122.04 19.696 122.04 28.4054 122.554C19.696 123.069 10.964 123.069 2.25464 122.554Z" fill="#19525E"></path></g><g style="mix-blend-mode:multiply" opacity="0.15"><path d="M15.3268 133.742C24.0382 133.228 32.7723 133.228 41.4837 133.742C32.7723 134.257 24.0382 134.257 15.3268 133.742Z" fill="#19525E"></path></g><path d="M51.9216 113.61H-7.17944V115.693H51.9216V113.61Z" fill="#19CAA2"></path><path d="M51.9837 138.211H-7.11731V140.294H51.9837V138.211Z" fill="#19CAA2"></path><path d="M40.523 145.928L35.9921 143.56L31.4673 145.928V126.676H40.523V145.928Z" fill="#13D3A5"></path><g style="mix-blend-mode:multiply" opacity="0.15"><path d="M40.5168 126.676H31.4673V129.366H40.5168V126.676Z" fill="#253745"></path></g><path d="M65.8495 70.8167H-41.927V101.61H65.8495V70.8167Z" fill="#13D3A5"></path><path d="M54.0664 70.8167H49.4363V101.61H54.0664V70.8167Z" fill="white" fill-opacity="0.52"></path><path d="M60.5312 70.8167H58.2192V101.61H60.5312V70.8167Z" fill="white" fill-opacity="0.52"></path><g style="mix-blend-mode:multiply" opacity="0.15"><path d="M65.8495 93.6514H-41.927V101.61H65.8495V93.6514Z" fill="#253745"></path></g><g style="mix-blend-mode:multiply" opacity="0.15"><path d="M65.8495 70.8167H-41.927V75.4468H65.8495V70.8167Z" fill="#253745"></path></g><g style="mix-blend-mode:overlay" opacity="0.2"><path d="M65.8495 75.7566H-41.927V79.457H65.8495V75.7566Z" fill="#AD38AD"></path></g><g style="mix-blend-mode:overlay" opacity="0.2"><path d="M65.8495 89.9136H-41.927V93.614H65.8495V89.9136Z" fill="#AD38AD"></path></g><path d="M-40.425 71.0087H77.3431C79.7833 71.0087 82.1235 70.0398 83.8495 68.3149C85.5755 66.5901 86.546 64.2505 86.5477 61.8104C86.5477 59.374 85.5811 57.0372 83.8601 55.3128C82.1391 53.5883 79.8043 52.617 77.3679 52.6121H-40.4003V53.548L-22.3879 53.8393L-20.5284 69.707L-40.3631 69.924L-40.425 71.0087Z" fill="#CF2C81"></path><path d="M-38.3239 69.7754L14.6036 69.3043L14.7028 69.0068C16.335 63.9861 16.3002 58.5723 14.6036 53.573H-38.6152C-38.4045 53.9449 -34.8962 56.0523 -35.1194 62.1825C-35.2991 66.9056 -38.1628 70.2713 -38.3239 69.7754Z" fill="white"></path><g style="mix-blend-mode:multiply" opacity="0.15"><path d="M-37.202 55.042H15.0437C14.9073 54.5461 14.7709 54.0565 14.6036 53.573H-38.6152C-38.1196 54.0384 -37.6479 54.5287 -37.202 55.042Z" fill="#01A79D"></path></g><g style="mix-blend-mode:multiply" opacity="0.15"><path d="M15.0314 67.854C15.1636 67.3664 15.2814 66.8767 15.3847 66.385H-35.4416C-35.6688 66.8939 -35.934 67.385 -36.235 67.854H15.0314Z" fill="#01A79D"></path></g><g style="mix-blend-mode:multiply" opacity="0.15"><path d="M-35.1131 61.5563H15.8992C15.9097 60.1675 15.8018 58.7802 15.5768 57.4097H-35.8693C-35.3644 58.7336 -35.108 60.1394 -35.1131 61.5563Z" fill="#01A79D"></path></g><g style="mix-blend-mode:multiply" opacity="0.15"><path d="M14.6037 53.573H12.2297C13.477 55.9735 14.0631 58.6625 13.9281 61.3643C13.8833 64.083 13.4085 66.7775 12.5211 69.3477H14.6037L14.7029 69.0502C16.3447 64.0162 16.3099 58.5855 14.6037 53.573Z" fill="#8999A1"></path></g><g style="mix-blend-mode:multiply" opacity="0.15"><path d="M82.7109 69.2857C60.5581 69.2113 -20.5594 69.7072 -20.5594 69.7072L-40.394 69.9241V71.0088H77.3742C79.2897 71.0077 81.1564 70.4049 82.7109 69.2857Z" fill="#253745"></path></g><g style="mix-blend-mode:multiply" opacity="0.15"><path d="M77.3741 52.6121H-40.394V53.548L-21.8363 53.4922L14.6347 53.5728L15.4157 56.0521H84.5146C83.657 54.9817 82.5704 54.1171 81.3348 53.5217C80.0991 52.9264 78.7457 52.6156 77.3741 52.6121Z" fill="#253745"></path></g><g style="mix-blend-mode:multiply" opacity="0.15"><path d="M-36.2411 56.5171H15.3848" stroke="#253745" stroke-width="0.48559" stroke-miterlimit="10"></path></g><g style="mix-blend-mode:multiply" opacity="0.15"><path d="M-35.2308 64.011L15.8558 64.135" stroke="#253745" stroke-width="0.48559" stroke-miterlimit="10"></path></g><g style="mix-blend-mode:multiply" opacity="0.15"><path d="M-36.4519 67.916H15.0314" stroke="#253745" stroke-width="0.48559" stroke-miterlimit="10"></path></g><path d="M23.3619 52.606H22.7793V71.0026H23.3619V52.606Z" fill="#253745"></path><path d="M30.1119 52.606H29.5293V71.0026H30.1119V52.606Z" fill="#253745"></path><path d="M78.4588 52.7548V52.7982C80.1493 55.4274 81.0697 58.4775 81.1157 61.6029C81.1617 64.7283 80.3315 67.8042 78.7191 70.482L78.4402 70.9345C78.6075 70.9345 78.7687 70.8911 78.9298 70.8601L79.0414 70.6742C80.672 67.9621 81.519 64.8512 81.4884 61.6869C81.4578 58.5225 80.5507 55.4286 78.8679 52.7486L78.434 52.6804L78.4588 52.7548Z" fill="#253745"></path><path d="M73.3019 52.6121H72.9114C71.5166 58.6851 71.6722 65.0115 73.3639 71.0087H73.7606C72.0454 65.0153 71.8875 58.6835 73.3019 52.6121Z" fill="#253745"></path><g style="mix-blend-mode:multiply" opacity="0.15"><path d="M71.1758 59.2754H31.2896V65.6039H71.1758V59.2754Z" fill="#334E63"></path></g><path d="M7.34558 90.236L2.8208 87.8682L-1.70398 90.236V60.3972H7.34558V90.236Z" fill="#FF4588"></path><g style="mix-blend-mode:multiply" opacity="0.15"><path d="M7.34558 60.3972H-1.70398V63.0873H7.34558V60.3972Z" fill="#253745"></path></g><path d="M86.6601 78.6584L65.5444 85.0859L94.3391 179.682L115.455 173.255L86.6601 78.6584Z" fill="#18A88E"></path><g style="mix-blend-mode:overlay" opacity="0.2"><path d="M82.5911 79.8726L111.029 174.577L115.467 173.226L86.6634 78.6267L82.5911 79.8726Z" fill="white"></path></g><path d="M88.798 85.5644L67.6835 91.9956L69.9121 99.3125L91.0266 92.8813L88.798 85.5644Z" fill="white" fill-opacity="0.36"></path><path d="M113.018 165.242L91.9382 171.658L92.6656 174.048L113.746 167.631L113.018 165.242Z" fill="white" fill-opacity="0.38"></path><path d="M111.637 160.555L90.5581 166.975L91.2859 169.364L112.365 162.944L111.637 160.555Z" fill="white" fill-opacity="0.38"></path><g style="mix-blend-mode:multiply" opacity="0.15"><path d="M65.5519 85.0604L94.3555 179.653L100.362 177.825L69.649 83.8083L65.5519 85.0604Z" fill="#B44959"></path></g><path d="M114.907 170.87L93.7181 177.271L94.0417 178.342L115.231 171.941L114.907 170.87Z" fill="white" fill-opacity="0.38"></path><path d="M70.5292 83.8887C70.7091 84.4048 71.0223 84.8641 71.4371 85.2201C71.8518 85.576 72.3533 85.816 72.8907 85.9156L75.9341 86.4858C76.4677 86.586 77.0182 86.5442 77.5305 86.3648C78.0429 86.1853 78.4991 85.8744 78.8535 85.4631L80.8742 83.1202C81.2128 82.7263 81.447 82.2538 81.5553 81.7458C81.6636 81.2378 81.6426 80.7108 81.494 80.2131L70.4176 83.6036L70.5292 83.8887Z" fill="#167D6B"></path></g><defs><clipPath id="clip0_2701_8021"><rect width="125" height="188" fill="white"></rect></clipPath></defs></svg>