<svg xmlns="http://www.w3.org/2000/svg" width="138" height="192" viewBox="0 0 138 192" fill="none"><g clip-path="url(#clip0_2017_906)"><path d="M121.863 65.584C121.863 65.584 129.675 72.2685 127.754 79.3777C121.592 102.32 98.6873 104.289 98.6873 104.289" stroke="#08303D" stroke-width="3.03564" stroke-linecap="round" stroke-linejoin="round"></path><path d="M130.163 82.97C130.301 82.7173 130.352 82.427 130.31 82.1427C130.208 81.7402 129.476 81.1474 129.032 80.5944C128.723 80.3456 128.338 80.2111 127.941 80.2139C126.974 81.718 125.789 83.4788 124.48 85.3678C125.919 85.6301 127.375 85.7883 128.837 85.8411C129.35 85.7443 129.83 85.5173 130.23 85.182C130.439 84.8767 130.039 84.598 130.039 84.598C130.039 84.598 130.43 84.191 130.416 83.9698C130.352 83.6318 130.268 83.2979 130.163 82.97Z" fill="#F2C290"></path><path d="M72.8543 41.0002L54.5675 30.9668L0 82.1736L73.1693 113.99L114.237 63.7037L72.8543 41.0002Z" fill="#19CFA5"></path><path d="M121.956 60.5717L106.473 -0.000488281L72.8542 41.0003L114.237 63.7038L121.956 60.5717Z" fill="#19CFA5"></path><path d="M114.237 63.7035L72.8542 41L114.237 63.7035Z" fill="#F48B22"></path><path d="M121.956 60.5718L123.132 65.1682L121.956 60.5718Z" fill="#F48B22"></path><path d="M114.237 63.7041L73.1692 113.991L81.3321 117.822L123.132 65.1684L114.237 63.7041Z" fill="#00594B"></path><path d="M123.132 65.1682L121.956 60.5718L114.237 63.7039L123.132 65.1682Z" fill="#19CFA5"></path><path d="M107.6 106.288C107.6 106.288 98.6519 134.159 95.6218 139.791C92.5918 145.422 67.4197 168.192 67.4197 168.192L60.8406 163.547L84.797 136.667L84.3268 135.862L85.6311 135.721L85.325 134.668L93.9804 108.536L101.482 101.555L107.6 106.288Z" fill="#40B7BE"></path><path d="M102.542 102.563L95.7858 111.15L88.2218 136.406L87.0106 137.11L87.4144 138.494L62.5129 164.317" stroke="#225666" stroke-width="1.73465" stroke-linecap="round" stroke-linejoin="round"></path><path d="M91.913 93.9277L72.0912 115.428L72.3042 116.844L71.2572 116.375L70.2856 117.091L42.9841 124.099V134.048C42.9841 134.048 71.8561 129.275 76.9801 125.386C82.1042 121.498 95.6573 110.057 95.6573 110.057L98.9447 109.071L104.521 103.824L91.913 93.9277Z" fill="#59CAD0"></path><path d="M98.2125 98.6968C98.2125 98.6968 91.5314 107.77 85.6975 101.232" stroke="#225666" stroke-width="1.73465" stroke-linecap="round" stroke-linejoin="round"></path><path d="M86.7399 102.188L74.0385 116.406L73.3775 118.919L71.217 118.352L43.0903 126.302" stroke="#225666" stroke-width="1.73465" stroke-linecap="round" stroke-linejoin="round"></path><path d="M127.027 66.9468C127.027 66.9468 125.439 68.5704 120.559 69.0128C115.678 69.4551 110.909 69.3445 102.702 79.7407C94.4948 90.1369 88.8384 95.1138 88.8384 95.1138C88.8384 95.1138 100.817 107.39 108.026 108.054C108.026 108.054 125.549 84.7176 129.653 77.4182L132.781 71.8573L127.027 66.9468Z" fill="#1C5B5E"></path><path d="M46.1826 133.221L49.0795 132.951C49.1523 133.493 49.0606 134.045 48.8162 134.534C48.5719 135.024 48.1862 135.429 47.7087 135.698C46.0095 136.707 36.3027 137.384 36.3027 137.384L38.8581 136.057L46.1826 133.221Z" fill="white"></path><path d="M27.2615 134.235C30.2294 130.35 32.35 124.975 33.1663 122.732C33.3626 122.769 33.5566 122.816 33.7475 122.874C37.026 123.865 37.1679 124.546 38.1839 124.949C39.4926 125.471 43.9778 121.582 44.488 123.723C44.0991 124.163 43.8054 124.678 43.6253 125.236C43.4451 125.794 43.3824 126.383 43.441 126.966C43.6672 129.784 47.9883 132.673 45.4684 134.097C44.0517 134.82 42.5427 135.347 40.9832 135.664C39.376 136.024 37.8232 136.594 36.365 137.358L36.3162 137.384C36.3162 137.384 31.2542 137.557 28.8675 139.22C26.9421 140.548 23.7434 143.923 20.1943 143.065C21.8979 140.313 24.2625 138.172 27.2615 134.235Z" fill="#08303D"></path><path d="M18.4685 140.662C20.7266 138.167 26.5382 131.58 27.2614 129.16C28.122 126.293 29.3376 121.993 33.1662 122.719C32.3499 124.979 30.2293 130.355 27.2614 134.221C24.2934 138.088 21.8978 140.291 20.1631 143.042C19.6736 142.924 19.2032 142.738 18.7657 142.489C18.613 142.4 18.4821 142.278 18.3821 142.132C18.2821 141.986 18.2156 141.82 18.1872 141.645C18.1588 141.471 18.1693 141.292 18.2179 141.123C18.2665 140.953 18.3521 140.795 18.4685 140.662Z" fill="white"></path><path d="M18.8632 142.813C18.9068 142.799 18.9471 142.777 18.9815 142.748C19.0159 142.718 19.0436 142.681 19.0629 142.64C19.7106 141.189 22.2083 137.929 26.0901 133.456C29.027 130.067 31.9949 123.095 32.1191 122.799C32.1358 122.761 32.1447 122.72 32.1452 122.678C32.1457 122.637 32.1378 122.596 32.1221 122.558C32.1064 122.519 32.0831 122.484 32.0536 122.455C32.0242 122.426 31.9891 122.403 31.9506 122.387C31.9124 122.371 31.8715 122.363 31.8301 122.363C31.7887 122.363 31.7477 122.371 31.7093 122.386C31.671 122.402 31.6362 122.425 31.6068 122.454C31.5774 122.483 31.554 122.517 31.538 122.555C31.5069 122.626 28.4813 129.731 25.611 133.045C22.8382 136.239 19.3512 140.455 18.4861 142.379C18.4691 142.417 18.4598 142.457 18.4586 142.499C18.4575 142.54 18.4645 142.581 18.4793 142.62C18.4942 142.659 18.5165 142.694 18.5451 142.724C18.5737 142.754 18.6079 142.778 18.6459 142.795C18.7138 142.827 18.791 142.833 18.8632 142.813Z" fill="#08303D"></path><path d="M31.8799 129.39C31.9627 129.861 32.1835 130.296 32.5146 130.642C32.8457 130.987 33.272 131.227 33.7398 131.331C34.2075 131.435 34.6956 131.398 35.1423 131.225C35.589 131.052 35.9743 130.751 36.2493 130.36C36.5243 129.968 36.6768 129.504 36.6875 129.027C36.6981 128.549 36.5664 128.079 36.309 127.676C36.0517 127.273 35.6802 126.955 35.2417 126.762C34.8031 126.57 34.3171 126.511 33.8452 126.594C33.213 126.705 32.6508 127.062 32.2823 127.587C31.9138 128.111 31.769 128.76 31.8799 129.39Z" fill="white"></path><path d="M33.4147 136.977C33.5833 138.004 33.8894 138.804 34.0934 138.773C34.2975 138.742 34.3241 137.889 34.1511 136.853C33.9781 135.818 33.672 135.026 33.4723 135.062C33.2727 135.097 33.2594 135.955 33.4147 136.977Z" fill="#0A2138"></path><path d="M35.3223 136.659C35.4954 137.685 35.8015 138.486 36.0011 138.455C36.2007 138.424 36.2318 137.57 36.0588 136.535C35.8858 135.5 35.5841 134.708 35.38 134.743C35.1759 134.779 35.1493 135.633 35.3223 136.659Z" fill="#0A2138"></path><path d="M37.3187 136.327C37.4917 137.349 37.7934 138.154 37.9974 138.096C38.2015 138.039 38.2281 137.212 38.0551 136.181C37.8821 135.15 37.5804 134.354 37.3764 134.385C37.1723 134.416 37.1457 135.3 37.3187 136.327Z" fill="#0A2138"></path><path d="M39.3996 135.977C39.5726 137.004 39.8788 137.804 40.0828 137.769C40.2869 137.734 40.3091 136.884 40.1405 135.853C39.9719 134.823 39.6614 134.026 39.4573 134.062C39.2532 134.097 39.231 134.951 39.3996 135.977Z" fill="#0A2138"></path><path d="M50.468 169.378C52.3801 166.993 56.7677 165.56 59.363 163.835C62.4418 161.782 61.6566 160.791 62.8766 163.755C64.0966 166.719 65.9821 165.799 67.8498 167.294C69.7175 168.789 64.1587 172.099 64.1587 172.099C64.1587 172.099 62.637 174.841 64.8596 176.642C67.0823 178.442 63.826 180.659 66.6342 183.216C69.0964 185.468 71.4432 188.83 70.0458 190.692C67.3351 188.701 61.5945 183.419 50.468 169.378Z" fill="#08303D"></path><path d="M69.2475 191.36C66.4171 192.957 61.1289 185.166 55.9916 179.831C50.8543 174.496 48.7071 174.151 49.6742 170.837C49.8385 170.304 50.1052 169.809 50.4594 169.377C61.5859 183.419 67.3177 188.701 70.0283 190.687C69.8178 190.963 69.5519 191.192 69.2475 191.36Z" fill="white"></path><path d="M64.8599 176.637C62.6417 174.837 64.159 172.094 64.159 172.094C65.0689 171.538 65.9324 170.909 66.7409 170.214C66.7409 170.214 69.7843 170.015 69.5092 170.709C69.2342 171.404 67.3487 172.324 66.2707 173.78C65.1926 175.235 67.7657 182.185 66.6256 183.211C63.8262 180.654 67.0825 178.438 64.8599 176.637Z" fill="white"></path><path d="M49.9004 171.603C61.018 185.238 68.9768 191.546 69.0523 191.608C69.1182 191.66 69.2019 191.683 69.2851 191.673C69.3683 191.663 69.4441 191.621 69.4959 191.555C69.5477 191.489 69.5712 191.406 69.5612 191.323C69.5512 191.24 69.5086 191.164 69.4427 191.113C69.3628 191.051 61.4572 184.778 50.3884 171.205L49.9448 170.639C49.9185 170.607 49.8863 170.58 49.8498 170.561C49.8133 170.541 49.7733 170.529 49.7321 170.525C49.6909 170.521 49.6493 170.525 49.6097 170.537C49.5701 170.549 49.5332 170.568 49.5011 170.594C49.4691 170.621 49.4425 170.653 49.4229 170.689C49.4034 170.726 49.3912 170.765 49.3871 170.807C49.3829 170.848 49.387 170.889 49.3989 170.929C49.4109 170.968 49.4305 171.005 49.4568 171.037C49.5899 171.227 49.7451 171.395 49.9004 171.603Z" fill="#08303D"></path><path d="M65.5474 179.305C66.5722 179.464 67.4284 179.429 67.4595 179.23C67.4905 179.031 66.6876 178.73 65.6628 178.571C64.6379 178.411 63.7817 178.447 63.7462 178.646C63.7107 178.845 64.5226 179.146 65.5474 179.305Z" fill="#0A2138"></path><path d="M64.7579 176.757C65.7827 176.916 66.639 176.881 66.67 176.681C66.7011 176.482 65.8981 176.182 64.8955 176.022C63.8928 175.863 63.0144 175.898 62.9789 176.098C62.9435 176.297 63.7243 176.597 64.7579 176.757Z" fill="#0A2138"></path><path d="M64.1011 174.686C65.1259 174.846 65.9821 174.815 66.0176 174.611C66.0531 174.408 65.2412 174.116 64.2164 173.952C63.1916 173.788 62.3354 173.828 62.3043 174.032C62.2733 174.235 63.0763 174.527 64.1011 174.686Z" fill="#0A2138"></path><path d="M64.2209 172.585C65.2457 172.745 66.102 172.709 66.1375 172.506C66.173 172.302 65.3611 172.01 64.3363 171.851C63.3115 171.692 62.4553 171.727 62.4242 171.926C62.3932 172.125 63.1961 172.426 64.2209 172.585Z" fill="#0A2138"></path><path d="M55.6365 168.329C55.2434 168.6 54.9395 168.98 54.7634 169.423C54.5873 169.866 54.5468 170.35 54.6471 170.816C54.7474 171.281 54.9839 171.707 55.3268 172.038C55.6697 172.37 56.1035 172.592 56.5733 172.678C57.0431 172.763 57.5277 172.708 57.9659 172.519C58.4041 172.329 58.7762 172.015 59.035 171.615C59.2938 171.214 59.4277 170.747 59.4197 170.27C59.4118 169.794 59.2624 169.331 58.9904 168.94C58.6264 168.416 58.0688 168.057 57.44 167.943C56.8113 167.828 56.1626 167.967 55.6365 168.329Z" fill="white"></path><path d="M127.142 66.9465C127.142 66.9465 128.185 66.0617 128.074 65.1769C129.729 64.3275 128.225 63.1508 128.225 63.1508C128.225 63.1508 126.304 61.6157 127.173 60.5849C128.043 59.5541 129.445 61.4033 129.445 61.4033C131.011 60.2575 129.223 59.9124 129.05 59.1914C128.877 58.4703 129.493 58.9967 129.937 58.4349C130.381 57.873 128.464 56.1875 129.325 55.201C130.185 54.2145 131.938 54.8913 132.665 54.5772C132.943 54.4867 133.194 54.3321 133.4 54.1261C133.606 53.92 133.76 53.6683 133.85 53.3916C134.531 54.3758 135.135 55.4112 135.656 56.4883C136.197 57.8155 136.152 58.5985 137.43 58.4924C138.708 58.3862 136.902 59.9478 136.902 59.9478C136.902 59.9478 138.539 62.2792 137.661 63.2304C137.151 63.756 136.719 64.3519 136.379 64.9999L132.896 71.857L127.142 66.9465Z" fill="#F2C290"></path><path d="M123.185 58.5855C122.741 55.971 124.982 56.5726 125.079 54.3032C125.133 53.007 126.122 52.3478 126.956 52.0204C127.039 51.9875 127.113 51.9345 127.171 51.8662C127.229 51.7979 127.27 51.7164 127.289 51.6289C127.307 51.5414 127.304 51.4506 127.28 51.3645C127.255 51.2785 127.209 51.1999 127.147 51.1356C126.968 50.9971 126.85 50.7959 126.815 50.5731C126.78 50.3502 126.832 50.1226 126.96 49.9368C127.639 48.8042 131.579 49.136 133.06 51.2639C133.708 52.2018 133.846 52.8831 133.726 53.383C133.636 53.6597 133.482 53.9114 133.276 54.1174C133.07 54.3235 132.819 54.4781 132.541 54.5686C131.814 54.8827 130.057 54.2058 129.196 55.1924C128.336 56.1789 130.239 57.8467 129.809 58.4262C129.378 59.0058 128.762 58.4528 128.921 59.1827C129.081 59.9127 130.878 60.2622 129.316 61.3947C129.316 61.3947 127.919 59.5499 127.045 60.5763C126.171 61.6026 128.096 63.1421 128.096 63.1421C128.096 63.1421 129.596 64.3189 127.945 65.1683C127.959 65.1683 123.606 61.1868 123.185 58.5855Z" fill="#464646"></path><path d="M134.804 57.944C134.826 58.0184 134.833 58.0964 134.825 58.1736C134.817 58.2508 134.793 58.3255 134.756 58.3935C134.718 58.4615 134.667 58.5213 134.606 58.5694C134.545 58.6176 134.475 58.6531 134.4 58.674C134.248 58.7164 134.086 58.6975 133.948 58.6213C133.81 58.5451 133.708 58.4178 133.664 58.267C133.635 58.1903 133.623 58.1086 133.627 58.0269C133.632 57.9453 133.654 57.8655 133.691 57.7925C133.728 57.7196 133.78 57.6551 133.843 57.6031C133.906 57.5511 133.98 57.5127 134.059 57.4903C134.137 57.468 134.22 57.4622 134.301 57.4732C134.383 57.4843 134.461 57.512 134.531 57.5546C134.601 57.5972 134.661 57.6538 134.708 57.7208C134.755 57.7879 134.788 57.8639 134.804 57.944Z" fill="#181028"></path><path d="M132.528 57.9747C132.475 57.9926 132.417 57.9926 132.364 57.9747C132.301 57.9544 132.248 57.9101 132.217 57.8513C132.187 57.7925 132.18 57.724 132.2 57.6607C132.226 57.5854 132.825 55.7495 134.582 55.6743C134.644 55.6793 134.701 55.7064 134.744 55.7506C134.787 55.7949 134.812 55.8531 134.814 55.9145C134.817 55.9759 134.797 56.0361 134.759 56.084C134.72 56.1318 134.665 56.1639 134.604 56.1742C133.194 56.2317 132.683 57.7978 132.675 57.8111C132.665 57.848 132.647 57.8822 132.621 57.9107C132.596 57.9391 132.564 57.9611 132.528 57.9747Z" fill="#562A35"></path><path d="M136.308 61.2838C136.15 61.3519 135.981 61.387 135.809 61.387C135.637 61.387 135.467 61.3519 135.31 61.2838C135.014 61.134 134.782 60.8826 134.658 60.576C134.639 60.5131 134.644 60.4456 134.672 60.3862C134.7 60.3267 134.748 60.2794 134.808 60.253C134.871 60.2316 134.939 60.2353 134.999 60.2634C135.059 60.2915 135.105 60.3418 135.128 60.4034C135.161 60.501 135.214 60.5905 135.285 60.6657C135.355 60.741 135.441 60.8003 135.537 60.8397C135.632 60.8791 135.735 60.8977 135.838 60.8941C135.941 60.8906 136.042 60.8651 136.135 60.8193C136.189 60.8138 136.243 60.8259 136.289 60.8537C136.335 60.8816 136.371 60.9237 136.391 60.9737C136.411 61.0237 136.414 61.0789 136.4 61.1308C136.386 61.1828 136.355 61.2287 136.312 61.2617L136.308 61.2838Z" fill="#BA6349"></path><path d="M127.754 61.8632L127.697 61.8942C127.673 61.9025 127.647 61.906 127.622 61.9045C127.597 61.903 127.572 61.8965 127.55 61.8854C127.527 61.8743 127.507 61.8588 127.49 61.8398C127.473 61.8208 127.461 61.7987 127.453 61.7748C127.395 61.646 127.385 61.5008 127.425 61.3654C127.465 61.2299 127.552 61.1131 127.67 61.036C127.692 61.0233 127.716 61.0151 127.741 61.0119C127.766 61.0086 127.791 61.0103 127.816 61.0169C127.84 61.0235 127.863 61.0348 127.883 61.0502C127.903 61.0656 127.919 61.0849 127.932 61.1067C127.945 61.1282 127.953 61.152 127.957 61.1768C127.96 61.2015 127.959 61.2268 127.953 61.251C127.947 61.2752 127.936 61.298 127.921 61.3181C127.906 61.3381 127.887 61.355 127.865 61.3677C127.839 61.3677 127.75 61.4651 127.816 61.6465C127.829 61.6846 127.83 61.7258 127.819 61.7644C127.808 61.8031 127.785 61.8376 127.754 61.8632Z" fill="#BA6349"></path><path d="M128.642 62.0626C128.613 62.084 128.579 62.0977 128.544 62.1024C128.325 62.1002 128.109 62.0451 127.916 61.9419C127.723 61.8386 127.558 61.6903 127.435 61.5096C127.406 61.4673 127.394 61.4152 127.403 61.3646C127.413 61.3141 127.441 61.2692 127.484 61.2397C127.526 61.2117 127.578 61.2011 127.629 61.2102C127.679 61.2192 127.724 61.2472 127.754 61.2884C127.754 61.2884 128.096 61.7662 128.495 61.7308C128.546 61.7245 128.598 61.7387 128.639 61.7702C128.679 61.8017 128.706 61.8479 128.713 61.8989C128.714 61.9298 128.709 61.9607 128.696 61.9891C128.684 62.0175 128.665 62.0427 128.642 62.0626Z" fill="#BA6349"></path><g style="mix-blend-mode:multiply"><path d="M133.859 59.6513C133.859 59.6513 134.254 59.0364 134.591 59.3372C134.999 59.7044 133.704 60.5715 133.704 60.5715C133.704 60.5715 132.719 59.4611 133.216 59.1912C133.713 58.9214 133.859 59.6513 133.859 59.6513Z" fill="#FF7694"></path></g><path d="M125.918 66.9463L127.413 65.5483L133.087 71.8524L131.614 75.2809L125.918 66.9463Z" fill="white"></path><path d="M111.499 53.3696C115.607 58.7048 103.66 43.637 100.284 29.6397C96.908 15.6424 100.284 2.06104 100.284 2.06104L76.1768 34.4972C77.5077 35.3156 78.8829 36.134 80.2982 36.9392C94.7164 45.1234 103.882 43.4821 111.499 53.3696Z" fill="#DCEEE9"></path><path d="M55.4414 19.0225C55.4414 19.0225 34.5904 40.2572 22.6121 50.6534C10.6339 61.0496 -0.0134277 63.0404 -0.0134277 63.0404L5.97569 65.5532L3.28724 68.1677V79.0859L54.5541 30.967L71.7673 40.4121L76.1637 34.4973C68.8106 29.9607 61.8759 24.7821 55.4414 19.0225Z" fill="white"></path><path d="M105.879 6.78135L100.284 2.06104C100.284 2.06104 96.9037 15.6292 100.284 29.6397C103.665 43.6502 115.608 58.7048 111.499 53.3696C103.882 43.4821 94.7166 45.1234 80.2984 36.9392C78.8832 36.134 77.5079 35.3156 76.177 34.4972L71.7805 40.4119L111.127 61.9962C112.278 62.6371 113.57 62.9851 114.889 63.0093C116.446 63.0093 118.234 62.5669 118.913 60.6425C119.165 59.8813 119.188 59.0631 118.979 58.289L105.879 6.78135Z" fill="white"></path><path d="M115.2 64.5576C115.2 64.5576 121.907 72.3437 118.944 79.0769C109.375 100.825 86.4341 99.3163 86.4341 99.3163" stroke="#08303D" stroke-width="3.03564" stroke-linecap="round" stroke-linejoin="round"></path><path d="M113.438 81.3112C113.687 81.3827 113.952 81.3827 114.201 81.3112C114.617 81.1338 115.002 80.8919 115.341 80.5945C115.341 80.5945 117.378 80.4353 117.817 80.9882C118.256 81.5412 118.992 82.134 119.094 82.5322C119.141 82.818 119.09 83.1111 118.948 83.3639C119.052 83.6918 119.137 84.0257 119.201 84.3637C119.201 84.5805 118.828 84.9875 118.828 84.9875C118.828 84.9875 119.228 85.2706 119.015 85.5714C118.616 85.9084 118.136 86.1357 117.622 86.2306C117.44 86.2306 113.598 86.0757 112.262 85.452L113.438 81.3112Z" fill="#F2C290"></path><path d="M102.5 78.3783C106.656 77.6164 108.284 77.2783 112.5 77C119.5 76.5379 115.674 69.6766 115.674 69.6766C115.674 69.6766 90.613 68.1459 88.8384 78.3209C87.0639 88.4959 110.133 85.6204 113.46 86.284C113.46 86.284 114.569 83.519 113.571 81.1965C113.571 81.1965 107.445 78.4359 101.447 78.3342L102.5 78.3783Z" fill="#2E7D81"></path><path d="M104.043 78.0779L101.191 78.6C99.4282 78.5329 97.6685 78.7909 96 79.3609C96 79.3609 96 77.5913 99.7177 77.0737C102.557 76.6667 104.043 78.0779 104.043 78.0779Z" fill="#216C70"></path><path d="M118.948 83.3591C118.1 83.382 117.254 83.27 116.441 83.0273" stroke="#562A35" stroke-width="0.867327" stroke-linecap="round" stroke-linejoin="round"></path><path d="M118.829 84.9826C117.889 85.1505 116.923 85.0898 116.011 84.8057" stroke="#562A35" stroke-width="0.867327" stroke-linecap="round" stroke-linejoin="round"></path><path d="M130.163 82.9697C130.163 82.9697 127.945 83.4121 127.155 82.9697C126.366 82.5273 127.861 81.3771 127.914 81.3992" stroke="#562A35" stroke-width="0.867327" stroke-linecap="round" stroke-linejoin="round"></path><path d="M130.039 84.5977C130.039 84.5977 127.12 85.1596 126.49 84.4385C125.86 83.7174 127.173 82.9697 127.173 82.9697" stroke="#562A35" stroke-width="0.867327" stroke-linecap="round" stroke-linejoin="round"></path></g><defs><clipPath id="clip0_2017_906"><rect width="137.905" height="191.679" fill="white"></rect></clipPath></defs></svg>