<svg xmlns="http://www.w3.org/2000/svg" width="133" height="58" viewBox="0 0 133 58" fill="none"><path d="M55.8088 21.9017C55.8088 28.1476 50.8832 32.7502 44.8383 32.7502C38.7933 32.7502 33.8677 28.1476 33.8677 21.9017C33.8677 15.6117 38.7933 11.0532 44.8383 11.0532C50.8832 11.0532 55.8088 15.6117 55.8088 21.9017ZM51.0064 21.9017C51.0064 17.9986 48.1516 15.3281 44.8383 15.3281C41.5249 15.3281 38.6701 17.9986 38.6701 21.9017C38.6701 25.7657 41.5249 28.4753 44.8383 28.4753C48.1516 28.4753 51.0064 25.7608 51.0064 21.9017Z" fill="#464646"></path><path d="M79.4758 21.9017C79.4758 28.1476 74.5502 32.7502 68.5052 32.7502C62.4603 32.7502 57.5347 28.1476 57.5347 21.9017C57.5347 15.6166 62.4603 11.0532 68.5052 11.0532C74.5502 11.0532 79.4758 15.6117 79.4758 21.9017ZM74.6734 21.9017C74.6734 17.9986 71.8186 15.3281 68.5052 15.3281C65.1919 15.3281 62.3371 17.9986 62.3371 21.9017C62.3371 25.7657 65.1919 28.4753 68.5052 28.4753C71.8186 28.4753 74.6734 25.7608 74.6734 21.9017Z" fill="#464646"></path><path d="M102.156 11.7086V31.185C102.156 39.1967 97.3934 42.4688 91.7626 42.4688C86.4622 42.4688 83.2721 38.9521 82.0691 36.0761L86.2502 34.3496C86.9947 36.1153 88.819 38.1989 91.7577 38.1989C95.3619 38.1989 97.5955 35.993 97.5955 31.8404V30.2802H97.4279C96.353 31.5959 94.2821 32.7453 91.6689 32.7453C86.2009 32.7453 81.1914 28.0205 81.1914 21.9408C81.1914 15.8172 86.2009 11.0532 91.6689 11.0532C94.2772 11.0532 96.3481 12.2026 97.4279 13.4792H97.5955V11.7135H102.156V11.7086ZM97.9357 21.9408C97.9357 18.1209 95.3669 15.3281 92.0979 15.3281C88.7845 15.3281 86.0086 18.1209 86.0086 21.9408C86.0086 25.7217 88.7845 28.4753 92.0979 28.4753C95.3669 28.4753 97.9357 25.7217 97.9357 21.9408Z" fill="#464646"></path><path d="M109.676 0.292969V32.0852H104.992V0.292969H109.676Z" fill="#464646"></path><path d="M127.929 25.4722L131.656 27.9373C130.453 29.703 127.554 32.7453 122.544 32.7453C116.332 32.7453 111.692 27.9814 111.692 21.8968C111.692 15.4454 116.371 11.0483 122.007 11.0483C127.682 11.0483 130.458 15.5286 131.365 17.9497L131.863 19.1823L117.244 25.1885C118.363 27.3651 120.104 28.4754 122.544 28.4754C124.99 28.4754 126.686 27.2819 127.929 25.4722ZM116.455 21.5691L126.228 17.5437C125.69 16.1889 124.073 15.2449 122.17 15.2449C119.729 15.2449 116.332 17.3823 116.455 21.5691Z" fill="#464646"></path><path d="M1.90633 41.4771H6.58761C7.59356 41.4771 8.45103 41.6286 9.16004 41.9316C9.86905 42.2346 10.4114 42.683 10.7871 43.2769C11.1689 43.8647 11.3598 44.5919 11.3598 45.4584C11.3598 46.119 11.2386 46.7007 10.9962 47.2037C10.7538 47.7067 10.4114 48.1309 9.96904 48.4763C9.52667 48.8156 8.99946 49.0792 8.3874 49.2671L7.69658 49.6034H3.48797L3.46979 47.7945H6.62397C7.16936 47.7945 7.62386 47.6976 7.98745 47.5037C8.35105 47.3097 8.62374 47.0461 8.80554 46.7128C8.9934 46.3735 9.08732 45.9917 9.08732 45.5675C9.08732 45.107 8.99643 44.707 8.81463 44.3677C8.63889 44.0222 8.3662 43.7586 7.99654 43.5768C7.62689 43.389 7.15724 43.295 6.58761 43.295H4.18789V54.7119H1.90633V41.4771ZM9.46001 54.7119L6.35128 48.7671L8.74191 48.7581L11.8961 54.5937V54.7119H9.46001ZM17.75 54.8937C17.0228 54.8937 16.3653 54.7755 15.7775 54.5392C15.1957 54.2968 14.6988 53.9605 14.2867 53.5302C13.8807 53.1 13.5686 52.594 13.3505 52.0122C13.1323 51.4305 13.0232 50.8033 13.0232 50.1306V49.767C13.0232 48.9974 13.1353 48.3005 13.3596 47.6764C13.5838 47.0522 13.8959 46.5189 14.2958 46.0765C14.6958 45.6281 15.1684 45.2857 15.7138 45.0494C16.2592 44.8131 16.8501 44.6949 17.4864 44.6949C18.1893 44.6949 18.8044 44.8131 19.3316 45.0494C19.8588 45.2857 20.2951 45.619 20.6405 46.0493C20.992 46.4735 21.2526 46.9795 21.4223 47.5673C21.598 48.1551 21.6859 48.8035 21.6859 49.5125V50.4488H14.0867V48.8762H19.5225V48.7035C19.5104 48.3096 19.4316 47.94 19.2861 47.5946C19.1468 47.2491 18.9316 46.9704 18.6408 46.7583C18.3499 46.5462 17.9621 46.4401 17.4773 46.4401C17.1137 46.4401 16.7895 46.5189 16.5046 46.6765C16.2259 46.828 15.9926 47.0492 15.8047 47.34C15.6169 47.6309 15.4714 47.9824 15.3684 48.3945C15.2715 48.8005 15.223 49.258 15.223 49.767V50.1306C15.223 50.5609 15.2805 50.9608 15.3957 51.3305C15.5169 51.6941 15.6926 52.0122 15.9229 52.2849C16.1532 52.5576 16.4319 52.7727 16.7592 52.9303C17.0864 53.0818 17.4591 53.1575 17.8772 53.1575C18.4044 53.1575 18.8741 53.0515 19.2861 52.8394C19.6982 52.6273 20.0558 52.3273 20.3588 51.9395L21.5132 53.0576C21.3011 53.3666 21.0253 53.6636 20.686 53.9484C20.3466 54.2271 19.9315 54.4544 19.4407 54.6301C18.9559 54.8058 18.3923 54.8937 17.75 54.8937ZM26.4671 52.9758L28.876 44.8767H31.1484L27.7306 54.7119H26.3126L26.4671 52.9758ZM24.6219 44.8767L27.0762 53.0121L27.1943 54.7119H25.7763L22.3403 44.8767H24.6219ZM34.848 44.8767V54.7119H32.6482V44.8767H34.848ZM32.5028 42.2952C32.5028 41.9619 32.6119 41.6861 32.83 41.468C33.0543 41.2438 33.3633 41.1317 33.7572 41.1317C34.145 41.1317 34.4511 41.2438 34.6753 41.468C34.8995 41.6861 35.0116 41.9619 35.0116 42.2952C35.0116 42.6224 34.8995 42.8951 34.6753 43.1133C34.4511 43.3314 34.145 43.4405 33.7572 43.4405C33.3633 43.4405 33.0543 43.3314 32.83 43.1133C32.6119 42.8951 32.5028 42.6224 32.5028 42.2952ZM41.5836 54.8937C40.8564 54.8937 40.1989 54.7755 39.6111 54.5392C39.0293 54.2968 38.5324 53.9605 38.1203 53.5302C37.7143 53.1 37.4022 52.594 37.1841 52.0122C36.9659 51.4305 36.8568 50.8033 36.8568 50.1306V49.767C36.8568 48.9974 36.969 48.3005 37.1932 47.6764C37.4174 47.0522 37.7295 46.5189 38.1294 46.0765C38.5294 45.6281 39.0021 45.2857 39.5474 45.0494C40.0928 44.8131 40.6837 44.6949 41.32 44.6949C42.0229 44.6949 42.638 44.8131 43.1652 45.0494C43.6924 45.2857 44.1287 45.619 44.4741 46.0493C44.8256 46.4735 45.0862 46.9795 45.2559 47.5673C45.4316 48.1551 45.5195 48.8035 45.5195 49.5125V50.4488H37.9204V48.8762H43.3561V48.7035C43.344 48.3096 43.2652 47.94 43.1198 47.5946C42.9804 47.2491 42.7653 46.9704 42.4744 46.7583C42.1835 46.5462 41.7957 46.4401 41.3109 46.4401C40.9473 46.4401 40.6231 46.5189 40.3383 46.6765C40.0595 46.828 39.8262 47.0492 39.6383 47.34C39.4505 47.6309 39.305 47.9824 39.202 48.3945C39.1051 48.8005 39.0566 49.258 39.0566 49.767V50.1306C39.0566 50.5609 39.1142 50.9608 39.2293 51.3305C39.3505 51.6941 39.5262 52.0122 39.7565 52.2849C39.9868 52.5576 40.2655 52.7727 40.5928 52.9303C40.92 53.0818 41.2927 53.1575 41.7108 53.1575C42.238 53.1575 42.7077 53.0515 43.1198 52.8394C43.5318 52.6273 43.8894 52.3273 44.1924 51.9395L45.3468 53.0576C45.1347 53.3666 44.859 53.6636 44.5196 53.9484C44.1802 54.2271 43.7651 54.4544 43.2743 54.6301C42.7895 54.8058 42.2259 54.8937 41.5836 54.8937ZM49.9008 52.5303L52.1733 44.8767H53.5731L53.1913 47.1673L50.9007 54.7119H49.6463L49.9008 52.5303ZM48.5646 44.8767L50.3371 52.5667L50.4825 54.7119H49.0827L46.4194 44.8767H48.5646ZM55.7001 52.4758L57.4181 44.8767H59.5542L56.9 54.7119H55.5001L55.7001 52.4758ZM53.8094 44.8767L56.0546 52.4394L56.3364 54.7119H55.082L52.7641 47.1582L52.3823 44.8767H53.8094ZM66.5625 52.0486C66.5625 51.8304 66.508 51.6335 66.3989 51.4577C66.2898 51.2759 66.0807 51.1123 65.7717 50.9669C65.4687 50.8215 65.0203 50.6881 64.4264 50.5669C63.9052 50.4518 63.4265 50.3155 62.9902 50.1579C62.5599 49.9943 62.1903 49.7973 61.8812 49.5671C61.5722 49.3368 61.3328 49.0641 61.1631 48.749C60.9935 48.4339 60.9086 48.0703 60.9086 47.6582C60.9086 47.2582 60.9965 46.8795 61.1722 46.522C61.348 46.1644 61.5994 45.8493 61.9267 45.5766C62.2539 45.3039 62.6508 45.0888 63.1175 44.9312C63.5901 44.7737 64.1173 44.6949 64.6991 44.6949C65.5232 44.6949 66.2292 44.8343 66.817 45.113C67.4109 45.3857 67.8654 45.7584 68.1805 46.2311C68.4956 46.6977 68.6532 47.2249 68.6532 47.8127H66.4625C66.4625 47.5521 66.3959 47.3097 66.2625 47.0855C66.1353 46.8552 65.9414 46.6704 65.6808 46.531C65.4202 46.3856 65.093 46.3129 64.6991 46.3129C64.3234 46.3129 64.0113 46.3735 63.7628 46.4947C63.5204 46.6098 63.3386 46.7613 63.2174 46.9492C63.1023 47.137 63.0447 47.3431 63.0447 47.5673C63.0447 47.7309 63.075 47.8794 63.1356 48.0127C63.2023 48.1399 63.3114 48.2581 63.4629 48.3672C63.6144 48.4702 63.8204 48.5672 64.081 48.6581C64.3476 48.749 64.6809 48.8368 65.0809 48.9217C65.8323 49.0792 66.4777 49.2822 67.017 49.5307C67.5624 49.7731 67.9805 50.0882 68.2714 50.476C68.5623 50.8578 68.7077 51.3426 68.7077 51.9304C68.7077 52.3667 68.6138 52.7667 68.4259 53.1303C68.2441 53.4878 67.9775 53.7999 67.626 54.0665C67.2746 54.3271 66.8534 54.5301 66.3625 54.6756C65.8777 54.821 65.3324 54.8937 64.7264 54.8937C63.8356 54.8937 63.0811 54.7362 62.463 54.421C61.8449 54.0999 61.3752 53.6908 61.0541 53.1939C60.7389 52.6909 60.5814 52.1698 60.5814 51.6305H62.6993C62.7236 52.0365 62.8357 52.3607 63.0356 52.6031C63.2417 52.8394 63.4962 53.0121 63.7992 53.1212C64.1082 53.2242 64.4264 53.2757 64.7536 53.2757C65.1475 53.2757 65.4778 53.2242 65.7444 53.1212C66.0111 53.0121 66.2141 52.8667 66.3534 52.6849C66.4928 52.497 66.5625 52.2849 66.5625 52.0486Z" fill="#7C7C7C"></path><path d="M85.3816 48.3652L82.6788 47.9724L81.4706 45.523C81.4376 45.4559 81.3833 45.4016 81.3163 45.3686C81.1481 45.2856 80.9437 45.3548 80.8596 45.523L79.6514 47.9724L76.9487 48.3652C76.8742 48.3758 76.806 48.4109 76.7539 48.4642C76.6908 48.529 76.6561 48.6162 76.6573 48.7066C76.6585 48.797 76.6955 48.8833 76.7603 48.9464L78.7157 50.8529L78.2537 53.545C78.2429 53.6076 78.2498 53.672 78.2737 53.7309C78.2976 53.7898 78.3376 53.8408 78.389 53.8781C78.4404 53.9155 78.5013 53.9377 78.5647 53.9422C78.6281 53.9467 78.6915 53.9334 78.7477 53.9037L81.1651 52.6327L83.5826 53.9037C83.6486 53.9389 83.7252 53.9506 83.7987 53.9378C83.9839 53.9059 84.1084 53.7302 84.0765 53.545L83.6145 50.8529L85.57 48.9464C85.6232 48.8942 85.6583 48.8261 85.669 48.7516C85.6977 48.5653 85.5679 48.3928 85.3816 48.3652Z" fill="#F4BD17"></path><path d="M96.9631 48.3652L94.2604 47.9724L93.0522 45.523C93.0192 45.4559 92.9649 45.4016 92.8978 45.3686C92.7296 45.2856 92.5252 45.3548 92.4412 45.523L91.233 47.9724L88.5302 48.3652C88.4557 48.3758 88.3876 48.4109 88.3354 48.4642C88.2724 48.529 88.2376 48.6162 88.2388 48.7066C88.24 48.797 88.277 48.8833 88.3418 48.9464L90.2973 50.8529L89.8353 53.545C89.8244 53.6076 89.8314 53.672 89.8553 53.7309C89.8792 53.7898 89.9191 53.8408 89.9705 53.8781C90.022 53.9155 90.0828 53.9377 90.1462 53.9422C90.2096 53.9467 90.273 53.9334 90.3292 53.9037L92.7467 52.6327L95.1641 53.9037C95.2301 53.9389 95.3068 53.9506 95.3802 53.9378C95.5654 53.9059 95.69 53.7302 95.658 53.545L95.1961 50.8529L97.1515 48.9464C97.2048 48.8942 97.2399 48.8261 97.2505 48.7516C97.2793 48.5653 97.1494 48.3928 96.9631 48.3652Z" fill="#F4BD17"></path><path d="M108.545 48.3652L105.842 47.9724L104.634 45.523C104.601 45.4559 104.547 45.4016 104.48 45.3686C104.312 45.2856 104.107 45.3548 104.023 45.523L102.815 47.9724L100.112 48.3652C100.038 48.3758 99.9696 48.4109 99.9174 48.4642C99.8544 48.529 99.8196 48.6162 99.8208 48.7066C99.822 48.797 99.8591 48.8833 99.9238 48.9464L101.879 50.8529L101.417 53.545C101.406 53.6076 101.413 53.672 101.437 53.7309C101.461 53.7898 101.501 53.8408 101.553 53.8781C101.604 53.9155 101.665 53.9377 101.728 53.9422C101.792 53.9467 101.855 53.9334 101.911 53.9037L104.329 52.6327L106.746 53.9037C106.812 53.9389 106.889 53.9506 106.962 53.9378C107.147 53.9059 107.272 53.7302 107.24 53.545L106.778 50.8529L108.734 48.9464C108.787 48.8942 108.822 48.8261 108.833 48.7516C108.861 48.5653 108.731 48.3928 108.545 48.3652Z" fill="#F4BD17"></path><path d="M120.126 48.3652L117.424 47.9724L116.216 45.523C116.183 45.4559 116.128 45.4016 116.061 45.3686C115.893 45.2856 115.689 45.3548 115.604 45.523L114.396 47.9724L111.694 48.3652C111.619 48.3758 111.551 48.4109 111.499 48.4642C111.436 48.529 111.401 48.6162 111.402 48.7066C111.403 48.797 111.44 48.8833 111.505 48.9464L113.461 50.8529L112.999 53.545C112.988 53.6076 112.995 53.672 113.019 53.7309C113.043 53.7898 113.082 53.8408 113.134 53.8781C113.185 53.9155 113.246 53.9377 113.31 53.9422C113.373 53.9467 113.436 53.9334 113.493 53.9037L115.91 52.6327L118.327 53.9037C118.393 53.9389 118.47 53.9506 118.544 53.9378C118.729 53.9059 118.853 53.7302 118.821 53.545L118.359 50.8529L120.315 48.9464C120.368 48.8942 120.403 48.8261 120.414 48.7516C120.443 48.5653 120.313 48.3928 120.126 48.3652Z" fill="#F4BD17"></path><g clip-path="url(#clip0_75_2561)"><path d="M129.909 53.9037C129.975 53.9389 130.052 53.9506 130.125 53.9378C130.311 53.9059 130.435 53.7302 130.403 53.545L129.909 53.9037ZM129.909 53.9037L127.492 52.6327L125.074 53.9037M129.909 53.9037H125.074M125.074 53.9037C125.018 53.9334 124.955 53.9467 124.891 53.9422M125.074 53.9037L124.891 53.9422M127.643 45.3686C127.71 45.4016 127.764 45.4559 127.797 45.523L127.643 45.3686ZM127.643 45.3686C127.475 45.2856 127.27 45.3548 127.186 45.523L125.978 47.9724L127.643 45.3686ZM124.716 53.8781C124.767 53.9155 124.828 53.9377 124.891 53.9422M124.716 53.8781L124.718 53.8754L124.716 53.8781ZM124.716 53.8781L124.891 53.9422M128.557 48.1936L128.673 48.4294L128.934 48.4672L131.317 48.8135L129.592 50.4949L129.404 50.6784L129.448 50.9375L129.856 53.3106L127.724 52.1902L127.492 52.0678L127.259 52.1902L125.128 53.3106L125.535 50.9375L125.58 50.6784L125.391 50.4949L123.667 48.8135L126.05 48.4672L126.31 48.4294L126.426 48.1936L127.492 46.0339L128.557 48.1936Z" stroke="#EFEFEF"></path><path d="M125.978 47.9724L127.186 45.523C127.246 45.4034 127.367 45.3339 127.492 45.3335V52.6327L125.074 53.9037C125.018 53.9334 124.955 53.9467 124.891 53.9422C124.828 53.9377 124.767 53.9155 124.716 53.8781C124.664 53.8408 124.624 53.7898 124.6 53.7309C124.576 53.672 124.57 53.6076 124.58 53.545L125.042 50.8529L123.087 48.9464C123.022 48.8833 122.985 48.797 122.984 48.7066C122.983 48.6162 123.017 48.529 123.081 48.4642C123.133 48.4109 123.201 48.3758 123.275 48.3652L125.978 47.9724Z" fill="#F4BD17"></path></g><g clip-path="url(#clip1_75_2561)"><path d="M31.9 17.8647C31.9 16.7272 31.7979 15.6335 31.6083 14.5835H16.5V20.796H25.1333C24.7542 22.7939 23.6167 24.4856 21.9104 25.6231V29.6627H27.1167C30.15 26.8627 31.9 22.7502 31.9 17.8647Z" fill="#4285F4"></path><path d="M16.5 33.5417C20.8313 33.5417 24.4625 32.1125 27.1167 29.6625L21.9104 25.6229C20.4813 26.5854 18.6584 27.1687 16.5 27.1687C12.3292 27.1687 8.78545 24.3542 7.5167 20.5625H2.1792V24.7042C4.81878 29.9396 10.2292 33.5417 16.5 33.5417Z" fill="#34A853"></path><path d="M7.51683 20.548C7.196 19.5855 7.00641 18.5647 7.00641 17.5001C7.00641 16.4355 7.196 15.4147 7.51683 14.4522V10.3105H2.17933C1.08558 12.4689 0.458496 14.9043 0.458496 17.5001C0.458496 20.096 1.08558 22.5314 2.17933 24.6897L6.33558 21.4522L7.51683 20.548Z" fill="#FBBC05"></path><path d="M16.5 7.846C18.8625 7.846 20.9625 8.66266 22.6396 10.2377L27.2334 5.64391C24.448 3.04808 20.8313 1.4585 16.5 1.4585C10.2292 1.4585 4.81878 5.06058 2.1792 10.3106L7.5167 14.4522C8.78545 10.6606 12.3292 7.846 16.5 7.846Z" fill="#EA4335"></path></g><defs><clipPath id="clip0_75_2561"><rect width="10.9004" height="10.9004" fill="white" transform="translate(122.042 44.6064)"></rect></clipPath><clipPath id="clip1_75_2561"><rect width="32.5416" height="33" fill="white" transform="translate(0 0.853516)"></rect></clipPath></defs></svg>