<svg xmlns="http://www.w3.org/2000/svg" width="72" height="73" viewBox="0 0 72 73" fill="none"><rect x="1.65308" y="1.84351" width="68.6938" height="68.6938" rx="34.3469" stroke="#19D1A7" stroke-width="3"></rect><path d="M21.6111 48.9849V45.4125H25.2083V32.909C25.2083 30.4381 25.9577 28.2429 27.4566 26.3233C28.9554 24.4037 30.9039 23.1456 33.3021 22.549V21.2987C33.3021 20.5544 33.5647 19.9221 34.0898 19.4017C34.615 18.8814 35.2517 18.6206 36 18.6194C36.7482 18.6182 37.3855 18.879 37.9119 19.4017C38.4383 19.9245 38.7003 20.5568 38.6979 21.2987V22.549C41.096 23.1444 43.0445 24.4025 44.5434 26.3233C46.0422 28.2441 46.7916 30.4393 46.7916 32.909V45.4125H50.3889V48.9849H21.6111ZM36 54.3435C35.0107 54.3435 34.1642 53.994 33.4603 53.295C32.7565 52.596 32.4039 51.7547 32.4028 50.7711H39.5972C39.5972 51.7535 39.2453 52.5948 38.5414 53.295C37.8376 53.9952 36.9904 54.3447 36 54.3435Z" fill="#FF4588"></path><path d="M37.7605 28.339V34.1581C37.7605 34.8805 37.7248 35.591 37.6533 36.2896C37.5819 36.9803 37.3924 37.7146 37.2812 38.4926H34.7367C34.6255 37.7146 34.4181 36.9803 34.3466 36.2896C34.2752 35.591 34.2395 34.8805 34.2395 34.1581V28.339H37.7605ZM34.1632 41.9539C34.1632 41.7078 34.2069 41.4736 34.2942 41.2513C34.3895 41.029 34.5165 40.8385 34.6753 40.6797C34.842 40.5209 35.0365 40.3939 35.2587 40.2986C35.481 40.2034 35.7192 40.1557 35.9732 40.1557C36.2193 40.1557 36.4535 40.2034 36.6758 40.2986C36.8981 40.3939 37.0886 40.5209 37.2474 40.6797C37.4141 40.8385 37.5451 41.029 37.6404 41.2513C37.7356 41.4736 37.7833 41.7078 37.7833 41.9539C37.7833 42.2079 37.7356 42.4461 37.6404 42.6683C37.5451 42.8827 37.4141 43.0692 37.2474 43.228C37.0886 43.3868 36.8981 43.5098 36.6758 43.5972C36.4535 43.6924 36.2193 43.7401 35.9732 43.7401C35.7192 43.7401 35.481 43.6924 35.2587 43.5972C35.0365 43.5098 34.842 43.3868 34.6753 43.228C34.5165 43.0692 34.3895 42.8827 34.2942 42.6683C34.2069 42.4461 34.1632 42.2079 34.1632 41.9539Z" fill="white"></path></svg>