<svg xmlns="http://www.w3.org/2000/svg" width="46" height="47" viewBox="0 0 46 47" fill="none"><g clip-path="url(#clip0_2697_7720)"><path d="M41.8122 9.8165C41.6403 9.61946 41.4293 9.46019 41.1927 9.34874C40.9561 9.23729 40.699 9.17608 40.4375 9.16896C36.3772 9.0628 31.2393 4.72111 27.8424 3.01734C25.7441 1.96819 24.3588 1.27642 23.3185 1.09419C23.1073 1.06275 22.8926 1.06334 22.6815 1.09596C21.6412 1.27819 20.2559 1.96996 18.1594 3.01911C14.7625 4.72111 9.62462 9.0628 5.56424 9.16896C5.30269 9.17689 5.04556 9.23846 4.80879 9.34985C4.57202 9.46124 4.36064 9.62007 4.18778 9.8165C3.82996 10.2222 3.64516 10.7518 3.67293 11.292C4.54516 29.025 10.9055 39.9996 22.0659 46.3777C22.356 46.5422 22.678 46.6271 22.9982 46.6271C23.3185 46.6271 23.6405 46.5422 23.9324 46.3777C35.0927 39.9996 41.4513 29.025 42.3253 11.292C42.3555 10.7518 42.1711 10.2215 41.8122 9.8165Z" fill="url(#paint0_linear_2697_7720)"></path><path d="M38.199 12.356L38.2015 12.3588C38.4099 12.5895 38.5154 12.8896 38.4981 13.1937L38.4979 13.197C37.781 27.4701 32.5824 36.2042 23.5291 41.2813C23.3601 41.3745 23.1771 41.4208 22.999 41.4208C22.8207 41.4208 22.638 41.3743 22.4712 41.2817C13.4174 36.2046 8.21713 27.4705 7.5016 13.1971L7.50154 13.1959C7.48555 12.8907 7.59177 12.5899 7.80024 12.358L7.80061 12.3575C7.89789 12.2491 8.01738 12.1608 8.152 12.0987C8.28637 12.0366 8.43267 12.0021 8.58179 11.9976C10.4022 11.9505 12.4043 10.9831 14.2377 9.91883C14.9744 9.49115 15.7014 9.03683 16.3911 8.60584C16.5684 8.4951 16.7431 8.3859 16.9149 8.27908C17.7627 7.75209 18.5362 7.28501 19.214 6.95177C20.0852 6.524 20.7941 6.17637 21.3923 5.91655C21.9907 5.65667 22.4471 5.49886 22.8165 5.43464C22.9389 5.41654 23.0634 5.41614 23.1859 5.43345C23.5551 5.49782 24.0111 5.65557 24.6089 5.91514C25.2073 6.17493 25.9164 6.52251 26.7882 6.95021C27.4661 7.28382 28.2397 7.75121 29.0874 8.27843C29.2583 8.3847 29.4321 8.49334 29.6083 8.60349C30.2989 9.03517 31.027 9.49027 31.7648 9.91864C33.5984 10.9833 35.6007 11.9507 37.4213 11.9976C37.5701 12.0016 37.7161 12.0357 37.85 12.0977C37.984 12.1596 38.1027 12.2477 38.199 12.356L38.199 12.356Z" stroke="white"></path><path d="M20.6667 27.1259L16.35 22.7221L14 25.1195L20.6667 31.9208L34 18.3182L31.65 15.9208L20.6667 27.1259Z" fill="white"></path></g><defs><linearGradient id="paint0_linear_2697_7720" x1="38.6952" y1="4.66666" x2="11.7593" y2="30.3658" gradientUnits="userSpaceOnUse"><stop stop-color="#29E8BD"></stop><stop offset="1" stop-color="#199887"></stop></linearGradient><clipPath id="clip0_2697_7720"><rect width="46" height="46" fill="white" transform="translate(0 0.920776)"></rect></clipPath></defs></svg>