<svg xmlns="http://www.w3.org/2000/svg" width="133" height="126" viewBox="0 0 133 126" fill="none"><path d="M119.276 32.6555C119.276 32.6555 126.616 18.4655 113.406 21.4055C113.406 21.4055 111.936 16.0255 108.026 17.9855C108.026 17.9855 110.026 10.6455 104.596 8.68547C99.1664 6.72547 95.3064 13.0855 95.3064 13.0855C95.3064 13.0855 93.3064 -2.56453 77.6864 0.365467C62.0664 3.29547 67.4164 19.2655 67.4164 19.2655C67.4164 19.2655 60.0764 8.68547 52.2464 16.0255C44.4164 23.3655 52.2464 27.7655 52.2464 27.7655C52.2464 27.7655 29.7364 26.2955 32.1864 38.5355H131.026C131.026 38.5355 131.026 26.7855 119.276 32.6555Z" fill="white"></path></svg>