<svg xmlns="http://www.w3.org/2000/svg" width="214" height="110" viewBox="0 0 214 110" fill="none"><path d="M123.013 41.646C123.013 41.646 131.04 25.6299 119.04 25.6299C119.04 25.6299 112.68 18.2128 107.158 20.9683C107.158 20.9683 109.913 10.6351 102.336 7.86815C94.7581 5.10117 89.2356 14.068 89.2356 14.068C89.2356 14.068 85.1071 -3.5037 63.0401 0.629554C40.9732 4.76281 49.9352 22.7708 49.9352 22.7708C49.9352 22.7708 42.5736 8.79664 31.5402 19.1298C22.04 22.7708 24.0402 30.1299 24.0402 30.1299C24.0402 30.1299 -3.14266 32.6447 0.301715 49.8896H139.558C139.558 49.8896 139.558 33.3795 123.013 41.646Z" fill="white"></path></svg>