<svg xmlns="http://www.w3.org/2000/svg" width="193" height="196" viewBox="0 0 193 196" fill="none"><path d="M67.7571 142.093C39.5524 143.375 41.3294 114.93 28.212 111.22C9.09123 105.802 7.9572 98.9866 11.6691 96.039C17.655 91.3206 35.2267 94.0293 43.048 98.0021C60.9938 107.13 67.7571 142.093 67.7571 142.093Z" fill="#1FA79F"></path><path fill-rule="evenodd" clip-rule="evenodd" d="M12.1663 98.7352C19.109 98.6271 25.993 100.018 32.3451 102.813C36.1608 104.461 39.7641 106.559 43.0775 109.063C45.2854 110.734 47.3519 112.583 49.2562 114.591C51.4691 117.002 53.4753 119.594 55.2538 122.339C57.9603 126.388 60.4855 130.652 63.4375 134.444C65.5333 137.219 68.0405 139.661 70.8731 141.685C72.5791 142.843 74.4279 143.777 76.3737 144.463C79.3149 145.451 82.3133 146.26 85.3525 146.887C85.3753 146.895 85.3945 146.91 85.4064 146.931C85.4183 146.952 85.4221 146.977 85.4171 147.001C85.4121 147.024 85.3986 147.045 85.3791 147.06C85.3597 147.074 85.3357 147.081 85.3116 147.079C82.2568 146.484 79.2408 145.706 76.2802 144.749C74.3059 144.069 72.4276 143.139 70.6918 141.982C67.8152 139.959 65.2645 137.512 63.1277 134.724C60.1173 130.937 57.5569 126.679 54.8329 122.63C53.0634 119.91 51.0731 117.338 48.8821 114.941C46.9973 112.949 44.9545 111.112 42.7735 109.448C39.4981 106.948 35.9367 104.844 32.1639 103.18C25.8821 100.348 19.061 98.899 12.1663 98.9332C12.1399 98.9332 12.1146 98.9228 12.096 98.9042C12.0774 98.8856 12.0669 98.8605 12.0669 98.8342C12.0669 98.8079 12.0774 98.7827 12.096 98.7642C12.1146 98.7456 12.1399 98.7352 12.1663 98.7352Z" fill="#44F1D2"></path><path fill-rule="evenodd" clip-rule="evenodd" d="M58.8663 136.459C60.2363 136.063 61.5562 135.512 62.8004 134.817C63.291 134.538 63.7635 134.229 64.215 133.89C64.5131 133.657 64.7996 133.419 65.0685 133.162C65.7564 132.527 66.3473 131.795 66.8221 130.99C67.5155 129.753 67.9621 128.394 68.1374 126.988C68.1388 126.975 68.1428 126.962 68.1492 126.95C68.1556 126.939 68.1642 126.929 68.1746 126.921C68.1849 126.913 68.1967 126.907 68.2094 126.903C68.2221 126.9 68.2354 126.899 68.2484 126.9C68.2738 126.903 68.297 126.916 68.3133 126.935C68.3296 126.955 68.3378 126.98 68.3361 127.005C68.2322 128.461 67.8345 129.882 67.167 131.182C66.7141 132.049 66.1217 132.836 65.4133 133.512C65.1294 133.781 64.8288 134.032 64.5131 134.263C64.0391 134.608 63.5388 134.916 63.0167 135.184C61.7169 135.834 60.3429 136.325 58.9248 136.646C58.9121 136.65 58.8987 136.652 58.8853 136.651C58.872 136.65 58.859 136.645 58.8474 136.639C58.8357 136.632 58.8257 136.623 58.8178 136.612C58.81 136.601 58.8046 136.589 58.802 136.576C58.7985 136.564 58.7973 136.552 58.7986 136.539C58.7999 136.527 58.8037 136.515 58.8097 136.504C58.8157 136.493 58.8237 136.484 58.8335 136.476C58.8432 136.468 58.8544 136.463 58.8663 136.459Z" fill="#44F1D2"></path><path fill-rule="evenodd" clip-rule="evenodd" d="M53.2664 127.209C54.4325 126.857 55.5297 126.309 56.5107 125.59C56.9011 125.307 57.2739 125.002 57.6272 124.675C57.861 124.454 58.0832 124.226 58.2994 123.988C58.8491 123.403 59.3242 122.754 59.7141 122.054C60.3132 121.001 60.6724 119.829 60.7663 118.623C60.7663 118.61 60.7688 118.597 60.7738 118.585C60.7788 118.573 60.7861 118.562 60.7954 118.553C60.8046 118.543 60.8156 118.536 60.8276 118.531C60.8397 118.526 60.8526 118.524 60.8656 118.524C60.8925 118.525 60.9178 118.537 60.9363 118.556C60.9548 118.576 60.9651 118.602 60.965 118.628C60.9451 119.884 60.6414 121.118 60.0765 122.24C59.8506 122.691 59.5886 123.124 59.2932 123.533C59.094 123.804 58.8814 124.064 58.656 124.314C58.4316 124.562 58.1935 124.797 57.9429 125.019C56.6262 126.186 55.0362 127.005 53.319 127.401C53.3064 127.405 53.2931 127.406 53.2801 127.404C53.267 127.402 53.2544 127.398 53.243 127.392C53.2316 127.385 53.2216 127.377 53.2136 127.366C53.2055 127.356 53.1997 127.344 53.1963 127.331C53.1928 127.319 53.1918 127.305 53.1934 127.292C53.195 127.279 53.1992 127.267 53.2057 127.256C53.2122 127.244 53.221 127.234 53.2314 127.226C53.2418 127.218 53.2537 127.212 53.2664 127.209Z" fill="#44F1D2"></path><path fill-rule="evenodd" clip-rule="evenodd" d="M48.0464 119.065C49.5132 117.902 50.7535 116.48 51.7057 114.871C51.8869 114.568 52.0564 114.254 52.2143 113.939C52.6183 113.154 52.9415 112.331 53.1788 111.481C53.5431 110.198 53.6718 108.86 53.5587 107.531C53.5587 107.505 53.5692 107.48 53.5878 107.461C53.6065 107.443 53.6317 107.432 53.6581 107.432C53.6845 107.432 53.7097 107.443 53.7284 107.461C53.747 107.48 53.7575 107.505 53.7575 107.531C53.9485 108.89 53.8851 110.273 53.5704 111.609C53.3619 112.499 53.052 113.363 52.6468 114.184C52.4831 114.51 52.3019 114.83 52.109 115.139C51.8189 115.604 51.5007 116.052 51.1562 116.479C50.293 117.538 49.2857 118.471 48.1633 119.252C48.1447 119.27 48.1194 119.281 48.0931 119.281C48.0669 119.281 48.0416 119.27 48.023 119.252C48.0042 119.243 47.9887 119.228 47.9787 119.21C47.9687 119.192 47.9647 119.171 47.9673 119.15C47.9699 119.129 47.9789 119.11 47.9931 119.095C48.0073 119.08 48.0259 119.069 48.0464 119.065Z" fill="#44F1D2"></path><path fill-rule="evenodd" clip-rule="evenodd" d="M40.1138 112.343C40.7843 111.481 41.3826 110.565 41.9026 109.605C42.1072 109.221 42.3059 108.83 42.4871 108.44C42.6099 108.178 42.7268 107.91 42.8437 107.648C43.1318 106.985 43.3816 106.306 43.5919 105.615C43.9088 104.575 44.1049 103.501 44.1765 102.417C44.178 102.39 44.1897 102.365 44.2093 102.346C44.2289 102.328 44.2548 102.318 44.2817 102.318C44.3075 102.321 44.3314 102.333 44.3486 102.352C44.3659 102.372 44.3754 102.397 44.3752 102.423C44.3676 103.534 44.2283 104.641 43.9602 105.72C43.7791 106.441 43.5427 107.148 43.2529 107.834C43.1418 108.108 43.0132 108.376 42.8788 108.644C42.68 109.04 42.4637 109.43 42.2358 109.809C41.6507 110.754 40.9816 111.645 40.2366 112.471C40.2281 112.481 40.2178 112.489 40.2062 112.495C40.1946 112.501 40.1819 112.505 40.1689 112.506C40.1558 112.507 40.1427 112.505 40.1303 112.501C40.1178 112.498 40.1063 112.491 40.0963 112.483C40.0863 112.474 40.0781 112.464 40.0721 112.452C40.0661 112.441 40.0625 112.428 40.0614 112.415C40.0603 112.402 40.0618 112.389 40.0658 112.377C40.0697 112.364 40.0761 112.353 40.0846 112.343H40.1138Z" fill="#44F1D2"></path><path fill-rule="evenodd" clip-rule="evenodd" d="M29.9484 106.972C30.6477 106.23 31.2524 105.404 31.7489 104.514C31.9468 104.162 32.1263 103.8 32.2867 103.43C32.3977 103.186 32.4913 102.935 32.5848 102.685C32.8167 102.053 32.9927 101.402 33.1109 100.739C33.2866 99.7372 33.3239 98.7161 33.2219 97.7041C33.2199 97.6789 33.2271 97.6539 33.2421 97.6335C33.2572 97.6132 33.2791 97.599 33.3038 97.5934C33.3168 97.5918 33.3301 97.5928 33.3428 97.5963C33.3555 97.5998 33.3673 97.6058 33.3777 97.614C33.388 97.6221 33.3966 97.6322 33.403 97.6437C33.4094 97.6552 33.4134 97.6678 33.4148 97.6808C33.5986 98.7094 33.6321 99.7592 33.5142 100.797C33.4639 101.216 33.3858 101.63 33.2804 102.038C33.2163 102.311 33.1343 102.58 33.0349 102.842C32.9424 103.108 32.835 103.369 32.7134 103.623C32.5438 104.004 32.3485 104.374 32.1288 104.729C31.5605 105.607 30.8806 106.408 30.1063 107.112C30.0973 107.122 30.0863 107.13 30.074 107.136C30.0618 107.142 30.0485 107.145 30.0349 107.145C30.0214 107.145 30.0079 107.143 29.9953 107.138C29.9827 107.133 29.9713 107.126 29.9617 107.116C29.9521 107.107 29.9446 107.095 29.9396 107.083C29.9346 107.07 29.9323 107.057 29.9327 107.043C29.9331 107.03 29.9362 107.016 29.9419 107.004C29.9477 106.992 29.9559 106.981 29.966 106.972H29.9484Z" fill="#44F1D2"></path><path fill-rule="evenodd" clip-rule="evenodd" d="M22.9632 103.127C23.2208 102.498 23.428 101.849 23.5828 101.188C23.6413 100.92 23.6997 100.657 23.7465 100.39C23.7465 100.215 23.8049 100.04 23.8283 99.8594C23.8985 99.4167 23.9569 98.974 23.9862 98.5196C24.0303 97.8368 24.0303 97.1519 23.9862 96.4691C23.9915 96.4477 24.0039 96.4286 24.0214 96.415C24.0389 96.4014 24.0604 96.394 24.0826 96.394C24.1048 96.394 24.1264 96.4014 24.1438 96.415C24.1613 96.4286 24.1737 96.4477 24.1791 96.4691C24.297 97.1564 24.3615 97.8516 24.372 98.5487C24.372 98.8284 24.372 99.1313 24.372 99.3876C24.372 99.574 24.3369 99.7604 24.3135 99.9701C24.2901 100.18 24.2492 100.343 24.2083 100.524C24.1506 100.799 24.0784 101.071 23.992 101.339C23.7706 102.002 23.4888 102.644 23.1502 103.256C23.1386 103.28 23.1179 103.298 23.0927 103.307C23.0675 103.315 23.0398 103.314 23.0158 103.302C22.9918 103.291 22.9733 103.27 22.9646 103.245C22.9558 103.22 22.9574 103.192 22.969 103.168L22.9632 103.127Z" fill="#44F1D2"></path><path d="M31.1874 151.67C29.0916 151.247 27.0544 150.574 25.1197 149.666C24.6579 149.456 24.2019 149.229 23.746 148.996L23.1614 148.693C23.2199 148.554 23.2725 148.414 23.3193 148.274C23.4186 148.006 23.4946 147.732 23.5706 147.458C23.8044 146.602 24.1552 144.126 22.4424 144.546C22.2127 144.607 21.9911 144.695 21.7819 144.808C21.4984 144.976 21.2321 145.171 20.9869 145.39C20.5479 145.767 20.1849 146.224 19.9171 146.736C19.0169 146.154 18.1635 145.507 17.2925 144.843C16.1935 143.992 15.1296 143.095 14.1067 142.152C13.5221 141.633 12.9843 141.103 12.4465 140.561L11.71 139.816C11.792 138.972 11.7247 138.12 11.5112 137.299C11.4371 137.034 11.3011 136.79 11.1144 136.587C10.9277 136.384 10.6956 136.228 10.4369 136.132C10.1782 136.035 9.90034 136.001 9.62585 136.032C9.35136 136.063 9.08805 136.157 8.85737 136.309C8.73462 136.39 8.61186 136.484 8.49495 136.577L7.67073 135.755L5.12207 133.198C4.44009 132.511 3.75811 131.82 3.07613 131.124L2.49157 130.513L2.07069 130.058C2.00055 129.977 1.92456 129.901 1.85441 129.814L1.81934 129.756H1.8661L2.08823 129.697L2.55003 129.616L3.08198 129.534L4.78303 129.295C5.48449 129.19 6.18011 129.086 6.87573 128.969C9.35785 128.549 11.8133 127.985 14.2294 127.28C14.738 127.134 15.2466 126.977 15.7493 126.814L16.7547 126.482C17.1288 126.354 17.5029 126.231 17.8829 126.115C19.3794 125.637 20.8914 125.208 22.419 124.827C22.5859 125.335 22.8304 125.815 23.1439 126.249C24.3656 127.239 26.0667 126.383 26.4875 124.921C26.5712 124.603 26.6067 124.275 26.5928 123.948C27.6917 123.761 28.7946 123.612 29.9013 123.499C30.7665 123.412 31.655 123.354 32.5084 123.324C33.1631 123.324 33.812 123.324 34.4667 123.324C34.9519 123.324 35.4371 123.359 35.9164 123.394C36.2788 123.423 36.6354 123.458 36.992 123.499C37.1526 124.282 37.5268 125.006 38.0734 125.59C38.292 125.847 38.561 126.057 38.8639 126.206C39.1668 126.355 39.4972 126.44 39.8346 126.457C40.172 126.474 40.5093 126.422 40.8257 126.304C41.1422 126.186 41.4309 126.005 41.6743 125.771C41.9569 125.478 42.1775 125.131 42.3231 124.752C42.8829 124.962 43.4312 125.201 43.9657 125.468C44.2931 125.637 44.6146 125.812 44.9302 125.998C45.3511 126.249 45.7603 126.517 46.1578 126.808C46.6841 127.194 47.184 127.614 47.6543 128.066C48.7488 129.131 49.6558 130.371 50.3374 131.736C50.9348 132.934 51.343 134.217 51.5474 135.54C51.6408 136.141 51.6877 136.749 51.6877 137.357C51.6878 137.854 51.6526 138.351 51.5825 138.843C51.5552 139.037 51.5201 139.231 51.4772 139.425C51.4246 139.653 51.3662 139.88 51.3077 140.107C51.1791 140.579 51.033 141.045 50.8693 141.499C50.4148 142.748 49.8102 143.937 49.0689 145.041C47.7335 147.008 45.9613 148.643 43.8897 149.818C42.3501 150.69 40.6837 151.319 38.9502 151.682C38.1262 151.863 37.29 151.983 36.4483 152.043C35.8989 152.084 35.3494 152.095 34.7999 152.084H34.3439C34.3966 151.915 34.455 151.74 34.5076 151.565C34.6012 151.262 34.6655 150.954 34.7414 150.645C34.7874 150.492 34.8245 150.336 34.8525 150.179C34.8876 149.992 34.9168 149.806 34.946 149.596C35.0571 148.88 35.0746 146.992 33.8471 147.493C33.6725 147.57 33.5092 147.67 33.3619 147.79C33.1176 147.993 32.8979 148.224 32.7072 148.478C32.0149 149.444 31.5003 150.525 31.1874 151.67Z" fill="#139890"></path><path fill-rule="evenodd" clip-rule="evenodd" d="M0.831522 129.674C2.58519 130.315 15.3168 132.394 28.9194 135.86C35.1123 137.388 41.2116 139.271 47.1867 141.499C50.3859 142.696 53.4809 144.154 56.4402 145.857C58.3955 146.962 60.1697 148.358 61.7012 149.998C61.7765 150.056 61.8697 150.085 61.9644 150.08C62.059 150.076 62.1491 150.038 62.2189 149.974C62.2886 149.911 62.3335 149.824 62.3458 149.731C62.358 149.637 62.3367 149.542 62.2857 149.462C60.6785 147.773 58.8215 146.339 56.7792 145.21C53.7706 143.512 50.6268 142.065 47.3796 140.882C41.3649 138.687 35.2263 136.845 28.9954 135.365C15.3811 132.01 2.6261 130.035 0.884132 129.412C0.86686 129.405 0.848474 129.402 0.830019 129.403C0.811565 129.403 0.793405 129.408 0.776577 129.415C0.75975 129.423 0.744586 129.434 0.731948 129.447C0.71931 129.46 0.709447 129.476 0.702922 129.493C0.696397 129.511 0.693336 129.529 0.693917 129.547C0.694499 129.566 0.69871 129.584 0.706309 129.601C0.713908 129.617 0.724747 129.632 0.738208 129.645C0.751668 129.658 0.767487 129.667 0.784759 129.674H0.831522Z" fill="#44F1D2"></path><path fill-rule="evenodd" clip-rule="evenodd" d="M37.9039 130.839C38.565 132.18 38.89 133.662 38.8509 135.156C38.8418 135.741 38.793 136.325 38.7047 136.903C38.6404 137.293 38.5586 137.684 38.4651 138.068C38.2324 139.03 37.8727 139.956 37.3953 140.823C36.6945 142.141 35.6268 143.23 34.3206 143.957C34.2985 143.972 34.2824 143.994 34.2753 144.02C34.2682 144.045 34.2705 144.073 34.2818 144.097C34.2931 144.121 34.3127 144.14 34.337 144.151C34.3613 144.161 34.3886 144.163 34.4141 144.156C35.8233 143.476 36.999 142.395 37.7928 141.051C38.1167 140.522 38.3906 139.964 38.6112 139.385C38.7583 139.003 38.8851 138.614 38.9912 138.22C39.0905 137.818 39.1665 137.41 39.225 137.002C39.3086 136.388 39.3399 135.769 39.3185 135.15C39.285 133.6 38.8651 132.082 38.0968 130.734C38.0908 130.721 38.082 130.709 38.071 130.7C38.06 130.691 38.0471 130.684 38.0332 130.68C38.0193 130.676 38.0047 130.675 37.9905 130.678C37.9762 130.68 37.9626 130.685 37.9507 130.693C37.9377 130.7 37.9261 130.708 37.9166 130.719C37.9072 130.73 37.9 130.742 37.8957 130.756C37.8913 130.77 37.8897 130.784 37.8912 130.798C37.8926 130.813 37.8969 130.826 37.9039 130.839Z" fill="#44F1D2"></path><path fill-rule="evenodd" clip-rule="evenodd" d="M31.0238 129.796C31.4853 130.89 31.8074 132.037 31.9825 133.21C32.09 133.903 32.1311 134.606 32.1052 135.307C32.0899 135.771 32.0352 136.233 31.9416 136.688C31.832 137.217 31.6735 137.736 31.4681 138.237C31.1581 138.996 30.7661 139.718 30.299 140.392C29.5209 141.521 28.5517 142.507 27.4346 143.305C27.4158 143.323 27.404 143.347 27.4012 143.373C27.3985 143.399 27.4051 143.425 27.4197 143.447C27.4344 143.468 27.4563 143.484 27.4815 143.491C27.5067 143.498 27.5335 143.496 27.5574 143.486C28.7543 142.723 29.8038 141.752 30.6555 140.62C31.1698 139.938 31.5997 139.196 31.9357 138.412C32.1606 137.883 32.331 137.332 32.4443 136.769C32.5397 136.285 32.5906 135.794 32.5963 135.301C32.5993 134.566 32.5268 133.832 32.38 133.111C32.1401 131.924 31.7471 130.772 31.2109 129.686C31.2051 129.672 31.1968 129.66 31.1863 129.65C31.1759 129.64 31.1635 129.632 31.1499 129.626C31.1364 129.621 31.1218 129.618 31.1072 129.618C31.0926 129.619 31.0782 129.622 31.0647 129.627C31.0495 129.634 31.036 129.645 31.0254 129.658C31.0147 129.671 31.0071 129.686 31.0032 129.702C30.9992 129.718 30.999 129.735 31.0026 129.751C31.0062 129.768 31.0134 129.783 31.0238 129.796Z" fill="#44F1D2"></path><path fill-rule="evenodd" clip-rule="evenodd" d="M21.5773 128.142C22.4326 129.178 23.0331 130.399 23.331 131.707C23.4515 132.224 23.5259 132.75 23.5531 133.28C23.5736 133.633 23.5736 133.987 23.5531 134.34C23.5158 135.229 23.3766 136.11 23.1381 136.967C22.7801 138.273 22.2389 139.522 21.5305 140.678C21.5225 140.69 21.5169 140.704 21.5142 140.718C21.5114 140.733 21.5116 140.747 21.5145 140.762C21.5175 140.776 21.5233 140.79 21.5316 140.802C21.5398 140.814 21.5504 140.824 21.5627 140.832C21.575 140.84 21.5887 140.846 21.6032 140.849C21.6176 140.851 21.6324 140.851 21.6468 140.848C21.6612 140.845 21.6748 140.839 21.687 140.831C21.6991 140.823 21.7095 140.812 21.7176 140.8C22.5196 139.671 23.1499 138.431 23.5882 137.119C23.763 136.59 23.8979 136.048 23.9915 135.499C24.051 135.131 24.09 134.759 24.1084 134.387C24.1318 134.014 24.1318 133.641 24.1084 133.268C24.0638 132.709 23.9659 132.155 23.8162 131.614C23.4298 130.27 22.724 129.039 21.7585 128.025C21.7482 128.015 21.7359 128.007 21.7224 128.001C21.7088 127.996 21.6943 127.993 21.6796 127.993C21.6649 127.993 21.6504 127.996 21.6369 128.001C21.6233 128.007 21.611 128.015 21.6007 128.025C21.5861 128.041 21.5761 128.06 21.572 128.08C21.5678 128.101 21.5697 128.122 21.5773 128.142Z" fill="#44F1D2"></path><path fill-rule="evenodd" clip-rule="evenodd" d="M15.1473 129.936C15.4541 130.542 15.6331 131.204 15.6734 131.882C15.6987 132.327 15.6771 132.775 15.6091 133.216C15.5612 133.548 15.4929 133.877 15.4046 134.2C15.3169 134.526 15.2175 134.853 15.1064 135.173C14.7482 136.139 14.2669 137.055 13.6743 137.899C13.6638 137.91 13.6556 137.922 13.6499 137.935C13.6443 137.949 13.6414 137.963 13.6414 137.978C13.6414 137.992 13.6443 138.007 13.6499 138.02C13.6556 138.034 13.6638 138.046 13.6743 138.057C13.6958 138.076 13.724 138.087 13.7532 138.087C13.7824 138.087 13.8105 138.076 13.8321 138.057C14.4122 137.383 14.9106 136.644 15.3169 135.855C15.4747 135.529 15.6133 135.194 15.7319 134.853C15.8135 134.627 15.8837 134.398 15.9423 134.165C16.0008 133.932 16.0417 133.693 16.0768 133.46C16.1242 133.101 16.1399 132.739 16.1236 132.377C16.0843 131.47 15.8038 130.589 15.311 129.825C15.2963 129.8 15.272 129.781 15.2435 129.774C15.215 129.766 15.1846 129.77 15.159 129.785C15.1335 129.799 15.1148 129.824 15.1071 129.852C15.0994 129.88 15.1034 129.911 15.1181 129.936H15.1473Z" fill="#44F1D2"></path><path fill-rule="evenodd" clip-rule="evenodd" d="M45.3569 133.74C45.529 134.239 45.6217 134.762 45.6317 135.29C45.6512 136.09 45.5866 136.891 45.4388 137.678C45.3212 138.396 45.1591 139.106 44.9536 139.804C44.7533 140.504 44.5033 141.19 44.2054 141.855C43.9668 142.388 43.6974 142.907 43.3987 143.41C42.946 144.165 42.4318 144.882 41.8613 145.554C41.8489 145.564 41.8388 145.576 41.8318 145.591C41.8247 145.605 41.8209 145.621 41.8206 145.637C41.8202 145.653 41.8234 145.669 41.8298 145.683C41.8362 145.698 41.8457 145.711 41.8577 145.722C41.8696 145.732 41.8838 145.74 41.8991 145.745C41.9145 145.75 41.9306 145.751 41.9465 145.749C41.9624 145.747 41.9777 145.741 41.9912 145.733C42.0048 145.724 42.0163 145.713 42.025 145.699C42.6538 145.057 43.225 144.361 43.7319 143.62C44.0706 143.12 44.3753 142.599 44.6438 142.058C44.9811 141.383 45.257 140.68 45.468 139.956C45.6743 139.23 45.8229 138.49 45.9123 137.742C46.017 136.921 46.0366 136.091 45.9707 135.266C45.9189 134.711 45.7829 134.167 45.5674 133.653C45.5547 133.627 45.5326 133.606 45.5056 133.595C45.4786 133.585 45.4485 133.584 45.4212 133.594C45.4073 133.6 45.3945 133.607 45.3836 133.618C45.3728 133.628 45.3641 133.64 45.3581 133.654C45.3521 133.667 45.3489 133.682 45.3487 133.697C45.3485 133.712 45.3513 133.726 45.3569 133.74Z" fill="#44F1D2"></path><path fill-rule="evenodd" clip-rule="evenodd" d="M62.3092 109.344C63.0046 107.33 63.9345 105.404 65.08 103.606C65.3547 103.175 65.6645 102.756 65.9217 102.336L66.3017 101.8C66.4303 101.876 66.5647 101.946 66.6992 102.01C66.9564 102.144 67.2136 102.255 67.4766 102.365C68.3009 102.703 70.7209 103.35 70.5046 101.62C70.4725 101.385 70.4136 101.154 70.3293 100.932C70.2045 100.632 70.0498 100.345 69.8675 100.076C69.548 99.5937 69.1394 99.1766 68.6633 98.8468V98.8177C69.3764 98.0099 70.1188 97.2332 70.8904 96.4876C71.8764 95.5089 72.9052 94.573 73.9769 93.6798C74.5614 93.1847 75.146 92.707 75.7656 92.241L76.6015 91.6118C77.4332 91.8027 78.2923 91.8441 79.1385 91.7342C79.4116 91.6949 79.6716 91.5919 79.8973 91.4337C80.123 91.2754 80.308 91.0663 80.4373 90.8234C80.5666 90.5804 80.6365 90.3105 80.6414 90.0355C80.6463 89.7606 80.586 89.4883 80.4654 89.241C80.3953 89.107 80.3193 88.973 80.2433 88.8449L81.1669 88.14L84.0312 85.9497C84.8087 85.3672 85.5803 84.7847 86.3694 84.2021L87.0475 83.7012L87.5561 83.34C87.642 83.2745 87.7318 83.2142 87.825 83.1594L87.8893 83.1245C87.8893 83.1245 87.8893 83.1594 87.8893 83.1769C87.8893 83.1944 87.8893 83.3284 87.9185 83.3983C87.9185 83.5575 87.9185 83.7148 87.9185 83.8701C87.9185 84.0449 87.9185 84.2255 87.9185 84.4002C87.9185 84.9827 87.9185 85.5652 87.9185 86.1128C87.9185 86.8157 87.936 87.5206 87.9711 88.2274C88.0487 90.7354 88.2732 93.2367 88.6434 95.7187C88.7193 96.2429 88.8129 96.7614 88.9064 97.2798C88.9707 97.6235 89.0467 97.9672 89.111 98.3109C89.1753 98.6546 89.263 99.0915 89.3331 99.4759C89.6137 101.02 89.8534 102.569 90.0346 104.136C89.5075 104.234 89.0001 104.417 88.5323 104.678C87.3632 105.756 88.0179 107.561 89.4208 108.144C89.7268 108.269 90.05 108.348 90.3795 108.377C90.4262 109.484 90.4379 110.596 90.3795 111.703C90.3795 112.571 90.3035 113.451 90.2216 114.301C90.1573 114.948 90.0755 115.594 89.9761 116.235C89.9001 116.713 89.8183 117.19 89.7189 117.662C89.6429 118.018 89.567 118.367 89.4793 118.711C88.68 118.768 87.9126 119.046 87.2638 119.515C86.9794 119.697 86.7357 119.936 86.5478 120.216C86.36 120.496 86.2319 120.812 86.1716 121.144C86.1113 121.475 86.12 121.816 86.1973 122.144C86.2746 122.472 86.4187 122.78 86.6208 123.051C86.8759 123.366 87.1919 123.628 87.5502 123.82C87.2697 124.346 86.9614 124.858 86.6266 125.352C86.4162 125.655 86.1999 125.934 85.9719 126.237C85.6716 126.624 85.3516 126.995 85.0133 127.35C84.5612 127.821 84.0768 128.261 83.5636 128.666C82.3664 129.614 81.0164 130.353 79.5711 130.851C78.3018 131.286 76.973 131.523 75.6312 131.556C75.0218 131.568 74.4123 131.537 73.8074 131.462C73.3117 131.399 72.8214 131.299 72.3401 131.165L71.7556 130.99C71.5334 130.915 71.3172 130.827 71.1009 130.734C70.6449 130.548 70.2065 130.35 69.7681 130.123C68.5828 129.517 67.4773 128.768 66.4771 127.891C65.5797 127.106 64.7773 126.218 64.0862 125.247C63.4054 124.286 62.8348 123.253 62.3852 122.165C61.715 120.529 61.301 118.8 61.1576 117.039C61.0875 116.202 61.0758 115.361 61.1225 114.523C61.1576 113.975 61.2102 113.427 61.2921 112.886L61.3622 112.437L61.8532 112.67C62.1455 112.804 62.4378 112.903 62.7418 113.02C62.8937 113.078 63.0399 113.142 63.1919 113.189C63.3438 113.235 63.5543 113.293 63.7413 113.346C64.437 113.55 66.3134 113.812 65.9685 112.53C65.9189 112.348 65.8399 112.175 65.7347 112.018C65.5708 111.75 65.3745 111.503 65.1501 111.284C64.3221 110.479 63.3611 109.823 62.3092 109.344Z" fill="#0B968F"></path><path fill-rule="evenodd" clip-rule="evenodd" d="M81.3833 130C82.8856 129.121 73.0709 113.899 71.4985 108.488C70.1832 103.944 72.5507 99.1671 72.9306 94.5069C73.7665 84.3244 70.1949 78.3128 62.6951 71.7885C60.427 69.8195 50.4194 60.8079 46.6491 63.2953C44.3108 64.8273 45.0006 68.2759 46.1873 70.2856C48.9464 75.0157 52.6174 78.703 52.8103 84.703C52.9856 89.5729 51.7931 94.1691 50.7936 98.8351C49.0983 106.746 50.9163 118.239 56.3176 124.408C57.5618 125.817 58.9776 127.065 60.5322 128.124C61.8475 128.995 63.2432 129.738 64.7001 130.344C67.5001 131.59 81.7866 137.579 81.3833 130Z" fill="#0C929E"></path><path d="M81.3833 130C82.8856 129.121 73.0709 113.899 71.4985 108.488C70.1832 103.944 72.5507 99.1671 72.9306 94.5069C73.7665 84.3244 70.1949 78.3128 62.6951 71.7885C60.427 69.8195 50.4194 60.8079 46.6491 63.2953C44.3108 64.8273 45.0006 68.2759 46.1873 70.2856C48.9464 75.0157 52.6174 78.703 52.8103 84.703C52.9856 89.5729 51.7931 94.1691 50.7936 98.8351C49.0983 106.746 50.9163 118.239 56.3176 124.408C57.5618 125.817 58.9776 127.065 60.5322 128.124C61.8475 128.995 63.2432 129.738 64.7001 130.344C67.5001 131.59 81.7866 137.579 81.3833 130Z" fill="#25B3AA"></path><path fill-rule="evenodd" clip-rule="evenodd" d="M45.0472 62.1943C47.419 64.3186 49.6821 66.5602 51.8281 68.9108C53.2665 70.4756 54.5689 72.1593 55.7212 73.9439C57.9077 77.46 59.6585 81.2273 60.9354 85.1633C62.2354 89.1068 62.9713 93.2132 63.1217 97.3613C63.1327 99.5434 62.9901 101.723 62.6949 103.886C62.4131 106.067 62.2569 108.263 62.2273 110.462C62.199 112.365 62.5138 114.257 63.1567 116.049C64.5989 119.786 66.8022 123.186 69.6277 126.033C73.6027 130.111 78.4604 133.169 83.3414 137.27C83.349 137.278 83.3581 137.284 83.3681 137.288C83.3782 137.292 83.389 137.295 83.3998 137.295C83.4107 137.295 83.4215 137.292 83.4315 137.288C83.4416 137.284 83.4507 137.278 83.4583 137.27C83.4727 137.254 83.4806 137.233 83.4806 137.212C83.4806 137.19 83.4727 137.17 83.4583 137.154C78.6123 133.023 73.7839 129.936 69.844 125.835C67.0636 123.007 64.902 119.635 63.4958 115.932C62.875 114.178 62.576 112.328 62.6131 110.468C62.6516 108.286 62.8136 106.108 63.0983 103.944C63.3954 101.762 63.5399 99.5628 63.5308 97.3613C63.362 93.1756 62.6044 89.0342 61.2803 85.0584C59.9729 81.1046 58.1886 77.3235 55.9667 73.7982C54.7939 72.0092 53.472 70.3217 52.0151 68.7536C49.8464 66.416 47.5598 64.1898 45.1641 62.0837C45.1576 62.0752 45.1492 62.0683 45.1395 62.0636C45.1299 62.0589 45.1193 62.0565 45.1086 62.0565C45.0979 62.0565 45.0873 62.0589 45.0777 62.0636C45.068 62.0683 45.0596 62.0752 45.0531 62.0837C45.0451 62.0903 45.0385 62.0986 45.0339 62.1079C45.0292 62.1172 45.0265 62.1273 45.026 62.1377C45.0254 62.1481 45.027 62.1585 45.0307 62.1682C45.0343 62.178 45.04 62.1869 45.0472 62.1943Z" fill="#44F1D2"></path><path fill-rule="evenodd" clip-rule="evenodd" d="M58.8895 72.3477C58.6919 73.2449 58.2921 74.0855 57.7204 74.806C57.4909 75.0757 57.2253 75.3128 56.9313 75.5108C56.7343 75.6366 56.527 75.7458 56.3117 75.837C55.7642 76.0612 55.1791 76.1798 54.5872 76.1866C53.6788 76.1898 52.7748 76.0602 51.9041 75.8021C51.8943 75.7974 51.8834 75.7951 51.8725 75.7954C51.8616 75.7956 51.8509 75.7984 51.8412 75.8035C51.8316 75.8085 51.8233 75.8158 51.8169 75.8247C51.8106 75.8335 51.8064 75.8438 51.8047 75.8545C51.8001 75.8647 51.7979 75.8759 51.7981 75.8871C51.7983 75.8983 51.8011 75.9093 51.8061 75.9194C51.8111 75.9294 51.8184 75.9382 51.8272 75.9451C51.8361 75.952 51.8464 75.9569 51.8574 75.9594C52.7312 76.2946 53.6523 76.4911 54.5872 76.5419C54.9695 76.5558 55.3522 76.5245 55.7271 76.4487C55.9792 76.3988 56.2259 76.3247 56.4636 76.2273C56.7036 76.1277 56.9312 76.0006 57.1417 75.8487C57.4638 75.6252 57.748 75.3519 57.9835 75.039C58.5492 74.2547 58.9217 73.3487 59.0708 72.3943C59.0744 72.3728 59.0698 72.3507 59.0579 72.3324C59.046 72.314 59.0276 72.3008 59.0065 72.2953C58.9958 72.2883 58.9835 72.2841 58.9707 72.2831C58.958 72.2821 58.9452 72.2843 58.9336 72.2895C58.9219 72.2948 58.9118 72.3028 58.9041 72.313C58.8964 72.3232 58.8914 72.3351 58.8895 72.3477Z" fill="#44F1D2"></path><path fill-rule="evenodd" clip-rule="evenodd" d="M66.5881 83.107C66.1172 84.0156 65.4528 84.8108 64.6415 85.4371C64.1015 85.8447 63.5124 86.1832 62.8879 86.4448C62.4225 86.6409 61.9439 86.8044 61.4557 86.9341C60.9688 87.0625 60.475 87.1636 59.9768 87.2371C59.2221 87.3514 58.4604 87.4137 57.697 87.4234C56.9323 87.4347 56.1675 87.4075 55.4056 87.3419C55.3948 87.3411 55.384 87.3424 55.3738 87.3458C55.3636 87.3492 55.3541 87.3546 55.3459 87.3616C55.3378 87.3686 55.3311 87.3772 55.3263 87.3868C55.3215 87.3964 55.3186 87.4069 55.3179 87.4176C55.3162 87.4384 55.3225 87.459 55.3356 87.4752C55.3486 87.4914 55.3674 87.5021 55.388 87.505C56.1628 87.6175 56.9436 87.6836 57.7263 87.7031C58.5069 87.7308 59.2885 87.6996 60.0645 87.6099C60.5807 87.5479 61.0922 87.4525 61.596 87.3244C62.1042 87.192 62.6008 87.0186 63.0808 86.806C63.7224 86.5163 64.322 86.1421 64.8637 85.6933C65.6801 85.0065 66.3297 84.1441 66.7635 83.171C66.7722 83.1515 66.7735 83.1294 66.767 83.109C66.7606 83.0886 66.7468 83.0713 66.7284 83.0603C66.7177 83.0492 66.704 83.0413 66.689 83.0376C66.6739 83.0339 66.6582 83.0346 66.6435 83.0394C66.6288 83.0443 66.6158 83.0532 66.606 83.0652C66.5962 83.0771 66.59 83.0916 66.5881 83.107Z" fill="#44F1D2"></path><path fill-rule="evenodd" clip-rule="evenodd" d="M68.5348 95.9516C67.5611 96.6965 66.4891 97.3042 65.3489 97.7574C64.5904 98.0534 63.8082 98.2853 63.0107 98.4506C62.4262 98.5729 61.8416 98.6603 61.2103 98.7244C60.579 98.7885 60.0003 98.8176 59.3865 98.8293C58.4736 98.8441 57.5605 98.813 56.6508 98.736C55.7447 98.6603 54.8328 98.5496 53.9151 98.4098C53.9043 98.4082 53.8933 98.4087 53.8828 98.4113C53.8722 98.414 53.8623 98.4187 53.8535 98.4252C53.8448 98.4317 53.8375 98.4399 53.832 98.4492C53.8265 98.4586 53.823 98.469 53.8215 98.4797C53.8179 98.5013 53.8225 98.5234 53.8344 98.5417C53.8463 98.56 53.8646 98.5733 53.8858 98.5788C55.3984 98.8764 56.9296 99.071 58.4687 99.1613C59.0942 99.1962 59.708 99.2021 60.3276 99.1613C60.7426 99.1613 61.1518 99.1147 61.561 99.0681C61.9733 99.0229 62.383 98.9568 62.7886 98.87C63.3998 98.748 64.0015 98.5826 64.589 98.3749C66.0634 97.8429 67.4311 97.0539 68.6283 96.0448C68.642 96.0273 68.6495 96.0058 68.6495 95.9836C68.6495 95.9614 68.642 95.9399 68.6283 95.9225C68.6116 95.9166 68.5935 95.9163 68.5767 95.9215C68.5598 95.9268 68.5451 95.9373 68.5348 95.9516Z" fill="#44F1D2"></path><path fill-rule="evenodd" clip-rule="evenodd" d="M68.3068 109.926C67.3603 110.526 66.3434 111.007 65.2788 111.359C64.5763 111.586 63.8542 111.748 63.1218 111.843C62.5707 111.909 62.0166 111.946 61.4617 111.954C60.9122 111.954 60.3568 111.954 59.7898 111.924C58.9831 111.884 58.1472 111.82 57.2704 111.761C56.3936 111.703 55.6278 111.662 54.7393 111.639C54.7263 111.636 54.7127 111.635 54.6995 111.638C54.6864 111.64 54.674 111.646 54.6634 111.654C54.6527 111.662 54.6441 111.673 54.6382 111.685C54.6322 111.697 54.6292 111.71 54.6292 111.723C54.6292 111.737 54.6322 111.75 54.6382 111.762C54.6441 111.774 54.6527 111.785 54.6634 111.793C54.674 111.801 54.6864 111.806 54.6995 111.809C54.7127 111.812 54.7263 111.811 54.7393 111.808C55.622 111.866 56.4579 111.954 57.2529 112.041C58.0479 112.128 58.9656 112.233 59.7723 112.297C60.3568 112.338 60.9122 112.367 61.4734 112.361C62.0429 112.357 62.6113 112.312 63.1744 112.227C63.9295 112.111 64.6701 111.916 65.384 111.645C66.453 111.239 67.4664 110.701 68.4003 110.043C68.4147 110.027 68.4226 110.006 68.4226 109.985C68.4226 109.963 68.4147 109.942 68.4003 109.926C68.3861 109.918 68.37 109.914 68.3536 109.914C68.3371 109.914 68.321 109.918 68.3068 109.926Z" fill="#44F1D2"></path><path fill-rule="evenodd" clip-rule="evenodd" d="M72.0245 120.569C71.2554 121.222 70.4141 121.785 69.5168 122.247C69.1634 122.433 68.8005 122.6 68.4295 122.748C68.184 122.847 67.9326 122.934 67.6813 123.022C67.0529 123.234 66.4102 123.401 65.7581 123.523C64.7706 123.702 63.769 123.794 62.7652 123.796C62.7439 123.798 62.7239 123.807 62.7088 123.822C62.6938 123.837 62.6847 123.857 62.6833 123.878C62.6833 123.9 62.6917 123.921 62.7069 123.938C62.7221 123.954 62.743 123.964 62.7652 123.965C63.7814 124.025 64.801 123.99 65.8107 123.86C66.2163 123.809 66.6184 123.733 67.0149 123.633C67.2838 123.567 67.5468 123.491 67.804 123.406C68.0671 123.319 68.3243 123.22 68.5756 123.115C68.9549 122.942 69.3237 122.747 69.6805 122.532C70.57 122.01 71.3924 121.382 72.1297 120.662C72.1375 120.655 72.1437 120.646 72.1479 120.636C72.1521 120.626 72.1543 120.615 72.1543 120.604C72.1543 120.593 72.1521 120.582 72.1479 120.572C72.1437 120.562 72.1375 120.553 72.1297 120.546C72.1213 120.54 72.1119 120.537 72.102 120.535C72.0922 120.533 72.0821 120.534 72.0723 120.536C72.0625 120.538 72.0532 120.542 72.045 120.548C72.0369 120.553 72.0299 120.561 72.0245 120.569Z" fill="#44F1D2"></path><path fill-rule="evenodd" clip-rule="evenodd" d="M76.1047 127.973L75.1811 128.509L74.5965 128.847L74.1873 129.068C73.9827 129.185 73.7781 129.295 73.5677 129.394C73.1932 129.585 72.8018 129.741 72.3986 129.86C72.3785 129.867 72.3615 129.881 72.3507 129.899C72.34 129.917 72.3362 129.939 72.3401 129.959C72.3415 129.97 72.345 129.98 72.3506 129.989C72.3562 129.998 72.3636 130.006 72.3725 130.012C72.3813 130.018 72.3913 130.022 72.4019 130.024C72.4124 130.026 72.4233 130.026 72.4337 130.023C72.8605 129.965 73.2799 129.862 73.6846 129.715C73.9553 129.616 74.219 129.499 74.4738 129.365C74.5771 129.314 74.6767 129.255 74.7719 129.19C74.9209 129.103 75.0653 129.008 75.2045 128.905C75.5552 128.655 75.8825 128.381 76.2157 128.107C76.2301 128.091 76.2381 128.07 76.2381 128.049C76.2381 128.027 76.2301 128.006 76.2157 127.99C76.2099 127.982 76.2023 127.974 76.1934 127.968C76.1845 127.963 76.1745 127.959 76.1641 127.957C76.1536 127.956 76.1429 127.956 76.1327 127.959C76.1225 127.962 76.1129 127.966 76.1047 127.973Z" fill="#44F1D2"></path><path fill-rule="evenodd" clip-rule="evenodd" d="M187.041 153.907H184.229V172.757H187.041V175.379H46.8182C45.595 175.379 44.4219 174.895 43.5569 174.033C42.692 173.171 42.2061 172.002 42.2061 170.783V155.888C42.2053 155.283 42.324 154.685 42.5555 154.127C42.7869 153.569 43.1265 153.061 43.5549 152.634C43.9832 152.206 44.4919 151.867 45.0519 151.636C45.6118 151.405 46.212 151.286 46.8182 151.286H187.041V153.907Z" fill="#1F8673"></path><path fill-rule="evenodd" clip-rule="evenodd" d="M185.578 153.907H112.59C112.143 153.907 111.7 153.995 111.287 154.166C110.874 154.336 110.498 154.587 110.182 154.902C109.866 155.217 109.616 155.592 109.445 156.004C109.275 156.416 109.187 156.857 109.188 157.303V169.425C109.188 170.325 109.546 171.187 110.184 171.823C110.822 172.459 111.688 172.816 112.59 172.816H185.578V153.907Z" fill="#DEF7F7"></path><path fill-rule="evenodd" clip-rule="evenodd" d="M46.4734 156.097C46.4734 155.671 46.6434 155.262 46.9459 154.96C47.2485 154.659 47.6589 154.49 48.0868 154.49H104.859C105.071 154.489 105.281 154.53 105.477 154.61C105.673 154.691 105.851 154.809 106.001 154.959C106.151 155.108 106.27 155.286 106.351 155.481C106.432 155.677 106.473 155.886 106.472 156.097V158.154C106.472 158.58 106.302 158.989 106 159.29C105.697 159.592 105.287 159.761 104.859 159.761H48.0868C47.6593 159.76 47.2499 159.59 46.9476 159.289C46.6454 158.988 46.4749 158.58 46.4734 158.154V156.097Z" fill="white" fill-opacity="0.37"></path><path d="M51.6917 177.406H54.2169V192.936H51.6917V195.097H177.084C178.308 195.097 179.481 194.613 180.346 193.751C181.211 192.889 181.697 191.72 181.697 190.501V179.847C181.697 179.243 181.579 178.644 181.347 178.086C181.116 177.528 180.776 177.02 180.348 176.593C179.919 176.166 179.411 175.827 178.851 175.595C178.291 175.364 177.691 175.245 177.084 175.245H51.6917V177.406Z" fill="#163C5F"></path><path fill-rule="evenodd" clip-rule="evenodd" d="M53.3423 177.406H118.508C119.411 177.406 120.277 177.763 120.916 178.399C121.555 179.034 121.915 179.897 121.916 180.796V189.61C121.916 190.056 121.828 190.497 121.657 190.909C121.485 191.32 121.234 191.694 120.918 192.009C120.601 192.324 120.226 192.574 119.812 192.744C119.399 192.914 118.956 193.001 118.508 193H53.3423V177.406Z" fill="#DEF7F7"></path><path fill-rule="evenodd" clip-rule="evenodd" d="M124.504 180.29C124.504 179.863 124.674 179.453 124.976 179.151C125.278 178.848 125.689 178.678 126.117 178.676H173.981C174.41 178.676 174.822 178.846 175.126 179.149C175.429 179.451 175.6 179.862 175.6 180.29V182.323C175.598 182.749 175.427 183.158 175.123 183.46C174.82 183.761 174.409 183.93 173.981 183.93H126.117C125.69 183.929 125.28 183.759 124.978 183.458C124.676 183.157 124.505 182.748 124.504 182.323V180.29Z" fill="white" fill-opacity="0.16"></path><path fill-rule="evenodd" clip-rule="evenodd" d="M44.72 119.509V117.377H178.238C179.179 117.378 180.08 117.751 180.745 118.414C181.41 119.077 181.785 119.976 181.786 120.913V130.886C181.783 131.822 181.408 132.719 180.743 133.38C180.078 134.042 179.178 134.414 178.238 134.416H44.72V132.523H49.0515V119.509H44.72Z" fill="#FE7C7C"></path><path d="M44.72 119.509V117.377H178.238C179.179 117.378 180.08 117.751 180.745 118.414C181.41 119.077 181.785 119.976 181.786 120.913V130.886C181.783 131.822 181.408 132.719 180.743 133.38C180.078 134.042 179.178 134.414 178.238 134.416H44.72V132.523H49.0515V119.509H44.72Z" fill="#009C78"></path><path fill-rule="evenodd" clip-rule="evenodd" d="M114.935 122.462C114.935 121.679 114.622 120.928 114.066 120.374C113.511 119.82 112.757 119.509 111.971 119.509H46.3955V132.523H111.971C112.757 132.523 113.511 132.211 114.066 131.658C114.622 131.104 114.935 130.352 114.935 129.569V122.462Z" fill="#DEF7F7"></path><path fill-rule="evenodd" clip-rule="evenodd" d="M178.127 120.22C178.128 120.008 178.086 119.799 178.006 119.603C177.925 119.408 177.806 119.23 177.656 119.081C177.506 118.932 177.328 118.813 177.132 118.733C176.936 118.652 176.726 118.611 176.513 118.612H119.742C119.314 118.612 118.903 118.781 118.601 119.083C118.298 119.384 118.128 119.793 118.128 120.22V122.253C118.13 122.679 118.3 123.087 118.602 123.388C118.905 123.689 119.314 123.859 119.742 123.86H176.513C176.941 123.86 177.352 123.691 177.654 123.389C177.957 123.088 178.127 122.679 178.127 122.253V120.22Z" fill="white" fill-opacity="0.37"></path><path d="M193 136.524V134.381H59.4587C58.993 134.381 58.5319 134.472 58.1017 134.65C57.6715 134.828 57.2808 135.088 56.9517 135.417C56.6227 135.745 56.3619 136.135 56.1842 136.564C56.0066 136.993 55.9155 137.453 55.9163 137.917V147.884C55.9155 148.348 56.0066 148.807 56.1842 149.236C56.3619 149.665 56.6227 150.055 56.9517 150.384C57.2808 150.712 57.6715 150.973 58.1017 151.15C58.5319 151.328 58.993 151.42 59.4587 151.42H193V149.544H188.68V136.524H193Z" fill="#114A5C"></path><path fill-rule="evenodd" clip-rule="evenodd" d="M122.78 139.478C122.781 138.694 123.094 137.942 123.651 137.387C124.208 136.832 124.962 136.52 125.749 136.519H191.324V149.544H125.749C124.963 149.544 124.208 149.233 123.651 148.679C123.095 148.126 122.781 147.374 122.78 146.59V139.478Z" fill="#DEF7F7"></path><path fill-rule="evenodd" clip-rule="evenodd" d="M59.5874 137.235C59.5874 136.808 59.7572 136.399 60.0596 136.096C60.362 135.794 60.7723 135.623 61.2008 135.622H117.973C118.185 135.622 118.396 135.663 118.592 135.744C118.789 135.825 118.967 135.944 119.118 136.094C119.268 136.244 119.387 136.422 119.469 136.618C119.55 136.813 119.592 137.023 119.592 137.235V139.268C119.59 139.695 119.419 140.104 119.116 140.405C118.812 140.707 118.401 140.876 117.973 140.876H61.2008C60.7734 140.874 60.3639 140.705 60.0616 140.403C59.7594 140.102 59.5889 139.694 59.5874 139.268V137.235Z" fill="white" fill-opacity="0.17"></path><path fill-rule="evenodd" clip-rule="evenodd" d="M180.295 115.629H140.861V117.406H179.495C179.6 117.406 179.705 117.385 179.802 117.345C179.9 117.304 179.988 117.245 180.063 117.17C180.137 117.096 180.196 117.007 180.236 116.909C180.276 116.812 180.296 116.707 180.295 116.602V115.629Z" fill="#3B4054"></path><path d="M159.146 116.031H153.856V117.004H159.146V116.031Z" fill="#202846"></path><path d="M177.811 116.031H172.521V117.004H177.811V116.031Z" fill="#202846"></path><path fill-rule="evenodd" clip-rule="evenodd" d="M184.726 93.4002H150.273L145.053 114.546H179.506L185.527 94.4837L184.726 93.4002Z" fill="#535E7E"></path><path fill-rule="evenodd" clip-rule="evenodd" d="M185.527 94.4837H151.074L145.848 115.629H180.301L185.527 94.4837Z" fill="#3B4054"></path><path fill-rule="evenodd" clip-rule="evenodd" d="M170.148 104.701C170.086 105.215 169.877 105.701 169.546 106.1C169.216 106.5 168.777 106.796 168.282 106.954C167.787 107.112 167.257 107.125 166.755 106.991C166.253 106.858 165.8 106.583 165.45 106.2C165.1 105.818 164.867 105.343 164.78 104.832C164.693 104.322 164.755 103.797 164.959 103.321C165.163 102.844 165.499 102.436 165.929 102.145C166.359 101.854 166.863 101.692 167.383 101.678C167.271 101.379 167.066 101.124 166.798 100.95C166.687 100.874 166.839 100.711 166.95 100.787C167.235 101.038 167.467 101.343 167.634 101.684C168.172 101.728 168.685 101.931 169.107 102.266C169.032 102.343 168.973 102.434 168.933 102.534C168.894 102.634 168.876 102.741 168.879 102.849C168.88 103.046 168.953 103.236 169.084 103.384C169.216 103.532 169.396 103.627 169.592 103.653C169.55 103.748 169.528 103.851 169.528 103.956C169.537 104.13 169.602 104.296 169.714 104.431C169.825 104.565 169.978 104.66 170.148 104.701Z" fill="#6C6F7A"></path><path d="M107.73 47.1143C107.73 47.1143 108.116 45.8656 105.844 44.9565L105.292 46.2851L107.73 47.1143Z" fill="#FF9272"></path><path d="M120.935 140.946L111.361 162.629L117.018 165.87L127.931 143.604L120.935 140.946Z" fill="#F2C290"></path><path d="M117.936 165.306C117.936 165.306 117.219 166.984 117.565 168.358C118.066 170.356 121.577 172.903 125.935 175.72C128.708 177.513 127.475 179.351 127.475 179.351L107.229 168.323C107.908 165.062 109.614 162.101 112.098 159.872C112.523 160.084 112.883 160.407 113.14 160.806C113.397 161.205 113.541 161.666 113.558 162.139C113.568 163.718 117.936 165.306 117.936 165.306Z" fill="#08303D"></path><path d="M119.104 163.742C118.728 164.417 117.7 167.693 118.883 170.415C118.883 170.415 115.227 169.327 115.313 166.584C115.403 163.588 115.925 162.634 117.203 162.034C117.76 161.775 119.766 162.579 119.104 163.742Z" fill="#1C5B5E"></path><path d="M107.213 168.323L127.469 179.351L127.245 180.434L106.275 170.041L107.213 168.323Z" fill="white"></path><path d="M107.213 169.161L127.469 180.189L126.531 181.912L106.275 170.879L107.213 169.161Z" fill="#08303D"></path><path d="M98.7477 94.37C98.7477 94.37 142.379 89.0355 145.519 93.8705C150.875 102.122 122.449 161.015 122.449 161.015L112.89 156.57C112.89 156.57 127.845 116.886 130.223 108.086H127.675L127.735 105.803C127.735 105.803 106.727 117.501 93.863 117.501C83.3312 117.501 70.7433 95.9183 70.7433 95.9183C70.7433 95.9183 85.4727 94.7745 98.7477 94.37Z" fill="#40B7BE"></path><path d="M84.6103 113.145C84.6103 113.145 132.394 97.6615 135.709 100.084C138.036 101.777 122.767 139.131 116.353 157.811" stroke="#225666" stroke-width="2" stroke-miterlimit="10"></path><path d="M105.518 155.861L101.817 179.261L108.121 180.955L112.966 156.65L105.518 155.861Z" fill="#F2C290"></path><path d="M108.858 180.175C108.858 180.175 109.381 181.709 110.068 182.948C111.071 184.761 114.335 186.594 119.265 188.217C122.399 189.251 121.677 191.339 121.677 191.339L99.2693 185.844C99.0925 182.518 99.985 179.221 101.817 176.434C102.285 176.528 102.719 176.747 103.072 177.067C103.425 177.388 103.685 177.797 103.823 178.252C104.219 179.751 108.858 180.175 108.858 180.175Z" fill="#08303D"></path><path d="M109.649 178.758C110.311 179.722 110.236 181.953 111.095 184.023C111.095 184.023 107.283 184.736 106.662 182.063C105.985 179.156 106.24 178.068 107.324 177.183C107.77 176.814 109.23 177.502 109.649 178.758Z" fill="#1C5B5E"></path><path d="M99.1759 185.462L121.799 191.327L121.589 192.46L99.1759 186.946L99.1759 185.462Z" fill="white"></path><path d="M99.2694 186.657L121.677 192.172L121.211 194.075L98.798 188.56L99.2694 186.657Z" fill="#08303D"></path><path d="M82.4385 96.8374C82.4385 96.8374 114.926 113.76 118.327 117.501C121.727 121.242 110.488 176.13 110.488 176.13L102.178 173.762C102.178 173.762 104.976 139.972 106.621 128.135L104.074 127.375V124.668C104.074 124.668 74.1535 120.123 68.1604 117.481C53.7369 111.127 63.5916 95.8983 63.5916 95.8983L82.4385 96.8374Z" fill="#59CAD0"></path><path d="M72.283 96.288C72.283 96.288 71.31 104.015 67.3782 103.515" stroke="#225666" stroke-width="2" stroke-miterlimit="10"></path><path d="M68.7824 96.153C68.7824 96.153 65.7332 105.373 68.5868 108.081C70.8888 110.273 97.9253 117.341 108.156 119.958C109.247 120.237 110.204 120.891 110.855 121.806C111.507 122.72 111.813 123.835 111.717 124.953C110.945 134.088 108.224 160.768 106.298 174.569" stroke="#225666" stroke-width="2" stroke-miterlimit="10"></path><path d="M112.554 56.889L116.351 74.1111L109.325 75.5046L104.651 58.4974L112.554 56.889Z" fill="#DEA365"></path><path d="M107.163 37.3394C107.163 37.3394 102.534 71.5937 102.649 93.9203C102.649 93.9203 93.6473 98.7753 63.6067 95.9183C63.6067 95.9183 68.346 54.961 70.7332 37.3594L107.163 37.3394Z" fill="#1C5B5E"></path><path d="M102.665 91.4979C102.665 91.4979 80.8538 94.6796 63.9929 92.6667" stroke="#0F4648" stroke-width="0.75" stroke-miterlimit="10"></path><path d="M93.9534 80.5393L83.0655 72.4278" stroke="#0F4648" stroke-width="0.75" stroke-miterlimit="10"></path><path d="M92.218 86.9877C86.0719 82.9746 80.5615 78.0707 75.8687 72.4379" stroke="#0F4648" stroke-width="0.75" stroke-miterlimit="10"></path><path d="M96.1951 37.3394C96.1951 37.3394 95.5331 45.8855 89.4297 45.5059C83.3263 45.1263 82.7997 37.3394 82.7997 37.3394" stroke="#0F4648" stroke-width="0.75" stroke-miterlimit="10"></path><path d="M100.879 24.9175C102.83 23.0401 104.126 20.5893 104.575 17.9248C105.192 14.0838 104.445 7.67051 101.346 7.84034C101.647 7.74044 103.768 6.84138 102.885 5.44783C102.384 4.68863 94.4298 3.42495 88.0054 5.1981C85.4628 5.89736 85.3324 7.10111 85.854 8.89923C85.2271 8.12504 83.0756 7.8753 82.2731 8.43471C80.1668 9.89319 79.6603 21.3163 81.9472 25.2222C83.1408 27.265 85.4578 28.284 87.6243 28.6786C90.6785 29.203 95.6284 30.0521 100.879 24.9175Z" fill="#464646"></path><path d="M84.9612 37.3395L85.8038 26.0513L93.9082 26.6956V37.3395C93.9082 37.3395 93.8681 42.4192 89.4347 42.4192C84.8158 42.4192 84.9612 37.3395 84.9612 37.3395Z" fill="#F2C290"></path><path d="M87.4136 30.4817C87.4136 30.4817 85.8389 37.0098 93.9082 36.0558L93.8681 30.5616L87.4136 30.4817Z" fill="#DEA365"></path><path d="M102.088 14.5383V28.7884C102.088 30.9462 100.658 33.928 94.7606 33.928C87.4335 33.928 85.6481 28.2939 85.6481 23.8186V14.5383H102.088Z" fill="#F2C290"></path><path d="M87.1277 24.0983C87.1375 24.3778 87.0882 24.6563 86.9831 24.9157C86.878 25.175 86.7194 25.4095 86.5175 25.604C86.3157 25.7984 86.075 25.9485 85.8113 26.0445C85.5475 26.1405 85.2664 26.1802 84.9862 26.1612C84.4024 26.1272 83.853 25.8746 83.4484 25.454C83.0437 25.0334 82.8138 24.476 82.8046 23.8935C82.7949 23.614 82.8441 23.3356 82.9492 23.0762C83.0544 22.8168 83.213 22.5823 83.4148 22.3879C83.6167 22.1934 83.8573 22.0434 84.1211 21.9474C84.3848 21.8514 84.6659 21.8116 84.9461 21.8307C85.53 21.8647 86.0793 22.1173 86.484 22.5379C86.8886 22.9585 87.1186 23.5159 87.1277 24.0983Z" fill="#F2C290"></path><path d="M84.6603 25.2571C83.7525 25.0074 83.4567 24.3531 83.6573 23.8186C83.7453 23.5585 83.9112 23.3315 84.1326 23.168C84.3541 23.0046 84.6205 22.9127 84.896 22.9046" stroke="#2C1817" stroke-width="0.25" stroke-miterlimit="10"></path><path d="M103.256 15.2626C101.998 16.451 100.491 17.3465 98.843 17.8846C97.1952 18.4227 95.4481 18.59 93.7276 18.3743C93.3371 18.3619 92.9637 18.2114 92.6744 17.9498C92.4187 17.6601 92.4488 17.1106 92.8098 16.9808C92.1491 17.2777 91.436 17.442 90.7115 17.4642C89.9869 17.4865 89.265 17.3664 88.5871 17.1106C88.2322 17.0297 87.9167 16.8284 87.6944 16.5412C87.9251 18.664 88.6222 24.6378 86.7766 24.6378C85.247 24.6378 84.9762 20.3073 84.7004 17.3354C84.57 15.9219 84.6753 14.3685 85.5881 13.2796C86.0691 12.756 86.6693 12.3552 87.3383 12.1109C88.9833 11.4116 90.8088 11.2917 92.5942 11.2368C94.1224 11.1785 95.6528 11.2052 97.178 11.3167C98.5478 11.3595 99.8915 11.7005 101.115 12.3156C102.298 12.9799 103.216 13.904 103.256 15.2626Z" fill="#464646"></path><path d="M93.9081 19.6031C93.9081 20.0576 91.9773 20.3323 90.8539 20.2823C89.7305 20.2324 89.3494 19.8428 89.3845 19.3933C89.4196 18.9437 90.7887 18.6391 91.8921 18.689C92.9954 18.739 93.9282 19.1735 93.9081 19.6031Z" fill="#464646"></path><path d="M93.4819 23.504C93.4518 24.1433 93.181 24.6528 92.8751 24.6378C92.5692 24.6228 92.3485 24.0934 92.3736 23.454C92.3987 22.8147 92.6745 22.3052 92.9804 22.3202C93.2863 22.3352 93.512 22.8646 93.4819 23.504Z" fill="#2C1817"></path><path d="M98.3667 19.8427C98.3667 20.2923 100.222 20.7468 101.346 20.8017C102.469 20.8567 102.85 20.502 102.885 20.0525C102.92 19.603 101.551 19.1734 100.433 19.1185C99.3146 19.0635 98.3868 19.3882 98.3667 19.8427Z" fill="#464646"></path><path d="M98.437 23.7337C98.4069 24.373 98.6326 24.9025 98.9385 24.9175C99.2444 24.9325 99.5152 24.418 99.5403 23.7837C99.5654 23.1493 99.3447 22.6149 99.0388 22.5999C98.7329 22.5849 98.462 23.0994 98.437 23.7337Z" fill="#2C1817"></path><path d="M95.3124 27.285C95.3124 27.285 97.1329 26.9603 97.1379 25.8764C97.1379 24.5978 95.3977 25.1572 95.3977 25.1572C95.2622 24.2764 95.2319 23.3828 95.3074 22.495" stroke="#2C1817" stroke-width="0.25" stroke-miterlimit="10"></path><path d="M97.509 30.3867C97.199 30.6194 96.8454 30.7882 96.469 30.8831C96.0927 30.978 95.7011 30.9972 95.3172 30.9395C94.9333 30.8818 94.5648 30.7485 94.2333 30.5472C93.9018 30.3459 93.614 30.0808 93.3866 29.7674" stroke="#2C1817" stroke-width="0.25" stroke-miterlimit="10"></path><path d="M68.5818 64.0266L61.5405 112.736H56.6508L60.3269 64.0266H68.5818Z" fill="#F2C290"></path><path d="M61.5405 112.736C61.5405 112.736 62.8395 117.501 58.5816 117.501C54.3238 117.501 53.2355 115.847 51.9616 115.168C51.9616 115.168 50.1662 117.586 44.3988 117.411C44.3988 117.411 43.8472 116.007 45.3367 115.718C49.3187 114.938 50.7681 112.036 51.7059 112.036C53.065 112.036 56.6357 112.756 56.6357 112.756L61.5405 112.736Z" fill="#F2C290"></path><path d="M68.5818 64.0266H60.3269L60.1614 66.2643L67.9348 68.502L68.5818 64.0266Z" fill="#DEA365"></path><path d="M57.1875 115.503L51.9768 115.143C51.9768 115.143 54.3489 116.841 55.2015 116.996C56.0541 117.151 57.1875 115.503 57.1875 115.503Z" fill="#DEA365"></path><path d="M57.1875 115.503C57.1875 115.503 51.2847 116.112 51.2847 116.622C51.2847 117.301 51.39 117.576 53.0249 117.771C54.5295 117.955 58.04 117.416 58.04 117.416L57.1875 115.503Z" fill="#F2C290"></path><path d="M107.163 37.3394C108.033 37.34 108.873 37.6522 109.53 38.219C110.188 38.7857 110.619 39.5692 110.744 40.4262L113.407 58.7071L104.44 61.6441C103.634 53.442 104.562 45.1628 107.163 37.3394Z" fill="#1C5B5E"></path><path d="M102.105 38.0779L106.376 39.4214C107.279 39.7056 107.78 40.6652 107.495 41.5648L104.229 51.862C103.944 52.7616 102.98 53.2605 102.077 52.9764L97.8063 51.6329C96.903 51.3487 96.4021 50.3891 96.6874 49.4895L99.9533 39.1923C100.239 38.2927 101.202 37.7937 102.105 38.0779Z" fill="white"></path><path d="M105.478 40.9907C105.443 41.098 105.442 41.2131 105.473 41.3214C105.504 41.4297 105.567 41.5263 105.654 41.5989C105.74 41.6716 105.846 41.7172 105.959 41.7297C106.071 41.7423 106.185 41.7214 106.285 41.6696C106.386 41.6178 106.469 41.5375 106.523 41.4388C106.578 41.3401 106.602 41.2275 106.592 41.1153C106.582 41.003 106.54 40.8961 106.469 40.8081C106.398 40.7202 106.303 40.655 106.195 40.621C106.051 40.5755 105.894 40.5889 105.76 40.6582C105.625 40.7275 105.524 40.847 105.478 40.9907Z" fill="#520822"></path><path d="M104.886 42.8487C104.864 42.9202 104.855 42.9954 104.862 43.0701C104.868 43.1449 104.889 43.2176 104.924 43.2841C104.959 43.3507 105.006 43.4098 105.064 43.4581C105.122 43.5063 105.188 43.5428 105.26 43.5654C105.332 43.5881 105.407 43.5964 105.482 43.5899C105.557 43.5835 105.63 43.5624 105.697 43.5278C105.764 43.4933 105.823 43.4459 105.872 43.3886C105.92 43.3312 105.957 43.2648 105.98 43.1933C106.026 43.0489 106.012 42.8923 105.942 42.7579C105.872 42.6235 105.751 42.5223 105.606 42.4766C105.461 42.4309 105.304 42.4444 105.169 42.5142C105.034 42.584 104.932 42.7043 104.886 42.8487Z" fill="#520822"></path><path d="M100.237 50.7205C100.563 51.4148 102.243 52.2189 103.001 53.4776C103.066 53.9771 108.643 79.4005 109.074 80.5343C110.513 84.3254 116.838 87.4921 117.209 79.6353C117.565 72.1431 110.945 63.3972 106.567 52.6635C106.908 50.9452 107.344 49.5067 107.835 47.6687C108.161 46.8795 106.481 46.34 105.127 45.9155C104.786 45.8056 104.305 45.4809 103.934 45.5109C103.652 45.5729 103.399 45.7281 103.217 45.9512C103.035 46.1743 102.934 46.4521 102.931 46.7396C102.781 46.7362 102.633 46.77 102.5 46.838C102.367 46.9061 102.253 47.0062 102.168 47.1292C102.074 47.2559 102.011 47.4029 101.985 47.5583C101.959 47.7137 101.97 47.873 102.018 48.0233C101.702 48.0833 101.405 48.2167 101.15 48.4129C101.021 48.5224 100.931 48.6708 100.894 48.8357C100.857 49.0006 100.875 49.173 100.945 49.3269C100.805 49.371 100.677 49.4423 100.565 49.5365C100.454 49.6308 100.363 49.7462 100.297 49.8759C100.232 50.0057 100.192 50.1472 100.182 50.2922C100.172 50.4372 100.191 50.5828 100.237 50.7205Z" fill="#F2C290"></path><path d="M73.0403 37.3394H70.8788C68.4928 37.3398 66.1876 38.1996 64.3883 39.7602C62.5891 41.3208 61.4173 43.4769 61.0892 45.8306L58.5817 64.0116H69.9058L73.0403 37.3394Z" fill="#1C5B5E"></path><path d="M72.283 44.5071L69.9008 64.0267H58.5967" stroke="#0F4648" stroke-width="0.75" stroke-miterlimit="10"></path><path d="M70.1914 61.6441H58.9224" stroke="#0F4648" stroke-width="0.75" stroke-miterlimit="10"></path><path d="M135.042 35.8111C120.908 35.8111 109.45 27.953 109.45 18.2594C109.45 8.56591 120.908 0.707764 135.042 0.707764C149.176 0.707764 160.634 8.56591 160.634 18.2594C160.634 27.953 149.176 35.8111 135.042 35.8111Z" fill="#FF4588"></path><path d="M129.134 31.2159L107.755 40.5112L117.89 22.5649L129.134 31.2159Z" fill="#FF4588"></path><path d="M133 19.4858H150V22.4858H133V19.4858Z" fill="white"></path><path d="M120 12.4858H150V15.4858H120V12.4858Z" fill="white"></path><path d="M133.743 52.7484C124.503 52.7484 117.013 47.6118 117.013 41.2754C117.013 34.939 124.503 29.8024 133.743 29.8024C142.983 29.8024 150.474 34.939 150.474 41.2754C150.474 47.6118 142.983 52.7484 133.743 52.7484Z" fill="#4981AA"></path><path d="M139.436 50.6207L150.022 55.7303L144.726 45.6359L139.436 50.6207Z" fill="#4981AA"></path><path d="M133.498 43.8127H127.188V42.5191H133.498V43.8127Z" fill="white"></path><path d="M140 40.4858H127V38.4858H140V40.4858Z" fill="white"></path></svg>