<svg xmlns="http://www.w3.org/2000/svg" xmlns:xlink="http://www.w3.org/1999/xlink" id="Layer_1" x="0px" y="0px" viewBox="0 0 1698.6 452.9" style="enable-background:new 0 0 1698.6 452.9;" xml:space="preserve"> <style type="text/css"> .st0{fill:#464646;} .st1{fill:#CECECE;} .st2{fill:#1C5B5E;} .st3{fill:url(#SVGID_1_);} .st4{fill:url(#SVGID_2_);} .st5{fill:#FFFFFF;} .st6{fill:url(#SVGID_3_);} .st7{fill:url(#SVGID_4_);} </style> <g> <path class="st0" d="M650.6,84.2c22.7,0,42.3,4.3,58.9,12.8c16.6,8.5,30.6,21.1,42,37.6l-27.5,26.4c-9.7-14.8-20.6-25.4-32.7-31.9 c-12.1-6.5-26.4-9.7-43-9.7c-12.2,0-22.3,1.7-30.2,5c-7.9,3.3-13.7,7.7-17.4,13.2c-3.7,5.5-5.5,11.7-5.5,18.5 c0,7.9,2.7,14.8,8.2,20.6c5.5,5.9,15.7,10.5,30.8,13.8l51.2,11.5c24.5,5.4,41.8,13.5,52,24.5c10.2,11,15.3,24.8,15.3,41.7 c0,15.5-4.2,29-12.6,40.5c-8.4,11.5-20.1,20.3-35,26.4s-32.4,9.2-52.6,9.2c-17.8,0-33.9-2.3-48.2-6.9 c-14.3-4.6-26.8-10.8-37.5-18.7c-10.7-7.9-19.5-16.9-26.4-27.1l28.3-28.3c5.4,8.9,12.1,16.9,20.3,23.9c8.2,7,17.6,12.4,28.5,16.2 c10.8,3.8,22.9,5.7,36.1,5.7c11.7,0,21.8-1.4,30.4-4.2c8.5-2.8,15-6.9,19.5-12.4c4.5-5.5,6.7-12,6.7-19.7c0-7.4-2.5-13.9-7.5-19.5 c-5-5.6-14.2-9.9-27.7-13l-55.4-12.6c-15.3-3.3-27.9-8-37.8-14.1c-9.9-6.1-17.3-13.6-22.2-22.4c-4.8-8.8-7.3-18.7-7.3-29.6 c0-14.3,3.9-27.2,11.7-38.8c7.8-11.6,19-20.9,33.8-27.9C612.6,87.8,630.2,84.2,650.6,84.2z"></path> <path class="st0" d="M782.4,420.6V149.2h36.3l3.1,53.5l-5.4-6.5c3.1-9.9,7.8-18.7,14.1-26.4c6.4-7.6,14.3-13.6,23.9-18 c9.6-4.3,20.1-6.5,31.5-6.5c15.5,0,29.7,4,42.4,11.8c12.7,7.9,22.8,19.2,30.2,33.8c7.4,14.7,11.1,32.4,11.1,53.3 c0,20.9-3.8,38.8-11.3,53.7c-7.5,14.9-17.7,26.3-30.6,34.2c-12.9,7.9-27.2,11.8-43,11.8c-16.3,0-30.2-4.3-41.7-12.8 c-11.5-8.5-19.6-19.4-24.5-32.7l4.6-6.5v128.4H782.4z M876.1,310.9c16.6,0,29.5-5.9,38.8-17.6c9.3-11.7,14-27.9,14-48.5 c0-20.6-4.6-36.9-13.8-48.7c-9.2-11.8-21.9-17.8-38.2-17.8c-10.7,0-20.1,2.7-28.1,8.2c-8,5.5-14.3,13.1-18.7,22.9 c-4.5,9.8-6.7,21.6-6.7,35.4c0,13.5,2.2,25.2,6.5,35.2c4.3,9.9,10.4,17.6,18.3,22.9C856.1,308.2,865.4,310.9,876.1,310.9z"></path> <path class="st0" d="M1028.6,117.1c-8.9,0-15.7-2.2-20.4-6.7c-4.7-4.5-7.1-10.8-7.1-18.9c0-8.2,2.4-14.4,7.1-18.7 c4.7-4.3,11.5-6.5,20.4-6.5c8.7,0,15.3,2.2,20.1,6.5c4.7,4.3,7.1,10.6,7.1,18.7c0,8.2-2.4,14.5-7.1,18.9 C1043.9,114.9,1037.2,117.1,1028.6,117.1z M1048.8,149.2v191.1h-40.9V149.2H1048.8z"></path> <path class="st0" d="M1098.5,340.3V149.2h36.3l2.7,49.7l-5.4-5.4c3.6-11,8.7-20.1,15.5-27.3c6.7-7.3,14.8-12.5,24.1-15.9 c9.3-3.3,19.2-5,29.6-5c13.5,0,25.7,2.6,36.5,7.8c10.8,5.2,19.4,13.1,25.8,23.5c6.4,10.5,9.6,23.7,9.6,39.8v123.8h-40.9V229.1 c0-18.9-3.9-31.9-11.7-39.2c-7.8-7.3-17.5-10.9-29.2-10.9c-8.4,0-16.6,2-24.5,5.9c-7.9,4-14.5,10.3-19.7,18.9 c-5.2,8.7-7.8,20.3-7.8,34.8v101.7H1098.5z"></path> <path class="st0" d="M1405,344.2c-19.1,0-35.9-3.9-50.5-11.8c-14.5-7.9-25.8-19.3-33.8-34.2s-12-32.7-12-53.3 c0-20.6,4-38.4,12-53.3c8-14.9,19.2-26.3,33.4-34.2c14.3-7.9,30.4-11.8,48.5-11.8c18.6,0,34.4,3.8,47.4,11.5 c13,7.6,22.9,18.1,29.8,31.3c6.9,13.3,10.3,28.3,10.3,45.1c0,4.6-0.1,8.9-0.4,13c-0.3,4.1-0.6,7.6-1.1,10.7h-153.7v-31.3h135.7 l-20.3,6.1c0-17.3-4.3-30.6-13-39.9c-8.7-9.3-20.5-14-35.5-14c-11,0-20.5,2.6-28.7,7.6c-8.2,5.1-14.4,12.7-18.7,22.7 c-4.3,10.1-6.5,22.4-6.5,36.9c0,14.3,2.3,26.4,6.9,36.3c4.6,9.9,11.1,17.5,19.5,22.6c8.4,5.1,18.3,7.6,29.8,7.6 c12.7,0,23.1-2.4,31-7.3c7.9-4.8,14.1-11.6,18.7-20.3l32.5,15.3c-4.6,9.2-10.8,17.1-18.5,23.9c-7.8,6.8-17,11.9-27.7,15.5 S1417.8,344.2,1405,344.2z"></path> <path class="st0" d="M1600.4,344.2c-19.1,0-36.6-3.7-52.4-11.1c-15.8-7.4-28.3-17.8-37.5-31.3l28.3-24.5 c5.6,10.5,13.7,18.8,24.3,25c10.6,6.2,23.2,9.4,38,9.4c11.7,0,21-2,27.9-6.1c6.9-4.1,10.3-9.8,10.3-17.2c0-4.8-1.6-9.1-4.8-12.8 c-3.2-3.7-9.2-6.6-18.2-8.6l-40.1-8.4c-20.4-4.1-34.9-10.6-43.6-19.7c-8.7-9-13-20.6-13-34.6c0-10.4,3.1-20.1,9.2-29 c6.1-8.9,15.1-16.1,26.9-21.6c11.8-5.5,26.1-8.2,42.6-8.2c19.1,0,35.4,3.4,48.9,10.1c13.5,6.8,23.8,16.4,31,28.9l-28.3,23.7 c-4.8-10.2-12-17.8-21.4-22.7c-9.4-5-19.2-7.5-29.4-7.5c-8.2,0-15.2,1-21,3.1c-5.9,2-10.3,4.8-13.4,8.4c-3.1,3.6-4.6,7.8-4.6,12.6 c0,5.1,1.9,9.6,5.7,13.4s10.7,6.8,20.6,8.8l43.6,9.2c18.3,3.6,31.3,9.6,38.8,18.2c7.5,8.5,11.3,18.9,11.3,31.2s-3.2,23-9.6,32.3 c-6.4,9.3-15.5,16.5-27.5,21.6C1631.2,341.6,1616.9,344.2,1600.4,344.2z"></path> </g> <path class="st2" d="M86.5,17.5c20.3-7.4,42.3-5.2,63.4-5.6c23.8,0.4,47.7-0.9,71.5,0.8c-7.9,3.3-16.1,5.8-23.9,9.2 c-30.9,14.1-53.9,43.9-60,77.2c-3.6,23.7-1.3,49.1,10.3,70.5c13.4,27,39.3,47.4,68.7,54.2c4.2,1.1,8.4,2.2,12.6,3.6 c-34,0.7-68.1-0.1-102.1,0.4c-27.7,1.7-55.7-8.8-76.6-26.8C20.7,174.9,7,131.8,17.2,93.4C25.6,58.6,52.5,28.8,86.5,17.5z"></path> <path class="st2" d="M254.3,227.1c39,0.1,78.1-0.2,117.1,0.1c51.8,3.8,95.6,51.5,96.1,103.2c2.7,45.2-27.3,90.3-70.2,105.1 c-12.2,4.9-25.5,6.8-38.6,6.3c-34.8-0.2-69.7-0.1-104.6,0c10.2-3,20.7-5.4,30.4-9.9c28.3-13.1,49.8-39.4,57.9-69.4 c7.8-32,2.2-67.8-18.6-93.9C307.3,246,281.3,232.7,254.3,227.1z"></path> <linearGradient id="SVGID_1_" gradientUnits="userSpaceOnUse" x1="168.2239" y1="119.9086" x2="455.6567" y2="119.9086"> <stop offset="0" style="stop-color:#40C1AC"></stop> <stop offset="1" style="stop-color:#04DDA6"></stop> </linearGradient> <path class="st3" d="M171.7,97.9c8.4-29,36.4-52.3,67.2-51.7c72.2,0.1,144.5-0.4,216.8,0.3c-9,10.3-20.1,19.2-25.5,32.2 c-12.5,24.7-13.1,54.8-1,79.7c5.8,13.5,16.4,23.9,26.3,34.4c-67.9,1.9-135.8,0.3-203.6,0.9c-17.8,0.4-36.7-1.9-51.5-12.8 C174.1,163.3,161.7,127.9,171.7,97.9z"></path> <linearGradient id="SVGID_2_" gradientUnits="userSpaceOnUse" x1="14.7938" y1="334.4358" x2="313.5127" y2="334.4358"> <stop offset="0" style="stop-color:#04DDA6"></stop> <stop offset="1" style="stop-color:#40C1AC"></stop> </linearGradient> <path class="st4" d="M14.8,260.5c73-0.6,146.1,0.1,219.2-0.4c13.4-0.3,27.1,2.1,39.1,8.2c31.2,15.2,47.9,54.4,37,87.5 c-8.6,31.7-41,54.7-73.6,52.8c-73.9-0.5-147.9,0.3-221.8-0.4c4.7-5.2,10-9.7,15-14.7c25.4-28.7,29-74.1,8.6-106.5 C32.8,276.3,22.8,269.3,14.8,260.5z"></path> </svg>