<?xml version="1.0" encoding="UTF-8"?> <svg xmlns="http://www.w3.org/2000/svg" width="50" height="50" viewBox="0 0 50 50" fill="none"><path d="M33.147 2.51178C31.2872 1.82941 29.2429 1.82941 27.3831 2.51178L17.8351 6.01544C17.0917 6.28837 16.4503 6.7808 15.9973 7.42648C15.5443 8.07215 15.3014 8.84009 15.3012 9.62695V15.7738C17.0878 15.4901 18.9179 15.6682 20.615 16.291L30.1609 19.7946C31.3003 20.2128 32.258 20.9456 32.9497 21.8722C33.8904 21.684 34.8476 21.5897 35.8072 21.5905C39.4096 21.5905 42.7017 22.9021 45.2289 25.0721V9.62695C45.2288 8.84009 44.9858 8.07215 44.5328 7.42648C44.0798 6.7808 43.4384 6.28837 42.695 6.01544L33.147 2.51178ZM23.1046 13.2473C22.8982 13.1764 22.7078 13.066 22.5444 12.9221C22.381 12.7783 22.2478 12.6039 22.1523 12.409C22.0567 12.214 22.0008 12.0023 21.9877 11.7859C21.9747 11.5695 22.0046 11.3526 22.076 11.1477C22.1473 10.9428 22.2586 10.7538 22.4034 10.5916C22.5483 10.4294 22.724 10.2971 22.9204 10.2023C23.1167 10.1075 23.33 10.052 23.548 10.039C23.766 10.026 23.9844 10.0557 24.1908 10.1265L30.0833 12.1513C30.2003 12.1913 30.3276 12.1913 30.4446 12.1513L36.3193 10.1265C36.7362 9.98294 37.1934 10.0096 37.5905 10.2007C37.9875 10.3918 38.2918 10.7317 38.4364 11.1455C38.5811 11.5593 38.5542 12.0133 38.3617 12.4074C38.1692 12.8016 37.8269 13.1037 37.41 13.2473L31.5353 15.2698C30.7132 15.5523 29.8192 15.5523 28.997 15.2698L23.1046 13.2473ZM29.3938 21.859C29.8372 22.0218 30.2407 22.2617 30.5865 22.5588C28.2658 23.4556 26.2189 24.9342 24.6453 26.8504C24.4251 26.6627 24.1592 26.5355 23.8742 26.4814C23.5891 26.4274 23.2947 26.4483 23.0203 26.5423L16.9639 28.6308L10.8896 26.5445C10.4728 26.4015 10.0158 26.4287 9.61916 26.6202C9.22254 26.8117 8.9188 27.1518 8.77475 27.5656C8.6307 27.9795 8.65815 28.4332 8.85105 28.8269C9.04396 29.2206 9.38652 29.5222 9.80337 29.6652L15.3012 31.5513V37.4934C15.3012 37.9312 15.4764 38.351 15.7882 38.6606C16.1 38.9701 16.5229 39.144 16.9639 39.144C17.4048 39.144 17.8277 38.9701 18.1395 38.6606C18.4513 38.351 18.6265 37.9312 18.6265 37.4934V31.5513L22.5925 30.1868C21.8033 31.9888 21.3966 33.9329 21.3976 35.8978C21.3976 38.7589 22.2422 41.4218 23.6965 43.6534L19.8458 45.0685C17.986 45.7509 15.9417 45.7509 14.0819 45.0685L4.53388 41.5649C3.79012 41.2918 3.14852 40.799 2.69547 40.1529C2.24243 39.5068 1.99971 38.7384 2 37.9512V25.4727C2.00016 24.6858 2.24309 23.9179 2.69611 23.2722C3.14912 22.6265 3.79048 22.1341 4.53388 21.8612L14.0819 18.3553C15.9417 17.6729 17.986 17.6729 19.8458 18.3553L29.3938 21.859ZM48 35.8956C48 39.1059 46.7154 42.1847 44.4288 44.4547C42.1422 46.7247 39.041 48 35.8072 48C32.5735 48 29.4722 46.7247 27.1856 44.4547C24.899 42.1847 23.6145 39.1059 23.6145 35.8956C23.6145 32.6854 24.899 29.6066 27.1856 27.3365C29.4722 25.0665 32.5735 23.7913 35.8072 23.7913C39.041 23.7913 42.1422 25.0665 44.4288 27.3365C46.7154 29.6066 48 32.6854 48 35.8956ZM43.2426 30.7172C43.1396 30.6147 43.0173 30.5334 42.8827 30.4779C42.748 30.4224 42.6036 30.3939 42.4578 30.3939C42.312 30.3939 42.1677 30.4224 42.033 30.4779C41.8983 30.5334 41.776 30.6147 41.6731 30.7172L33.5904 38.7413L29.9414 35.1165C29.7333 34.9099 29.451 34.7938 29.1566 34.7938C28.8623 34.7938 28.58 34.9099 28.3719 35.1165C28.1637 35.3232 28.0468 35.6034 28.0468 35.8956C28.0468 36.1878 28.1637 36.4681 28.3719 36.6747L32.8056 41.0763C32.9086 41.1788 33.0309 41.2601 33.1655 41.3156C33.3002 41.371 33.4446 41.3996 33.5904 41.3996C33.7362 41.3996 33.8805 41.371 34.0152 41.3156C34.1499 41.2601 34.2722 41.1788 34.3751 41.0763L43.2426 32.2731C43.4504 32.0668 43.5671 31.7869 43.5671 31.4951C43.5671 31.2034 43.4504 30.9235 43.2426 30.7172Z" fill="white"></path></svg> 