<?xml version="1.0" encoding="UTF-8"?> <svg xmlns="http://www.w3.org/2000/svg" width="50" height="50" viewBox="0 0 50 50" fill="none"><path d="M23.0584 22.8601C23.7119 22.8601 24.2524 22.6457 24.6797 22.2169C25.107 21.788 25.3207 21.2457 25.3207 20.5898C25.3207 19.9339 25.107 19.3916 24.6797 18.9627C24.2524 18.5339 23.7119 18.3195 23.0584 18.3195C22.4048 18.3195 21.8644 18.5339 21.437 18.9627C21.0097 19.3916 20.796 19.9339 20.796 20.5898C20.796 21.2457 21.0097 21.788 21.437 22.2169C21.8644 22.6457 22.4048 22.8601 23.0584 22.8601Z" fill="url(#paint0_linear_4659_5515)"></path><path d="M27.5831 16.8059C28.2366 16.8059 28.7771 16.5915 29.2044 16.1627C29.6317 15.7338 29.8454 15.1915 29.8454 14.5356C29.8454 13.8797 29.6317 13.3373 29.2044 12.9085C28.7771 12.4797 28.2366 12.2652 27.5831 12.2652C26.9295 12.2652 26.389 12.4797 25.9617 12.9085C25.5344 13.3373 25.3207 13.8797 25.3207 14.5356C25.3207 15.1915 25.5344 15.7338 25.9617 16.1627C26.389 16.5915 26.9295 16.8059 27.5831 16.8059Z" fill="url(#paint1_linear_4659_5515)"></path><path fill-rule="evenodd" clip-rule="evenodd" d="M40.2793 40.1376C41.0017 39.0076 41.1833 37.6193 41.1833 36.2273V28.2149C40.0312 28.6818 38.7656 28.9149 37.3865 28.9144H34.5963C34.3701 28.9144 34.2132 28.9774 34.1257 29.1036C34.0383 29.2297 33.994 29.3684 33.993 29.5198C33.993 29.8225 34.1815 30.2579 34.5586 30.826C34.9357 31.3941 35.1242 32.0434 35.1242 32.7739C35.1242 34.0352 34.7788 34.9686 34.088 35.574C33.3973 36.1794 32.4858 36.4822 31.3536 36.4822C29.2924 36.4822 27.3442 36.0846 25.5092 35.2895C23.6742 34.4944 22.072 33.4096 20.7025 32.0353C19.333 30.661 18.2522 29.0531 17.4598 27.2116C16.6675 25.3701 16.2713 23.4151 16.2713 21.3466C16.2713 19.2528 16.6801 17.2852 17.4975 15.4437C18.315 13.6022 19.421 12.0004 20.8156 10.6382C22.2102 9.27597 23.8376 8.19781 25.6978 7.4037C27.5579 6.60958 29.5437 6.21202 31.6553 6.21101C33.5829 6.21101 35.4066 6.52994 37.1263 7.1678C37.2007 7.19538 37.2748 7.22356 37.3488 7.25234C38.7654 7.80335 40.0436 8.5209 41.1833 9.40501V6.11825C41.1833 4.54264 40.9673 2.81171 39.7693 1.55658C38.5508 0.279862 36.8082 3.04063e-06 35.113 3.04063e-06H11.8751L11.7982 9.72717e-07C10.4513 -2.53449e-05 9.31812 -4.83584e-05 8.39094 0.0764556C7.54307 0.146437 6.7311 0.288842 5.9551 0.624876L5.62396 0.780839C3.51085 1.86847 2.52125 3.6158 2.09514 5.40265C1.74738 6.86121 1.75522 8.46387 1.76143 9.73312C1.76222 9.89475 1.76298 10.051 1.76298 10.2008V46.051C1.76317 48.2186 3.50763 49.9999 5.68592 50H32.5929C34.1581 50 35.8808 49.7796 37.1263 48.5637C38.3841 47.3357 38.6571 45.5853 38.6571 43.8818V41.634C39.2828 41.2991 39.8438 40.8187 40.2793 40.1376ZM9.47477 42.3445H34.6V43.8818C34.6 45.3294 34.3234 45.6209 34.2973 45.6463C34.2572 45.6851 33.9592 45.9286 32.5929 45.9286H5.82305C5.85364 44.9861 6.23713 44.0914 6.89571 43.4261C7.58215 42.7327 8.50981 42.3446 9.47477 42.3445ZM11.477 36.4817H8.97112C8.2605 36.5 7.65273 35.9063 7.65273 35.1939L7.65273 18.8266H12.7954V35.1939C12.7954 35.9063 12.1876 36.5 11.477 36.4817ZM14.191 12.6615C14.191 13.6892 13.7731 14.6748 13.0291 15.4016C12.2852 16.1283 11.2762 16.5365 10.2241 16.5365C9.17195 16.5365 8.16293 16.1283 7.41898 15.4016C6.42704 14.4326 5.86978 13.1184 5.86978 11.7481C5.86978 10.3778 6.42704 9.06367 7.41898 8.09473C8.82152 6.7247 11.0282 5.99402 13.0291 6.26802C12.2437 7.03524 11.8042 8.72494 13.0291 9.92144C13.7731 10.6481 14.191 11.6338 14.191 12.6615Z" fill="url(#paint2_linear_4659_5515)"></path><path d="M35.1242 16.8059C35.7778 16.8059 36.3182 16.5915 36.7455 16.1627C36.9006 16.0071 37.0275 15.8365 37.1263 15.651C37.2998 15.3253 37.3865 14.9535 37.3865 14.5356C37.3865 14.1177 37.2998 13.7459 37.1263 13.4201C37.0275 13.2346 36.9006 13.0641 36.7455 12.9085C36.3182 12.4797 35.7778 12.2652 35.1242 12.2652C34.4706 12.2652 33.9302 12.4797 33.5028 12.9085C33.0755 13.3373 32.8618 13.8797 32.8618 14.5356C32.8618 15.1915 33.0755 15.7338 33.5028 16.1627C33.9302 16.5915 34.4706 16.8059 35.1242 16.8059Z" fill="url(#paint3_linear_4659_5515)"></path><path d="M41.2702 22.2169C41.6975 21.788 41.9112 21.2457 41.9112 20.5898C41.9112 19.9339 41.6975 19.3916 41.2702 18.9627C41.2418 18.9342 41.2128 18.9065 41.1833 18.8799C40.7704 18.5063 40.2589 18.3195 39.6489 18.3195C38.9953 18.3195 38.4549 18.5339 38.0275 18.9627C37.6002 19.3916 37.3865 19.9339 37.3865 20.5898C37.3865 21.2457 37.6002 21.788 38.0275 22.2169C38.4549 22.6457 38.9953 22.8601 39.6489 22.8601C40.2589 22.8601 40.7704 22.6733 41.1833 22.2997C41.2128 22.2731 41.2418 22.2454 41.2702 22.2169Z" fill="url(#paint4_linear_4659_5515)"></path><path d="M38.6429 5.07544C46.7076 8.85232 48.9541 15.8368 48.7468 20.0204L48.7194 20.4159C48.44 23.5002 47.4558 25.8999 45.8976 27.7217C44.3464 29.5353 42.3049 30.6852 40.0578 31.4118L38.6347 29.1753C40.7151 28.6534 42.8317 27.4615 44.0041 26.0907C45.1695 24.7282 45.9921 22.8462 46.2328 20.1896L46.2541 19.8828C46.4122 16.6206 44.6369 10.6484 37.5865 7.34659L38.6429 5.07544Z" fill="url(#paint5_linear_4659_5515)"></path><defs><linearGradient id="paint0_linear_4659_5515" x1="44.3424" y1="3.94636" x2="14.7914" y2="35.1776" gradientUnits="userSpaceOnUse"><stop stop-color="#29E8BD"></stop><stop offset="1" stop-color="#199887"></stop></linearGradient><linearGradient id="paint1_linear_4659_5515" x1="44.3424" y1="3.94636" x2="14.7914" y2="35.1776" gradientUnits="userSpaceOnUse"><stop stop-color="#29E8BD"></stop><stop offset="1" stop-color="#199887"></stop></linearGradient><linearGradient id="paint2_linear_4659_5515" x1="44.3424" y1="3.94636" x2="14.7914" y2="35.1776" gradientUnits="userSpaceOnUse"><stop stop-color="#29E8BD"></stop><stop offset="1" stop-color="#199887"></stop></linearGradient><linearGradient id="paint3_linear_4659_5515" x1="44.3424" y1="3.94636" x2="14.7914" y2="35.1776" gradientUnits="userSpaceOnUse"><stop stop-color="#29E8BD"></stop><stop offset="1" stop-color="#199887"></stop></linearGradient><linearGradient id="paint4_linear_4659_5515" x1="44.3424" y1="3.94636" x2="14.7914" y2="35.1776" gradientUnits="userSpaceOnUse"><stop stop-color="#29E8BD"></stop><stop offset="1" stop-color="#199887"></stop></linearGradient><linearGradient id="paint5_linear_4659_5515" x1="44.3424" y1="3.94636" x2="14.7914" y2="35.1776" gradientUnits="userSpaceOnUse"><stop stop-color="#29E8BD"></stop><stop offset="1" stop-color="#199887"></stop></linearGradient></defs></svg> 