<?xml version="1.0" encoding="UTF-8"?> <svg xmlns="http://www.w3.org/2000/svg" width="51" height="50" viewBox="0 0 51 50" fill="none"><path d="M33.6826 17.1944L34.5874 20.0725C34.8683 20.9482 35.3435 21.7438 35.9751 22.3957C36.6067 23.0476 37.3771 23.5377 38.2248 23.8267L41.0094 24.7619L41.064 24.778C41.2787 24.8561 41.4647 25.0013 41.5963 25.1933C41.7279 25.3854 41.7986 25.6149 41.7986 25.8502C41.7986 26.0856 41.7279 26.3151 41.5963 26.5072C41.4647 26.6992 41.2787 26.8443 41.064 26.9225L38.2794 27.8577C37.4317 28.1467 36.6613 28.6368 36.0297 29.2886C35.3981 29.9405 34.9229 30.7361 34.642 31.6118L33.7372 34.4873C33.6616 34.7092 33.5212 34.9015 33.3354 35.0375C33.1496 35.1735 32.9275 35.2465 32.6998 35.2465C32.4721 35.2465 32.2501 35.1735 32.0643 35.0375C31.8784 34.9015 31.738 34.7092 31.6624 34.4873L30.755 31.6118C30.4321 30.5947 29.848 29.6872 29.0651 28.9863C28.496 28.4761 27.8351 28.087 27.1203 27.8415L24.3357 26.9063C24.1209 26.8282 23.9349 26.6831 23.8033 26.491C23.6717 26.299 23.6011 26.0694 23.6011 25.8341C23.6011 25.5988 23.6717 25.3692 23.8033 25.1772C23.9349 24.9851 24.1209 24.84 24.3357 24.7619L27.1203 23.8267C27.9573 23.5298 28.7163 23.0363 29.3376 22.3848C29.9588 21.7334 30.4253 20.9419 30.7004 20.0725L31.6052 17.1971C31.6803 16.9742 31.8206 16.7809 32.0067 16.6442C32.1929 16.5074 32.4156 16.434 32.6439 16.434C32.8723 16.434 33.095 16.5074 33.2811 16.6442C33.4672 16.7809 33.6076 16.9715 33.6826 17.1944ZM46.4355 38.5102L44.4439 37.8437C43.8399 37.6352 43.291 37.2843 42.8407 36.8189C42.3904 36.3534 42.0509 35.7861 41.8492 35.1618L41.1992 33.106C41.1453 32.9472 41.0451 32.8097 40.9124 32.7124C40.7796 32.6151 40.6209 32.5629 40.4582 32.5629C40.2954 32.5629 40.1367 32.6151 40.004 32.7124C39.8712 32.8097 39.771 32.9472 39.7172 33.106L39.0724 35.1618C38.8743 35.7821 38.5404 36.3468 38.0966 36.812C37.6529 37.2772 37.1113 37.6302 36.514 37.8437L34.525 38.5102C34.4106 38.5523 34.3071 38.6212 34.2227 38.7116C34.1383 38.8019 34.0752 38.9112 34.0385 39.0309C34.0017 39.1506 33.9922 39.2775 34.0108 39.4016C34.0293 39.5257 34.0754 39.6437 34.1454 39.7463C34.239 39.8807 34.3716 39.9882 34.525 40.0419L36.514 40.7111C37.1201 40.92 37.6707 41.2722 38.1221 41.7396C38.5734 42.2071 38.9131 42.7769 39.114 43.4038L39.7588 45.4569C39.8126 45.6156 39.9128 45.7531 40.0456 45.8504C40.1783 45.9477 40.337 46 40.4998 46C40.6625 46 40.8212 45.9477 40.954 45.8504C41.0867 45.7531 41.1869 45.6156 41.2408 45.4569L41.8882 43.4038C42.0899 42.7787 42.4296 42.2106 42.8804 41.7447C43.3312 41.2787 43.8807 40.9276 44.4855 40.7191L46.4745 40.0527C46.6281 39.9971 46.7612 39.8935 46.8553 39.7563C46.9494 39.6191 47 39.455 47 39.2868C47 39.1186 46.9494 38.9546 46.8553 38.8174C46.7612 38.6801 46.6281 38.5766 46.4745 38.5209L46.4355 38.5102ZM20.9999 3V9.71829C20.9999 10.0746 21.1369 10.4164 21.3807 10.6684C21.6245 10.9204 21.9551 11.0619 22.2999 11.0619C22.6447 11.0619 22.9753 10.9204 23.2191 10.6684C23.4629 10.4164 23.5999 10.0746 23.5999 9.71829V3H26.1999V12.411C26.1999 12.7673 26.3368 13.1091 26.5806 13.3611C26.8244 13.6131 27.1551 13.7546 27.4999 13.7546C27.8446 13.7546 28.1753 13.6131 28.4191 13.3611C28.6629 13.1091 28.7999 12.7673 28.7999 12.411V3H32.6998C33.0446 3 33.3753 3.14156 33.6191 3.39355C33.8629 3.64553 33.9998 3.9873 33.9998 4.34366V14.018C33.5373 13.8298 33.0428 13.7398 32.5459 13.7534C32.049 13.767 31.5599 13.8838 31.1076 14.097C30.6553 14.3102 30.2492 14.6153 29.9135 14.9941C29.5778 15.373 29.3193 15.8179 29.1535 16.3022L29.1431 16.3345L28.2305 19.2394C28.0811 19.7112 27.8283 20.1409 27.4919 20.4952C27.1554 20.8494 26.7444 21.1186 26.2909 21.2818L24.7101 21.8112H8V4.34366C8 3.9873 8.13696 3.64553 8.38076 3.39355C8.62455 3.14156 8.95521 3 9.29999 3H20.9999ZM21.2339 24.4985H8V27.1966C8 28.622 8.54785 29.9891 9.52303 30.997C10.4982 32.005 11.8208 32.5712 13.2 32.5712H17.0999V41.9661C17.0999 43.0351 17.5108 44.0604 18.2422 44.8164C18.9736 45.5723 19.9656 45.997 20.9999 45.997C22.0342 45.997 23.0262 45.5723 23.7576 44.8164C24.489 44.0604 24.8999 43.0351 24.8999 41.9661V32.5658H28.3241L28.2877 32.4503V32.4449C28.1101 31.8905 27.7901 31.3964 27.3621 31.0153C27.0532 30.7379 26.6945 30.5261 26.3065 30.3918L23.4985 29.4512L23.4699 29.4378C23.0068 29.2688 22.5809 29.0063 22.217 28.6654C21.8531 28.3246 21.5585 27.9122 21.3504 27.4525C21.1423 26.9927 21.0248 26.4948 21.0048 25.9876C20.9848 25.4805 21.0627 24.9742 21.2339 24.4985Z" fill="white"></path></svg> 