<?xml version="1.0" encoding="UTF-8"?> <svg xmlns="http://www.w3.org/2000/svg" width="50" height="50" viewBox="0 0 50 50" fill="none"><path d="M18.9413 37.7779C18.9413 40.093 19.5726 42.2397 20.646 44.0917H4.20917C1.87308 44.0917 0 42.2186 0 39.8825V6.20917C0 5.09283 0.443465 4.02221 1.23284 3.23284C2.02221 2.44346 3.09283 2 4.20917 2H6.31375V16.7321L11.5752 13.5752L16.8367 16.7321V2H29.4642C30.5805 2 31.6511 2.44346 32.4405 3.23284C33.2299 4.02221 33.6733 5.09283 33.6733 6.20917V25.3398C32.9788 25.2346 32.2843 25.1504 31.5688 25.1504C24.6026 25.1504 18.9413 30.8118 18.9413 37.7779Z" fill="white"></path><path fill-rule="evenodd" clip-rule="evenodd" d="M41.8351 32.3442C41.9837 32.1958 42.1852 32.1124 42.3952 32.1124C42.6052 32.1124 42.8067 32.1958 42.9553 32.3442L42.9574 32.3463L42.9606 32.3484L42.968 32.3558L42.9891 32.377L43.0546 32.4499C43.1075 32.5101 43.1814 32.5957 43.267 32.7046C44.2435 33.9737 44.7729 35.5301 44.7729 37.1314C44.7729 38.7327 44.2435 40.289 43.267 41.5582C43.1785 41.6711 43.0854 41.7804 42.988 41.8858L42.9669 41.9069L42.9606 41.9143L42.9574 41.9164L42.9563 41.9175L42.4174 41.3806L42.9563 41.9196C42.8077 42.0683 42.606 42.1518 42.3957 42.1518C42.1855 42.1518 41.9838 42.0683 41.8351 41.9196C41.6864 41.7709 41.6029 41.5692 41.6029 41.359C41.6029 41.1487 41.6864 40.947 41.8351 40.7984L41.8341 40.7994L41.8319 40.8005L41.8372 40.7952L41.8721 40.7571C41.9059 40.7205 41.9549 40.6617 42.019 40.5807C42.6875 39.7079 43.0882 38.6598 43.1722 37.5636C43.2563 36.4674 43.0201 35.3704 42.4924 34.406C42.3547 34.1521 42.1963 33.91 42.019 33.6821C41.9616 33.6079 41.901 33.5363 41.8372 33.4676L41.8319 33.4623C41.6846 33.3133 41.6022 33.1121 41.6028 32.9026C41.6034 32.6931 41.6869 32.4923 41.8351 32.3442Z" fill="white"></path><path fill-rule="evenodd" clip-rule="evenodd" d="M45.0054 29.1739C45.154 29.0255 45.3555 28.9421 45.5655 28.9421C45.7755 28.9421 45.977 29.0255 46.1256 29.1739L46.1288 29.176L46.1319 29.1792L46.1414 29.1898C46.1873 29.2349 46.231 29.2822 46.2725 29.3314C46.356 29.4254 46.4712 29.5617 46.6064 29.7382C46.878 30.0901 47.2341 30.6079 47.5882 31.2811C48.2962 32.6274 49 34.6025 49 37.1314C49 39.6602 48.2962 41.6353 47.5882 42.9827C47.3061 43.5244 46.9776 44.0406 46.6064 44.5256C46.4604 44.7155 46.3052 44.8982 46.1414 45.073L46.1309 45.0836L46.1288 45.0867L46.1266 45.0878L45.5655 44.5288L46.1256 45.0888C45.9762 45.2333 45.776 45.3133 45.5682 45.3116C45.3604 45.3099 45.1616 45.2266 45.0145 45.0797C44.8675 44.9328 44.7841 44.7341 44.7822 44.5263C44.7803 44.3185 44.8601 44.1182 45.0044 43.9687L45.0192 43.9539L45.0857 43.8799C45.1484 43.8109 45.2365 43.7038 45.3499 43.5586C45.574 43.267 45.8783 42.8263 46.1848 42.244C46.7977 41.0816 47.4148 39.358 47.4148 37.1314C47.4148 34.9048 46.7977 33.1812 46.1848 32.0187C45.9442 31.5577 45.6649 31.1179 45.3499 30.7041C45.2451 30.5679 45.1347 30.4361 45.0192 30.3089L45.0044 30.2941C44.8559 30.1455 44.7726 29.944 44.7726 29.734C44.7726 29.524 44.857 29.3225 45.0054 29.1739ZM36.6221 28.5673C37.8511 27.7568 39.4891 28.6392 39.4891 30.1113V45.2083C39.4891 46.6814 37.8511 47.5627 36.6221 46.7522L30.2815 42.5727C30.2386 42.5441 30.1882 42.5286 30.1367 42.5283H27.0721C26.3013 42.5283 25.5621 42.2221 25.0171 41.6771C24.4721 41.1321 24.166 40.3929 24.166 39.6222V35.6973C24.166 35.3157 24.2411 34.9378 24.3872 34.5852C24.5332 34.2326 24.7473 33.9123 25.0171 33.6424C25.287 33.3726 25.6074 33.1585 25.9599 33.0124C26.3125 32.8664 26.6904 32.7912 27.0721 32.7912H30.1367C30.1885 32.7914 30.2392 32.7763 30.2825 32.7479L36.6221 28.5673Z" fill="white"></path></svg> 