<?xml version="1.0" encoding="UTF-8"?> <svg xmlns="http://www.w3.org/2000/svg" width="55" height="50" viewBox="0 0 55 50" fill="none"><g clip-path="url(#clip0_4659_5402)"><path d="M40.5012 35.6711L38 38.2528L45.5 46L53 38.2528L50.4988 35.6711L45.5 40.8364L40.5012 35.6711ZM50.4988 14.3289L53 11.7472L45.5 4L38 11.7472L40.5012 14.3289L45.5 9.16538L50.4988 14.3289Z" fill="white"></path><path fill-rule="evenodd" clip-rule="evenodd" d="M45.5 19.5224C46.9064 19.5224 48.2552 20.0995 49.2497 21.1268C50.2442 22.154 50.8029 23.5473 50.8029 25C50.8029 26.4528 50.2442 27.846 49.2497 28.8733C48.2552 29.9005 46.9064 30.4776 45.5 30.4776C44.0936 30.4776 42.7448 29.9005 41.7503 28.8733C40.7559 27.846 40.1972 26.4528 40.1972 25C40.1972 23.5473 40.7559 22.154 41.7503 21.1268C42.7448 20.0995 44.0936 19.5224 45.5 19.5224ZM45.5 23.1741C45.9688 23.1741 46.4184 23.3665 46.7499 23.7089C47.0814 24.0513 47.2676 24.5158 47.2676 25C47.2676 25.4843 47.0814 25.9487 46.7499 26.2911C46.4184 26.6335 45.9688 26.8259 45.5 26.8259C45.0312 26.8259 44.5816 26.6335 44.2501 26.2911C43.9186 25.9487 43.7324 25.4843 43.7324 25C43.7324 24.5158 43.9186 24.0513 44.2501 23.7089C44.5816 23.3665 45.0312 23.1741 45.5 23.1741Z" fill="white"></path><path d="M8.05507 39.375C7.66672 39.375 7.29427 39.5264 7.01966 39.796C6.74506 40.0656 6.59078 40.4313 6.59078 40.8125C6.59078 41.1937 6.74506 41.5594 7.01966 41.829C7.29427 42.0986 7.66672 42.25 8.05507 42.25H34.8736V39.375H8.05507Z" fill="white"></path><path fill-rule="evenodd" clip-rule="evenodd" d="M8.05214 45.125C6.88708 45.125 5.76974 44.6707 4.94592 43.8619C4.1221 43.0531 3.65928 41.9562 3.65928 40.8125C3.65928 39.6688 4.1221 38.5719 4.94592 37.7631C5.76974 36.9543 6.88708 36.5 8.05214 36.5H34.8736V2H6.58786C3.36643 2 0.730713 4.5875 0.730713 7.75V42.25C0.730713 45.4125 3.36643 48 6.58786 48H34.7307V45.125H8.05214ZM18.7297 10C15.363 10 12.6672 11.5094 10.7047 13.3059C8.75467 15.0859 7.4505 17.2187 6.83384 18.683C6.69634 19.007 6.69634 19.368 6.83384 19.692C7.4505 21.1562 8.75467 23.2891 10.7047 25.0691C12.6672 26.8656 15.363 28.375 18.7297 28.375C22.0963 28.375 24.7922 26.8656 26.7547 25.0691C28.7047 23.285 30.0088 21.1562 30.6297 19.692C30.7672 19.368 30.7672 19.007 30.6297 18.683C30.0088 17.2187 28.7047 15.0859 26.7547 13.3059C24.7922 11.5094 22.0963 10 18.7297 10ZM14.487 15.0112C13.3618 16.1188 12.7297 17.6211 12.7297 19.1875C12.7297 20.7539 13.3618 22.2562 14.487 23.3638C15.6122 24.4715 17.1384 25.0938 18.7297 25.0938C20.321 25.0938 21.8471 24.4715 22.9723 23.3638C24.0975 22.2562 24.7297 20.7539 24.7297 19.1875C24.7297 17.6211 24.0975 16.1188 22.9723 15.0112C21.8471 13.9035 20.321 13.2812 18.7297 13.2812C17.1384 13.2813 15.6122 13.9035 14.487 15.0112ZM16.063 19.1875C17.5338 19.1875 18.7297 18.0104 18.7297 16.5625C18.7297 16.2713 18.6797 15.9924 18.5922 15.7299C18.5172 15.5002 18.6588 15.2418 18.9005 15.25C20.6005 15.3197 22.1297 16.4641 22.5922 18.1662C23.163 20.2662 21.8963 22.4277 19.763 22.9896C17.6297 23.5516 15.4338 22.3047 14.863 20.2047C14.7838 19.9217 14.7422 19.6387 14.7297 19.3557C14.7213 19.1178 14.988 18.9783 15.2172 19.0521C15.4838 19.1383 15.7672 19.1875 16.063 19.1875Z" fill="white"></path></g><defs><clipPath id="clip0_4659_5402"><rect width="54" height="50" fill="white" transform="translate(0.576904)"></rect></clipPath></defs></svg> 