<?xml version="1.0" encoding="UTF-8"?> <svg xmlns="http://www.w3.org/2000/svg" width="50" height="50" viewBox="0 0 50 50" fill="none"><path d="M36.2381 0.754552L37.1734 3.6104C37.4638 4.47932 37.9551 5.26878 38.608 5.91562C39.2609 6.56246 40.0574 7.04873 40.9337 7.33553L43.8123 8.26348L43.8688 8.27948C44.0908 8.35702 44.2831 8.50101 44.4191 8.69158C44.5551 8.88215 44.6282 9.10991 44.6282 9.34342C44.6282 9.57693 44.5551 9.80469 44.4191 9.99526C44.2831 10.1858 44.0908 10.3298 43.8688 10.4074L40.9901 11.3353C40.1138 11.6221 39.3174 12.1084 38.6644 12.7552C38.0115 13.4021 37.5202 14.1915 37.2299 15.0604L36.2945 17.9136C36.2163 18.1339 36.0712 18.3247 35.8791 18.4596C35.687 18.5946 35.4574 18.667 35.2221 18.667C34.9867 18.667 34.7571 18.5946 34.565 18.4596C34.3729 18.3247 34.2278 18.1339 34.1496 17.9136L33.2116 15.0604C32.9235 14.1896 32.4338 13.3978 31.7817 12.7486C31.1291 12.0981 30.3319 11.6086 29.454 11.3193L26.5754 10.3914C26.3533 10.3138 26.161 10.1698 26.025 9.97926C25.889 9.78869 25.8159 9.56094 25.8159 9.32742C25.8159 9.09391 25.889 8.86615 26.025 8.67558C26.161 8.48501 26.3533 8.34102 26.5754 8.26348L29.454 7.33553C30.3194 7.04097 31.104 6.55123 31.7462 5.90484C32.3884 5.25845 32.8707 4.47304 33.1551 3.6104L34.0905 0.757218C34.1681 0.536026 34.3132 0.344281 34.5056 0.208592C34.698 0.0729032 34.9282 0 35.1643 0C35.4004 0 35.6306 0.0729032 35.823 0.208592C36.0154 0.344281 36.1605 0.53336 36.2381 0.754552ZM49.4218 21.9054L47.3629 21.2441C46.7382 21.0369 46.1706 20.6884 45.705 20.226C45.2395 19.7637 44.8887 19.2003 44.6805 18.5803L44.0085 16.543C43.9529 16.3855 43.8493 16.2491 43.712 16.1525C43.5748 16.056 43.4107 16.0041 43.2425 16.0041C43.0743 16.0041 42.9102 16.056 42.773 16.1525C42.6357 16.2491 42.5321 16.3855 42.4765 16.543L41.8099 18.5803C41.6055 19.1963 41.2604 19.7572 40.8017 20.2192C40.3429 20.6813 39.7829 21.032 39.1651 21.2441L37.1089 21.9054C36.9514 21.9618 36.8152 22.0651 36.7189 22.2011C36.6227 22.3371 36.571 22.4992 36.571 22.6654C36.571 22.8315 36.6227 22.9937 36.7189 23.1297C36.8152 23.2657 36.9514 23.3689 37.1089 23.4253L39.1651 24.0893C39.7917 24.2966 40.3609 24.646 40.8275 25.1099C41.2941 25.5737 41.6452 26.1391 41.8529 26.7611L42.5195 28.7984C42.5751 28.9559 42.6787 29.0923 42.816 29.1889C42.9532 29.2854 43.1173 29.3373 43.2855 29.3373C43.4537 29.3373 43.6178 29.2854 43.7551 29.1889C43.8923 29.0923 43.9959 28.9559 44.0515 28.7984L44.7208 26.7611C44.9293 26.1409 45.2805 25.5772 45.7465 25.1149C46.2126 24.6525 46.7807 24.3041 47.4059 24.0973L49.4621 23.436C49.6197 23.3796 49.7558 23.2763 49.8521 23.1403C49.9484 23.0043 50 22.8422 50 22.676C50 22.5099 49.9484 22.3477 49.8521 22.2117C49.7558 22.0757 49.6197 21.9725 49.4621 21.9161L49.4218 21.9054ZM12.3756 5.33564H26.9705L25.6803 5.74628C24.9309 6.00285 24.2815 6.48612 23.8234 7.12805C23.3654 7.76999 23.1218 8.53827 23.1269 9.32476C23.1269 10.1247 23.3688 10.874 23.8257 11.514C24.2827 12.1539 24.9277 12.6632 25.7341 12.9299L28.5885 13.8632C28.9917 13.9992 29.368 14.2125 29.8518 14.6391C30.1475 14.9325 30.3894 15.2791 30.6313 15.8951L30.7979 16.3937C30.6731 16.2695 30.5248 16.1709 30.3615 16.1037C30.1983 16.0364 30.0232 16.0018 29.8464 16.0017H15.3835C15.0271 16.0017 14.6853 16.1422 14.4333 16.3922C14.1812 16.6423 14.0396 16.9814 14.0396 17.335C14.0396 17.6886 14.1812 18.0277 14.4333 18.2777C14.6853 18.5278 15.0271 18.6683 15.3835 18.6683H29.8464C30.169 18.6685 30.4809 18.5536 30.7252 18.3445C30.9695 18.1355 31.1298 17.8463 31.1769 17.5296L31.6016 18.8069C31.8435 19.4735 32.2735 20.0868 32.9992 20.6495C33.3755 20.9161 33.7787 21.1028 34.2088 21.2094C33.9937 21.6628 33.8862 22.1721 33.8862 22.6787C33.8862 23.3987 34.1012 24.0946 34.5313 24.6839C34.964 25.2706 35.5554 25.6972 36.2811 25.9639L38.3265 26.6305C38.5415 26.7105 38.7565 26.8438 38.9178 27.0038C39.0791 27.1398 39.1785 27.3131 39.2538 27.4891V42.667C39.2538 44.0814 38.6874 45.4378 37.6793 46.438C36.6712 47.4381 35.3039 48 33.8782 48H12.3756C10.9499 48 9.58261 47.4381 8.57449 46.438C7.56636 45.4378 7 44.0814 7 42.667V10.6687C7 9.25427 7.56636 7.89779 8.57449 6.89765C9.58261 5.89751 10.9499 5.33564 12.3756 5.33564ZM14.0396 36.0006C14.0396 36.3542 14.1812 36.6934 14.4333 36.9434C14.6853 37.1934 15.0271 37.3339 15.3835 37.3339H29.8464C30.2029 37.3339 30.5447 37.1934 30.7967 36.9434C31.0488 36.6934 31.1903 36.3542 31.1903 36.0006C31.1903 35.647 31.0488 35.3079 30.7967 35.0579C30.5447 34.8079 30.2029 34.6674 29.8464 34.6674H15.3835C15.0271 34.6674 14.6853 34.8079 14.4333 35.0579C14.1812 35.3079 14.0396 35.647 14.0396 36.0006ZM29.8464 25.3346H15.3835C15.0271 25.3346 14.6853 25.475 14.4333 25.7251C14.1812 25.9751 14.0396 26.3142 14.0396 26.6678C14.0396 27.0214 14.1812 27.3605 14.4333 27.6106C14.6853 27.8606 15.0271 28.0011 15.3835 28.0011H29.8464C30.2029 28.0011 30.5447 27.8606 30.7967 27.6106C31.0488 27.3605 31.1903 27.0214 31.1903 26.6678C31.1903 26.3142 31.0488 25.9751 30.7967 25.7251C30.5447 25.475 30.2029 25.3346 29.8464 25.3346Z" fill="white"></path></svg> 