<?xml version="1.0" encoding="UTF-8"?> <svg xmlns="http://www.w3.org/2000/svg" width="47" height="47" viewBox="0 0 47 47" fill="none"><path d="M32.6411 10.1478C32.6411 9.04933 31.6869 7.94862 30.4419 7.94861H25.3687C24.7148 7.94861 24.1851 7.41885 24.1851 6.76501C24.1851 6.11119 24.7148 5.58143 25.3687 5.58142H30.4429C33.1143 5.58172 35.0083 7.86404 35.0083 10.1478C35.0081 10.8015 34.4784 11.3314 33.8247 11.3314C33.1711 11.3313 32.6413 10.8015 32.6411 10.1478Z" fill="white"></path><path d="M4.94327 46.2274C3.58512 46.2274 2.4217 45.7845 1.45302 44.8988C0.48434 44.0114 0 42.9145 0 41.608V8.81572C0 7.54198 0.441067 6.42541 1.3232 5.46601C2.20533 4.50661 3.29218 3.8943 4.58376 3.62907L21.6305 0.100089C22.8805 -0.1635 24.0048 0.0935403 25.0034 0.87121C26.0021 1.64888 26.5014 2.67377 26.5014 3.94587V31.7627C26.5014 32.6992 26.1993 33.526 25.5951 34.2431C24.991 34.9602 24.2337 35.4202 23.3232 35.6232L4.38403 39.6777C3.88138 39.7924 3.44115 40.0183 3.06333 40.3556C2.68551 40.6928 2.4966 41.1111 2.4966 41.6105C2.4966 42.249 2.7396 42.7688 3.22561 43.1699C3.71161 43.571 4.285 43.7716 4.94576 43.7716H30.9204C31.3681 43.7716 31.7359 43.6299 32.0239 43.3467C32.3118 43.0635 32.4558 42.7008 32.4558 42.2588V42.3472C32.4558 41.9985 32.5748 41.7062 32.8128 41.4705C33.0508 41.2347 33.3479 41.1177 33.7041 41.1193C34.0603 41.1209 34.3574 41.238 34.5954 41.4705C34.8334 41.703 34.9524 41.9952 34.9524 42.3472V42.2613C34.9524 43.3582 34.5596 44.2938 33.774 45.0682C32.9884 45.841 32.0372 46.2274 30.9204 46.2274H4.94327ZM7.46234 36.5564C7.75694 36.4959 7.99494 36.3583 8.17636 36.1439C8.35778 35.9294 8.44933 35.6781 8.45099 35.3899V6.85845C8.45099 6.45897 8.30119 6.13972 8.0016 5.90069C7.70201 5.66166 7.34916 5.59207 6.94304 5.69194C6.64845 5.75252 6.4096 5.89005 6.22652 6.10452C6.04344 6.31735 5.95189 6.56866 5.95189 6.85845V35.3899C5.95189 35.7894 6.10169 36.1087 6.40128 36.3477C6.70087 36.5867 7.05622 36.6563 7.46234 36.5564Z" fill="white"></path><path d="M43.8124 12.4025H33.0795C31.559 12.4025 30.3149 13.5916 30.3149 15.045V37.9473C30.3149 39.4007 31.559 40.5899 33.0795 40.5899H43.8124C45.3329 40.5899 46.5769 39.4007 46.5769 37.9473V15.045C46.5769 13.5916 45.3329 12.4025 43.8124 12.4025ZM34.7599 13.7238H42.132V14.6046H34.7599V13.7238ZM38.4459 38.8282C37.9571 38.8282 37.4883 38.6426 37.1427 38.3122C36.7971 37.9818 36.6029 37.5337 36.6029 37.0665C36.6029 36.5992 36.7971 36.1511 37.1427 35.8207C37.4883 35.4904 37.9571 35.3047 38.4459 35.3047C38.9347 35.3047 39.4035 35.4904 39.7491 35.8207C40.0948 36.1511 40.289 36.5992 40.289 37.0665C40.289 37.5337 40.0948 37.9818 39.7491 38.3122C39.4035 38.6426 38.9347 38.8282 38.4459 38.8282ZM44.7339 33.543H32.158V15.9259H44.7339V33.543Z" fill="white"></path><rect x="33.5674" y="17.8231" width="9.75718" height="1.08413" fill="white"></rect><rect x="33.5674" y="19.9914" width="9.75718" height="1.08413" fill="white"></rect><rect x="33.5674" y="22.1597" width="7.58892" height="1.08413" fill="white"></rect><rect x="33.5674" y="25.4121" width="9.75718" height="1.08413" fill="white"></rect><rect x="33.5674" y="27.5804" width="9.75718" height="1.08413" fill="white"></rect><rect x="33.5674" y="29.7486" width="5.42066" height="1.08413" fill="white"></rect></svg> 