<?xml version="1.0" encoding="UTF-8"?> <svg xmlns="http://www.w3.org/2000/svg" width="61" height="50" viewBox="0 0 61 50" fill="none"><g clip-path="url(#clip0_4659_5611)"><path fill-rule="evenodd" clip-rule="evenodd" d="M18.2673 44.2756H19.2792V47.1528C19.2792 49.1458 20.2317 50 22.0785 50H38.6564C40.5176 50 41.4556 49.1458 41.4556 47.1528V44.2756H42.4819L42.7443 44.2711C44.662 44.2074 45.9332 43.4351 46.4989 41.9591C46.5845 41.7357 46.6539 41.4963 46.707 41.2408C46.7774 40.9019 46.819 40.5347 46.8314 40.1393L46.8353 39.8849V27.6867C46.8353 24.7647 45.3256 23.2813 42.4825 23.2813H18.2673C15.5556 23.2813 13.8996 24.7647 13.8996 27.6867V39.8849L13.9035 40.1391C13.9159 40.5346 13.9575 40.9019 14.028 41.2408C14.0805 41.4933 14.1489 41.7301 14.2333 41.9512C14.7981 43.4322 16.0728 44.2072 18.0031 44.2711L18.2673 44.2756ZM22.8114 47.7526C22.0347 47.7526 21.6388 47.3625 21.6388 46.5537V34.8197C21.6388 34.7204 21.645 34.6275 21.6573 34.5408C21.6699 34.4528 21.6888 34.3713 21.714 34.2962C21.85 33.8907 22.1703 33.6732 22.6699 33.6397L22.6832 33.6393C22.7247 33.6368 22.7675 33.6356 22.8114 33.6356H37.9384C37.9834 33.6356 38.027 33.6368 38.0693 33.6393L38.0815 33.6397C38.5292 33.6692 38.8221 33.8426 38.9732 34.1628C38.9916 34.2017 39.0078 34.2428 39.022 34.286C39.0717 34.4372 39.096 34.615 39.096 34.8197V46.5537C39.096 47.3625 38.7296 47.7519 37.9378 47.7519L22.8114 47.7526Z" fill="url(#paint0_linear_4659_5611)"></path><path d="M41.031 21.2877V21.0332C41.031 18.9517 39.5607 17.953 37.406 17.8375L32.0128 17.8261H23.7639C21.5069 17.8261 19.7039 18.8152 19.7039 21.0332L19.7051 21.2877H41.031Z" fill="url(#paint1_linear_4659_5611)"></path><path d="M25.3618 39.0307H35.4025C35.4925 39.0322 35.5821 39.0194 35.6682 38.9936L35.7525 38.964C35.8636 38.918 35.9646 38.8497 36.0493 38.763C36.1341 38.6763 36.201 38.5731 36.246 38.4595C36.2909 38.3459 36.3131 38.2242 36.3112 38.1017C36.311 37.602 35.9301 37.2031 35.4317 37.188L35.4025 37.1873H25.3624C25.0995 37.1873 24.873 37.2878 24.7119 37.4516C24.5497 37.6167 24.4538 37.8461 24.4537 38.1017C24.4537 38.3638 24.5489 38.5961 24.71 38.7628C24.8513 38.909 25.0433 39.0048 25.2662 39.0262L25.3618 39.0307Z" fill="url(#paint2_linear_4659_5611)"></path><path d="M35.4031 44.2609C35.9159 44.2609 36.3118 43.8708 36.3118 43.3613C36.3118 43.3285 36.3102 43.2961 36.3072 43.2643C36.2648 42.8183 35.9328 42.4675 35.4981 42.4226L35.4031 42.4175H25.3624L25.2648 42.4226C24.8261 42.467 24.5077 42.809 24.4599 43.2464C24.4558 43.284 24.4537 43.3224 24.4537 43.3613C24.4537 43.616 24.5491 43.841 24.7104 44.0022C24.8518 44.1435 25.0429 44.2359 25.2658 44.2565L25.3624 44.2609H35.4031Z" fill="url(#paint3_linear_4659_5611)"></path><path fill-rule="evenodd" clip-rule="evenodd" d="M2.54855 41.2408C1.97008 41.2408 1.41531 41.0055 1.00627 40.5866C0.597228 40.1678 0.367432 39.5997 0.367432 39.0074V2.23341C0.367432 1.64108 0.597228 1.073 1.00627 0.654153C1.41531 0.235306 1.97008 0 2.54855 0H19.9975C22.3114 0 24.5305 0.941222 26.1667 2.61661C27.8028 4.29199 28.722 6.56431 28.722 8.93366V14.6087H23.7635C22.2385 14.6088 20.4966 14.9335 19.0437 15.9734C17.6556 16.9669 16.773 18.4499 16.565 20.215C15.2215 20.4616 13.919 21.0319 12.8496 22.0772C11.3127 23.5796 10.7123 25.6154 10.7123 27.6867V39.8849C10.7123 40.3359 10.7389 40.7901 10.7981 41.2408H2.54855ZM23.3674 7H6.36743C5.81515 7 5.36743 7.44772 5.36743 8C5.36743 8.55228 5.81515 9 6.36743 9H23.3674C23.9197 9 24.3674 8.55228 24.3674 8C24.3674 7.44772 23.9197 7 23.3674 7ZM14.3674 13H6.36743C5.81515 13 5.36743 13.4477 5.36743 14C5.36743 14.5523 5.81515 15 6.36743 15H14.3674C14.9197 15 15.3674 14.5523 15.3674 14C15.3674 13.4477 14.9197 13 14.3674 13ZM10.3674 19H6.36743C5.81515 19 5.36743 19.4477 5.36743 20C5.36743 20.5523 5.81515 21 6.36743 21H10.3674C10.9197 21 11.3674 20.5523 11.3674 20C11.3674 19.4477 10.9197 19 10.3674 19Z" fill="url(#paint4_linear_4659_5611)"></path><path fill-rule="evenodd" clip-rule="evenodd" d="M60.3674 39.0074V2.23341C60.3674 1.64108 60.1376 1.073 59.7286 0.654153C59.3196 0.235306 58.7648 0 58.1863 0H40.7373C38.4234 0 36.2043 0.941222 34.5682 2.61661C32.932 4.29199 32.0128 6.56431 32.0128 8.93366V14.6087H36.9714C38.5292 14.6087 40.3028 14.9197 41.769 15.9933C43.1675 17.0174 43.9726 18.5082 44.1688 20.2046C45.549 20.4445 46.8875 21.0168 47.9735 22.1076C49.5027 23.6437 50.0226 25.6951 50.0226 27.6867V39.8849C50.0226 40.336 49.9959 40.7902 49.9367 41.2408H58.1863C58.7648 41.2408 59.3196 41.0055 59.7286 40.5866C60.1376 40.1678 60.3674 39.5997 60.3674 39.0074ZM40.3674 7H54.3674C54.9197 7 55.3674 7.44772 55.3674 8C55.3674 8.55228 54.9197 9 54.3674 9H40.3674C39.8151 9 39.3674 8.55228 39.3674 8C39.3674 7.44772 39.8151 7 40.3674 7ZM46.3674 13H54.3674C54.9197 13 55.3674 13.4477 55.3674 14C55.3674 14.5523 54.9197 15 54.3674 15H46.3674C45.8151 15 45.3674 14.5523 45.3674 14C45.3674 13.4477 45.8151 13 46.3674 13Z" fill="url(#paint5_linear_4659_5611)"></path></g><defs><linearGradient id="paint0_linear_4659_5611" x1="54.7283" y1="3.94636" x2="26.4117" y2="42.1507" gradientUnits="userSpaceOnUse"><stop stop-color="#29E8BD"></stop><stop offset="1" stop-color="#199887"></stop></linearGradient><linearGradient id="paint1_linear_4659_5611" x1="54.7283" y1="3.94636" x2="26.4117" y2="42.1507" gradientUnits="userSpaceOnUse"><stop stop-color="#29E8BD"></stop><stop offset="1" stop-color="#199887"></stop></linearGradient><linearGradient id="paint2_linear_4659_5611" x1="54.7283" y1="3.94636" x2="26.4117" y2="42.1507" gradientUnits="userSpaceOnUse"><stop stop-color="#29E8BD"></stop><stop offset="1" stop-color="#199887"></stop></linearGradient><linearGradient id="paint3_linear_4659_5611" x1="54.7283" y1="3.94636" x2="26.4117" y2="42.1507" gradientUnits="userSpaceOnUse"><stop stop-color="#29E8BD"></stop><stop offset="1" stop-color="#199887"></stop></linearGradient><linearGradient id="paint4_linear_4659_5611" x1="54.7283" y1="3.94636" x2="26.4117" y2="42.1507" gradientUnits="userSpaceOnUse"><stop stop-color="#29E8BD"></stop><stop offset="1" stop-color="#199887"></stop></linearGradient><linearGradient id="paint5_linear_4659_5611" x1="54.7283" y1="3.94636" x2="26.4117" y2="42.1507" gradientUnits="userSpaceOnUse"><stop stop-color="#29E8BD"></stop><stop offset="1" stop-color="#199887"></stop></linearGradient><clipPath id="clip0_4659_5611"><rect width="60" height="50" fill="white" transform="translate(0.183716)"></rect></clipPath></defs></svg> 