<?xml version="1.0" encoding="UTF-8"?> <svg xmlns="http://www.w3.org/2000/svg" width="50" height="50" viewBox="0 0 50 50" fill="none"><path d="M8.88372 47H34.9628C36.258 47 37.5002 46.4849 38.4161 45.5681C39.332 44.6512 39.8465 43.4077 39.8465 42.1111V27.4444H35.9395V32.3333L26.1721 25L35.9395 17.6667V22.5556H39.8465V7.88889C39.8465 6.59227 39.332 5.34877 38.4161 4.43192C37.5002 3.51508 36.258 3 34.9628 3H8.88372C7.58848 3 6.34628 3.51508 5.43041 4.43192C4.51453 5.34877 4 6.59227 4 7.88889V42.1111C4 43.4077 4.51453 44.6512 5.43041 45.5681C6.34628 46.4849 7.58848 47 8.88372 47ZM10.0558 32.3333H18.6512V37.2222H10.0558V32.3333ZM10.0558 22.5556H23.6326V27.4444H10.0558V22.5556ZM10.0558 12.7778H23.6326V17.6667H10.0558V12.7778ZM39.8465 22.5556H46V27.4444H39.8465V22.5556Z" fill="white"></path></svg> 