<?xml version="1.0" encoding="UTF-8"?> <svg xmlns="http://www.w3.org/2000/svg" width="60" height="50" viewBox="0 0 60 50" fill="none"><g clip-path="url(#clip0_4659_5535)"><path d="M47.2066 30.5943C47.5187 30.5943 47.8298 30.5849 48.1401 30.5662C47.9936 30.9806 47.8089 31.3802 47.5883 31.7598L37.9387 48.3487C37.5097 49.087 36.8489 49.6601 36.0606 49.9775V30.218C36.607 29.9002 37.0303 29.4048 37.2611 28.8131C37.4919 28.2213 37.5166 27.5681 37.3312 26.9603C40.0924 29.3115 43.5918 30.5992 47.2066 30.5943Z" fill="url(#paint0_linear_4659_5535)"></path><path fill-rule="evenodd" clip-rule="evenodd" d="M51.1081 25.5319L51.2163 25.5225C51.1811 25.5287 51.145 25.5319 51.1081 25.5319Z" fill="url(#paint1_linear_4659_5535)"></path><path d="M49.9778 12.7656C49.9777 12.3534 49.8166 11.9721 49.553 11.7021C49.3245 11.4681 49.0368 11.3346 48.7425 11.3047L48.6155 11.2979C48.2782 11.2979 47.9392 11.4346 47.678 11.7021C47.4474 11.9385 47.2963 12.2603 47.262 12.6133L47.2542 12.7656C47.2542 13.178 47.4144 13.56 47.678 13.8301C47.9392 14.0976 48.2782 14.2343 48.6155 14.2344C48.9529 14.2344 49.2918 14.0975 49.553 13.8301C49.7837 13.5938 49.9357 13.2719 49.97 12.9189L49.9778 12.7656Z" fill="url(#paint2_linear_4659_5535)"></path><path fill-rule="evenodd" clip-rule="evenodd" d="M1.18369 10V45C1.18369 47.7614 3.42226 50 6.18369 50H26.8325C26.8036 49.9529 26.7752 49.9053 26.7473 49.8574L17.097 33.2686C16.2785 31.8609 15.8149 30.2735 15.7444 28.6465C15.6739 27.0194 15.9985 25.3983 16.6917 23.9248L19.2278 18.5283C18.7223 18.2244 18.2518 17.8573 17.8294 17.4316C16.4856 16.0773 15.7346 14.2452 15.7346 12.3398V6.72363C15.7346 6.12663 15.8556 5.54082 16.0849 5H6.18369C3.42226 5 1.18369 7.23858 1.18369 10ZM13.3334 10H6.83336C6.37313 10 6.00003 10.363 6.00003 10.8108V12.4324C6.00003 12.8802 6.37313 13.2432 6.83336 13.2432H13.3334C13.7936 13.2432 14.1667 12.8802 14.1667 12.4324V10.8108C14.1667 10.363 13.7936 10 13.3334 10ZM13.3334 18.1081H6.83336C6.37313 18.1081 6.00003 18.4711 6.00003 18.9189V20.5405C6.00003 20.9883 6.37313 21.3514 6.83336 21.3514H13.3334C13.7936 21.3514 14.1667 20.9883 14.1667 20.5405V18.9189C14.1667 18.4711 13.7936 18.1081 13.3334 18.1081ZM11.6667 26.2162H6.83336C6.37313 26.2162 6.00003 26.5792 6.00003 27.027V28.6487C6.00003 29.0964 6.37313 29.4595 6.83336 29.4595H11.6667C12.1269 29.4595 12.5 29.0964 12.5 28.6487V27.027C12.5 26.5792 12.1269 26.2162 11.6667 26.2162ZM14.1667 34.3243H6.83336C6.37313 34.3243 6.00003 34.6873 6.00003 35.1351V36.7568C6.00003 37.2046 6.37313 37.5676 6.83336 37.5676H14.1667C14.6269 37.5676 15 37.2046 15 36.7568V35.1351C15 34.6873 14.6269 34.3243 14.1667 34.3243ZM18.1667 42.7568H6.83336C6.37313 42.7568 6.00003 43.1198 6.00003 43.5676V45.1892C6.00003 45.637 6.37313 46 6.83336 46H18.1667C18.6269 46 19 45.637 19 45.1892V43.5676C19 43.1198 18.6269 42.7568 18.1667 42.7568Z" fill="url(#paint3_linear_4659_5535)"></path><path fill-rule="evenodd" clip-rule="evenodd" d="M57.962 12.766C57.962 12.3447 57.9246 11.9234 57.8748 11.4894L60.5042 9.40851C60.5266 9.39041 60.5474 9.37093 60.5667 9.35028C60.7254 9.17967 60.7754 8.92824 60.6995 8.69922L60.6538 8.59149L58.1614 4.17447C58.0119 3.89362 57.6754 3.77873 57.4013 3.89362L54.2983 5.17021L53.8059 4.80957C53.5306 4.6182 53.2472 4.4398 52.9496 4.27816C52.9033 4.25302 52.8566 4.22829 52.8096 4.20398C52.7526 4.17447 52.695 4.1456 52.6369 4.11735C52.4925 4.04719 52.3445 3.98102 52.1923 3.91915L51.7312 0.536173C51.7059 0.385811 51.6294 0.249483 51.5154 0.151344C51.4355 0.0826735 51.3406 0.0356431 51.2398 0.0138757C51.2033 0.00599482 51.166 0.0014106 51.1283 0.000278037C51.1629 0.0013183 51.1972 0.00526932 51.2308 0.0120091L51.219 0.00976558L51.1081 2.34143e-06H46.1234L46.0091 0.0107421C45.8661 0.0373461 45.7394 0.112854 45.6472 0.220168C45.6333 0.236341 45.6202 0.253216 45.6079 0.270773C45.5539 0.348045 45.5163 0.438185 45.5004 0.536173L45.0393 3.91915C44.2542 4.2383 43.5813 4.67234 42.9333 5.17021L39.8303 3.89362C39.5561 3.77873 39.2197 3.89362 39.0701 4.17447L36.5778 8.59149C36.4158 8.87234 36.4906 9.21702 36.7273 9.40851L39.3568 11.4894C39.3069 11.9234 39.2695 12.3447 39.2695 12.766L39.2752 13.0555C39.2874 13.3756 39.3184 13.6899 39.3568 14.0043L36.7273 16.1234C36.4906 16.3149 36.4158 16.6596 36.5778 16.9404L39.0701 21.3574C39.0795 21.375 39.0896 21.3919 39.1003 21.408C39.1305 21.4534 39.166 21.4933 39.2055 21.5274C39.3484 21.651 39.543 21.6997 39.7249 21.667L39.8303 21.6383L42.9333 20.3489C43.5813 20.8596 44.2542 21.2936 45.0393 21.6128L45.5004 24.9957C45.5306 25.181 45.6383 25.3384 45.7876 25.4338C45.8218 25.4556 45.8582 25.4743 45.8963 25.4892C45.9109 25.4949 45.9256 25.5001 45.9407 25.5047C45.9632 25.5116 45.9856 25.5172 46.0091 25.5215L46.1234 25.5319H51.1081L51.222 25.5215C51.2652 25.5135 51.307 25.501 51.3468 25.4845C51.3592 25.4794 51.3714 25.4738 51.3835 25.4679C51.5308 25.3952 51.6464 25.2657 51.7024 25.1064L51.7312 24.9957L52.1923 21.6128C52.9774 21.2809 53.6503 20.8596 54.2983 20.3489L57.4013 21.6383C57.6754 21.7404 58.0119 21.6383 58.1614 21.3574L60.6538 16.9404C60.8033 16.6596 60.741 16.3149 60.5042 16.1234L57.8748 14.0043C57.9013 13.7873 57.9243 13.5702 57.94 13.3513C57.9464 13.2612 57.9516 13.1709 57.9554 13.0801L57.962 12.766ZM48.6158 17.234C47.459 17.234 46.3496 16.7633 45.5317 15.9254C45.4358 15.8272 45.3449 15.7249 45.259 15.6189C44.6123 14.8204 44.2542 13.8121 44.2542 12.766C44.2542 12.6965 44.2558 12.6273 44.2589 12.5583C44.2942 11.7816 44.5265 11.0323 44.9269 10.382C45.0158 10.2376 45.1131 10.098 45.2183 9.9641L45.2419 9.93428L45.2719 9.89722C45.354 9.79686 45.4406 9.69985 45.5317 9.60655C46.3496 8.76862 47.459 8.29787 48.6158 8.29787C49.6745 8.29787 50.6936 8.69221 51.4858 9.40148C51.5592 9.46716 51.6306 9.53553 51.6999 9.60655C52.5178 10.4445 52.9774 11.581 52.9774 12.766C52.9774 12.9226 52.9693 13.0783 52.9535 13.2327C52.9466 13.3001 52.9382 13.3672 52.9284 13.4339C52.9105 13.5552 52.8877 13.6754 52.8603 13.7943C52.8002 14.0543 52.7176 14.3079 52.6137 14.5521C52.3977 15.0596 52.0894 15.5263 51.6999 15.9254C51.6491 15.9774 51.5971 16.0281 51.5441 16.0773L51.5432 16.0781C51.5104 16.1086 51.4772 16.1385 51.4436 16.1678C51.3876 16.2167 51.3304 16.264 51.2723 16.3098C51.2565 16.3221 51.2407 16.3344 51.2248 16.3466L51.1998 16.3655C50.4554 16.9263 49.5511 17.234 48.6158 17.234Z" fill="url(#paint4_linear_4659_5535)"></path><path d="M33.503 25.2326C34.1257 24.9445 34.8318 24.8977 35.4865 25.1012C33.8596 23.1591 32.7012 20.8065 32.1837 18.2202C31.985 17.2274 31.8808 16.2001 31.8808 15.1484C31.8819 14.6797 31.9023 14.2112 31.9421 13.7442H24.9145C24.545 13.7442 24.1907 13.5963 23.9294 13.3329C23.6681 13.0696 23.5213 12.7124 23.5213 12.34V6.72332C23.5213 6.35091 23.3745 5.99376 23.1132 5.73042C22.8519 5.46709 22.4976 5.31915 22.128 5.31915C21.7585 5.31915 21.4042 5.46709 21.1429 5.73042C20.8816 5.99376 20.7348 6.35091 20.7348 6.72332V12.34L20.7392 12.5329C20.7775 13.3754 21.0657 14.1838 21.5617 14.8553C21.6003 14.9076 21.6402 14.9591 21.6814 15.0097C21.7684 15.1168 21.861 15.22 21.959 15.3187C22.7429 16.1087 23.806 16.5526 24.9145 16.5526H25.4718L21.4063 25.2023L21.2366 25.5947C20.9146 26.4031 20.7442 27.265 20.735 28.1363C20.7345 28.1916 20.7345 28.247 20.7353 28.3023C20.7362 28.3737 20.7382 28.4451 20.7413 28.5166C20.7908 29.6594 21.1167 30.7728 21.6906 31.7598L31.3402 48.3487C31.5635 48.7332 31.8496 49.0728 32.1837 49.3548C32.5067 49.6275 32.8747 49.8464 33.2741 50V30.218C32.8046 29.9453 32.4272 29.5422 32.1837 29.0612C32.1193 28.934 32.0641 28.8014 32.0192 28.6642C31.8046 28.0084 31.8374 27.2959 32.1111 26.6629C32.1338 26.6104 32.158 26.5588 32.1837 26.5081C32.4678 25.947 32.9319 25.4968 33.503 25.2326Z" fill="url(#paint5_linear_4659_5535)"></path></g><defs><linearGradient id="paint0_linear_4659_5535" x1="55.1378" y1="3.94636" x2="26.7599" y2="41.9468" gradientUnits="userSpaceOnUse"><stop stop-color="#29E8BD"></stop><stop offset="1" stop-color="#199887"></stop></linearGradient><linearGradient id="paint1_linear_4659_5535" x1="55.1378" y1="3.94636" x2="26.7599" y2="41.9468" gradientUnits="userSpaceOnUse"><stop stop-color="#29E8BD"></stop><stop offset="1" stop-color="#199887"></stop></linearGradient><linearGradient id="paint2_linear_4659_5535" x1="55.1378" y1="3.94636" x2="26.7599" y2="41.9468" gradientUnits="userSpaceOnUse"><stop stop-color="#29E8BD"></stop><stop offset="1" stop-color="#199887"></stop></linearGradient><linearGradient id="paint3_linear_4659_5535" x1="55.1378" y1="3.94636" x2="26.7599" y2="41.9468" gradientUnits="userSpaceOnUse"><stop stop-color="#29E8BD"></stop><stop offset="1" stop-color="#199887"></stop></linearGradient><linearGradient id="paint4_linear_4659_5535" x1="55.1378" y1="3.94636" x2="26.7599" y2="41.9468" gradientUnits="userSpaceOnUse"><stop stop-color="#29E8BD"></stop><stop offset="1" stop-color="#199887"></stop></linearGradient><linearGradient id="paint5_linear_4659_5535" x1="55.1378" y1="3.94636" x2="26.7599" y2="41.9468" gradientUnits="userSpaceOnUse"><stop stop-color="#29E8BD"></stop><stop offset="1" stop-color="#199887"></stop></linearGradient><clipPath id="clip0_4659_5535"><rect width="59" height="50" fill="white" transform="translate(0.183685)"></rect></clipPath></defs></svg> 