<?xml version="1.0" encoding="UTF-8"?> <svg xmlns="http://www.w3.org/2000/svg" width="50" height="50" viewBox="0 0 50 50" fill="none"><path d="M4.42902 6.42688C4.42902 4.78491 5.08128 3.2102 6.24233 2.04915C7.40337 0.888108 8.97809 0.23584 10.6201 0.23584H39.0988C39.9118 0.23584 40.7169 0.395976 41.468 0.707105C42.2192 1.01823 42.9017 1.47426 43.4766 2.04915C44.0514 2.62404 44.5075 3.30654 44.8186 4.05767C45.1297 4.8088 45.2899 5.61386 45.2899 6.42688V41.7158C45.2899 42.2084 45.0942 42.6808 44.7459 43.0291C44.3976 43.3774 43.9251 43.5731 43.4326 43.5731H8.14364C8.14364 44.2299 8.40455 44.8598 8.86896 45.3242C9.33338 45.7886 9.96327 46.0495 10.6201 46.0495H43.4326C43.9251 46.0495 44.3976 46.2452 44.7459 46.5935C45.0942 46.9418 45.2899 47.4142 45.2899 47.9068C45.2899 48.3994 45.0942 48.8718 44.7459 49.2202C44.3976 49.5685 43.9251 49.7641 43.4326 49.7641H10.6201C8.97809 49.7641 7.40337 49.1119 6.24233 47.9508C5.08128 46.7898 4.42902 45.2151 4.42902 43.5731V6.42688ZM20.652 11.0528C18.7024 11.8632 17.0068 13.1834 15.7432 14.8749C14.4796 16.5664 13.6945 18.5668 13.4704 20.6663H18.6882C18.7897 17.5707 19.2726 14.7303 20.0428 12.5362C20.2244 12.0178 20.4275 11.525 20.652 11.0528ZM28.9232 10.7631C29.2072 11.3161 29.4581 11.9064 29.6761 12.5337C30.4438 14.7278 30.9267 17.5683 31.0307 20.6638H36.8676C36.6289 18.4265 35.7536 16.3047 34.3456 14.5498C32.9375 12.795 31.0556 11.4808 28.9232 10.7631ZM27.3136 20.6638C27.2145 17.91 26.7787 15.5005 26.1719 13.7595C25.8178 12.7541 25.4414 12.0706 25.1145 11.6794C25.039 11.5831 24.9535 11.4951 24.8594 11.4169C24.7655 11.4943 24.68 11.5815 24.6044 11.6769C24.2775 12.0731 23.9011 12.7541 23.5469 13.7595C22.9402 15.5005 22.5068 17.91 22.4078 20.6638H27.3136ZM22.4747 24.3784C22.643 26.6146 23.0318 28.571 23.5469 30.0444C23.9011 31.0499 24.2775 31.7334 24.6044 32.1246C24.6799 32.2209 24.7654 32.3089 24.8594 32.3871C24.9534 32.3097 25.0389 32.2225 25.1145 32.1271C25.4414 31.7309 25.8178 31.0499 26.1719 30.0444C26.687 28.571 27.0758 26.6146 27.2442 24.3784H22.4747ZM18.7501 24.3784H13.666C14.0668 26.2415 14.9133 27.9797 16.1331 29.444C17.3528 30.9082 18.9093 32.055 20.6693 32.7858C20.4336 32.2925 20.2253 31.7866 20.0453 31.2703C19.3791 29.3709 18.9309 26.991 18.7526 24.3784M28.9109 33.0706C30.8477 32.4192 32.582 31.2755 33.9434 29.7516C35.3049 28.2277 36.2469 26.3761 36.6769 24.3784H30.9712C30.7954 26.991 30.3447 29.3709 29.6785 31.2703C29.4557 31.9067 29.2006 32.5134 28.9109 33.0706Z" fill="url(#paint0_linear_4638_4069)"></path><defs><linearGradient id="paint0_linear_4638_4069" x1="41.4496" y1="4.14497" x2="12.2153" y2="31.2616" gradientUnits="userSpaceOnUse"><stop stop-color="#29E8BD"></stop><stop offset="1" stop-color="#199887"></stop></linearGradient></defs></svg> 