<?xml version="1.0" encoding="UTF-8"?> <svg xmlns="http://www.w3.org/2000/svg" width="51" height="50" viewBox="0 0 51 50" fill="none"><path d="M6.58143 50H36.3861C37.8664 50 39.286 49.4147 40.3327 48.3728C41.3794 47.3309 41.9675 45.9179 41.9675 44.4444V27.7778H37.5024V33.3333L26.3396 25L37.5024 16.6667V22.2222H41.9675V5.55556C41.9675 4.08213 41.3794 2.66905 40.3327 1.62718C39.286 0.585316 37.8664 0 36.3861 0H6.58143C5.10115 0 3.6815 0.585316 2.63478 1.62718C1.58807 2.66905 1.00003 4.08213 1.00003 5.55556V44.4444C1.00003 45.9179 1.58807 47.3309 2.63478 48.3728C3.6815 49.4147 5.10115 50 6.58143 50ZM7.92096 33.3333H17.7442V38.8889H7.92096V33.3333ZM7.92096 22.2222H23.4372V27.7778H7.92096V22.2222ZM7.92096 11.1111H23.4372V16.6667H7.92096V11.1111ZM41.9675 22.2222H49V27.7778H41.9675V22.2222Z" fill="url(#paint0_linear_4659_5562)"></path><defs><linearGradient id="paint0_linear_4659_5562" x1="44.4888" y1="3.94636" x2="14.9786" y2="35.798" gradientUnits="userSpaceOnUse"><stop stop-color="#29E8BD"></stop><stop offset="1" stop-color="#199887"></stop></linearGradient></defs></svg> 