<?xml version="1.0" encoding="UTF-8"?> <svg xmlns="http://www.w3.org/2000/svg" width="50" height="50" viewBox="0 0 50 50" fill="none"><g clip-path="url(#clip0_4629_3031)"><path fill-rule="evenodd" clip-rule="evenodd" d="M15.271 16.7401L21.0652 9.29038C20.6698 8.67324 20.4477 7.95834 20.4223 7.22583C20.3969 6.49332 20.5691 5.76747 20.9208 5.12442C21.2726 4.48136 21.7908 3.94481 22.4213 3.57102C23.0518 3.19724 23.7712 3 24.5042 3C25.2371 3 25.9566 3.19724 26.587 3.57102C27.2175 3.94481 27.7358 4.48136 28.0875 5.12442C28.4392 5.76747 28.6114 6.49332 28.586 7.22583C28.5606 7.95834 28.3386 8.67051 27.9431 9.28766L33.7374 16.7401C33.9308 16.9889 34.2045 17.1629 34.5119 17.2324C34.8192 17.3019 35.1412 17.2626 35.4228 17.1213L41.2116 14.2269C40.8605 13.4568 40.7574 12.5966 40.9164 11.7654C41.0754 10.9341 41.4887 10.1727 42.0992 9.58653C42.7098 9.00036 43.4873 8.61834 44.3244 8.49327C45.1614 8.3682 46.0167 8.50626 46.7719 8.88837C47.5271 9.27049 48.1449 9.87777 48.54 10.6263C48.935 11.3748 49.0878 12.2275 48.9772 13.0666C48.8665 13.9057 48.4979 14.6897 47.9223 15.3102C47.3468 15.9308 46.5926 16.3571 45.7642 16.5304L44.6914 21.6113C41.9138 19.8746 38.6434 19.0966 35.3813 19.3965C32.1193 19.6963 29.0455 21.0575 26.631 23.2714C24.2166 25.4854 22.5946 28.4299 22.0138 31.6538H6.4301L3.24686 16.5277C2.41841 16.3542 1.66435 15.9275 1.08893 15.3068C0.51352 14.686 0.145182 13.9018 0.0348507 13.0626C-0.0754808 12.2234 0.0776446 11.3706 0.473054 10.6222C0.868464 9.87385 1.48662 9.26679 2.24206 8.88501C2.99749 8.50323 3.85288 8.36558 4.68996 8.4911C5.52703 8.61662 6.30442 8.9991 6.91465 9.58567C7.52488 10.1722 7.9378 10.9339 8.09631 11.7654C8.25482 12.5968 8.15109 13.457 7.79947 14.2269L13.5855 17.1213C13.8672 17.2626 14.1891 17.3019 14.4965 17.2324C14.8038 17.1629 15.0776 16.9889 15.271 16.7401ZM7.23953 35.5L7.85392 38.4195C8.01524 39.1842 8.5 41.1205 8.5 41.1205C8.5 41.1205 10.4078 41.1217 11.1894 41.1205H23.415C22.5151 39.3585 21.9792 37.4475 21.8239 35.5H7.23953Z" fill="white"></path><path d="M49.9999 35.3035C49.9999 38.5532 48.709 41.6697 46.4112 43.9676C44.1133 46.2654 40.9968 47.5563 37.7471 47.5563C34.4974 47.5563 31.3809 46.2654 29.083 43.9676C26.7852 41.6697 25.4943 38.5532 25.4943 35.3035C25.4943 32.0538 26.7852 28.9373 29.083 26.6394C31.3809 24.3416 34.4974 23.0507 37.7471 23.0507C40.9968 23.0507 44.1133 24.3416 46.4112 26.6394C48.709 28.9373 49.9999 32.0538 49.9999 35.3035ZM29.5785 31.2192C29.5785 31.9414 29.8654 32.6339 30.376 33.1446C30.8867 33.6552 31.5793 33.9421 32.3014 33.9421C33.0235 33.9421 33.7161 33.6552 34.2267 33.1446C34.7374 32.6339 35.0243 31.9414 35.0243 31.2192C35.0243 30.4971 34.7374 29.8045 34.2267 29.2939C33.7161 28.7832 33.0235 28.4964 32.3014 28.4964C31.5793 28.4964 30.8867 28.7832 30.376 29.2939C29.8654 29.8045 29.5785 30.4971 29.5785 31.2192ZM44.1404 28.8966C43.8851 28.6414 43.5388 28.498 43.1778 28.498C42.8168 28.498 42.4706 28.6414 42.2153 28.8966L31.3348 39.7771C31.0868 40.0339 30.9496 40.3778 30.9527 40.7348C30.9558 41.0917 31.0989 41.4332 31.3514 41.6856C31.6038 41.938 31.9453 42.0812 32.3022 42.0843C32.6592 42.0874 33.0031 41.9502 33.2598 41.7022L44.1404 30.8217C44.3956 30.5664 44.539 30.2202 44.539 29.8592C44.539 29.4982 44.3956 29.1519 44.1404 28.8966ZM43.1928 36.6649C42.4707 36.6649 41.7781 36.9518 41.2675 37.4624C40.7568 37.9731 40.47 38.6656 40.47 39.3878C40.47 40.1099 40.7568 40.8025 41.2675 41.3131C41.7781 41.8238 42.4707 42.1106 43.1928 42.1106C43.915 42.1106 44.6075 41.8238 45.1182 41.3131C45.6288 40.8025 45.9157 40.1099 45.9157 39.3878C45.9157 38.6656 45.6288 37.9731 45.1182 37.4624C44.6075 36.9518 43.915 36.6649 43.1928 36.6649Z" fill="white"></path></g><defs><clipPath id="clip0_4629_3031"><rect width="50" height="50" fill="white"></rect></clipPath></defs></svg> 