<?xml version="1.0" encoding="UTF-8"?> <svg xmlns="http://www.w3.org/2000/svg" width="50" height="50" viewBox="0 0 50 50" fill="none"><path d="M16.0183 35.6418H7.53861L7.24127 35.6596C6.59804 35.7365 6.0083 36.0573 5.59255 36.5563C5.1768 37.0554 4.96641 37.6952 5.00437 38.3449C5.04233 38.9946 5.32578 39.6052 5.7968 40.052C6.26782 40.4988 6.89085 40.748 7.53861 40.7487H16.4122C16.0187 39.0772 15.8858 37.3543 16.0183 35.6418ZM41.3843 20.3209H7.53861C6.89085 20.3202 6.26782 20.071 5.7968 19.6242C5.32578 19.1774 5.04233 18.5668 5.00437 17.9171C4.96641 17.2673 5.1768 16.6276 5.59255 16.1285C6.0083 15.6294 6.59804 15.3087 7.24127 15.2318L7.53861 15.2139H41.3843C42.0321 15.2146 42.6551 15.4639 43.1261 15.9106C43.5972 16.3574 43.8806 16.968 43.9186 17.6178C43.9565 18.2675 43.7461 18.9072 43.3304 19.4063C42.9146 19.9054 42.3249 20.2261 41.6817 20.303L41.3843 20.3209ZM7.53861 30.5348H17.2357C18.0231 28.6399 19.1537 26.9083 20.57 25.4278H7.53861L7.24127 25.4457C6.59804 25.5226 6.0083 25.8433 5.59255 26.3424C5.1768 26.8415 4.96641 27.4813 5.00437 28.131C5.04233 28.7807 5.32578 29.3913 5.7968 29.8381C6.26782 30.2849 6.89085 30.5341 7.53861 30.5348ZM41.3843 5H7.53861L7.24127 5.01787C6.59804 5.09474 6.0083 5.41549 5.59255 5.91457C5.1768 6.41366 4.96641 7.05342 5.00437 7.70313C5.04233 8.35284 5.32578 8.96347 5.7968 9.41025C6.26782 9.85703 6.89085 10.1062 7.53861 10.107H41.3843L41.6817 10.0891C42.3249 10.0122 42.9146 9.69147 43.3304 9.19239C43.7461 8.6933 43.9565 8.05355 43.9186 7.40383C43.8806 6.75412 43.5972 6.14349 43.1261 5.69671C42.6551 5.24993 42.0321 5.00072 41.3843 5ZM24.3008 27.9175L23.7976 26.1658C24.9176 25.1861 26.1911 24.3992 27.5666 23.837L28.8348 25.1751C29.3096 25.6769 29.881 26.0764 30.5142 26.3494C31.1475 26.6225 31.8294 26.7633 32.5186 26.7633C33.2077 26.7633 33.8896 26.6225 34.5229 26.3494C35.1561 26.0764 35.7275 25.6769 36.2024 25.1751L37.4553 23.8524C38.8334 24.4221 40.1079 25.2177 41.2268 26.2067L40.7541 27.8154C40.5588 28.4796 40.5 29.1767 40.5813 29.8644C40.6626 30.5522 40.8823 31.2161 41.227 31.8159C41.5717 32.4156 42.0342 32.9387 42.5864 33.3532C43.1386 33.7677 43.769 34.0651 44.4391 34.2271L45.8089 34.5591C46.0585 36.0874 46.0636 37.6459 45.8242 39.1758L44.34 39.5435C43.6764 39.7089 43.0528 40.0071 42.5066 40.4203C41.9603 40.8335 41.5027 41.3531 41.161 41.9482C40.8193 42.5432 40.6007 43.2014 40.5181 43.8834C40.4355 44.5653 40.4907 45.257 40.6804 45.917L41.181 47.6687C40.0612 48.6493 38.7877 49.437 37.4121 50L36.1464 48.6594C35.6716 48.1572 35.1 47.7573 34.4665 47.4841C33.833 47.2108 33.1508 47.0699 32.4614 47.0699C31.7719 47.0699 31.0897 47.2108 30.4562 47.4841C29.8227 47.7573 29.2511 48.1572 28.7763 48.6594L27.5234 49.9821C26.1454 49.4132 24.871 48.6184 23.7519 47.6304L24.2271 46.0191C24.422 45.3551 24.4805 44.6582 24.3989 43.9707C24.3174 43.2833 24.0977 42.6197 23.753 42.0202C23.4084 41.4208 22.946 40.898 22.394 40.4836C21.842 40.0693 21.2119 39.772 20.5421 39.6099L19.1697 39.2779C18.9202 37.7496 18.915 36.1912 19.1544 34.6612L20.6386 34.2935C21.3028 34.1285 21.9269 33.8304 22.4736 33.4171C23.0203 33.0039 23.4784 32.484 23.8204 31.8887C24.1623 31.2933 24.3812 30.6347 24.4637 29.9523C24.5463 29.2699 24.4909 28.5778 24.3008 27.9175ZM32.4893 40.7487C34.5225 40.7487 36.1744 39.0328 36.1744 36.9185C36.1744 34.8017 34.5225 33.0883 32.4893 33.0883C30.4562 33.0883 28.8043 34.8017 28.8043 36.9185C28.8043 39.0328 30.4562 40.7487 32.4893 40.7487Z" fill="white"></path></svg> 