<?xml version="1.0" encoding="UTF-8"?> <svg xmlns="http://www.w3.org/2000/svg" width="50" height="50" viewBox="0 0 50 50" fill="none"><path fill-rule="evenodd" clip-rule="evenodd" d="M32.395 46L45 46L45 42L32.395 42L32.395 46ZM17.605 42L5 42L5 46L17.605 46L17.605 42ZM20.7983 44C20.7983 46.22 22.6681 48 25 48C25.831 48 26.6434 47.7654 27.3343 47.3259C28.0253 46.8864 28.5638 46.2616 28.8818 45.5307C29.1999 44.7998 29.2831 43.9956 29.1209 43.2196C28.9588 42.4437 28.5587 41.731 27.971 41.1716C27.3834 40.6122 26.6348 40.2312 25.8197 40.0769C25.0047 39.9225 24.1598 40.0017 23.3921 40.3045C22.6243 40.6072 21.9681 41.1199 21.5064 41.7777C21.0447 42.4355 20.7983 43.2089 20.7983 44Z" fill="white"></path><path fill-rule="evenodd" clip-rule="evenodd" d="M25.1891 0.999984C16.3375 0.999984 9.16809 8.19508 9.16809 17.0784C9.16809 24.3137 13.9343 30.4235 20.4829 32.4534L25.1891 38.1765L29.8953 32.4534C36.4439 30.4235 41.2101 24.3137 41.2101 17.0784C41.2101 8.19508 34.0407 0.999984 25.1891 0.999984ZM24.7133 23.7143C22.1444 23.7143 19.7369 22.6214 18.0928 20.7C17.1093 19.5357 15.2963 20.9929 16.2872 22.1571C18.379 24.6 21.4471 26 24.7133 26C27.9795 26 31.0475 24.6 33.1393 22.1643C34.1302 21 32.332 19.5429 31.3338 20.7C29.6896 22.6143 27.2822 23.7143 24.7133 23.7143ZM21.1902 12.2857C21.1902 13.55 20.1406 14.5714 18.8415 14.5714C17.5423 14.5714 16.4927 13.55 16.4927 12.2857C16.4927 11.0214 17.5423 10 18.8415 10C20.1406 10 21.1902 11.0214 21.1902 12.2857ZM28.3465 13.4643C29.4327 12.5214 31.7374 12.5214 32.8237 13.4643L33.5357 14.0714C34.1522 14.6071 35.1137 14.0929 34.989 13.3C34.6954 11.5 32.4788 10.2929 30.5924 10.2929C28.7061 10.2929 26.4895 11.5 26.1959 13.3C26.0638 14.1 27.04 14.6 27.6492 14.0714L28.3465 13.4643Z" fill="white"></path></svg> 