<?xml version="1.0" encoding="UTF-8"?> <svg xmlns="http://www.w3.org/2000/svg" width="51" height="51" viewBox="0 0 51 51" fill="none"><path d="M25 28.8125H29.6875V30.375H25V28.8125ZM32.8125 21H34.375V25.6875H32.8125V21ZM34.375 38.1875H32.8125V34.2812L34.375 35.8438V38.1875ZM29.8922 32.1891L30.9969 33.2938L26.3563 37.9344L25.2516 36.8297L29.8922 32.1891ZM40.8297 21.2516L41.9344 22.3563L37.2938 26.9969L36.1891 25.8922L40.8297 21.2516ZM26.3062 21.3109L31.7203 26.725L30.6156 27.8297L25.2016 22.4156L26.3062 21.3109ZM34.5312 27.4062L31.25 30.5312L39.7525 39.1205L46.5625 46L50 42.7188L42 34.7995L34.5312 27.4062Z" fill="white"></path><path fill-rule="evenodd" clip-rule="evenodd" d="M40.7776 4.87245C41.0008 4.90251 41.2143 4.99165 41.4002 5.13241L41.4018 5.13597C41.5862 5.27848 41.7369 5.46856 41.8411 5.68998C41.9453 5.91141 41.9998 6.15761 42 6.40757V19.593L40.8301 18.4229L36.375 22.877V19H30.8125V22.9883L26.3066 18.4824L22.373 22.416L26.7695 26.8125H23V32.375H26.877L22.4229 36.8301L26.3564 40.7627L30.8125 36.3066V40.1875H36.375V38.5508L37.7718 39.962L20.6407 47.2395C19.3259 47.7934 17.9072 48 16.5077 48C13.5566 47.9608 10.7816 47.1612 9.1293 45.7311C8.60148 45.2466 8.05446 44.5645 8.00967 43.496H8.00648V43.4657C8.00648 43.4595 8.00528 43.455 8.00408 43.4506C8.00288 43.4461 8.00168 43.4416 8.00168 43.4354L8.00648 43.3998V12.7923C8.00648 12.7923 8.00008 12.7585 8.00008 12.7353C7.99368 11.9428 8.38235 11.2286 8.8366 10.7941C9.29565 10.3453 9.83467 10.0425 10.4681 9.78783L30.9269 1.09855C31.1375 1.01119 31.3639 0.981284 31.5871 1.01134C31.8103 1.04139 32.0237 1.13053 32.2096 1.2713C32.3938 1.41401 32.5442 1.60417 32.6481 1.82558C32.752 2.047 32.8062 2.2931 32.8062 2.5429V5.94809L30.0344 4.78334L11.4277 12.6872C11.3104 12.7323 11.207 12.7769 11.1174 12.8208C11.4328 13.0375 11.7672 13.2177 12.1155 13.3586C13.2623 13.8537 14.9146 14.2171 16.5093 14.2135C17.6529 14.2135 18.7661 14.0301 19.657 13.6525L40.1174 4.95966C40.3281 4.8723 40.5545 4.84239 40.7776 4.87245ZM42 30.375H39.8438L38.2812 28.8125H42V30.375ZM42 25.1192V26.8125H40.3066L42 25.1192ZM9.39162 18.2812C9.37746 18.1136 9.33967 17.9495 9.27965 17.795L9.27805 22.6214C11.2678 23.8681 13.8141 24.4504 16.4917 24.4967C17.5185 24.4967 18.563 24.3845 19.5978 24.1281V20.9402C18.5934 21.2614 17.5526 21.4197 16.5077 21.4103C13.787 21.3854 11.2294 20.5786 9.97702 19.462C9.60434 19.0987 9.422 18.8458 9.39641 18.3756L9.39162 18.2812ZM9.27965 38.8049C11.2678 40.0534 13.8141 40.634 16.4933 40.6838L16.4901 40.6821C17.535 40.6845 18.577 40.5603 19.5978 40.3116V37.1273C18.6301 37.4478 17.5793 37.5903 16.5077 37.5903C13.7854 37.5725 11.2294 36.7622 9.97862 35.6491C9.60434 35.284 9.4252 35.0329 9.39641 34.5591L9.39162 34.4647C9.38099 34.2948 9.34307 34.1283 9.27965 33.9732V38.8049ZM25 28.8125H29.6875V30.375H25V28.8125ZM32.8125 21H34.375V25.6875H32.8125V21ZM34.375 38.1875H32.8125V34.2812L34.375 35.8438V38.1875ZM29.8922 32.1891L30.9969 33.2938L26.3563 37.9344L25.2516 36.8297L29.8922 32.1891ZM40.8297 21.2516L41.9344 22.3563L37.2938 26.9969L36.1891 25.8922L40.8297 21.2516ZM26.3062 21.3109L31.7203 26.725L30.6156 27.8297L25.2016 22.4156L26.3062 21.3109Z" fill="white"></path></svg> 