<?xml version="1.0" encoding="UTF-8"?> <svg xmlns="http://www.w3.org/2000/svg" width="50" height="50" viewBox="0 0 50 50" fill="none"><path d="M38.7429 9.50965L34.4953 13.765L44.043 23.3127L48.2907 19.0651C49.9608 17.395 49.9608 14.6953 48.2907 13.0252L44.7828 9.50965C43.1127 7.83956 40.413 7.83956 38.7429 9.50965ZM32.6116 15.3283L31.91 15.5418L20.9209 18.8363C19.4034 19.2938 18.1985 20.453 17.6951 21.9629L10.9385 42.1109C10.6487 42.9726 10.8622 43.9335 11.4952 44.5817L23.2088 32.8758C22.98 32.3953 22.8503 31.8615 22.8503 31.2972C22.8503 29.2763 24.4899 27.6367 26.5108 27.6367C28.5317 27.6367 30.1713 29.2763 30.1713 31.2972C30.1713 33.3181 28.5317 34.9577 26.5108 34.9577C25.9465 34.9577 25.4127 34.828 24.9322 34.5993L13.2187 46.3128C13.8745 46.9458 14.8278 47.1669 15.6895 46.8695L35.8451 40.1129C37.3474 39.6095 38.5142 38.4046 38.9717 36.8871L42.2662 25.898L42.4721 25.1964L32.6116 15.3283Z" fill="white"></path><path d="M8.67574 16.8097C8.53281 16.6002 8.36947 16.4117 8.20612 16.2441H8.1857C7.55274 15.5947 6.77685 15.0919 5.91929 14.7986L3.10159 13.8559C2.89741 13.7721 2.69322 13.6255 2.57071 13.437C2.42779 13.2484 2.36653 13.018 2.36653 12.7875C2.36203 12.5538 2.43391 12.3252 2.57071 12.1381C2.69322 11.9496 2.87699 11.8029 3.10159 11.7192L5.91929 10.7765C6.77685 10.4832 7.53232 9.9804 8.16529 9.33098C8.75741 8.70251 9.22703 7.9274 9.5333 7.08945V7.0266L10.4521 4.13565C10.5338 3.92616 10.6767 3.71667 10.8605 3.59098C11.0428 3.45062 11.2656 3.37687 11.4934 3.38149C11.718 3.38149 11.9426 3.46529 12.1264 3.59098C12.3162 3.72258 12.4595 3.91365 12.5348 4.13565L13.4536 7.0266C13.7413 7.90322 14.2236 8.69926 14.8624 9.35193C15.4954 10.0223 16.2713 10.5041 17.1288 10.7974L19.9466 11.7401H20.0078C20.2177 11.8292 20.4009 11.9738 20.5387 12.1591C20.6755 12.3461 20.7474 12.5747 20.7429 12.8085C20.7474 13.0423 20.6755 13.2709 20.5387 13.4579C20.4162 13.6465 20.2324 13.7931 20.0078 13.8769L17.1901 14.8196C16.3325 15.1129 15.5567 15.6156 14.9237 16.2651C14.2703 16.9145 13.8007 17.7105 13.5148 18.5904L12.5756 21.4813V21.5442C12.4939 21.7327 12.351 21.9003 12.1877 22.026C12.0054 22.1664 11.7826 22.2401 11.5547 22.2355C11.3301 22.2355 11.1055 22.1727 10.9217 22.026C10.738 21.9003 10.595 21.7118 10.5134 21.4813L9.59456 18.5904C9.39038 17.941 9.0841 17.3335 8.67574 16.8097Z" fill="white"></path><path d="M10.1279 24.8066C10.0462 24.7018 9.91146 24.5761 9.78078 24.5761L8.20858 24.0734C7.71855 23.9058 7.28976 23.6334 6.94265 23.2773C6.59555 22.9002 6.33011 22.4603 6.16677 21.9785L5.65631 20.3863C5.61548 20.2607 5.5338 20.1559 5.43171 20.0721C5.33353 19.9905 5.21098 19.9459 5.0846 19.9459C4.95822 19.9459 4.83568 19.9905 4.73749 20.0721C4.6354 20.1559 4.55373 20.2607 4.5129 20.3863L4.00244 21.9785C3.85952 22.4603 3.59408 22.9002 3.24697 23.2563C2.89986 23.6125 2.47108 23.8848 2.00146 24.0524L0.42927 24.5761C0.306762 24.618 0.204668 24.7018 0.122995 24.8066C0.0434223 24.9073 0 25.033 0 25.1627C0 25.2924 0.0434223 25.4181 0.122995 25.5188C0.201437 25.6242 0.307755 25.7042 0.42927 25.7493L2.00146 26.273C2.47108 26.4196 2.92028 26.7129 3.26739 27.069C3.6145 27.4252 3.87993 27.8861 4.04328 28.3679L4.55373 29.96C4.59768 30.0847 4.67565 30.1937 4.77833 30.2742C4.87652 30.3559 4.99906 30.4004 5.12544 30.4004C5.25182 30.4004 5.37436 30.3559 5.47255 30.2742C5.57464 30.1904 5.65631 30.0857 5.69715 29.96L6.2076 28.3679C6.37095 27.8651 6.63638 27.4252 6.98349 27.069C7.35102 26.7129 7.7798 26.4406 8.24942 26.273L9.82161 25.7493C9.94412 25.7074 10.0462 25.6236 10.1279 25.5188C10.2096 25.4141 10.23 25.2884 10.23 25.1627C10.23 25.037 10.2096 24.9113 10.1279 24.8066Z" fill="white"></path></svg> 