<?xml version="1.0" encoding="UTF-8"?> <svg xmlns="http://www.w3.org/2000/svg" width="60" height="50" viewBox="0 0 60 50" fill="none"><g clip-path="url(#clip0_4659_5629)"><path d="M61.1811 45.2738H33.0666C32.5816 45.2714 32.0994 45.3435 31.6382 45.4874C31.1705 45.6363 30.6105 45.723 30.0088 45.723C29.4071 45.723 28.8464 45.6363 28.3794 45.4874C27.9183 45.3435 27.436 45.2714 26.951 45.2738H-1.16349C-1.3491 45.2738 -1.52711 45.3444 -1.65836 45.47C-1.7896 45.5955 -1.86334 45.7658 -1.86334 45.9434C-2.05852 46.7417 -2.03211 47.0123 -1.86334 47.3398C-1.86325 47.5174 -1.78948 47.6877 -1.65826 47.8132C-1.52703 47.9388 -1.34907 48.0093 -1.16349 48.0094H26.5585C26.8898 48.6102 27.3863 49.1131 27.9943 49.4638C28.6023 49.8146 29.2988 50 30.0088 50C30.7188 50 31.4153 49.8146 32.0233 49.4638C32.6313 49.1131 33.1278 48.6102 33.4591 48.0094H61.1811C61.3667 48.0093 61.5447 47.9388 61.6759 47.8132C61.8071 47.6877 61.8809 47.5174 61.881 47.3398C62.0396 46.9357 62.0397 46.6186 61.881 45.9434C61.881 45.7658 61.8072 45.5955 61.676 45.47C61.5447 45.3444 61.3667 45.2738 61.1811 45.2738Z" fill="url(#paint0_linear_4659_5629)"></path><path d="M56.8244 37.9441C56.8019 37.8693 56.7603 37.8009 56.7034 37.7452C56.6464 37.6895 56.576 37.6481 56.4983 37.6249C55.4135 37.3014 50.918 36.0917 44.3308 36.0917C43.8066 36.0917 43.2995 36.1071 42.8094 36.1378C48.5189 34.535 53.6329 34.3757 54.8726 34.3613C54.9082 34.3609 54.9433 34.3532 54.9755 34.3387C55.0077 34.3242 55.0363 34.3033 55.0594 34.2774C55.0824 34.2514 55.0994 34.2211 55.1092 34.1883C55.119 34.1556 55.1213 34.1212 55.116 34.0875C55.2069 33.7059 55.179 33.497 54.9793 33.2043C54.9703 33.146 54.939 33.0928 54.8914 33.0553C54.8439 33.0177 54.7834 32.9983 54.7218 33.0009C34.3508 33.8782 30.0088 42.1144 30.0088 42.1144C30.0088 42.1144 25.6668 33.8782 5.29578 33.0002C5.23417 32.9977 5.17374 33.017 5.12619 33.0546C5.07864 33.0922 5.04734 33.1453 5.03834 33.2037C4.85345 33.5657 4.82496 33.7598 4.90159 34.0869C4.89631 34.1206 4.89864 34.1549 4.90841 34.1877C4.91818 34.2204 4.93517 34.2508 4.95823 34.2767C4.98129 34.3027 5.0099 34.3236 5.04211 34.3381C5.07433 34.3525 5.10942 34.3603 5.14501 34.3607C6.3847 34.3751 11.4987 34.5353 17.2082 36.1372C16.717 36.1071 16.2099 36.0917 15.6868 36.0911C9.09963 36.0911 4.60415 37.3014 3.51934 37.6242C3.44163 37.6475 3.37116 37.6888 3.31425 37.7445C3.25733 37.8003 3.21573 37.8686 3.19317 37.9435C1.43162 40.4841 1.34751 41.7527 1.36476 43.9868H58.6525C58.5965 41.6364 58.4582 40.318 56.8244 37.9441Z" fill="url(#paint1_linear_4659_5629)"></path><path d="M26.3233 32L17 22.4303L23.9412 15.2743V5.66228L42.5879 24.8439H33.2645L26.3233 32ZM45.6683 23.3619L43.2861 20.906C44.5182 18.5912 44.9498 16.1426 44.5807 13.5602C44.2116 10.9778 43.1229 8.7545 41.3146 6.89025C39.5064 5.026 37.3503 3.90418 34.8466 3.52478C32.3429 3.14538 29.9672 3.58971 27.7198 4.85775L25.3376 2.40182C28.2674 0.482248 31.4371 -0.286711 34.8466 0.0949461C38.2561 0.476603 41.1925 1.93717 43.6557 4.47666C46.1189 7.01615 47.5362 10.044 47.9075 13.5602C48.2788 17.0764 47.5324 20.3437 45.6683 23.3619ZM40.8218 18.3654L38.0289 15.486C38.0289 14.7803 37.9265 14.096 37.7216 13.4332C37.5168 12.7704 37.1811 12.1984 36.7146 11.7174C36.2217 11.2093 35.6538 10.8423 35.0109 10.6165C34.368 10.3907 33.69 10.2777 32.977 10.2777L30.1841 7.39837C31.7448 6.91848 33.3193 6.81968 34.9074 7.10197C36.4955 7.38426 37.8646 8.11821 39.0146 9.30383C40.1646 10.4895 40.8699 11.8941 41.1306 13.5179C41.3913 15.1416 41.2883 16.7574 40.8218 18.3654Z" fill="url(#paint2_linear_4659_5629)"></path></g><defs><linearGradient id="paint0_linear_4659_5629" x1="55.985" y1="3.94636" x2="28.2471" y2="43.8647" gradientUnits="userSpaceOnUse"><stop stop-color="#29E8BD"></stop><stop offset="1" stop-color="#199887"></stop></linearGradient><linearGradient id="paint1_linear_4659_5629" x1="55.985" y1="3.94636" x2="28.2471" y2="43.8647" gradientUnits="userSpaceOnUse"><stop stop-color="#29E8BD"></stop><stop offset="1" stop-color="#199887"></stop></linearGradient><linearGradient id="paint2_linear_4659_5629" x1="55.985" y1="3.94636" x2="28.2471" y2="43.8647" gradientUnits="userSpaceOnUse"><stop stop-color="#29E8BD"></stop><stop offset="1" stop-color="#199887"></stop></linearGradient><clipPath id="clip0_4659_5629"><rect width="59.1837" height="50" fill="white"></rect></clipPath></defs></svg> 