<?xml version="1.0" encoding="UTF-8"?> <svg xmlns="http://www.w3.org/2000/svg" width="54" height="50" viewBox="0 0 54 50" fill="none"><path fill-rule="evenodd" clip-rule="evenodd" d="M34.5 7.11111H39V48H6.75C3.015 48 0 44.5756 0 40.3333V9.66667C0 5.42444 3.015 2 6.75 2H30V37.7778H6.75C5.5125 37.7778 4.5 38.9278 4.5 40.3333C4.5 41.7389 5.5125 42.8889 6.75 42.8889H34.5V7.11111ZM17.2665 23.918C17.1885 23.9713 17.0953 24 16.9997 24C16.9041 24 16.8109 23.9713 16.7329 23.918L16.728 23.9144L16.7151 23.9055L16.6658 23.871C15.6841 23.1696 14.7599 22.3959 13.9015 21.5568C13.1951 20.8617 12.4769 20.0501 11.9329 19.1891C11.392 18.3323 11 17.3911 11 16.4469C11 14.5691 12.4892 13 14.3846 13C15.4455 13 16.3834 13.4953 17 14.2588C17.6166 13.4953 18.5538 13 19.6154 13C20.5138 13 21.3692 13.2646 22.0031 13.8556C22.64 14.4502 23 15.3261 23 16.4469C23 17.3911 22.6086 18.3329 22.0671 19.1891C21.5231 20.0501 20.8049 20.8617 20.0985 21.5562C19.2933 22.3438 18.4302 23.0739 17.5157 23.7408C17.4373 23.7979 17.3768 23.8413 17.3342 23.871L17.2849 23.9055L17.272 23.9144L17.2665 23.918Z" fill="white"></path><path d="M45.0393 5.80654C45.9663 4.78737 47.1095 4.02866 48.4691 3.5304C49.8287 3.03214 51.1573 2.88493 52.4551 3.08877C51.9195 3.67762 51.5849 4.51016 51.4515 5.5864C51.318 6.66264 51.6525 7.64194 52.4551 8.52432C53.485 9.65672 54 11.0156 54 12.601C54 14.1863 53.485 15.5452 52.4551 16.6776C51.4251 17.81 50.1891 18.3762 48.7472 18.3762C47.3052 18.3762 46.0693 17.81 45.0393 16.6776C43.6798 15.1829 43 13.371 43 11.2421C43 9.11316 43.6798 7.30132 45.0393 5.80654ZM45.3483 21.7735H52.1461L52.1461 46.0975C52.1461 46.5958 51.9813 47.0379 51.6517 47.4238C51.3221 47.8097 50.9101 48.0018 50.4157 48H47.0787C46.5843 48 46.1723 47.8188 45.8427 47.4564C45.5131 47.0941 45.3483 46.6411 45.3483 46.0975L45.3483 21.7735Z" fill="white"></path></svg> 