<?xml version="1.0" encoding="UTF-8"?> <svg xmlns="http://www.w3.org/2000/svg" width="50" height="50" viewBox="0 0 50 50" fill="none"><path d="M23.6127 39.7826C24.6078 40.5292 25.7722 41.0169 27.0016 41.202C27.4426 41.2685 27.8871 41.2952 28.3298 41.2828V36.5853C28.3299 34.6514 29.0975 32.7981 30.4616 31.4316C31.8257 30.0651 33.6756 29.296 35.606 29.2959L35.6696 29.2969L35.9118 29.3034L35.9679 29.3053L36.3035 29.3296C37.9777 29.491 39.5522 30.2303 40.7514 31.4316L41.0001 31.6929L41.0077 31.7014C41.5329 30.8376 41.8984 29.8798 42.0804 28.8736C42.3795 27.2204 42.1689 25.5151 41.4767 23.9848C40.7845 22.4545 39.6435 21.1717 38.2056 20.3072C39.434 19.1188 40.1979 17.449 40.1979 15.602V14.4035C40.1978 12.5538 39.5369 10.7652 38.3348 9.3613C37.1328 7.9574 35.4689 7.03094 33.6442 6.74951L33.4472 6.7193L33.3708 6.29833C33.1819 5.26131 32.7425 4.2864 32.0909 3.45879C31.4392 2.63118 30.5952 1.97605 29.6326 1.55064C28.6699 1.12522 27.618 0.942464 26.5686 1.01834C25.5192 1.09421 24.5044 1.4264 23.6127 1.98589V28.1908H25.1204C26.5075 28.1908 27.6333 27.0629 27.6333 25.6731V21.8561C26.7684 21.5055 26.052 20.8645 25.607 20.0427C25.1621 19.221 25.0162 18.2698 25.1944 17.3522C25.3727 16.4345 25.8639 15.6075 26.5839 15.013C27.304 14.4184 28.208 14.0932 29.1411 14.0932C30.0741 14.0932 30.9782 14.4184 31.6982 15.013C32.4182 15.6075 32.9095 16.4345 33.0877 17.3522C33.2659 18.2698 33.1201 19.221 32.6751 20.0427C32.2301 20.8645 31.5138 21.5055 30.6488 21.8561V25.6731C30.6488 27.1421 30.0664 28.551 29.0296 29.5898C27.9928 30.6286 26.5866 31.2121 25.1204 31.2121H23.6127V39.7826Z" fill="white"></path><path d="M10.833 6.29833C11.0217 5.26056 11.4614 4.28494 12.1136 3.45682C12.7657 2.6287 13.6104 1.97332 14.5739 1.548C15.5373 1.12268 16.5901 0.940396 17.6402 1.01708C18.6902 1.09377 19.7055 1.4271 20.5972 1.98791V13.0842H18.9628C18.7301 12.1802 18.1914 11.3852 17.4385 10.8351C16.6857 10.2851 15.7655 10.014 14.8354 10.0684C13.9052 10.1227 13.0227 10.4991 12.3388 11.1331C11.6549 11.7672 11.212 12.6195 11.0858 13.5445C10.9597 14.4695 11.158 15.4096 11.6471 16.2043C12.1361 16.9989 12.8854 17.5987 13.7669 17.9012C14.6485 18.2036 15.6075 18.1899 16.48 17.8624C17.3525 17.5348 18.0845 16.9139 18.5507 16.1055H20.5972V39.7826C19.602 40.5292 18.4376 41.0169 17.2082 41.202C15.9788 41.3872 14.7228 41.264 13.5526 40.8435C12.3823 40.423 11.3344 39.7183 10.5027 38.7925C9.67092 37.8667 9.08126 36.7488 8.7865 35.5387L8.75835 35.5326C7.34574 35.2718 6.02552 34.6461 4.92816 33.7175C3.83081 32.7888 2.99431 31.5894 2.50134 30.2376C2.00838 28.8858 1.87601 27.4286 2.11732 26.0098C2.35863 24.5911 2.96527 23.2601 3.87727 22.1482H12.5559C12.8224 22.1482 13.0781 22.2543 13.2666 22.4432C13.4551 22.632 13.561 22.8882 13.561 23.1553V24.4545C12.696 24.805 11.9797 25.4461 11.5347 26.2678C11.0898 27.0896 10.9439 28.0408 11.1221 28.9584C11.3004 29.8761 11.7916 30.703 12.5116 31.2976C13.2317 31.8922 14.1357 32.2173 15.0688 32.2173C16.0018 32.2173 16.9059 31.8922 17.6259 31.2976C18.3459 30.703 18.8372 29.8761 19.0154 28.9584C19.1936 28.0408 19.0478 27.0896 18.6028 26.2678C18.1578 25.4461 17.4415 24.805 16.5765 24.4545V23.1553C16.5765 22.0869 16.1529 21.0622 15.3989 20.3068C14.6449 19.5513 13.6222 19.1269 12.5559 19.1269H5.03321C4.36112 18.0746 4.00458 16.8512 4.00593 15.602V14.4035C4.00605 12.5538 4.66692 10.7652 5.86899 9.3613C7.07106 7.9574 8.73494 7.03094 10.5596 6.74951L10.7566 6.7193L10.833 6.29833Z" fill="white"></path><path d="M43.7447 33.3245V46.3694L43.7524 46.5291C43.7956 46.9739 44.0171 47.3664 44.3445 47.6338C44.3723 47.6565 44.4008 47.6783 44.43 47.6991C44.6534 47.8582 44.9185 47.9623 45.2057 47.9916L45.3723 48C46.1926 48 46.8711 47.3922 46.9836 46.6016C46.9867 46.5799 46.9894 46.558 46.9916 46.5359L47 46.3694V33.3245C47 32.4239 46.2713 31.6939 45.3723 31.6939C44.4734 31.6939 43.7447 32.4239 43.7447 33.3245Z" fill="white"></path><path fill-rule="evenodd" clip-rule="evenodd" d="M37.234 43.1082V46.3694L37.2421 46.5328C37.2572 46.685 37.2932 46.831 37.3472 46.9679C37.3518 46.9795 37.3564 46.991 37.3612 47.0025C37.3659 47.0136 37.3707 47.0246 37.3757 47.0356C37.3856 47.0579 37.3961 47.0799 37.407 47.1017C37.4215 47.1305 37.4368 47.1588 37.4529 47.1867C37.4691 47.2146 37.4861 47.2421 37.5039 47.2689C37.5291 47.307 37.5558 47.344 37.584 47.3797C37.6108 47.4136 37.6389 47.4465 37.6682 47.4782C37.9301 47.7609 38.2908 47.9504 38.6953 47.9916L38.8617 48C39.3106 48 39.717 47.8179 40.0115 47.5235C40.049 47.4861 40.0846 47.4468 40.1182 47.4059C40.1432 47.3757 40.167 47.3444 40.1897 47.3124C40.2122 47.2808 40.2335 47.2483 40.2536 47.2151C40.269 47.1897 40.2837 47.1639 40.2977 47.1377C40.3161 47.1033 40.3333 47.0682 40.3492 47.0324C40.3553 47.0186 40.3613 47.0047 40.3671 46.9907C40.4261 46.8472 40.4653 46.6935 40.4813 46.5328L40.4894 46.3694V36.5857C40.4894 35.4875 40.1205 34.4276 39.4518 33.5716C39.3799 33.4796 39.3042 33.3902 39.2254 33.3031L39.0588 33.127C38.2004 32.267 37.0556 31.7603 35.8488 31.7002L35.6064 31.6939C34.3113 31.6939 33.0697 32.2096 32.154 33.127L31.9886 33.3011C31.9223 33.3743 31.8585 33.4493 31.7971 33.526C31.7665 33.5642 31.7365 33.6028 31.7071 33.6418C31.6664 33.696 31.6269 33.7509 31.5885 33.8065C31.4828 33.9599 31.3861 34.1188 31.2989 34.2824C31.2228 34.4253 31.1538 34.5717 31.0923 34.7212C30.8813 35.2334 30.7572 35.7816 30.7294 36.3431C30.7254 36.4238 30.7234 36.5046 30.7234 36.5857V40.8194V46.3694C30.7234 47.1073 31.2126 47.7307 31.8838 47.9318C31.9671 47.9568 32.0531 47.9752 32.1414 47.9866C32.1558 47.9885 32.1703 47.9901 32.1848 47.9916L32.3511 48C32.7561 48 33.1266 47.8518 33.4114 47.6066C33.7209 47.3401 33.9293 46.9591 33.971 46.5292L33.9787 46.3694V43.1082H37.234ZM36.7572 35.4328C37.0244 35.7005 37.1892 36.0515 37.2261 36.4249L37.234 36.5857V39.8469H33.9787V38.4728V36.5857C33.9787 36.1533 34.1503 35.7386 34.4556 35.4328C34.7608 35.127 35.1747 34.9551 35.6064 34.9551L35.7669 34.9631C36.0472 34.9909 36.3147 35.0911 36.5438 35.2529C36.6195 35.3063 36.6909 35.3664 36.7572 35.4328Z" fill="white"></path><path d="M15.0688 27.1837C14.8022 27.1837 14.5465 27.2898 14.358 27.4787C14.1695 27.6676 14.0636 27.9237 14.0636 28.1908C14.0636 28.4579 14.1695 28.7141 14.358 28.903C14.5465 29.0918 14.8022 29.1979 15.0688 29.1979C15.3354 29.1979 15.591 29.0918 15.7795 28.903C15.968 28.7141 16.0739 28.4579 16.0739 28.1908C16.0739 27.9237 15.968 27.6676 15.7795 27.4787C15.591 27.2898 15.3354 27.1837 15.0688 27.1837Z" fill="white"></path><path d="M28.1359 18.1198C28.1359 17.8527 28.2418 17.5965 28.4303 17.4076C28.6188 17.2187 28.8745 17.1126 29.1411 17.1126C29.4077 17.1126 29.6633 17.2187 29.8518 17.4076C30.0403 17.5965 30.1462 17.8527 30.1462 18.1198C30.1462 18.3869 30.0403 18.643 29.8518 18.8319C29.6633 19.0208 29.4077 19.1269 29.1411 19.1269C28.8745 19.1269 28.6188 19.0208 28.4303 18.8319C28.2418 18.643 28.1359 18.3869 28.1359 18.1198Z" fill="white"></path><path d="M14.0636 14.0913C14.0636 13.8242 14.1695 13.5681 14.358 13.3792C14.5465 13.1903 14.8022 13.0842 15.0688 13.0842C15.3354 13.0842 15.591 13.1903 15.7795 13.3792C15.968 13.5681 16.0739 13.8242 16.0739 14.0913C16.0739 14.3584 15.968 14.6146 15.7795 14.8035C15.591 14.9923 15.3354 15.0984 15.0688 15.0984C14.8022 15.0984 14.5465 14.9923 14.358 14.8035C14.1695 14.6146 14.0636 14.3584 14.0636 14.0913Z" fill="white"></path></svg> 