<?xml version="1.0" encoding="UTF-8"?> <svg xmlns="http://www.w3.org/2000/svg" width="50" height="50" viewBox="0 0 50 50" fill="none"><path d="M44.8288 14.5486H28.0973V10.3658H44.8288V14.5486ZM44.8288 2H28.0973V6.18288H44.8288V2ZM28.0973 22.9144H44.8288V18.7315H28.0973V22.9144ZM23.9144 6.18288V18.7315C23.9144 21.0321 22.0321 22.9144 19.7315 22.9144H7.18288C4.8823 22.9144 3 21.0321 3 18.7315V6.18288C3 3.8823 4.8823 2 7.18288 2H19.7315C22.0321 2 23.9144 3.8823 23.9144 6.18288ZM20.7772 18.7315L16.1761 12.4572L12.4115 17.2675L9.90175 14.1304L6.13716 18.7315H20.7772Z" fill="white"></path><path d="M21.572 31.2802H4.84045V27.0973H21.572V31.2802Z" fill="white"></path><path d="M17.891 39.0604H4.84045V35.0448H17.891V39.0604Z" fill="white"></path><path d="M46 37.0526C46 43.1512 41.0558 48.0954 34.9572 48.0954C28.8585 48.0954 23.9144 43.1512 23.9144 37.0526C23.9144 30.9539 28.8585 26.0098 34.9572 26.0098C41.0558 26.0098 46 30.9539 46 37.0526ZM40.2678 35.5467H35.9611V29.4521L29.6466 38.5584H33.9533V44.653L40.2678 35.5467Z" fill="white"></path></svg> 