<?xml version="1.0" encoding="UTF-8"?> <svg xmlns="http://www.w3.org/2000/svg" width="50" height="50" viewBox="0 0 50 50" fill="none"><path fill-rule="evenodd" clip-rule="evenodd" d="M6.25 39.5834V10.4167C6.25 5.83127 9.9875 4.16669 12.5 4.16669H39.5833C41.8812 4.16669 43.75 6.03544 43.75 8.33335V37.5H12.525C11.5625 37.525 10.4167 37.9042 10.4167 39.5834C10.4167 41.2625 11.5625 41.6417 12.525 41.6667H43.75V45.8334H12.5C9.9875 45.8334 6.25 44.1688 6.25 39.5834ZM33.5 21C33.5 21.33 33.47 21.65 33.43 21.97L35.54 23.63C35.73 23.78 35.78 24.05 35.66 24.27L33.66 27.73C33.54 27.95 33.27 28.03 33.05 27.95L30.56 26.94C30.04 27.34 29.5 27.67 28.87 27.93L28.5 30.58C28.46 30.82 28.25 31 28 31H24C23.75 31 23.54 30.82 23.5 30.58L23.13 27.93C22.5 27.68 21.96 27.34 21.44 26.94L18.95 27.95C18.73 28.03 18.46 27.95 18.34 27.73L16.34 24.27C16.21 24.05 16.27 23.78 16.46 23.63L18.57 21.97C18.53 21.65 18.5 21.33 18.5 21C18.5 20.67 18.53 20.34 18.57 20L16.46 18.37C16.27 18.22 16.21 17.95 16.34 17.73L18.34 14.27C18.46 14.05 18.73 13.96 18.95 14.05L21.44 15.05C21.96 14.66 22.5 14.32 23.13 14.07L23.5 11.42C23.54 11.18 23.75 11 24 11H28C28.1195 10.9997 28.2353 11.0417 28.3268 11.1186C28.4183 11.1954 28.4796 11.3022 28.5 11.42L28.87 14.07C29.5 14.32 30.04 14.66 30.56 15.05L33.05 14.05C33.27 13.96 33.54 14.05 33.66 14.27L35.66 17.73C35.78 17.95 35.73 18.22 35.54 18.37L33.43 20C33.47 20.34 33.5 20.67 33.5 21ZM26 24.5C25.0717 24.5 24.1815 24.1313 23.5251 23.4749C22.8687 22.8185 22.5 21.9283 22.5 21C22.5 20.0718 22.8687 19.1815 23.5251 18.5251C24.1815 17.8688 25.0717 17.5 26 17.5C26.9282 17.5 27.8185 17.8688 28.4748 18.5251C29.1312 19.1815 29.5 20.0718 29.5 21C29.5 21.9283 29.1312 22.8185 28.4748 23.4749C27.8185 24.1313 26.9282 24.5 26 24.5Z" fill="white"></path></svg> 