<?xml version="1.0" encoding="UTF-8"?> <svg xmlns="http://www.w3.org/2000/svg" width="51" height="50" viewBox="0 0 51 50" fill="none"><path d="M35.7408 10.976C35.7408 9.78784 34.696 8.59731 33.3328 8.5973H27.7777C27.0618 8.5973 26.4818 8.0243 26.4817 7.31711C26.4818 6.60992 27.0618 6.03693 27.7777 6.03692H33.3338C36.2589 6.03724 38.3328 8.50583 38.3328 10.976C38.3326 11.683 37.7526 12.2562 37.0368 12.2562C36.3211 12.2561 35.741 11.683 35.7408 10.976Z" fill="url(#paint0_linear_4659_5521)"></path><path d="M5.4127 50C3.92557 50 2.65167 49.521 1.591 48.563C0.530334 47.6032 0 46.4168 0 45.0037V9.53517C0 8.15748 0.482952 6.94979 1.44885 5.91209C2.41476 4.8744 3.60482 4.21211 5.01905 3.92524L23.6846 0.108258C25.0533 -0.176843 26.2844 0.101174 27.3779 0.94231C28.4713 1.78345 29.0181 2.89197 29.0181 4.26789V34.3549C29.0181 35.3678 28.6873 36.262 28.0257 37.0377C27.3642 37.8133 26.535 38.3109 25.5381 38.5304L4.80035 42.9159C4.24997 43.0398 3.76793 43.2842 3.35423 43.649C2.94053 44.0138 2.73368 44.4662 2.73368 45.0063C2.73368 45.6969 2.99976 46.2592 3.53192 46.693C4.06408 47.1269 4.69191 47.3438 5.41543 47.3438H33.8567C34.3469 47.3438 34.7497 47.1906 35.065 46.8843C35.3803 46.5779 35.5379 46.1857 35.5379 45.7076V45.8032C35.5379 45.426 35.6682 45.1099 35.9288 44.8549C36.1894 44.5999 36.5147 44.4733 36.9047 44.4751C37.2947 44.4768 37.6201 44.6034 37.8807 44.8549C38.1413 45.1064 38.2716 45.4224 38.2716 45.8032V45.7102C38.2716 46.8967 37.8415 47.9087 36.9813 48.7463C36.1211 49.5821 35.0796 50 33.8567 50H5.4127ZM8.17098 39.5398C8.49356 39.4743 8.75417 39.3255 8.95282 39.0936C9.15146 38.8616 9.2517 38.5898 9.25352 38.2781V7.41817C9.25352 6.98609 9.0895 6.64078 8.76146 6.38224C8.43342 6.12371 8.04706 6.04845 7.60238 6.15646C7.2798 6.22199 7.01828 6.37073 6.81781 6.60271C6.61734 6.83292 6.5171 7.10473 6.5171 7.41817V38.2781C6.5171 38.7102 6.68113 39.0555 7.00917 39.314C7.33721 39.5726 7.7263 39.6478 8.17098 39.5398Z" fill="url(#paint1_linear_4659_5521)"></path><path d="M47.9729 13.4146H36.2208C34.5559 13.4146 33.1937 14.7008 33.1937 16.2729V41.0442C33.1937 42.6162 34.5559 43.9024 36.2208 43.9024H47.9729C49.6378 43.9024 51 42.6162 51 41.0442V16.2729C51 14.7008 49.6378 13.4146 47.9729 13.4146ZM38.0608 14.8438H46.133V15.7965H38.0608V14.8438ZM42.0969 41.9969C41.5617 41.9969 41.0484 41.7962 40.6699 41.4388C40.2914 41.0815 40.0788 40.5968 40.0788 40.0915C40.0788 39.5861 40.2914 39.1014 40.6699 38.7441C41.0484 38.3867 41.5617 38.186 42.0969 38.186C42.6321 38.186 43.1454 38.3867 43.5238 38.7441C43.9023 39.1014 44.1149 39.5861 44.1149 40.0915C44.1149 40.5968 43.9023 41.0815 43.5238 41.4388C43.1454 41.7962 42.6321 41.9969 42.0969 41.9969ZM48.982 36.2805H35.2118V17.2256H48.982V36.2805Z" fill="url(#paint2_linear_4659_5521)"></path><path d="M36.7551 19.2777H47.4388V20.4503H36.7551V19.2777Z" fill="url(#paint3_linear_4659_5521)"></path><path d="M36.755 21.6229H47.4388V22.7955H36.755V21.6229Z" fill="url(#paint4_linear_4659_5521)"></path><path d="M36.755 23.9682H45.0646V25.1408H36.755V23.9682Z" fill="url(#paint5_linear_4659_5521)"></path><path d="M36.755 27.486H47.4388V28.6586H36.755V27.486Z" fill="url(#paint6_linear_4659_5521)"></path><path d="M36.755 29.8312H47.4388V31.0038H36.755V29.8312Z" fill="url(#paint7_linear_4659_5521)"></path><path d="M36.755 32.1764H42.6905V33.349H36.755V32.1764Z" fill="url(#paint8_linear_4659_5521)"></path><defs><linearGradient id="paint0_linear_4659_5521" x1="46.2068" y1="3.94636" x2="16.8861" y2="37.5715" gradientUnits="userSpaceOnUse"><stop stop-color="#29E8BD"></stop><stop offset="1" stop-color="#199887"></stop></linearGradient><linearGradient id="paint1_linear_4659_5521" x1="46.2068" y1="3.94636" x2="16.8861" y2="37.5715" gradientUnits="userSpaceOnUse"><stop stop-color="#29E8BD"></stop><stop offset="1" stop-color="#199887"></stop></linearGradient><linearGradient id="paint2_linear_4659_5521" x1="46.2068" y1="3.94636" x2="16.8861" y2="37.5715" gradientUnits="userSpaceOnUse"><stop stop-color="#29E8BD"></stop><stop offset="1" stop-color="#199887"></stop></linearGradient><linearGradient id="paint3_linear_4659_5521" x1="46.2068" y1="3.94636" x2="16.8861" y2="37.5715" gradientUnits="userSpaceOnUse"><stop stop-color="#29E8BD"></stop><stop offset="1" stop-color="#199887"></stop></linearGradient><linearGradient id="paint4_linear_4659_5521" x1="46.2068" y1="3.94636" x2="16.8861" y2="37.5715" gradientUnits="userSpaceOnUse"><stop stop-color="#29E8BD"></stop><stop offset="1" stop-color="#199887"></stop></linearGradient><linearGradient id="paint5_linear_4659_5521" x1="46.2068" y1="3.94636" x2="16.8861" y2="37.5715" gradientUnits="userSpaceOnUse"><stop stop-color="#29E8BD"></stop><stop offset="1" stop-color="#199887"></stop></linearGradient><linearGradient id="paint6_linear_4659_5521" x1="46.2068" y1="3.94636" x2="16.8861" y2="37.5715" gradientUnits="userSpaceOnUse"><stop stop-color="#29E8BD"></stop><stop offset="1" stop-color="#199887"></stop></linearGradient><linearGradient id="paint7_linear_4659_5521" x1="46.2068" y1="3.94636" x2="16.8861" y2="37.5715" gradientUnits="userSpaceOnUse"><stop stop-color="#29E8BD"></stop><stop offset="1" stop-color="#199887"></stop></linearGradient><linearGradient id="paint8_linear_4659_5521" x1="46.2068" y1="3.94636" x2="16.8861" y2="37.5715" gradientUnits="userSpaceOnUse"><stop stop-color="#29E8BD"></stop><stop offset="1" stop-color="#199887"></stop></linearGradient></defs></svg> 