<?xml version="1.0" encoding="UTF-8"?> <svg xmlns="http://www.w3.org/2000/svg" width="50" height="50" viewBox="0 0 50 50" fill="none"><path d="M18.0157 11.5833H15.4358L11.5833 26.9167H13.5537L14.443 23.3229H18.882L19.7483 26.9167H21.7838L18.0157 11.5833ZM14.7017 21.7838L16.651 13.4042H16.7372L18.6233 21.7857L14.7017 21.7838ZM23.5395 26.9167V11.5833H25.4562V26.9167H23.5395ZM23.8979 28.8333H9.66667V9.66667H28.8333V18.8283C31.1016 17.3627 33.8458 16.8234 36.5 17.3218V13.5H32.6667V9.66667C32.6636 8.65094 32.2588 7.67767 31.5406 6.95944C30.8223 6.24121 29.8491 5.83637 28.8333 5.83333H25V2H21.1667V5.83333H17.3333V2H13.5V5.83333H9.66667C8.65094 5.83637 7.67767 6.24121 6.95944 6.95944C6.24121 7.67767 5.83637 8.65094 5.83333 9.66667V13.5H2V17.3333H5.83333V21.1667H2V25H5.83333V28.8333C5.83637 29.8491 6.24121 30.8223 6.95944 31.5406C7.67767 32.2588 8.65094 32.6636 9.66667 32.6667H13.5V36.5H17.3333V32.6667H21.1667V36.5H25V32.682C24.3945 31.4796 24.0207 30.174 23.8979 28.8333ZM27.875 27.875C27.875 26.5482 28.2684 25.2512 29.0056 24.148C29.7427 23.0449 30.7904 22.185 32.0162 21.6773C33.242 21.1696 34.5908 21.0367 35.8921 21.2956C37.1934 21.5544 38.3887 22.1933 39.3268 23.1315C40.265 24.0697 40.9039 25.265 41.1628 26.5663C41.4216 27.8676 41.2888 29.2164 40.781 30.4422C40.2733 31.668 39.4135 32.7157 38.3103 33.4528C37.2071 34.1899 35.9101 34.5833 34.5833 34.5833C32.8042 34.5833 31.0979 33.8766 29.8398 32.6185C28.5818 31.3605 27.875 29.6542 27.875 27.875ZM34.5833 38.4167C30.106 38.4167 21.1667 40.6649 21.1667 45.125V48H48V45.125C48 40.663 39.0607 38.4167 34.5833 38.4167Z" fill="white"></path></svg> 