<svg xmlns="http://www.w3.org/2000/svg" width="138" height="38" viewBox="0 0 138 38" fill="none"><path d="M52.5709 7.7002C54.4052 7.7002 55.9889 8.04705 57.3303 8.73269C58.6716 9.41833 59.8029 10.4347 60.724 11.7656L58.5019 13.8952C57.7181 12.7013 56.8374 11.8463 55.8597 11.322C54.8819 10.7977 53.7264 10.5396 52.3851 10.5396C51.3993 10.5396 50.5832 10.6767 49.9448 10.9429C49.3065 11.2091 48.8378 11.564 48.5388 12.0076C48.2399 12.4513 48.0944 12.9514 48.0944 13.4999C48.0944 14.1372 48.3126 14.6937 48.757 15.1616C49.2014 15.6375 50.0256 16.0086 51.2458 16.2747L55.3829 17.2024C57.3626 17.638 58.7605 18.2913 59.5847 19.1786C60.4089 20.0659 60.821 21.1791 60.821 22.5423C60.821 23.7926 60.4816 24.8816 59.8029 25.8092C59.1241 26.7368 58.1787 27.4467 56.9747 27.9387C55.7708 28.4308 54.3567 28.6808 52.7245 28.6808C51.2862 28.6808 49.9852 28.4953 48.8297 28.1242C47.6742 27.7532 46.6642 27.2531 45.7996 26.6158C44.935 25.9786 44.2239 25.2526 43.6664 24.4298L45.9531 22.1471C46.3895 22.865 46.9308 23.5103 47.5934 24.0749C48.256 24.6396 49.0156 25.0751 49.8963 25.3817C50.769 25.6882 51.7467 25.8414 52.8134 25.8414C53.7588 25.8414 54.5749 25.7285 55.2698 25.5027C55.9566 25.2768 56.4818 24.9461 56.8455 24.5024C57.2091 24.0588 57.3868 23.5345 57.3868 22.9134C57.3868 22.3164 57.1848 21.7921 56.7808 21.3404C56.3768 20.8887 55.6334 20.5418 54.5426 20.2918L50.066 19.2754C48.8297 19.0092 47.8116 18.6301 47.0117 18.1381C46.2117 17.646 45.6137 17.041 45.2178 16.3312C44.83 15.6214 44.6279 14.8228 44.6279 13.9436C44.6279 12.7901 44.9431 11.7495 45.5733 10.8138C46.2036 9.87811 47.1086 9.12794 48.3045 8.5633C49.5004 7.99058 50.9226 7.7002 52.5709 7.7002Z" fill="#4C617B"></path><path d="M63.2209 34.8346V12.9425H66.1541L66.4045 17.258L65.9682 16.7337C66.2187 15.9351 66.5985 15.2253 67.1075 14.6042C67.6247 13.9911 68.263 13.5072 69.0388 13.1522C69.8145 12.8054 70.6629 12.6279 71.5841 12.6279C72.8365 12.6279 73.9839 12.9506 75.0101 13.5798C76.0364 14.217 76.8525 15.1285 77.4504 16.3062C78.0484 17.4919 78.3473 18.9197 78.3473 20.6056C78.3473 22.2914 78.0403 23.7353 77.4343 24.9372C76.8282 26.1391 76.004 27.0587 74.9617 27.6959C73.9193 28.3331 72.7638 28.6477 71.4871 28.6477C70.17 28.6477 69.0468 28.3009 68.1176 27.6152C67.1883 26.9296 66.5338 26.0504 66.1379 24.9775L66.5096 24.4532V34.8104H63.2209V34.8346ZM70.7922 25.9858C72.1335 25.9858 73.1759 25.5099 73.9274 24.5661C74.6789 23.6224 75.0586 22.3156 75.0586 20.654C75.0586 18.9923 74.6869 17.6775 73.9435 16.7256C73.2001 15.7738 72.1739 15.2898 70.8568 15.2898C69.9922 15.2898 69.2327 15.5076 68.5862 15.9513C67.9398 16.3949 67.4308 17.008 67.0752 17.7985C66.7116 18.589 66.5338 19.5408 66.5338 20.654C66.5338 21.7429 66.7116 22.6867 67.0591 23.4933C67.4065 24.2919 67.8994 24.913 68.5378 25.3405C69.1761 25.768 69.9276 25.9858 70.7922 25.9858Z" fill="#4C617B"></path><path d="M83.1147 10.3536C82.3956 10.3536 81.8461 10.1761 81.4663 9.81313C81.0866 9.45014 80.8926 8.94196 80.8926 8.28858C80.8926 7.62714 81.0866 7.12703 81.4663 6.78017C81.8461 6.43332 82.3956 6.25586 83.1147 6.25586C83.8177 6.25586 84.351 6.43332 84.7389 6.78017C85.1187 7.12703 85.3126 7.63521 85.3126 8.28858C85.3126 8.95002 85.1187 9.45821 84.7389 9.81313C84.351 10.1761 83.8097 10.3536 83.1147 10.3536ZM84.747 12.9429V28.3577H81.4421V12.9429H84.747Z" fill="#4C617B"></path><path d="M88.7629 28.3573V12.9425H91.6961L91.9143 16.9515L91.4779 16.5159C91.7688 15.6286 92.1809 14.8946 92.7304 14.3138C93.2718 13.725 93.9263 13.3055 94.6778 13.0312C95.4292 12.7651 96.2292 12.6279 97.0696 12.6279C98.1604 12.6279 99.1462 12.8377 100.019 13.2571C100.892 13.6766 101.586 14.3138 102.104 15.1527C102.621 15.9997 102.879 17.0644 102.879 18.3631V28.3493H99.5745V19.3875C99.5745 17.863 99.2593 16.8144 98.6291 16.2255C97.9988 15.6367 97.215 15.3463 96.2696 15.3463C95.5909 15.3463 94.9283 15.5076 94.2899 15.8222C93.6516 16.1449 93.1183 16.653 92.6981 17.3468C92.2779 18.0485 92.0678 18.9842 92.0678 20.1538V28.3573H88.7629Z" fill="#4C617B"></path><path d="M113.529 28.6721C111.986 28.6721 110.628 28.3576 109.449 27.7203C108.277 27.0831 107.364 26.1635 106.718 24.9616C106.071 23.7597 105.748 22.3239 105.748 20.6622C105.748 19.0006 106.071 17.5648 106.718 16.3629C107.364 15.161 108.269 14.2414 109.416 13.6042C110.572 12.9669 111.873 12.6523 113.335 12.6523C114.838 12.6523 116.115 12.9589 117.165 13.58C118.216 14.193 119.016 15.04 119.573 16.1047C120.131 17.1776 120.406 18.3875 120.406 19.7427C120.406 20.1137 120.398 20.4606 120.373 20.7913C120.349 21.122 120.325 21.4043 120.284 21.6544H107.865V19.1296H118.83L117.19 19.6217C117.19 18.2262 116.842 17.1534 116.139 16.4032C115.436 15.653 114.483 15.2739 113.271 15.2739C112.382 15.2739 111.614 15.4836 110.952 15.887C110.289 16.2983 109.788 16.9114 109.441 17.718C109.093 18.5327 108.915 19.5249 108.915 20.6945C108.915 21.848 109.101 22.824 109.473 23.6226C109.845 24.4212 110.37 25.0342 111.049 25.4456C111.727 25.857 112.527 26.0586 113.457 26.0586C114.483 26.0586 115.323 25.865 115.961 25.4698C116.6 25.0826 117.101 24.5341 117.472 23.8323L120.099 25.0665C119.727 25.8086 119.226 26.4458 118.604 26.9943C117.973 27.5429 117.23 27.9542 116.365 28.2446C115.501 28.535 114.564 28.6721 113.529 28.6721Z" fill="#4C617B"></path><path d="M129.318 28.6724C127.775 28.6724 126.361 28.3739 125.084 27.777C123.808 27.1801 122.797 26.3412 122.054 25.2523L124.341 23.276C124.793 24.123 125.448 24.7925 126.304 25.2926C127.161 25.7927 128.179 26.0508 129.375 26.0508C130.32 26.0508 131.072 25.8895 131.629 25.5588C132.187 25.2281 132.462 24.7683 132.462 24.1714C132.462 23.7842 132.332 23.4373 132.074 23.1389C131.815 22.8404 131.33 22.6065 130.603 22.4452L127.363 21.7676C125.714 21.4369 124.543 20.9126 123.84 20.1785C123.137 19.4525 122.789 18.5168 122.789 17.3876C122.789 16.5487 123.04 15.7662 123.533 15.0483C124.026 14.3304 124.753 13.7496 125.706 13.306C126.66 12.8623 127.815 12.6445 129.149 12.6445C130.692 12.6445 132.009 12.9188 133.1 13.4592C134.191 14.0077 135.023 14.7821 135.605 15.7904L133.318 17.7021C132.93 16.8794 132.348 16.2663 131.589 15.8711C130.829 15.4678 130.037 15.2661 129.213 15.2661C128.551 15.2661 127.985 15.3468 127.516 15.5162C127.04 15.6775 126.684 15.9033 126.434 16.1937C126.183 16.4841 126.062 16.8229 126.062 17.2101C126.062 17.6215 126.215 17.9845 126.523 18.291C126.83 18.5975 127.387 18.8395 128.187 19.0008L131.71 19.7429C133.189 20.0333 134.239 20.5173 134.845 21.211C135.451 21.8967 135.758 22.7356 135.758 23.7277C135.758 24.7199 135.5 25.583 134.983 26.3332C134.466 27.0833 133.73 27.6641 132.761 28.0755C131.807 28.4627 130.652 28.6724 129.318 28.6724Z" fill="#4C617B"></path><path d="M6.98954 2.32035C8.62986 1.72344 10.4075 1.9009 12.1125 1.86863C14.0356 1.9009 15.9668 1.79604 17.89 1.93316C17.2516 2.19935 16.589 2.40101 15.9588 2.67527C13.4619 3.81263 11.6034 6.2164 11.1105 8.9025C10.8196 10.8142 11.0055 12.8631 11.9428 14.5893C13.0256 16.7672 15.1184 18.4127 17.494 18.9613C17.8334 19.05 18.1728 19.1387 18.5122 19.2516C15.7648 19.3081 13.0094 19.2436 10.2621 19.2839C8.02383 19.421 5.76133 18.5741 4.07253 17.1221C1.67266 15.0168 0.565647 11.5402 1.38984 8.44272C2.0686 5.63563 4.24222 3.23185 6.98954 2.32035Z" fill="#4C617B"></path><path d="M20.5484 19.2266C23.6997 19.2347 26.8592 19.2105 30.0105 19.2347C34.1961 19.5412 37.7353 23.3889 37.7757 27.5592C37.9939 31.2052 35.5698 34.8431 32.1033 36.037C31.1175 36.4322 30.0428 36.5855 28.9843 36.5451C26.1723 36.529 23.3523 36.5371 20.5322 36.5451C21.3564 36.3031 22.2049 36.1095 22.9887 35.7466C25.2754 34.6899 27.0127 32.5684 27.6672 30.1485C28.2975 27.5673 27.845 24.6795 26.1642 22.5742C24.831 20.7512 22.7301 19.6784 20.5484 19.2266Z" fill="#4C617B"></path><path d="M13.874 8.80571C14.5527 6.46646 16.8152 4.587 19.304 4.6354C25.138 4.64346 30.9801 4.60313 36.8222 4.6596C36.095 5.49043 35.1981 6.20834 34.7618 7.25697C33.7517 9.24936 33.7032 11.6773 34.681 13.6859C35.1496 14.7748 36.0061 15.6137 36.8061 16.4607C31.3195 16.6139 25.8329 16.4849 20.3545 16.5333C18.9161 16.5655 17.389 16.38 16.1931 15.5008C14.0679 14.0811 13.066 11.2256 13.874 8.80571Z" fill="url(#paint0_linear_535_7827)"></path><path d="M1.19592 21.921C7.09459 21.8726 13.0013 21.9291 18.9081 21.8887C19.9909 21.8645 21.0979 22.0581 22.0675 22.5502C24.5886 23.7762 25.938 26.9383 25.0573 29.6082C24.3623 32.1653 21.7443 34.0205 19.1101 33.8673C13.1387 33.8269 7.15923 33.8915 1.18784 33.835C1.56761 33.4156 1.99587 33.0526 2.39989 32.6493C4.45231 30.3342 4.7432 26.6721 3.0948 24.0586C2.65038 23.1955 1.84235 22.6308 1.19592 21.921Z" fill="url(#paint1_linear_535_7827)"></path><defs><linearGradient id="paint0_linear_535_7827" x1="13.5931" y1="10.581" x2="36.8187" y2="10.581" gradientUnits="userSpaceOnUse"><stop stop-color="#40C1AC"></stop><stop offset="1" stop-color="#04DDA6"></stop></linearGradient><linearGradient id="paint1_linear_535_7827" x1="1.19542" y1="27.8849" x2="25.333" y2="27.8849" gradientUnits="userSpaceOnUse"><stop stop-color="#04DDA6"></stop><stop offset="1" stop-color="#40C1AC"></stop></linearGradient></defs></svg>