<svg xmlns="http://www.w3.org/2000/svg" width="128" height="34" viewBox="0 0 128 34" fill="none"><path d="M49.0269 6.32114C50.7375 6.32114 52.2145 6.64395 53.4654 7.28206C54.7163 7.92017 55.7713 8.86607 56.6303 10.1048L54.558 12.0867C53.8271 10.9756 53.0057 10.1798 52.0939 9.69186C51.1821 9.2039 50.1045 8.96367 48.8536 8.96367C47.9342 8.96367 47.1731 9.09129 46.5778 9.33903C45.9825 9.58676 45.5455 9.91708 45.2666 10.33C44.9878 10.7429 44.8522 11.2083 44.8522 11.7188C44.8522 12.3119 45.0556 12.8299 45.4701 13.2653C45.8846 13.7082 46.6532 14.0535 47.7911 14.3013L51.6493 15.1646C53.4955 15.57 54.7992 16.1781 55.5678 17.0039C56.3365 17.8296 56.7208 18.8656 56.7208 20.1343C56.7208 21.298 56.4043 22.3114 55.7713 23.1748C55.1383 24.0381 54.2566 24.6987 53.1338 25.1566C52.011 25.6146 50.6923 25.8473 49.1701 25.8473C47.8287 25.8473 46.6155 25.6746 45.5379 25.3293C44.4603 24.984 43.5184 24.5185 42.7121 23.9255C41.9057 23.3324 41.2426 22.6568 40.7227 21.891L42.8552 19.7665C43.2622 20.4346 43.767 21.0352 44.385 21.5607C45.0029 22.0862 45.7112 22.4916 46.5326 22.7769C47.3465 23.0621 48.2583 23.2048 49.253 23.2048C50.1346 23.2048 50.8957 23.0997 51.5438 22.8895C52.1843 22.6793 52.6741 22.3715 53.0132 21.9586C53.3523 21.5457 53.5181 21.0577 53.5181 20.4797C53.5181 19.9241 53.3297 19.4362 52.953 19.0158C52.5762 18.5954 51.8829 18.2726 50.8656 18.0398L46.6909 17.0939C45.5379 16.8462 44.5884 16.4934 43.8424 16.0354C43.0964 15.5775 42.5387 15.0145 42.1695 14.3538C41.8078 13.6932 41.6194 12.95 41.6194 12.1317C41.6194 11.0582 41.9133 10.0897 42.5011 9.21891C43.0888 8.34808 43.9328 7.64991 45.0481 7.12441C46.1634 6.5914 47.4896 6.32114 49.0269 6.32114Z" fill="#133B49"></path><path d="M58.959 31.5753V11.2008H61.6944L61.928 15.2172L61.5211 14.7292C61.7547 13.986 62.1089 13.3253 62.5836 12.7473C63.0659 12.1768 63.6612 11.7263 64.3846 11.396C65.108 11.0732 65.8993 10.908 66.7583 10.908C67.9264 10.908 68.9964 11.2083 69.9534 11.7939C70.9105 12.387 71.6716 13.2353 72.2292 14.3313C72.7868 15.4349 73.0657 16.7636 73.0657 18.3326C73.0657 19.9016 72.7793 21.2454 72.2141 22.364C71.649 23.4826 70.8803 24.3384 69.9082 24.9314C68.9361 25.5245 67.8585 25.8173 66.6679 25.8173C65.4396 25.8173 64.3922 25.4945 63.5256 24.8564C62.659 24.2183 62.0486 23.4 61.6793 22.4015L62.026 21.9136V31.5528H58.959V31.5753ZM66.0199 23.3399C67.2708 23.3399 68.2429 22.897 68.9437 22.0187C69.6445 21.1403 69.9987 19.9242 69.9987 18.3777C69.9987 16.8312 69.652 15.6075 68.9587 14.7217C68.2655 13.8358 67.3084 13.3854 66.0801 13.3854C65.2738 13.3854 64.5655 13.5881 63.9626 14.001C63.3598 14.4139 62.885 14.9844 62.5535 15.7201C62.2144 16.4558 62.0486 17.3417 62.0486 18.3777C62.0486 19.3911 62.2144 20.2695 62.5384 21.0202C62.8624 21.7634 63.3221 22.3415 63.9174 22.7393C64.5127 23.1372 65.2135 23.3399 66.0199 23.3399Z" fill="#133B49"></path><path d="M77.5117 8.79101C76.8411 8.79101 76.3287 8.62585 75.9745 8.28803C75.6203 7.95021 75.4395 7.47725 75.4395 6.86917C75.4395 6.25358 75.6203 5.78814 75.9745 5.46533C76.3287 5.14252 76.8411 4.97736 77.5117 4.97736C78.1673 4.97736 78.6647 5.14252 79.0264 5.46533C79.3806 5.78814 79.5614 6.26109 79.5614 6.86917C79.5614 7.48476 79.3806 7.95771 79.0264 8.28803C78.6647 8.62585 78.1598 8.79101 77.5117 8.79101ZM79.0339 11.2008V25.547H75.9519V11.2008H79.0339Z" fill="#133B49"></path><path d="M82.7788 25.547V11.2008H85.5142L85.7177 14.9319L85.3108 14.5265C85.5821 13.7007 85.9664 13.0176 86.4788 12.477C86.9837 11.929 87.5941 11.5386 88.2949 11.2834C88.9957 11.0357 89.7417 10.908 90.5254 10.908C91.5427 10.908 92.4621 11.1032 93.2759 11.4936C94.0898 11.884 94.7378 12.477 95.2201 13.2578C95.7024 14.046 95.9435 15.037 95.9435 16.2456V25.5395H92.8615V17.1991C92.8615 15.7802 92.5676 14.8043 91.9798 14.2562C91.392 13.7082 90.6611 13.438 89.7794 13.438C89.1464 13.438 88.5285 13.5881 87.9332 13.8809C87.3379 14.1812 86.8405 14.6541 86.4487 15.2997C86.0568 15.9529 85.8609 16.8237 85.8609 17.9122V25.547H82.7788Z" fill="#133B49"></path><path d="M105.875 25.8398C104.436 25.8398 103.17 25.547 102.07 24.954C100.977 24.3609 100.126 23.5051 99.5229 22.3865C98.9201 21.2679 98.6187 19.9317 98.6187 18.3852C98.6187 16.8387 98.9201 15.5024 99.5229 14.3839C100.126 13.2653 100.97 12.4095 102.04 11.8164C103.117 11.2233 104.331 10.9306 105.695 10.9306C107.096 10.9306 108.287 11.2158 109.266 11.7939C110.246 12.3644 110.992 13.1527 111.512 14.1436C112.032 15.1421 112.288 16.2682 112.288 17.5294C112.288 17.8747 112.281 18.1975 112.258 18.5053C112.236 18.8131 112.213 19.0758 112.175 19.3086H100.593V16.9588H110.819L109.289 17.4168C109.289 16.118 108.965 15.1196 108.309 14.4214C107.654 13.7232 106.765 13.3704 105.634 13.3704C104.805 13.3704 104.09 13.5656 103.472 13.9409C102.854 14.3238 102.386 14.8943 102.062 15.6451C101.738 16.4033 101.573 17.3267 101.573 18.4152C101.573 19.4887 101.746 20.3971 102.093 21.1403C102.439 21.8835 102.929 22.4541 103.562 22.8369C104.195 23.2198 104.941 23.4075 105.808 23.4075C106.765 23.4075 107.548 23.2273 108.144 22.8595C108.739 22.4991 109.206 21.9886 109.553 21.3355L112.002 22.4841C111.655 23.1748 111.188 23.7678 110.608 24.2783C110.02 24.7888 109.327 25.1717 108.52 25.4419C107.714 25.7122 106.84 25.8398 105.875 25.8398Z" fill="#133B49"></path><path d="M120.6 25.8398C119.161 25.8398 117.842 25.562 116.652 25.0065C115.461 24.451 114.519 23.6702 113.826 22.6568L115.958 20.8175C116.38 21.6058 116.991 22.2289 117.789 22.6943C118.588 23.1597 119.538 23.4 120.653 23.4C121.535 23.4 122.235 23.2498 122.755 22.942C123.275 22.6342 123.532 22.2063 123.532 21.6508C123.532 21.2905 123.411 20.9677 123.17 20.6899C122.929 20.4121 122.477 20.1944 121.798 20.0443L118.777 19.4137C117.239 19.1059 116.147 18.6179 115.491 17.9348C114.835 17.2591 114.511 16.3883 114.511 15.3373C114.511 14.5565 114.745 13.8283 115.205 13.1602C115.664 12.492 116.343 11.9515 117.232 11.5386C118.121 11.1257 119.199 10.923 120.442 10.923C121.881 10.923 123.11 11.1783 124.127 11.6813C125.144 12.1918 125.92 12.9125 126.463 13.8508L124.33 15.63C123.969 14.8643 123.426 14.2938 122.718 13.9259C122.009 13.5506 121.271 13.3629 120.502 13.3629C119.884 13.3629 119.357 13.438 118.92 13.5956C118.475 13.7457 118.144 13.9559 117.91 14.2262C117.676 14.4965 117.563 14.8118 117.563 15.1721C117.563 15.555 117.707 15.8928 117.993 16.1781C118.279 16.4633 118.799 16.6886 119.545 16.8387L122.831 17.5294C124.21 17.7996 125.189 18.2501 125.755 18.8957C126.32 19.5338 126.606 20.3145 126.606 21.2379C126.606 22.1613 126.365 22.9646 125.883 23.6627C125.4 24.3609 124.715 24.9014 123.81 25.2843C122.921 25.6446 121.844 25.8398 120.6 25.8398Z" fill="#133B49"></path><path d="M6.51827 1.31383C8.048 0.758294 9.70583 0.923452 11.2958 0.893423C13.0893 0.923452 14.8903 0.825859 16.6838 0.953481C16.0885 1.20122 15.4706 1.3889 14.8828 1.64414C12.5543 2.70265 10.8211 4.93979 10.3614 7.43968C10.0902 9.21888 10.2635 11.1257 11.1376 12.7322C12.1474 14.7592 14.0991 16.2906 16.3146 16.8011C16.6311 16.8837 16.9476 16.9663 17.2641 17.0714C14.702 17.1239 12.1323 17.0639 9.57019 17.1014C7.48283 17.229 5.37286 16.4408 3.79791 15.0895C1.55983 13.1301 0.527453 9.89453 1.29609 7.01177C1.92908 4.39928 3.95616 2.16214 6.51827 1.31383Z" fill="#133B49"></path><path d="M19.163 17.0489C22.1019 17.0564 25.0483 17.0339 27.9872 17.0564C31.8907 17.3416 35.1913 20.9226 35.229 24.8038C35.4324 28.197 33.1717 31.5828 29.939 32.6938C29.0196 33.0617 28.0174 33.2043 27.0302 33.1668C24.4078 33.1518 21.7779 33.1593 19.1479 33.1668C19.9166 32.9416 20.7078 32.7614 21.4388 32.4236C23.5714 31.4401 25.1915 29.4657 25.8019 27.2136C26.3897 24.8113 25.9677 22.1237 24.4003 20.1643C23.1569 18.4677 21.1976 17.4693 19.163 17.0489Z" fill="#133B49"></path><path d="M12.9386 7.3496C13.5716 5.17252 15.6816 3.42335 18.0026 3.46839C23.4433 3.4759 28.8915 3.43836 34.3398 3.49091C33.6616 4.26415 32.8251 4.93229 32.4182 5.90822C31.4763 7.76249 31.431 10.0222 32.3429 11.8914C32.7799 12.9049 33.5787 13.6857 34.3247 14.4739C29.208 14.6165 24.0914 14.4964 18.9822 14.5415C17.6409 14.5715 16.2166 14.3988 15.1014 13.5806C13.1195 12.2593 12.1851 9.60175 12.9386 7.3496Z" fill="url(#paint0_linear_546_11925)"></path><path d="M1.11545 19.5563C6.61645 19.5112 12.125 19.5638 17.6335 19.5262C18.6433 19.5037 19.6757 19.6839 20.5799 20.1418C22.9311 21.2829 24.1895 24.2257 23.3681 26.7106C22.7201 29.0904 20.2785 30.817 17.8219 30.6744C12.2531 30.6368 6.67673 30.6969 1.10791 30.6444C1.46208 30.254 1.86147 29.9162 2.23825 29.5408C4.1523 27.3862 4.42358 23.978 2.88632 21.5457C2.47186 20.7424 1.7183 20.2169 1.11545 19.5563Z" fill="url(#paint1_linear_546_11925)"></path><defs><linearGradient id="paint0_linear_546_11925" x1="12.6767" y1="9.00182" x2="34.3365" y2="9.00182" gradientUnits="userSpaceOnUse"><stop stop-color="#40C1AC"></stop><stop offset="1" stop-color="#04DDA6"></stop></linearGradient><linearGradient id="paint1_linear_546_11925" x1="1.11498" y1="25.1067" x2="23.6253" y2="25.1067" gradientUnits="userSpaceOnUse"><stop stop-color="#04DDA6"></stop><stop offset="1" stop-color="#40C1AC"></stop></linearGradient></defs></svg>