<?xml version="1.0" encoding="UTF-8"?> <svg xmlns="http://www.w3.org/2000/svg" version="1.2" viewBox="0 0 41 31" width="41" height="31"><title>Australia-svg</title><style> .s0 { fill: #00008b } .s1 { fill: #ffffff } .s2 { fill: #ff0000 } </style><path id="Layer" class="s0" d="m0 0h41v31h-41z"></path><path id="Layer" class="s1" d="m2.4 0l7.8 5.8 7.8-5.8h2.5v2l-7.7 5.8 7.7 5.7v2h-2.6l-7.6-5.8-7.7 5.8h-2.6v-1.9l7.7-5.8-7.7-5.7v-2.1z"></path><path id="Layer" class="s2" d="m13.6 9.1l6.9 5.1v1.3l-8.7-6.4zm-5.9 0.6l0.2 1.2-6.1 4.6h-1.8zm12.9-9.7v0.1l-8 6v-1.4l6.3-4.7zm-20.5 0l7.7 5.7h-1.9l-5.8-4.4z"></path><path id="Layer" class="s1" d="m7.7 0h5.1v15.5h-5.1zm-7.7 5.2h20.5v5.1h-20.5z"></path><path id="Layer" class="s2" d="m0 6.2h20.5v3.1h-20.5zm8.7-6.2h3.1v15.5h-3.1z"></path><path id="Layer" class="s1" d="m33.8 25.6l-1.4 0.2 0.2 1.3-1-0.9-0.9 0.9 0.1-1.3-1.3-0.2 1.1-0.7-0.7-1.1 1.3 0.4 0.4-1.3 0.5 1.3 1.2-0.4-0.7 1.1zm-0.2-7.6l0.2-0.8-0.7-0.6 0.9-0.1 0.3-0.8 0.4 0.8 0.8 0.1-0.6 0.6 0.2 0.8-0.8-0.4zm-6.6-3.9l-1.3 0.2 0.1 1.3-0.9-1-1 1 0.2-1.4-1.3-0.1 1.1-0.7-0.7-1.2 1.3 0.5 0.4-1.2 0.4 1.2 1.3-0.4-0.7 1.1 1.1 0.7zm13-2.1l-1.3 0.2 0.1 1.3-0.9-0.9-1 0.9 0.2-1.3-1.4-0.2 1.1-0.7-0.7-1.2 1.3 0.5 0.5-1.3 0.4 1.3 1.3-0.5-0.7 1.2zm-6.2-5.4l-1.3 0.1 0.1 1.4-0.9-1-1 1 0.2-1.4-1.3-0.2 1.1-0.7-0.7-1.1 1.3 0.4 0.4-1.2 0.5 1.2 1.2-0.4-0.7 1.1zm-18.7 18.3l-3 0.3 0.3 3-2.1-2.1-2.1 2.1 0.3-3-2.9-0.3 2.5-1.6-1.6-2.6 2.8 1 1-2.8 1 2.8 2.8-1-1.5 2.6 2.5 1.6z"></path></svg> 