<?xml version="1.0" encoding="UTF-8"?> <svg xmlns="http://www.w3.org/2000/svg" version="1.2" viewBox="0 0 41 31" width="41" height="31"><title>United Kingdom-svg</title><style> .s0 { fill: #012169 } .s1 { fill: #ffffff } .s2 { fill: #c8102e } </style><path id="Layer" class="s0" d="m0 0h41v31h-41z"></path><path id="Layer" class="s1" d="m4.8 0l15.6 11.7 15.6-11.7h5v4l-15.4 11.6 15.4 11.5v3.9h-5.1l-15.4-11.6-15.3 11.6h-5.2v-3.9l15.3-11.5-15.3-11.5v-4.1z"></path><path id="Layer" class="s2" d="m27.2 18.1l13.8 10.3v2.6l-17.4-12.9zm-11.7 1.3l0.3 2.3-12.3 9.3h-3.4zm25.6-19.4v0.2l-16 12.1 0.2-2.8 12.6-9.5zm-41 0l15.3 11.3h-3.8l-11.5-8.6z"></path><path id="Layer" class="s1" d="m15.4 0h10.3v31h-10.3zm-15.4 10.3h41v10.4h-41z"></path><path id="Layer" class="s2" d="m0 12.5h41v6.2h-41zm17.5-12.5h6.1v31h-6.1z"></path></svg> 